<?xml version="1.0" encoding="utf-8" ?>	<!-- Generator: Assembly 1.8 - http://assemblyapp.co -->	<svg version="1.1" xmlns="http://www.w3.org/2000/svg" xmlns:xlink="http://www.w3.org/1999/xlink" width="2048.00" height="2048.00" viewBox="0 0 2048.0 2048.0">				<g id="document" transform="matrix(1,0,0,1,1024.0,1024.0)">			<g>				<g>					<path d="M-505.228,-793.871 C-459.286,-839.813 -436.12,-891.133 -453.485,-908.498 C-470.85,-925.863 -522.17,-902.697 -568.112,-856.755 C-614.054,-810.813 -637.22,-759.493 -619.855,-742.128 C-602.49,-724.763 -551.17,-747.929 -505.228,-793.871 Z " fill="#ff9702" fill-opacity="1.00" />					<path d="M-123.676,-577.631 C-67.2028,-634.104 -69.2736,-727.558 -128.306,-786.591 C-187.338,-845.623 -280.793,-847.694 -337.266,-791.221 C-393.739,-734.748 -391.668,-641.293 -332.636,-582.261 C-273.603,-523.228 -180.149,-521.158 -123.676,-577.631 Z M-300.805,-614.091 C-341.055,-654.34 -343.011,-718.93 -303.993,-757.948 C-265.489,-796.452 -200.922,-795.546 -160.136,-754.76 C-119.35,-713.974 -117.931,-649.921 -156.949,-610.903 C-195.453,-572.399 -260.019,-573.305 -300.805,-614.091 Z M-397.894,-709.126 C-397.941,-711.226 -398.524,-713.863 -399.597,-714.936 L-406.574,-721.913 C-437.7,-753.039 -425.559,-868.219 -434.307,-907.77 C-434.913,-911.457 -436.033,-914.63 -437.666,-917.29 C-438.203,-917.827 -438.763,-919.414 -439.299,-919.95 C-457.546,-938.197 -515.16,-909.562 -568.04,-856.682 C-620.919,-803.803 -649.554,-746.189 -631.308,-727.942 C-630.771,-727.405 -629.698,-726.332 -628.648,-726.309 C-626.524,-725.212 -624.938,-724.652 -622.814,-723.556 C-585.807,-711.191 -466.334,-719.039 -437.891,-690.596 L-399.788,-652.493 C-397.105,-649.81 -393.488,-652.354 -393.557,-655.504 C-398.666,-672.934 -399.599,-691.322 -397.894,-709.126 Z M-619.616,-745 C-633.032,-758.417 -607.852,-806.137 -563.186,-850.802 C-518.521,-895.468 -471.337,-921.185 -457.384,-907.232 C-443.968,-893.816 -469.149,-846.095 -513.814,-801.43 C-558.479,-756.765 -605.663,-731.047 -619.616,-745 Z M-156.491,-471.83 L-198.887,-514.226 C-200.497,-515.836 -202.62,-516.933 -204.697,-515.929 C-222.501,-514.225 -240.889,-515.157 -258.81,-518.702 C-262.496,-519.309 -264.503,-515.155 -261.82,-512.472 L-188.298,-438.95 C-186.151,-436.803 -177.331,-441.331 -168.089,-450.572 C-159.408,-461.399 -154.344,-469.683 -156.491,-471.83 Z M-67.6352,-440.474 C-96.7791,-453.19 -132.574,-458.181 -142.561,-458.927 C-143.611,-458.95 -145.175,-458.46 -145.665,-456.897 C-146.622,-452.72 -151.219,-447.049 -158.406,-439.862 C-165.08,-433.188 -171.801,-428.614 -175.441,-427.12 C-177.005,-426.63 -176.981,-425.58 -176.958,-424.53 C-176.212,-414.543 -171.198,-377.698 -157.946,-348.017 C-154.586,-338.497 -149.15,-329.98 -141.636,-322.467 C-125.955,-325.268 -102.667,-339.97 -80.5909,-362.046 C-58.515,-384.122 -44.3262,-406.897 -41.0117,-423.092 C-48.0115,-431.118 -57.0649,-437.091 -67.6352,-440.474 Z M-31.4975,-325.274 C-16.6789,-343.313 -13.0371,-368.421 -19.8261,-390.612 C-24.7273,-374.977 -36.8858,-355.305 -54.8545,-337.337 C-72.8232,-319.368 -91.4449,-307.186 -108.129,-302.308 C-80.6652,-294.353 -50.3999,-302.079 -31.4975,-325.274 Z " fill="#ffcc1a" fill-opacity="1.00" />					<path d="M-212.135,-462.486 L-179.305,-495.029 L-439.179,-757.199 L-472.009,-724.657 L-212.135,-462.486 Z " fill="#ffcc1a" fill-opacity="1.00" />				</g>				<g>					<path d="M436.435,-793.871 C390.493,-839.813 367.327,-891.133 384.692,-908.498 C402.057,-925.863 453.377,-902.697 499.319,-856.755 C545.261,-810.813 568.427,-759.493 551.062,-742.128 C533.697,-724.763 482.377,-747.929 436.435,-793.871 Z " fill="#ff9702" fill-opacity="1.00" />					<path d="M54.8827,-577.631 C-1.59037,-634.104 0.480411,-727.558 59.5128,-786.591 C118.545,-845.623 212,-847.694 268.473,-791.221 C324.946,-734.748 322.875,-641.293 263.843,-582.261 C204.81,-523.228 111.356,-521.158 54.8827,-577.631 Z M232.012,-614.091 C272.262,-654.34 274.218,-718.93 235.2,-757.948 C196.696,-796.452 132.129,-795.546 91.3431,-754.76 C50.5571,-713.974 49.1378,-649.921 88.1555,-610.903 C126.66,-572.399 191.226,-573.305 232.012,-614.091 Z M329.101,-709.126 C329.148,-711.226 329.731,-713.863 330.804,-714.936 L337.781,-721.913 C368.907,-753.039 356.765,-868.219 365.513,-907.77 C366.12,-911.457 367.24,-914.63 368.873,-917.29 C369.41,-917.827 369.97,-919.414 370.506,-919.95 C388.753,-938.197 446.367,-909.562 499.246,-856.682 C552.126,-803.803 580.761,-746.189 562.514,-727.942 C561.978,-727.405 560.905,-726.332 559.854,-726.309 C557.731,-725.212 556.144,-724.652 554.021,-723.556 C517.013,-711.191 397.54,-719.039 369.097,-690.596 L330.995,-652.493 C328.311,-649.81 324.694,-652.354 324.764,-655.504 C329.873,-672.934 330.806,-691.322 329.101,-709.126 Z M550.823,-745 C564.239,-758.417 539.058,-806.137 494.393,-850.802 C449.728,-895.468 402.544,-921.185 388.591,-907.232 C375.175,-893.816 400.356,-846.095 445.021,-801.43 C489.686,-756.765 536.87,-731.047 550.823,-745 Z M87.6977,-471.83 L130.094,-514.226 C131.704,-515.836 133.827,-516.933 135.904,-515.929 C153.708,-514.225 172.096,-515.157 190.016,-518.702 C193.703,-519.309 195.71,-515.155 193.027,-512.472 L119.505,-438.95 C117.358,-436.803 108.537,-441.331 99.2963,-450.572 C90.6152,-461.399 85.5511,-469.683 87.6977,-471.83 Z M-1.15796,-440.474 C27.986,-453.19 63.7808,-458.181 73.7679,-458.927 C74.8179,-458.95 76.3813,-458.46 76.8715,-456.897 C77.8284,-452.72 82.4257,-447.049 89.6132,-439.862 C96.2873,-433.188 103.008,-428.614 106.648,-427.12 C108.212,-426.63 108.188,-425.58 108.165,-424.53 C107.419,-414.543 102.404,-377.698 89.1524,-348.017 C85.7928,-338.497 80.3564,-329.98 72.8432,-322.467 C57.1623,-325.268 33.8735,-339.97 11.7977,-362.046 C-10.2781,-384.122 -24.4669,-406.897 -27.7815,-423.092 C-20.7816,-431.118 -11.7283,-437.091 -1.15796,-440.474 Z M-37.2957,-325.274 C-52.1142,-343.313 -55.756,-368.421 -48.9671,-390.612 C-44.0659,-374.977 -31.9073,-355.305 -13.9387,-337.337 C4.03004,-319.368 22.6517,-307.186 39.3362,-302.308 C11.872,-294.353 -18.3933,-302.079 -37.2957,-325.274 Z " fill="#ffcc1a" fill-opacity="1.00" />					<path d="M143.342,-462.486 L110.512,-495.029 L370.386,-757.199 L403.216,-724.657 L143.342,-462.486 Z " fill="#ffcc1a" fill-opacity="1.00" />				</g>			</g>		</g>	</svg>
