<?xml version="1.0" encoding="utf-8" ?>	<!-- Generator: Assembly 1.8 - http://assemblyapp.co -->	<svg version="1.1" xmlns="http://www.w3.org/2000/svg" xmlns:xlink="http://www.w3.org/1999/xlink" width="2048.00" height="2048.00" viewBox="0 0 2048.0 2048.0">				<g id="document" transform="matrix(1,0,0,1,1024.0,1024.0)">			<path d="M-276.632,-592.502 C-262.555,-592.502 -251.16,-603.897 -251.16,-617.974 C-251.16,-632.05 -262.555,-643.446 -276.632,-643.446 C-290.708,-643.446 -302.104,-632.05 -302.104,-617.974 C-302.104,-603.897 -290.708,-592.502 -276.632,-592.502 Z " fill="#ffcc1a" fill-opacity="1.00" />			<path d="M-248.702,-605.791 C-243.235,-604.478 -237.549,-603.822 -232.082,-603.822 C-224.21,-603.822 -217.868,-610.164 -217.868,-618.037 C-217.868,-625.909 -224.21,-632.251 -232.082,-632.251 C-237.112,-632.251 -242.798,-631.595 -248.702,-630.502 C-243.891,-633.563 -239.517,-637.062 -235.581,-640.998 C-230.114,-646.465 -230.114,-655.65 -235.581,-661.117 C-241.048,-666.584 -250.233,-666.584 -255.7,-661.117 C-259.199,-657.618 -262.916,-653.245 -266.197,-647.996 C-264.885,-653.463 -264.228,-659.149 -264.228,-664.616 C-264.228,-672.489 -270.57,-678.83 -278.443,-678.83 C-286.315,-678.83 -292.657,-672.489 -292.657,-664.616 C-292.657,-659.586 -292.001,-653.901 -290.908,-647.996 C-293.969,-652.807 -297.468,-657.181 -301.404,-661.117 C-306.871,-666.584 -316.056,-666.584 -321.523,-661.117 C-326.99,-655.65 -326.99,-646.465 -321.523,-640.998 C-318.024,-637.499 -313.651,-633.782 -308.402,-630.502 C-313.869,-631.814 -319.555,-632.47 -325.022,-632.47 C-332.895,-632.47 -339.236,-626.128 -339.236,-618.255 C-339.236,-610.383 -332.895,-604.041 -325.022,-604.041 C-319.992,-604.041 -314.307,-604.697 -308.402,-605.791 C-313.213,-602.729 -317.587,-599.23 -321.523,-595.294 C-326.99,-589.827 -326.99,-580.642 -321.523,-575.175 C-316.056,-569.708 -306.871,-569.708 -301.404,-575.175 C-297.905,-578.674 -294.188,-583.048 -290.908,-588.296 C-292.22,-582.829 -292.876,-577.143 -292.876,-571.676 C-292.876,-563.804 -286.534,-557.462 -278.661,-557.462 C-270.789,-557.462 -264.447,-563.804 -264.447,-571.676 C-264.447,-576.706 -265.103,-582.392 -266.197,-588.296 C-263.135,-583.485 -259.636,-579.111 -255.7,-575.175 C-250.233,-569.708 -241.048,-569.708 -235.581,-575.175 C-230.114,-580.642 -230.114,-589.827 -235.581,-595.294 C-239.08,-598.793 -243.672,-602.51 -248.702,-605.791 Z M-278.661,-595.075 C-291.345,-595.075 -301.623,-605.353 -301.623,-618.037 C-301.623,-630.72 -291.345,-640.998 -278.661,-640.998 C-265.978,-640.998 -255.7,-630.72 -255.7,-618.037 C-255.481,-605.353 -265.978,-595.075 -278.661,-595.075 Z M-266.415,-618.255 C-266.415,-625.019 -271.898,-630.502 -278.661,-630.502 C-285.425,-630.502 -290.908,-625.019 -290.908,-618.255 C-290.908,-611.492 -285.425,-606.009 -278.661,-606.009 C-271.898,-606.009 -266.415,-611.492 -266.415,-618.255 Z M-248.702,-609.727 C-250.233,-610.383 -252.201,-609.727 -253.076,-608.196 C-253.732,-606.665 -253.076,-604.697 -251.545,-603.822 C-203.435,-582.173 -148.764,-516.131 -159.699,-464.303 C-160.136,-462.554 -159.043,-460.805 -157.293,-460.367 C-157.074,-460.367 -156.856,-460.367 -156.637,-460.367 C-155.106,-460.367 -153.794,-461.461 -153.575,-462.991 C-141.548,-517.662 -197.749,-586.765 -248.702,-609.727 Z " fill="#577cbc" fill-opacity="1.00" />			<path d="M200.865,-592.781 C186.788,-592.781 175.393,-604.177 175.393,-618.253 C175.393,-632.33 186.788,-643.725 200.865,-643.725 C214.942,-643.725 226.337,-632.33 226.337,-618.253 C226.337,-604.177 214.942,-592.781 200.865,-592.781 Z " fill="#ffcc1a" fill-opacity="1.00" />			<path d="M172.935,-606.07 C167.468,-604.758 161.783,-604.102 156.316,-604.102 C148.443,-604.102 142.101,-610.444 142.101,-618.316 C142.101,-626.189 148.443,-632.531 156.316,-632.531 C161.345,-632.531 167.031,-631.875 172.935,-630.781 C168.124,-633.843 163.751,-637.342 159.815,-641.278 C154.347,-646.745 154.347,-655.93 159.815,-661.397 C165.282,-666.864 174.466,-666.864 179.933,-661.397 C183.432,-657.898 187.15,-653.524 190.43,-648.276 C189.118,-653.743 188.462,-659.429 188.462,-664.896 C188.462,-672.768 194.804,-679.11 202.676,-679.11 C210.549,-679.11 216.89,-672.768 216.89,-664.896 C216.89,-659.866 216.234,-654.18 215.141,-648.276 C218.203,-653.087 221.701,-657.46 225.638,-661.397 C231.105,-666.864 240.289,-666.864 245.756,-661.397 C251.224,-655.93 251.224,-646.745 245.756,-641.278 C242.258,-637.779 237.884,-634.061 232.636,-630.781 C238.103,-632.093 243.788,-632.749 249.255,-632.749 C257.128,-632.749 263.47,-626.408 263.47,-618.535 C263.47,-610.663 257.128,-604.321 249.255,-604.321 C244.226,-604.321 238.54,-604.977 232.636,-606.07 C237.447,-603.009 241.82,-599.51 245.756,-595.573 C251.224,-590.106 251.224,-580.922 245.756,-575.455 C240.289,-569.988 231.105,-569.988 225.638,-575.455 C222.139,-578.954 218.421,-583.327 215.141,-588.576 C216.453,-583.109 217.109,-577.423 217.109,-571.956 C217.109,-564.083 210.767,-557.742 202.895,-557.742 C195.022,-557.742 188.681,-564.083 188.681,-571.956 C188.681,-576.986 189.337,-582.671 190.43,-588.576 C187.368,-583.765 183.87,-579.391 179.933,-575.455 C174.466,-569.988 165.282,-569.988 159.815,-575.455 C154.347,-580.922 154.347,-590.106 159.815,-595.573 C163.313,-599.072 167.906,-602.79 172.935,-606.07 Z M202.895,-595.355 C215.578,-595.355 225.856,-605.633 225.856,-618.316 C225.856,-631 215.578,-641.278 202.895,-641.278 C190.211,-641.278 179.933,-631 179.933,-618.316 C179.715,-605.633 190.211,-595.355 202.895,-595.355 Z M190.649,-618.535 C190.649,-625.298 196.131,-630.781 202.895,-630.781 C209.658,-630.781 215.141,-625.298 215.141,-618.535 C215.141,-611.772 209.658,-606.289 202.895,-606.289 C196.131,-606.289 190.649,-611.772 190.649,-618.535 Z M172.935,-610.006 C174.466,-610.663 176.434,-610.006 177.309,-608.476 C177.965,-606.945 177.309,-604.977 175.778,-604.102 C127.668,-582.453 72.9978,-516.411 83.9319,-464.583 C84.3693,-462.834 83.2759,-461.084 81.5264,-460.647 C81.3077,-460.647 81.0891,-460.647 80.8704,-460.647 C79.3396,-460.647 78.0275,-461.74 77.8088,-463.271 C65.7813,-517.941 121.983,-587.045 172.935,-610.006 Z " fill="#577cbc" fill-opacity="1.00" />			<path d="M202.919,-603.819 C211.051,-603.819 217.633,-610.401 217.633,-618.533 C217.633,-626.664 211.051,-633.247 202.919,-633.247 C194.788,-633.247 188.205,-626.664 188.205,-618.533 C188.205,-610.401 194.788,-603.819 202.919,-603.819 Z " fill="#ff7503" fill-opacity="1.00" />			<path d="M-278.796,-603.539 C-270.665,-603.539 -264.082,-610.122 -264.082,-618.253 C-264.082,-626.385 -270.665,-632.967 -278.796,-632.967 C-286.928,-632.967 -293.51,-626.385 -293.51,-618.253 C-293.51,-610.122 -286.928,-603.539 -278.796,-603.539 Z " fill="#ff7503" fill-opacity="1.00" />		</g>	</svg>
