<?xml version="1.0" encoding="utf-8" ?>	<!-- Generator: Assembly 1.8 - http://assemblyapp.co -->	<svg version="1.1" xmlns="http://www.w3.org/2000/svg" xmlns:xlink="http://www.w3.org/1999/xlink" width="2048.00" height="2048.00" viewBox="0 0 2048.0 2048.0">				<g id="document" transform="matrix(1,0,0,1,1024.0,1024.0)">			<g>				<path d="M-278.513,-349.149 C-256.714,-311.392 -219.277,-334.683 -194.222,-349.149 C-168.905,-363.766 -166.598,-405.579 -187.948,-442.557 C-191.993,-449.564 -200.562,-460.186 -200.562,-460.186 C-200.562,-460.186 -704.21,-520.285 -278.513,-925.258 C-831.173,-605.686 -282.334,-355.766 -278.513,-349.149 Z " fill="#4d4d4d" fill-opacity="1.00" />				<path d="M173.575,-344.983 C151.776,-307.227 114.338,-330.518 89.2829,-344.983 C63.9663,-359.6 61.6597,-401.413 83.0092,-438.392 C87.0543,-445.398 95.6232,-456.021 95.6232,-456.021 C95.6232,-456.021 599.272,-516.119 173.575,-921.092 C726.234,-601.52 177.395,-351.601 173.575,-344.983 Z " fill="#4d4d4d" fill-opacity="1.00" />			</g>		</g>	</svg>
