<?xml version="1.0" encoding="utf-8" ?>	<!-- Generator: Assembly 1.8 - http://assemblyapp.co -->	<svg version="1.1" xmlns="http://www.w3.org/2000/svg" xmlns:xlink="http://www.w3.org/1999/xlink" width="2048.00" height="2048.00" viewBox="0 0 2048.0 2048.0">				<g id="document" transform="matrix(1,0,0,1,1024.0,1024.0)">			<g>				<path d="M-183.124,-430.816 C-196.515,-436.937 -210.44,-445.58 -218.227,-457.367 C-223.265,-464.499 -224.443,-472.221 -221.224,-482.193 C-216.984,-501.012 -220.518,-524.177 -232.846,-542.839 C-256.377,-577.964 -300.717,-594.113 -326.185,-600.499 C-325.426,-636.96 -348.957,-672.086 -383.861,-683.353 C-405.468,-690.328 -428.095,-688.456 -447.883,-678.327 C-467.671,-668.197 -482.42,-650.935 -488.858,-630.99 C-498.516,-601.072 -489.355,-566.915 -465.392,-544.497 C-457.029,-536.292 -445.931,-530.874 -434.296,-527.118 C-412.689,-520.143 -390.062,-522.015 -370.274,-532.144 C-359.818,-536.11 -351.612,-544.473 -345.069,-553.372 C-341.744,-552.299 -336.758,-550.689 -330.11,-548.543 C-315.151,-543.714 -287.433,-532.931 -276.766,-514.805 C-271.191,-509.335 -270.013,-501.614 -271.57,-491.105 C-277.42,-467.299 -275.012,-446.334 -261.558,-425.473 C-256.519,-418.34 -250.944,-412.87 -245.905,-405.738 C-242.993,-403.321 -240.08,-400.903 -237.025,-398.559 L-183.124,-430.816 L-183.124,-430.816 Z " fill="#4d4d4d" fill-opacity="1.00" />				<path d="M121.516,-430.816 C134.907,-436.937 148.832,-445.58 156.618,-457.367 C161.657,-464.499 162.835,-472.221 159.616,-482.193 C155.376,-501.012 158.91,-524.177 171.238,-542.839 C194.769,-577.964 239.109,-594.113 264.576,-600.499 C263.818,-636.96 287.349,-672.085 322.253,-683.353 C343.86,-690.328 366.487,-688.456 386.275,-678.327 C406.062,-668.197 420.811,-650.935 427.25,-630.99 C436.908,-601.072 427.746,-566.915 403.783,-544.497 C395.42,-536.292 384.323,-530.874 372.688,-527.118 C351.081,-520.143 328.453,-522.015 308.666,-532.144 C298.209,-536.11 290.004,-544.473 283.46,-553.372 C280.136,-552.299 275.15,-550.689 268.502,-548.543 C253.543,-543.714 225.824,-532.931 215.158,-514.805 C209.583,-509.335 208.405,-501.614 209.962,-491.105 C215.812,-467.299 213.403,-446.334 199.949,-425.473 C194.911,-418.34 189.335,-412.87 184.297,-405.738 C181.384,-403.321 178.472,-400.903 175.417,-398.559 L121.516,-430.816 L121.516,-430.816 Z " fill="#4d4d4d" fill-opacity="1.00" />			</g>		</g>	</svg>
