<?xml version="1.0" encoding="utf-8" ?>	<!-- Generator: Assembly 1.8 - http://assemblyapp.co -->	<svg version="1.1" xmlns="http://www.w3.org/2000/svg" xmlns:xlink="http://www.w3.org/1999/xlink" width="2048.00" height="2048.00" viewBox="0 0 2048.0 2048.0">				<g id="document" transform="matrix(1,0,0,1,1024.0,1024.0)">			<g>				<path d="M-6.24278,-444.589 C-27.2044,-450.206 -36.1043,-440.721 -37.6939,-434.789 C-38.888,-428.75 -40.3641,-429.57 -32.3092,-427.2 C-24.0037,-424.974 -26.8345,-439.721 -12.7024,-435.511 C48.2051,-419.191 92.847,-442.624 122.891,-478.024 C139.331,-495.873 165.502,-489.921 172.496,-516.024 C174.587,-522.246 170.901,-527.473 174.452,-552.591 C155.603,-527.333 188.189,-516.058 134.19,-497.251 C134.19,-497.251 145.992,-508.077 154.576,-540.113 C172.168,-605.766 135.843,-666.368 93.6064,-691.462 C84.1711,-697.381 75.7804,-694.542 61.9066,-705.254 C65.4017,-694.568 77.4892,-689.846 86.6245,-686.762 C96.8404,-682.965 113.62,-664.904 119.217,-658.106 C108.845,-664.488 102.295,-667.727 86.1958,-670.133 C72.971,-672.193 53.0871,-685.787 50.1842,-684.445 C58.1463,-670.654 84.327,-662.367 93.4236,-659.93 C146.276,-645.98 149.576,-582.359 147.713,-557.212 C132.552,-582.894 104.435,-582.373 90.3975,-621.742 C86.2153,-609.298 100.643,-587.205 120.816,-573.109 C132.49,-564.471 145.332,-551.492 139.292,-528.948 C130.602,-496.517 89.5922,-455.79 65.702,-449.686 C72.1617,-458.764 75.6201,-472.462 59.3809,-490.166 C66.0608,-473.964 63.6753,-453.196 48.0132,-446.16 C31.348,-438.544 6.41332,-441.198 -6.24278,-444.589 Z " fill="#4d4d4d" fill-opacity="1.00" />				<path d="M-65.1088,-444.589 C-44.1472,-450.206 -35.2473,-440.721 -33.6577,-434.789 C-32.4636,-428.75 -30.9876,-429.57 -39.0424,-427.2 C-47.3479,-424.974 -44.5171,-439.721 -58.6492,-435.511 C-119.557,-419.191 -164.199,-442.624 -194.243,-478.024 C-210.683,-495.873 -236.853,-489.921 -243.848,-516.024 C-245.939,-522.246 -242.252,-527.473 -245.804,-552.591 C-226.955,-527.333 -259.541,-516.058 -205.541,-497.251 C-205.541,-497.251 -217.344,-508.077 -225.928,-540.113 C-243.52,-605.766 -207.194,-666.368 -164.958,-691.462 C-155.523,-697.381 -147.132,-694.542 -133.258,-705.254 C-136.753,-694.568 -148.841,-689.846 -157.976,-686.762 C-168.192,-682.965 -184.972,-664.904 -190.568,-658.106 C-180.197,-664.488 -173.647,-667.727 -157.547,-670.133 C-144.323,-672.193 -124.439,-685.787 -121.536,-684.445 C-129.498,-670.654 -155.679,-662.367 -164.775,-659.93 C-217.628,-645.98 -220.928,-582.359 -219.065,-557.212 C-203.903,-582.894 -175.786,-582.373 -161.749,-621.742 C-157.567,-609.298 -171.994,-587.205 -192.168,-573.109 C-203.842,-564.471 -216.684,-551.492 -210.643,-528.948 C-201.953,-496.517 -160.944,-455.79 -137.054,-449.686 C-143.513,-458.764 -146.972,-472.462 -130.732,-490.166 C-137.412,-473.964 -135.027,-453.196 -119.365,-446.16 C-102.7,-438.544 -77.7649,-441.198 -65.1088,-444.589 Z " fill="#4d4d4d" fill-opacity="1.00" />			</g>		</g>	</svg>
