<?xml version="1.0" encoding="utf-8" ?>	<!-- Generator: Assembly 1.8 - http://assemblyapp.co -->	<svg version="1.1" xmlns="http://www.w3.org/2000/svg" xmlns:xlink="http://www.w3.org/1999/xlink" width="2048.00" height="2048.00" viewBox="0 0 2048.0 2048.0">				<g id="document" transform="matrix(1,0,0,1,1024.0,1024.0)">			<g>				<path d="M-147.621,-402.919 C-137.111,-384.715 -119.062,-395.944 -106.982,-402.919 C-94.7758,-409.966 -93.6637,-430.125 -103.957,-447.953 C-105.907,-451.331 -110.038,-456.453 -110.038,-456.453 C-110.038,-456.453 -659.696,-471.045 -147.621,-680.676 C-723.796,-491.112 -149.463,-406.109 -147.621,-402.919 Z " fill="#4d4d4d" fill-opacity="1.00" />				<path d="M70.3431,-400.91 C59.8333,-382.707 41.7838,-393.936 29.7038,-400.91 C17.498,-407.957 16.3859,-428.117 26.679,-445.945 C28.6293,-449.323 32.7606,-454.444 32.7606,-454.444 C32.7606,-454.444 582.419,-469.037 70.3431,-678.668 C646.518,-489.103 72.1851,-404.101 70.3431,-400.91 Z " fill="#4d4d4d" fill-opacity="1.00" />			</g>		</g>	</svg>
