<?xml version="1.0" encoding="utf-8" ?>	<!-- Generator: Assembly 1.8 - http://assemblyapp.co -->	<svg version="1.1" xmlns="http://www.w3.org/2000/svg" xmlns:xlink="http://www.w3.org/1999/xlink" width="2048.00" height="2048.00" viewBox="0 0 2048.0 2048.0">				<g id="document" transform="matrix(1,0,0,1,1024.0,1024.0)">			<g>				<path d="M-383.508,-862.631 C-383.244,-863.615 -383.965,-864.863 -385.141,-868.341 C-386.485,-869.229 -388.357,-868.148 -388.884,-866.181 C-388.884,-866.181 -395.616,-833.187 -396.2,-783.783 C-396.411,-771.186 -395.903,-757.342 -394.411,-743.234 C-393.543,-728.766 -392.05,-714.658 -388.231,-699.399 C-385.131,-685.388 -381.311,-670.129 -376.147,-653.983 C-370.359,-638.197 -364.308,-623.394 -357.273,-608.328 C-349.614,-593.623 -341.692,-579.901 -331.538,-566.635 C-329.378,-562.893 -326.33,-560.494 -324.169,-556.752 C-322.008,-553.01 -318.96,-550.611 -316.176,-547.229 C-313.392,-543.847 -311.591,-540.728 -308.183,-537.706 C-304.775,-534.684 -302.351,-531.925 -298.943,-528.903 C-296.255,-527.129 -293.47,-523.746 -290.422,-521.348 C-287.014,-518.326 -284.95,-516.191 -281.902,-513.793 C-278.23,-511.754 -275.542,-509.98 -273.118,-507.221 C-270.694,-504.462 -268.006,-502.688 -264.334,-500.649 C-253.486,-491.943 -241.751,-484.581 -231.359,-478.106 C-221.064,-473.238 -211.297,-466.403 -202.346,-462.423 C-192.771,-458.803 -185.428,-454.726 -178.804,-451.897 C-165.918,-446.863 -157.687,-444.13 -157.687,-444.13 C-155.623,-441.995 -153.752,-443.076 -153.225,-445.043 C-151.09,-447.107 -152.17,-448.979 -154.138,-449.506 C-154.138,-449.506 -162.369,-452.238 -175.255,-457.273 C-182.502,-459.742 -189.845,-463.819 -198.796,-467.799 C-207.484,-472.763 -217.155,-477.99 -227.81,-483.482 C-238.825,-489.596 -249.937,-497.319 -260.161,-506.385 C-263.833,-508.424 -265.897,-510.558 -268.945,-512.957 C-271.993,-515.355 -274.057,-517.49 -277.105,-519.889 C-280.153,-522.287 -282.217,-524.422 -285.265,-526.82 C-287.953,-528.595 -290.738,-531.977 -293.786,-534.375 C-296.474,-536.15 -299.258,-539.532 -302.306,-541.931 C-304.467,-545.673 -306.891,-548.432 -310.299,-551.454 C-313.083,-554.836 -314.884,-557.955 -318.292,-560.977 C-320.453,-564.719 -322.253,-567.838 -325.661,-570.86 C-335.455,-583.502 -344.265,-595.88 -351.3,-610.946 C-357.974,-625.388 -365.633,-640.094 -370.077,-654.992 C-374.881,-670.515 -378.701,-685.774 -382.16,-700.409 C-387.472,-729.776 -390.457,-757.992 -390.297,-782.202 C-390.136,-806.412 -388.703,-825.535 -387.34,-840.46 C-385.617,-854.761 -383.508,-862.631 -383.508,-862.631 Z M-453.582,-750.653 C-453.942,-751.277 -455.647,-752.788 -456.894,-752.068 C-458.862,-752.595 -460.013,-750.267 -458.932,-748.396 C-458.932,-748.396 -456.772,-744.654 -454.778,-738.32 C-452.161,-732.346 -446.759,-722.991 -441.885,-711.667 C-437.371,-700.967 -430.168,-688.493 -421.359,-676.115 C-413.796,-663.016 -404.987,-650.638 -394.833,-637.373 C-389.984,-631.856 -385.039,-624.731 -379.831,-618.591 C-375.87,-611.73 -370.397,-606.573 -365.189,-600.432 C-361.324,-595.178 -355.492,-589.398 -351.003,-584.504 C-347.138,-579.251 -342.65,-574.358 -337.898,-570.448 C-330.265,-561.549 -322.105,-554.617 -316.993,-550.084 C-312.241,-546.175 -308.833,-543.152 -308.833,-543.152 C-307.489,-542.265 -307.489,-542.265 -306.241,-542.985 C-305.354,-544.329 -305.354,-544.329 -306.074,-545.577 C-306.074,-545.577 -308.762,-547.351 -314.594,-553.132 C-320.067,-558.289 -326.259,-564.693 -334.252,-574.216 C-338.38,-578.486 -342.245,-583.739 -346.734,-588.633 C-351.222,-593.526 -355.087,-598.779 -360.295,-604.92 C-369.729,-616.938 -379.162,-628.956 -388.692,-642.582 C-398.846,-655.847 -406.408,-668.945 -415.218,-681.323 C-423.668,-693.078 -430.87,-705.552 -436.631,-715.532 C-442.393,-725.511 -446.187,-734.964 -449.428,-740.577 C-451.422,-746.911 -453.582,-750.653 -453.582,-750.653 Z M-297.025,-760.373 C-295.154,-761.453 -295.611,-763.685 -296.955,-764.572 C-298.035,-766.443 -300.003,-766.97 -301.874,-765.89 C-301.874,-765.89 -308.015,-760.681 -318.161,-752.328 C-322.431,-748.2 -327.588,-742.728 -333.368,-736.895 C-338.525,-731.423 -344.57,-724.607 -349.63,-717.527 C-355.314,-710.087 -360.015,-702.384 -363.468,-695.4 C-363.538,-691.201 -364.953,-687.89 -366.991,-684.218 C-368.309,-679.299 -369.1,-676.347 -369.891,-673.396 C-370.682,-670.444 -370.849,-667.853 -371.64,-664.901 C-372.167,-662.934 -371.71,-660.702 -371.877,-658.111 C-371.948,-653.912 -372.115,-651.321 -372.115,-651.321 C-371.755,-650.697 -371.755,-650.697 -369.787,-650.17 C-368.443,-649.282 -368.443,-649.282 -367.916,-651.25 C-367.916,-651.25 -367.029,-652.594 -366.958,-656.793 C-367.415,-659.024 -366.888,-660.992 -366.097,-663.943 C-365.57,-665.911 -364.779,-668.863 -363.988,-671.814 C-363.197,-674.766 -362.406,-677.717 -360.368,-681.389 C-359.577,-684.34 -358.162,-687.652 -356.124,-691.324 C-353.726,-694.372 -352.311,-697.683 -350.273,-701.355 C-348.858,-704.667 -346.46,-707.715 -343.798,-711.746 C-338.377,-718.203 -333.941,-724.922 -328.16,-730.755 C-322.379,-736.587 -317.486,-741.075 -312.953,-746.188 C-303.166,-755.164 -297.025,-760.373 -297.025,-760.373 Z M-472.522,-851.158 C-474.129,-851.061 -474.753,-850.701 -476.001,-849.981 C-477.775,-847.293 -477.415,-846.669 -475.447,-846.142 C-475.447,-846.142 -468.464,-842.689 -458.433,-836.838 C-453.681,-832.928 -447.321,-829.115 -442.209,-824.582 C-437.097,-820.049 -431.001,-815.252 -425.792,-809.111 C-423.008,-805.729 -421.207,-802.611 -417.799,-799.588 C-415.111,-797.814 -414.198,-793.351 -411.15,-790.953 C-408.102,-788.554 -407.909,-785.339 -406.109,-782.221 C-405.028,-780.349 -404.115,-775.887 -403.035,-774.016 C-401.954,-772.144 -400.154,-769.026 -400.321,-766.434 C-399.241,-764.563 -398.52,-763.316 -398.688,-760.724 C-396.887,-757.606 -397.054,-755.014 -397.054,-755.014 L-396.334,-753.767 C-395.614,-752.519 -393.91,-751.008 -392.662,-751.729 C-391.415,-752.449 -389.544,-753.529 -390.624,-755.4 C-390.624,-755.4 -391.704,-757.271 -392.257,-761.11 C-393.338,-762.982 -394.418,-764.853 -394.251,-767.444 C-395.331,-769.315 -396.411,-771.186 -396.965,-775.025 C-397.518,-778.864 -398.958,-781.359 -400.759,-784.478 C-402.199,-786.973 -402.752,-790.811 -406.16,-793.834 C-408.321,-797.576 -410.121,-800.695 -413.53,-803.717 C-416.314,-807.099 -418.114,-810.218 -421.523,-813.24 C-426.107,-819.741 -433.547,-825.425 -438.66,-829.958 C-444.395,-834.131 -449.508,-838.664 -455.507,-841.854 C-464.291,-848.425 -472.522,-851.158 -472.522,-851.158 Z M-256.331,-609.224 C-256.164,-611.816 -258.132,-612.343 -260.073,-607.064 C-262.305,-606.607 -262.568,-605.623 -263.096,-603.656 C-263.096,-603.656 -261.269,-594.731 -259.057,-579.375 C-257.327,-572.058 -256.484,-563.396 -254.034,-554.831 C-251.224,-545.642 -248.774,-537.077 -245.604,-527.265 C-243.443,-523.522 -241.186,-518.172 -240.273,-513.71 C-238.015,-508.36 -235.855,-504.618 -234.942,-500.155 C-232.781,-496.413 -231.868,-491.95 -229.707,-488.208 C-226.299,-485.186 -224.138,-481.443 -222.338,-478.325 C-220.537,-475.206 -219.097,-472.711 -216.049,-470.313 C-213.625,-467.554 -212.544,-465.683 -210.216,-464.532 C-207.432,-461.15 -205.104,-459.999 -205.104,-459.999 C-205.104,-459.999 -203.76,-459.111 -202.513,-459.832 C-201.889,-460.192 -201.002,-461.536 -201.722,-462.783 L-202.442,-464.031 C-202.442,-464.031 -203.523,-465.902 -206.931,-468.924 C-208.011,-470.795 -210.339,-471.946 -212.139,-475.065 C-213.94,-478.183 -215.38,-480.678 -218.428,-483.077 C-220.589,-486.819 -222.39,-489.938 -224.55,-493.68 C-226.711,-497.422 -227.624,-501.885 -229.785,-505.627 C-232.042,-510.977 -234.202,-514.72 -235.116,-519.182 C-236.749,-524.892 -238.286,-528.995 -239.199,-533.457 C-243.617,-542.549 -246.067,-551.115 -247.27,-560.4 C-249.72,-568.965 -250.923,-578.25 -252.292,-584.944 C-255.752,-599.579 -256.331,-609.224 -256.331,-609.224 Z M-272.301,-504.366 C-271.678,-504.726 -271.678,-504.726 -272.565,-503.382 C-271.678,-504.726 -271.511,-507.317 -273.478,-507.845 C-273.478,-507.845 -277.941,-506.932 -285.091,-507.793 C-292.242,-508.655 -301.72,-510.667 -311.822,-512.319 C-317.365,-513.277 -321.3,-514.332 -326.219,-515.65 C-330.155,-516.704 -334.354,-516.775 -338.025,-518.813 C-340.977,-519.604 -343.928,-520.395 -346.256,-521.546 C-347.24,-521.81 -349.208,-522.337 -349.208,-522.337 C-350.648,-524.832 -352.519,-523.751 -353.047,-521.784 C-355.181,-519.72 -354.101,-517.848 -352.133,-517.321 C-352.133,-517.321 -350.789,-516.434 -348.462,-515.283 C-346.134,-514.132 -343.182,-513.341 -339.511,-511.303 C-336.559,-510.512 -332.624,-509.457 -327.705,-508.139 C-322.162,-507.181 -317.603,-506.487 -312.06,-505.529 C-301.958,-503.877 -292.312,-504.456 -284.538,-503.954 C-277.124,-504.077 -272.301,-504.366 -272.301,-504.366 Z M-450.123,-736.018 C-450.123,-736.018 -449.339,-760.588 -448.407,-771.938 C-446.877,-789.454 -458.831,-805.838 -477.928,-801.465 C-494.435,-796.924 -499.585,-769.834 -477.722,-755.012 C-455.235,-740.551 -455.235,-740.551 -450.123,-736.018 Z M-307.629,-754.251 C-307.629,-754.251 -282.917,-761.865 -272.121,-764.772 C-254.894,-768.065 -243.095,-786.52 -254.066,-802.64 C-264.579,-816.529 -290.204,-813.378 -297.682,-787.438 C-304.176,-761.235 -304.079,-759.627 -307.629,-754.251 Z M-367.4,-836.171 C-367.4,-836.171 -342.328,-843.161 -331.172,-845.444 C-313.945,-848.737 -301.786,-866.569 -312.756,-882.689 C-322.647,-896.938 -349.255,-894.05 -357.093,-868.734 C-363.947,-843.155 -364.571,-842.794 -367.4,-836.171 Z M-334.456,-760.385 C-334.456,-760.385 -321.409,-779.56 -315.461,-787.984 C-305.244,-800.536 -307.026,-819.467 -324.111,-824.572 C-339.589,-829.774 -355.587,-811.389 -346.198,-789.366 C-336.353,-765.111 -335.993,-764.488 -334.456,-760.385 Z M-439.631,-867.652 C-439.631,-867.652 -437.767,-890.351 -434.507,-900.549 C-431.897,-916.194 -442.147,-931.067 -458.486,-929.118 C-474.465,-926.546 -480.169,-903.294 -461.784,-887.296 C-442.776,-871.658 -442.416,-871.034 -439.631,-867.652 Z M-476.486,-718.302 C-476.486,-718.302 -494.414,-732.069 -502.214,-738.377 C-512.895,-749.675 -531.562,-748.877 -538.635,-732.319 C-544.197,-717.465 -527.323,-699.763 -504.58,-707.904 C-481.212,-716.405 -480.589,-716.765 -476.486,-718.302 Z M-432.991,-660.251 C-432.991,-660.251 -450.128,-676.969 -459.799,-682.197 C-473.862,-690.71 -489.41,-691.713 -495.86,-675.515 C-501.421,-660.661 -484.548,-642.959 -461.804,-651.1 C-439.684,-658.881 -438.437,-659.601 -432.991,-660.251 Z M-282.405,-586.686 C-282.405,-586.686 -288.939,-609.526 -290.765,-618.451 C-293.338,-634.43 -309.729,-644.095 -323.978,-634.204 C-336.356,-625.395 -333.925,-601.018 -311.297,-594.954 C-288.308,-588.268 -287.061,-588.988 -282.405,-586.686 Z M-225.781,-589.439 C-225.781,-589.439 -202.94,-595.973 -194.015,-597.799 C-178.036,-600.372 -168.372,-616.763 -178.262,-631.012 C-187.072,-643.39 -211.449,-640.959 -217.512,-618.331 C-222.855,-594.455 -223.479,-594.095 -225.781,-589.439 Z M-296.246,-725.894 C-296.246,-725.894 -272.634,-719.567 -260.732,-714.796 C-244.174,-707.723 -225.005,-716.295 -225.9,-736.57 C-226.601,-753.629 -251.126,-764.419 -271.06,-747.089 C-290.993,-729.759 -291.617,-729.399 -296.246,-725.894 Z M-257.79,-595.907 C-257.79,-595.907 -243.953,-618.034 -236.758,-627.178 C-225.653,-641.074 -227.891,-662.236 -245.6,-666.981 C-262.326,-671.463 -280.819,-651.638 -269.006,-626.856 C-260.504,-603.489 -259.784,-602.241 -257.79,-595.907 Z M-386.17,-858.6 C-386.17,-858.6 -372.333,-880.726 -364.417,-888.623 C-353.936,-902.159 -356.174,-923.321 -373.883,-928.066 C-390.969,-933.171 -409.102,-912.722 -398.009,-889.188 C-388.787,-864.573 -388.067,-863.326 -386.17,-858.6 Z M-464.458,-845.834 C-464.458,-845.834 -478.309,-866.944 -482.824,-877.644 C-490.219,-893.333 -510.976,-900.477 -522.704,-886.221 C-534.169,-872.948 -523.7,-849.054 -496.179,-847.479 C-472.232,-846.335 -470.888,-845.448 -464.458,-845.834 Z M-340.16,-516.749 C-340.16,-516.749 -358.905,-533.371 -366.898,-542.894 C-379.283,-555.703 -399.654,-556.416 -408.598,-538.778 C-416.031,-522.843 -398.965,-501.926 -372.646,-509.636 C-346.854,-515.379 -345.607,-516.1 -340.16,-516.749 Z M-332.572,-497.844 C-332.572,-497.844 -355.245,-493.902 -364.89,-493.323 C-380.606,-491.734 -392.238,-475.871 -384.315,-462.149 C-378.001,-448.33 -352.543,-448.89 -343.265,-471.712 C-335.401,-491.221 -334.514,-492.565 -332.572,-497.844 Z M-215.634,-597.792 C-215.37,-598.776 -214.123,-599.496 -214.123,-599.496 C-214.123,-599.496 -215.467,-600.384 -216.714,-599.664 C-216.714,-599.664 -219.209,-598.223 -223.119,-593.471 C-226.764,-589.703 -232.185,-583.247 -235.998,-576.887 C-239.451,-569.904 -244.511,-562.824 -246.093,-556.921 C-247.604,-555.217 -248.395,-552.265 -248.922,-550.298 C-249.186,-549.314 -249.713,-547.346 -249.713,-547.346 C-250.6,-546.002 -249.52,-544.131 -247.552,-543.604 C-246.208,-542.717 -244.337,-543.797 -243.81,-545.765 C-243.81,-545.765 -243.546,-546.748 -243.019,-548.716 C-243.379,-549.34 -242.228,-551.668 -241.437,-554.619 C-240.479,-560.162 -237.027,-567.145 -233.214,-573.505 C-229.761,-580.488 -225.227,-585.6 -221.318,-590.352 C-218.032,-594.744 -215.634,-597.792 -215.634,-597.792 Z M-284.399,-593.02 C-285.119,-594.267 -287.35,-593.81 -289.054,-595.322 C-289.678,-594.961 -290.205,-592.994 -289.125,-591.123 C-289.125,-591.123 -280.052,-579.728 -270.618,-567.71 C-266.753,-562.457 -261.281,-557.3 -257.153,-553.03 C-255.449,-551.519 -254.369,-549.648 -252.041,-548.497 C-250.96,-546.626 -248.993,-546.099 -248.993,-546.099 C-248.273,-544.851 -246.929,-543.964 -246.401,-545.932 C-245.154,-546.652 -244.267,-547.996 -246.234,-548.523 C-246.234,-548.523 -246.594,-549.147 -248.562,-549.674 C-250.266,-551.185 -250.626,-551.809 -253.674,-554.207 C-257.082,-557.229 -261.307,-563.107 -266.516,-569.247 C-275.589,-580.642 -284.399,-593.02 -284.399,-593.02 Z M-299.463,-505.317 C-299.463,-505.317 -299.103,-504.693 -299.463,-505.317 C-297.232,-505.774 -296.344,-507.118 -297.618,-512.204 C-298.338,-513.451 -298.698,-514.075 -301.289,-514.242 C-301.289,-514.242 -304.768,-513.065 -309.231,-512.152 C-313.693,-511.239 -319.043,-508.982 -325.377,-506.988 C-331.087,-505.355 -337.421,-503.361 -340.443,-499.953 C-342.314,-498.873 -343.465,-496.545 -344.712,-495.825 C-344.616,-494.217 -345.863,-493.497 -345.863,-493.497 C-347.111,-492.777 -347.111,-492.777 -346.391,-491.529 C-346.391,-491.529 -345.67,-490.282 -344.423,-491.002 C-344.423,-491.002 -343.799,-491.362 -342.552,-492.083 C-341.304,-492.803 -339.433,-493.883 -337.562,-494.963 C-333.82,-497.124 -327.846,-499.741 -322.136,-501.375 C-317.41,-503.272 -311.7,-504.905 -306.877,-505.195 C-303.302,-504.764 -299.463,-505.317 -299.463,-505.317 Z M-421.217,-684.513 C-420.594,-684.873 -420.594,-684.873 -421.217,-684.513 C-419.346,-685.593 -419.803,-687.824 -422.131,-688.975 C-451.389,-719.486 -495.372,-726.526 -497.963,-726.693 C-499.211,-725.973 -499.835,-725.613 -500.362,-723.645 C-499.642,-722.398 -499.282,-721.774 -497.314,-721.247 C-496.69,-721.607 -452.347,-713.943 -424.169,-685.303 C-423.809,-684.68 -422.465,-683.792 -421.217,-684.513 Z M-442.204,-883.631 C-443.284,-885.502 -445.252,-886.03 -448.827,-886.46 C-450.075,-885.74 -451.226,-883.412 -450.145,-881.541 C-450.145,-881.541 -448.608,-877.439 -447.335,-872.352 C-444.094,-866.739 -442.364,-859.421 -440.274,-851.48 C-438.184,-843.539 -436.454,-836.221 -435.444,-830.151 C-434.171,-825.065 -434.242,-820.866 -434.242,-820.866 C-433.522,-819.618 -433.161,-818.995 -431.194,-818.467 C-429.586,-818.564 -429.323,-819.548 -428.795,-821.515 C-428.795,-821.515 -428.725,-825.714 -429.374,-831.161 C-430.024,-836.607 -431.49,-844.908 -433.22,-852.226 C-434.95,-859.544 -437.04,-867.485 -439.034,-873.819 C-441.291,-879.169 -442.204,-883.631 -442.204,-883.631 Z M-281.971,-729.978 C-281.348,-730.338 -280.82,-732.305 -281.804,-732.569 C-282.524,-733.816 -283.605,-735.688 -285.476,-734.607 C-302.246,-729.083 -327.774,-724.324 -338.667,-723.025 C-329.221,-748.438 -331.775,-780.229 -331.248,-782.197 C-331.344,-783.804 -332.328,-784.068 -334.296,-784.595 C-335.903,-784.498 -336.167,-783.515 -336.694,-781.547 C-336.694,-781.547 -334.835,-745.197 -345.264,-720.048 C-345.264,-720.048 -346.151,-718.704 -345.431,-717.456 C-345.071,-716.833 -344.447,-717.193 -342.48,-716.666 C-340.512,-716.138 -304.715,-721.836 -281.971,-729.978 C-283.219,-729.257 -283.219,-729.257 -281.971,-729.978 Z M-389.943,-803.196 C-388.696,-803.917 -389.416,-805.164 -389.943,-803.196 C-380.208,-823.786 -352.983,-848.653 -350.392,-848.486 C-349.768,-848.846 -349.601,-851.437 -350.321,-852.685 C-350.681,-853.308 -353.009,-854.459 -354.88,-853.379 C-356.752,-852.299 -384.073,-829.04 -393.088,-807.202 C-395.583,-805.762 -394.502,-803.891 -392.535,-803.364 C-392.535,-803.364 -391.191,-802.476 -389.943,-803.196 Z M-383.985,-628.667 C-383.985,-628.667 -384.345,-629.29 -383.985,-628.667 C-382.114,-629.747 -382.57,-631.978 -384.635,-634.113 C-386.242,-634.017 -415.764,-663.544 -452.404,-666.507 C-454.011,-666.411 -454.275,-665.427 -454.802,-663.459 C-454.706,-661.852 -453.722,-661.588 -451.754,-661.061 C-417.706,-658.264 -387.657,-630.705 -386.936,-629.457 C-386.576,-628.834 -385.232,-627.946 -383.985,-628.667 Z " fill="#4d4d4d" fill-opacity="1.00" />				<path d="M313.965,-862.631 C313.701,-863.615 314.422,-864.863 315.598,-868.341 C316.942,-869.229 318.813,-868.148 319.341,-866.181 C319.341,-866.181 326.072,-833.187 326.656,-783.783 C326.868,-771.186 326.36,-757.342 324.868,-743.234 C323.999,-728.766 322.507,-714.658 318.687,-699.399 C315.588,-685.388 311.768,-670.129 306.604,-653.983 C300.816,-638.197 294.765,-623.394 287.73,-608.328 C280.071,-593.623 272.149,-579.901 261.995,-566.635 C259.835,-562.893 256.787,-560.494 254.626,-556.752 C252.465,-553.01 249.417,-550.611 246.633,-547.229 C243.849,-543.847 242.048,-540.728 238.64,-537.706 C235.232,-534.684 232.808,-531.925 229.399,-528.903 C226.712,-527.129 223.927,-523.746 220.879,-521.348 C217.471,-518.326 215.407,-516.191 212.359,-513.793 C208.687,-511.754 205.999,-509.98 203.575,-507.221 C201.151,-504.462 198.463,-502.688 194.791,-500.649 C183.943,-491.943 172.208,-484.581 161.816,-478.106 C151.521,-473.238 141.754,-466.403 132.803,-462.423 C123.228,-458.803 115.884,-454.726 109.261,-451.897 C96.3749,-446.863 88.1441,-444.13 88.1441,-444.13 C86.08,-441.995 84.2088,-443.076 83.6816,-445.043 C81.5468,-447.107 82.6271,-448.979 84.5948,-449.506 C84.5948,-449.506 92.8256,-452.238 105.712,-457.273 C112.959,-459.742 120.302,-463.819 129.253,-467.799 C137.941,-472.763 147.612,-477.99 158.267,-483.482 C169.282,-489.596 180.394,-497.319 190.618,-506.385 C194.29,-508.424 196.354,-510.558 199.402,-512.957 C202.45,-515.355 204.514,-517.49 207.562,-519.889 C210.61,-522.287 212.674,-524.422 215.722,-526.82 C218.41,-528.595 221.195,-531.977 224.243,-534.375 C226.93,-536.15 229.715,-539.532 232.763,-541.931 C234.923,-545.673 237.348,-548.432 240.756,-551.454 C243.54,-554.836 245.341,-557.955 248.749,-560.977 C250.909,-564.719 252.71,-567.838 256.118,-570.86 C265.912,-583.502 274.721,-595.88 281.756,-610.946 C288.431,-625.388 296.09,-640.094 300.534,-654.992 C305.338,-670.515 309.157,-685.774 312.617,-700.409 C317.929,-729.776 320.914,-757.992 320.753,-782.202 C320.593,-806.412 319.16,-825.535 317.797,-840.46 C316.074,-854.761 313.965,-862.631 313.965,-862.631 Z M384.039,-750.653 C384.399,-751.277 386.103,-752.788 387.351,-752.068 C389.319,-752.595 390.469,-750.267 389.389,-748.396 C389.389,-748.396 387.229,-744.654 385.235,-738.32 C382.618,-732.346 377.216,-722.991 372.342,-711.667 C367.827,-700.967 360.625,-688.493 351.816,-676.115 C344.253,-663.016 335.444,-650.638 325.29,-637.373 C320.441,-631.856 315.496,-624.731 310.288,-618.591 C306.326,-611.73 300.854,-606.573 295.646,-600.432 C291.781,-595.178 285.948,-589.398 281.46,-584.504 C277.595,-579.251 273.107,-574.358 268.355,-570.448 C260.722,-561.549 252.562,-554.617 247.45,-550.084 C242.698,-546.175 239.289,-543.152 239.289,-543.152 C237.946,-542.265 237.946,-542.265 236.698,-542.985 C235.811,-544.329 235.811,-544.329 236.531,-545.577 C236.531,-545.577 239.219,-547.351 245.051,-553.132 C250.524,-558.289 256.716,-564.693 264.709,-574.216 C268.837,-578.486 272.702,-583.739 277.19,-588.633 C281.679,-593.526 285.544,-598.779 290.752,-604.92 C300.186,-616.938 309.619,-628.956 319.149,-642.582 C329.303,-655.847 336.865,-668.945 345.675,-681.323 C354.124,-693.078 361.327,-705.552 367.088,-715.532 C372.85,-725.511 376.644,-734.964 379.885,-740.577 C381.879,-746.911 384.039,-750.653 384.039,-750.653 Z M227.482,-760.373 C225.611,-761.453 226.068,-763.685 227.411,-764.572 C228.492,-766.443 230.459,-766.97 232.331,-765.89 C232.331,-765.89 238.471,-760.681 248.618,-752.328 C252.888,-748.2 258.045,-742.728 263.825,-736.895 C268.982,-731.423 275.027,-724.607 280.087,-717.527 C285.771,-710.087 290.472,-702.384 293.924,-695.4 C293.995,-691.201 295.41,-687.89 297.448,-684.218 C298.766,-679.299 299.557,-676.347 300.348,-673.396 C301.139,-670.444 301.306,-667.853 302.097,-664.901 C302.624,-662.934 302.167,-660.702 302.334,-658.111 C302.405,-653.912 302.572,-651.321 302.572,-651.321 C302.212,-650.697 302.212,-650.697 300.244,-650.17 C298.9,-649.282 298.9,-649.282 298.373,-651.25 C298.373,-651.25 297.486,-652.594 297.415,-656.793 C297.872,-659.024 297.345,-660.992 296.554,-663.943 C296.026,-665.911 295.236,-668.863 294.445,-671.814 C293.654,-674.766 292.863,-677.717 290.825,-681.389 C290.034,-684.34 288.619,-687.652 286.581,-691.324 C284.183,-694.372 282.768,-697.683 280.73,-701.355 C279.315,-704.667 276.917,-707.715 274.255,-711.746 C268.834,-718.202 264.397,-724.922 258.617,-730.755 C252.836,-736.587 247.943,-741.075 243.41,-746.188 C233.623,-755.164 227.482,-760.373 227.482,-760.373 Z M402.979,-851.158 C404.586,-851.061 405.21,-850.701 406.457,-849.981 C408.232,-847.293 407.872,-846.669 405.904,-846.142 C405.904,-846.142 398.921,-842.689 388.89,-836.838 C384.138,-832.928 377.778,-829.115 372.666,-824.582 C367.554,-820.049 361.458,-815.252 356.249,-809.111 C353.465,-805.729 351.664,-802.611 348.256,-799.588 C345.568,-797.814 344.655,-793.351 341.607,-790.953 C338.559,-788.554 338.366,-785.339 336.565,-782.221 C335.485,-780.349 334.572,-775.887 333.492,-774.016 C332.411,-772.144 330.611,-769.026 330.778,-766.434 C329.698,-764.563 328.977,-763.316 329.144,-760.724 C327.344,-757.606 327.511,-755.014 327.511,-755.014 L326.791,-753.767 C326.071,-752.519 324.367,-751.008 323.119,-751.729 C321.872,-752.449 320,-753.529 321.081,-755.4 C321.081,-755.4 322.161,-757.271 322.714,-761.11 C323.794,-762.982 324.875,-764.853 324.708,-767.444 C325.788,-769.315 326.868,-771.186 327.421,-775.025 C327.975,-778.864 329.415,-781.359 331.216,-784.478 C332.656,-786.973 333.209,-790.811 336.617,-793.834 C338.778,-797.576 340.578,-800.695 343.986,-803.717 C346.771,-807.099 348.571,-810.218 351.979,-813.24 C356.564,-819.741 364.004,-825.425 369.116,-829.958 C374.852,-834.131 379.964,-838.664 385.964,-841.854 C394.748,-848.425 402.979,-851.158 402.979,-851.158 Z M186.788,-609.224 C186.621,-611.816 188.589,-612.343 190.53,-607.064 C192.762,-606.607 193.025,-605.623 193.553,-603.656 C193.553,-603.656 191.726,-594.731 189.514,-579.375 C187.784,-572.058 186.941,-563.396 184.491,-554.831 C181.681,-545.642 179.231,-537.077 176.06,-527.265 C173.9,-523.522 171.643,-518.172 170.729,-513.71 C168.472,-508.36 166.312,-504.618 165.398,-500.155 C163.238,-496.413 162.325,-491.95 160.164,-488.208 C156.756,-485.186 154.595,-481.443 152.795,-478.325 C150.994,-475.206 149.554,-472.711 146.506,-470.313 C144.081,-467.554 143.001,-465.683 140.673,-464.532 C137.889,-461.15 135.561,-459.999 135.561,-459.999 C135.561,-459.999 134.217,-459.111 132.97,-459.832 C132.346,-460.192 131.459,-461.536 132.179,-462.783 L132.899,-464.031 C132.899,-464.031 133.979,-465.902 137.388,-468.924 C138.468,-470.795 140.796,-471.946 142.596,-475.065 C144.397,-478.183 145.837,-480.678 148.885,-483.077 C151.046,-486.819 152.846,-489.938 155.007,-493.68 C157.168,-497.422 158.081,-501.885 160.242,-505.627 C162.499,-510.977 164.659,-514.72 165.573,-519.182 C167.206,-524.892 168.743,-528.995 169.656,-533.457 C174.074,-542.549 176.524,-551.115 177.727,-560.4 C180.177,-568.965 181.379,-578.25 182.749,-584.944 C186.209,-599.579 186.788,-609.224 186.788,-609.224 Z M202.758,-504.366 C202.135,-504.726 202.135,-504.726 203.022,-503.382 C202.135,-504.726 201.967,-507.317 203.935,-507.845 C203.935,-507.845 208.398,-506.932 215.548,-507.793 C222.699,-508.655 232.177,-510.667 242.279,-512.319 C247.822,-513.277 251.757,-514.332 256.676,-515.65 C260.612,-516.704 264.811,-516.775 268.482,-518.813 C271.434,-519.604 274.385,-520.395 276.713,-521.546 C277.697,-521.81 279.665,-522.337 279.665,-522.337 C281.105,-524.832 282.976,-523.751 283.503,-521.784 C285.638,-519.72 284.558,-517.848 282.59,-517.321 C282.59,-517.321 281.246,-516.434 278.918,-515.283 C276.591,-514.132 273.639,-513.341 269.967,-511.303 C267.016,-510.512 263.081,-509.457 258.161,-508.139 C252.619,-507.181 248.06,-506.487 242.517,-505.529 C232.415,-503.877 222.769,-504.456 214.995,-503.954 C207.581,-504.077 202.758,-504.366 202.758,-504.366 Z M380.579,-736.018 C380.579,-736.018 379.796,-760.588 378.863,-771.938 C377.333,-789.454 389.288,-805.838 408.385,-801.465 C424.892,-796.924 430.042,-769.834 408.179,-755.012 C385.692,-740.551 385.692,-740.551 380.579,-736.018 Z M238.085,-754.251 C238.085,-754.251 213.374,-761.865 202.578,-764.772 C185.351,-768.065 173.552,-786.52 184.523,-802.64 C195.036,-816.529 220.661,-813.378 228.139,-787.438 C234.633,-761.235 234.536,-759.627 238.085,-754.251 Z M297.857,-836.171 C297.857,-836.171 272.785,-843.161 261.629,-845.444 C244.402,-848.737 232.243,-866.569 243.213,-882.689 C253.103,-896.938 279.712,-894.05 287.55,-868.734 C294.404,-843.155 295.027,-842.794 297.857,-836.171 Z M264.913,-760.385 C264.913,-760.385 251.866,-779.56 245.918,-787.984 C235.701,-800.536 237.483,-819.467 254.568,-824.572 C270.046,-829.774 286.044,-811.389 276.655,-789.366 C266.81,-765.111 266.45,-764.488 264.913,-760.385 Z M370.088,-867.652 C370.088,-867.652 368.224,-890.351 364.964,-900.549 C362.354,-916.194 372.604,-931.067 388.943,-929.118 C404.922,-926.546 410.625,-903.294 392.241,-887.296 C373.233,-871.658 372.873,-871.034 370.088,-867.652 Z M406.943,-718.302 C406.943,-718.302 424.871,-732.069 432.671,-738.377 C443.352,-749.675 462.019,-748.877 469.092,-732.319 C474.654,-717.465 457.78,-699.763 435.037,-707.904 C411.669,-716.405 411.046,-716.765 406.943,-718.302 Z M363.448,-660.251 C363.448,-660.251 380.585,-676.969 390.256,-682.197 C404.319,-690.71 419.867,-691.713 426.316,-675.515 C431.878,-660.661 415.005,-642.959 392.261,-651.1 C370.141,-658.881 368.894,-659.601 363.448,-660.251 Z M212.862,-586.686 C212.862,-586.686 219.396,-609.526 221.222,-618.451 C223.795,-634.43 240.186,-644.095 254.435,-634.204 C266.813,-625.395 264.382,-601.018 241.753,-594.954 C218.765,-588.268 217.518,-588.988 212.862,-586.686 Z M156.237,-589.439 C156.237,-589.439 133.397,-595.973 124.472,-597.799 C108.493,-600.372 98.8288,-616.763 108.719,-631.012 C117.529,-643.39 141.906,-640.959 147.969,-618.331 C153.312,-594.455 153.936,-594.095 156.237,-589.439 Z M226.703,-725.894 C226.703,-725.894 203.091,-719.567 191.189,-714.796 C174.631,-707.723 155.462,-716.295 156.357,-736.57 C157.058,-753.629 181.583,-764.419 201.516,-747.089 C221.45,-729.759 222.074,-729.399 226.703,-725.894 Z M188.247,-595.907 C188.247,-595.907 174.41,-618.034 167.215,-627.178 C156.11,-641.074 158.348,-662.236 176.057,-666.981 C192.782,-671.463 211.275,-651.638 199.462,-626.856 C190.961,-603.489 190.241,-602.241 188.247,-595.907 Z M316.627,-858.6 C316.627,-858.6 302.79,-880.726 294.874,-888.623 C284.393,-902.159 286.631,-923.321 304.34,-928.066 C321.426,-933.171 339.558,-912.722 328.466,-889.188 C319.244,-864.573 318.524,-863.326 316.627,-858.6 Z M394.915,-845.834 C394.915,-845.834 408.766,-866.944 413.281,-877.644 C420.676,-893.333 441.433,-900.477 453.161,-886.221 C464.626,-872.948 454.157,-849.054 426.635,-847.479 C402.689,-846.335 401.345,-845.448 394.915,-845.834 Z M270.617,-516.749 C270.617,-516.749 289.362,-533.371 297.355,-542.894 C309.74,-555.703 330.111,-556.416 339.055,-538.778 C346.488,-522.843 329.421,-501.926 303.103,-509.636 C277.311,-515.379 276.063,-516.1 270.617,-516.749 Z M263.029,-497.844 C263.029,-497.844 285.702,-493.902 295.347,-493.323 C311.063,-491.734 322.695,-475.871 314.772,-462.149 C308.458,-448.33 283,-448.89 273.722,-471.712 C265.858,-491.221 264.971,-492.565 263.029,-497.844 Z M146.091,-597.792 C145.827,-598.776 144.58,-599.496 144.58,-599.496 C144.58,-599.496 145.924,-600.384 147.171,-599.664 C147.171,-599.664 149.666,-598.223 153.575,-593.471 C157.221,-589.703 162.642,-583.247 166.455,-576.887 C169.908,-569.904 174.968,-562.824 176.55,-556.921 C178.061,-555.217 178.852,-552.265 179.379,-550.298 C179.643,-549.314 180.17,-547.346 180.17,-547.346 C181.057,-546.002 179.977,-544.131 178.009,-543.604 C176.665,-542.717 174.794,-543.797 174.267,-545.765 C174.267,-545.765 174.003,-546.748 173.476,-548.716 C173.836,-549.34 172.685,-551.668 171.894,-554.619 C170.936,-560.162 167.483,-567.145 163.67,-573.505 C160.218,-580.488 155.684,-585.6 151.775,-590.352 C148.489,-594.744 146.091,-597.792 146.091,-597.792 Z M214.856,-593.02 C215.576,-594.267 217.807,-593.81 219.511,-595.322 C220.135,-594.961 220.662,-592.994 219.582,-591.123 C219.582,-591.123 210.509,-579.728 201.075,-567.71 C197.21,-562.457 191.738,-557.3 187.61,-553.03 C185.906,-551.519 184.825,-549.648 182.498,-548.497 C181.417,-546.626 179.45,-546.099 179.45,-546.099 C178.729,-544.851 177.385,-543.964 176.858,-545.932 C175.611,-546.652 174.723,-547.996 176.691,-548.523 C176.691,-548.523 177.051,-549.147 179.019,-549.674 C180.723,-551.185 181.083,-551.809 184.131,-554.207 C187.539,-557.229 191.764,-563.107 196.973,-569.247 C206.046,-580.642 214.856,-593.02 214.856,-593.02 Z M229.92,-505.317 C229.92,-505.317 229.56,-504.693 229.92,-505.317 C227.688,-505.774 226.801,-507.118 228.074,-512.204 C228.795,-513.451 229.155,-514.075 231.746,-514.242 C231.746,-514.242 235.225,-513.065 239.687,-512.152 C244.15,-511.239 249.5,-508.982 255.834,-506.988 C261.544,-505.355 267.877,-503.361 270.9,-499.953 C272.771,-498.873 273.922,-496.545 275.169,-495.825 C275.073,-494.217 276.32,-493.497 276.32,-493.497 C277.568,-492.777 277.568,-492.777 276.847,-491.529 C276.847,-491.529 276.127,-490.282 274.88,-491.002 C274.88,-491.002 274.256,-491.362 273.009,-492.083 C271.761,-492.803 269.89,-493.883 268.019,-494.963 C264.276,-497.124 258.303,-499.741 252.593,-501.375 C247.867,-503.272 242.157,-504.905 237.334,-505.195 C233.759,-504.764 229.92,-505.317 229.92,-505.317 Z M351.674,-684.513 C351.051,-684.873 351.051,-684.873 351.674,-684.513 C349.803,-685.593 350.26,-687.824 352.587,-688.975 C381.846,-719.486 425.829,-726.526 428.42,-726.693 C429.668,-725.973 430.291,-725.613 430.819,-723.645 C430.098,-722.398 429.738,-721.774 427.771,-721.247 C427.147,-721.607 382.804,-713.943 354.626,-685.303 C354.266,-684.68 352.922,-683.792 351.674,-684.513 Z M372.661,-883.631 C373.741,-885.502 375.709,-886.03 379.284,-886.46 C380.531,-885.74 381.682,-883.412 380.602,-881.541 C380.602,-881.541 379.065,-877.439 377.792,-872.352 C374.551,-866.739 372.821,-859.421 370.731,-851.48 C368.641,-843.539 366.911,-836.221 365.901,-830.151 C364.628,-825.065 364.699,-820.866 364.699,-820.866 C363.978,-819.618 363.618,-818.995 361.651,-818.467 C360.043,-818.564 359.779,-819.548 359.252,-821.515 C359.252,-821.515 359.182,-825.714 359.831,-831.161 C360.481,-836.607 361.947,-844.908 363.677,-852.226 C365.407,-859.544 367.497,-867.485 369.49,-873.819 C371.748,-879.169 372.661,-883.631 372.661,-883.631 Z M212.428,-729.978 C211.804,-730.338 211.277,-732.305 212.261,-732.569 C212.981,-733.816 214.062,-735.688 215.933,-734.607 C232.703,-729.083 258.231,-724.324 269.124,-723.025 C259.678,-748.438 262.232,-780.229 261.704,-782.197 C261.801,-783.804 262.785,-784.068 264.752,-784.595 C266.36,-784.498 266.624,-783.515 267.151,-781.547 C267.151,-781.547 265.292,-745.197 275.721,-720.048 C275.721,-720.048 276.608,-718.704 275.888,-717.456 C275.528,-716.833 274.904,-717.193 272.937,-716.666 C270.969,-716.138 235.172,-721.836 212.428,-729.978 C213.676,-729.257 213.676,-729.257 212.428,-729.978 Z M320.4,-803.196 C319.153,-803.917 319.873,-805.164 320.4,-803.196 C310.665,-823.786 283.44,-848.653 280.849,-848.486 C280.225,-848.846 280.058,-851.437 280.778,-852.685 C281.138,-853.308 283.466,-854.459 285.337,-853.379 C287.208,-852.299 314.53,-829.04 323.545,-807.202 C326.04,-805.762 324.959,-803.891 322.992,-803.364 C322.992,-803.364 321.648,-802.476 320.4,-803.196 Z M314.442,-628.667 C314.442,-628.667 314.802,-629.29 314.442,-628.667 C312.571,-629.747 313.027,-631.978 315.091,-634.113 C316.699,-634.017 346.221,-663.544 382.861,-666.507 C384.468,-666.411 384.732,-665.427 385.259,-663.459 C385.163,-661.852 384.179,-661.588 382.211,-661.061 C348.163,-658.264 318.114,-630.705 317.393,-629.457 C317.033,-628.834 315.689,-627.946 314.442,-628.667 Z " fill="#4d4d4d" fill-opacity="1.00" />			</g>		</g>	</svg>
