<?xml version="1.0" encoding="utf-8" ?>	<!-- Generator: Assembly 1.8 - http://assemblyapp.co -->	<svg version="1.1" xmlns="http://www.w3.org/2000/svg" xmlns:xlink="http://www.w3.org/1999/xlink" width="2048.00" height="2048.00" viewBox="0 0 2048.0 2048.0">				<g id="document" transform="matrix(1,0,0,1,1024.0,1024.0)">			<g>				<path d="M-258.889,-341.948 C-237.564,-305.013 -200.942,-327.797 -176.433,-341.948 C-151.667,-356.246 -149.411,-397.148 -170.295,-433.321 C-174.253,-440.175 -182.635,-450.567 -182.635,-450.567 C-182.635,-450.567 -1297.87,-480.174 -258.889,-905.51 C-1427.93,-520.889 -262.626,-348.421 -258.889,-341.948 Z " fill="#4d4d4d" fill-opacity="1.00" />				<path d="M183.354,-337.873 C162.03,-300.938 125.408,-323.722 100.898,-337.873 C76.1326,-352.171 73.8762,-393.073 94.7607,-429.246 C98.7178,-436.1 107.1,-446.492 107.1,-446.492 C107.1,-446.492 1222.34,-476.099 183.354,-901.435 C1352.4,-516.814 187.091,-344.346 183.354,-337.873 Z " fill="#4d4d4d" fill-opacity="1.00" />			</g>		</g>	</svg>
