<?xml version="1.0" encoding="utf-8" ?>	<!-- Generator: Assembly 1.8 - http://assemblyapp.co -->	<svg version="1.1" xmlns="http://www.w3.org/2000/svg" xmlns:xlink="http://www.w3.org/1999/xlink" width="2048.00" height="2048.00" viewBox="0 0 2048.0 2048.0">				<g id="document" transform="matrix(1,0,0,1,1024.0,1024.0)">			<g>				<path d="M-118.057,-471.861 C-125.693,-475.351 -133.634,-480.281 -138.075,-487.002 C-140.948,-491.069 -141.62,-495.473 -139.784,-501.16 C-137.366,-511.892 -139.381,-525.102 -146.412,-535.744 C-159.831,-555.775 -185.116,-564.984 -199.64,-568.626 C-199.207,-589.419 -212.626,-609.45 -232.531,-615.875 C-244.853,-619.853 -257.756,-618.785 -269.041,-613.009 C-280.325,-607.232 -288.736,-597.388 -292.407,-586.014 C-297.915,-568.953 -292.691,-549.474 -279.025,-536.69 C-274.256,-532.01 -267.927,-528.921 -261.293,-526.779 C-248.971,-522.801 -236.067,-523.869 -224.783,-529.645 C-218.82,-531.907 -214.14,-536.676 -210.409,-541.751 C-208.513,-541.139 -205.67,-540.221 -201.878,-538.997 C-193.348,-536.243 -177.541,-530.094 -171.458,-519.757 C-168.279,-516.638 -167.607,-512.235 -168.495,-506.242 C-171.831,-492.666 -170.457,-480.71 -162.785,-468.814 C-159.912,-464.746 -156.732,-461.627 -153.859,-457.559 C-152.198,-456.181 -150.537,-454.803 -148.795,-453.466 L-118.057,-471.861 L-118.057,-471.861 Z " fill="#4d4d4d" fill-opacity="1.00" />				<path d="M55.6701,-471.861 C63.3067,-475.351 71.2479,-480.281 75.6881,-487.002 C78.5615,-491.069 79.2333,-495.473 77.3974,-501.16 C74.9795,-511.892 76.9948,-525.102 84.0253,-535.744 C97.4444,-555.775 122.73,-564.984 137.253,-568.626 C136.821,-589.419 150.24,-609.45 170.144,-615.875 C182.466,-619.853 195.37,-618.785 206.654,-613.009 C217.938,-607.232 226.349,-597.388 230.021,-586.014 C235.529,-568.953 230.304,-549.474 216.639,-536.69 C211.87,-532.01 205.541,-528.921 198.906,-526.779 C186.584,-522.801 173.68,-523.869 162.396,-529.645 C156.433,-531.907 151.754,-536.676 148.022,-541.751 C146.127,-541.139 143.283,-540.221 139.492,-538.997 C130.961,-536.243 115.154,-530.094 109.072,-519.757 C105.892,-516.638 105.22,-512.235 106.108,-506.242 C109.444,-492.666 108.071,-480.71 100.399,-468.814 C97.5251,-464.746 94.3457,-461.627 91.4723,-457.559 C89.8115,-456.181 88.1507,-454.803 86.4082,-453.466 L55.6701,-471.861 L55.6701,-471.861 Z " fill="#4d4d4d" fill-opacity="1.00" />			</g>		</g>	</svg>
