<?xml version="1.0" encoding="utf-8" ?>	<!-- Generator: Assembly 1.8 - http://assemblyapp.co -->	<svg version="1.1" xmlns="http://www.w3.org/2000/svg" xmlns:xlink="http://www.w3.org/1999/xlink" width="2048.00" height="2048.00" viewBox="0 0 2048.0 2048.0">				<g id="document" transform="matrix(1,0,0,1,1024.0,1024.0)">			<g>				<path d="M-151.967,-418.83 C-140.32,-398.657 -120.318,-411.101 -106.931,-418.83 C-93.4041,-426.64 -92.1717,-448.981 -103.579,-468.738 C-105.74,-472.481 -110.318,-478.157 -110.318,-478.157 C-110.318,-478.157 -379.415,-510.267 -151.967,-726.642 C-447.25,-555.896 -154.008,-422.366 -151.967,-418.83 Z " fill="#4d4d4d" fill-opacity="1.00" />				<path d="M89.5807,-416.605 C77.9337,-396.431 57.9312,-408.876 44.5442,-416.605 C31.0177,-424.414 29.7853,-446.755 41.1922,-466.512 C43.3535,-470.256 47.9318,-475.931 47.9318,-475.931 C47.9318,-475.931 317.028,-508.042 89.5807,-724.416 C384.863,-553.671 91.6219,-420.14 89.5807,-416.605 Z " fill="#4d4d4d" fill-opacity="1.00" />			</g>		</g>	</svg>
