<?xml version="1.0" encoding="utf-8" ?>	<!-- Generator: Assembly 1.8 - http://assemblyapp.co -->	<svg version="1.1" xmlns="http://www.w3.org/2000/svg" xmlns:xlink="http://www.w3.org/1999/xlink" width="2048.00" height="2048.00" viewBox="0 0 2048.0 2048.0">				<g id="document" transform="matrix(1,0,0,1,1024.0,1024.0)">			<g>				<path d="M89.2511,-444.689 C45.5623,-456.396 27.0131,-436.628 23.7,-424.263 C21.2111,-411.678 18.1347,-413.385 34.9228,-408.445 C52.2334,-403.807 46.3333,-434.543 75.7878,-425.768 C202.733,-391.753 295.776,-440.594 358.395,-514.374 C392.66,-551.577 447.205,-539.17 461.783,-593.575 C466.141,-606.543 458.458,-617.437 465.859,-669.789 C426.574,-617.145 494.491,-593.646 381.944,-554.448 C381.944,-554.448 406.543,-577.012 424.434,-643.782 C461.099,-780.618 385.389,-906.925 297.359,-959.226 C277.694,-971.563 260.206,-965.647 231.29,-987.973 C238.574,-965.701 263.767,-955.858 282.807,-949.431 C304.099,-941.517 339.072,-903.874 350.736,-889.705 C329.121,-903.007 315.468,-909.757 281.914,-914.772 C254.35,-919.065 212.908,-947.398 206.858,-944.602 C223.452,-915.859 278.019,-898.588 296.978,-893.507 C407.135,-864.433 414.012,-731.832 410.129,-679.421 C378.529,-732.946 319.928,-731.862 290.671,-813.915 C281.954,-787.979 312.024,-741.931 354.07,-712.553 C378.401,-694.548 405.167,-667.498 392.577,-620.512 C374.466,-552.918 288.993,-468.033 239.2,-455.312 C252.663,-474.234 259.871,-502.783 226.025,-539.682 C239.948,-505.913 234.976,-462.628 202.333,-447.962 C167.599,-432.089 115.629,-437.621 89.2511,-444.689 Z " fill="#4d4d4d" fill-opacity="1.00" />				<path d="M-153.26,-444.689 C-109.571,-456.396 -91.0222,-436.628 -87.7091,-424.263 C-85.2203,-411.678 -82.1439,-413.385 -98.932,-408.445 C-116.243,-403.807 -110.342,-434.543 -139.797,-425.768 C-266.742,-391.753 -359.785,-440.594 -422.404,-514.374 C-456.669,-551.577 -511.214,-539.17 -525.792,-593.575 C-530.15,-606.543 -522.467,-617.437 -529.868,-669.789 C-490.583,-617.145 -558.5,-593.646 -445.953,-554.448 C-445.953,-554.448 -470.552,-577.012 -488.443,-643.782 C-525.109,-780.618 -449.398,-906.925 -361.368,-959.226 C-341.703,-971.563 -324.215,-965.647 -295.299,-987.973 C-302.583,-965.701 -327.776,-955.858 -346.816,-949.431 C-368.109,-941.517 -403.081,-903.874 -414.745,-889.705 C-393.13,-903.007 -379.477,-909.757 -345.923,-914.772 C-318.359,-919.065 -276.917,-947.398 -270.867,-944.602 C-287.461,-915.859 -342.028,-898.587 -360.987,-893.507 C-471.144,-864.433 -478.022,-731.832 -474.138,-679.421 C-442.538,-732.946 -383.937,-731.862 -354.68,-813.915 C-345.963,-787.979 -376.033,-741.931 -418.079,-712.553 C-442.41,-694.548 -469.176,-667.498 -456.587,-620.512 C-438.475,-552.918 -353.002,-468.033 -303.209,-455.312 C-316.673,-474.234 -323.881,-502.783 -290.034,-539.682 C-303.957,-505.913 -298.985,-462.628 -266.342,-447.962 C-231.608,-432.089 -179.638,-437.621 -153.26,-444.689 Z " fill="#4d4d4d" fill-opacity="1.00" />			</g>		</g>	</svg>
