<?xml version="1.0" encoding="utf-8" ?>	<!-- Generator: Assembly 1.8 - http://assemblyapp.co -->	<svg version="1.1" xmlns="http://www.w3.org/2000/svg" xmlns:xlink="http://www.w3.org/1999/xlink" width="2048.00" height="2048.00" viewBox="0 0 2048.0 2048.0">				<g id="document" transform="matrix(1,0,0,1,1024.0,1024.0)">			<g>				<g>					<path d="M-440.163,-629.079 C-410.125,-629.079 -385.809,-653.395 -385.809,-683.433 C-385.809,-713.47 -410.125,-737.786 -440.163,-737.786 C-470.2,-737.786 -494.516,-713.47 -494.516,-683.433 C-494.516,-653.395 -470.2,-629.079 -440.163,-629.079 Z " fill="#ffcc1a" fill-opacity="1.00" />					<path d="M-380.565,-657.436 C-368.899,-654.636 -356.766,-653.236 -345.1,-653.236 C-328.302,-653.236 -314.769,-666.768 -314.769,-683.567 C-314.769,-700.366 -328.302,-713.899 -345.1,-713.899 C-355.833,-713.899 -367.966,-712.499 -380.565,-710.166 C-370.299,-716.698 -360.966,-724.165 -352.567,-732.564 C-340.901,-744.23 -340.901,-763.829 -352.567,-775.495 C-364.233,-787.161 -383.831,-787.161 -395.497,-775.495 C-402.963,-768.028 -410.896,-758.696 -417.896,-747.496 C-415.096,-759.162 -413.696,-771.295 -413.696,-782.961 C-413.696,-799.76 -427.228,-813.292 -444.027,-813.292 C-460.826,-813.292 -474.359,-799.76 -474.359,-782.961 C-474.359,-772.228 -472.959,-760.096 -470.626,-747.496 C-477.159,-757.762 -484.625,-767.095 -493.024,-775.495 C-504.69,-787.161 -524.289,-787.161 -535.955,-775.495 C-547.621,-763.829 -547.621,-744.23 -535.955,-732.564 C-528.489,-725.098 -519.156,-717.165 -507.957,-710.166 C-519.622,-712.965 -531.755,-714.365 -543.421,-714.365 C-560.22,-714.365 -573.752,-700.833 -573.752,-684.034 C-573.752,-667.235 -560.22,-653.703 -543.421,-653.703 C-532.688,-653.703 -520.556,-655.102 -507.957,-657.436 C-518.223,-650.903 -527.555,-643.437 -535.955,-635.037 C-547.621,-623.371 -547.621,-603.772 -535.955,-592.107 C-524.289,-580.441 -504.69,-580.441 -493.024,-592.107 C-485.558,-599.573 -477.625,-608.905 -470.626,-620.105 C-473.425,-608.439 -474.825,-596.306 -474.825,-584.64 C-474.825,-567.841 -461.293,-554.309 -444.494,-554.309 C-427.695,-554.309 -414.163,-567.841 -414.163,-584.64 C-414.163,-595.373 -415.563,-607.506 -417.896,-620.105 C-411.363,-609.839 -403.897,-600.506 -395.497,-592.107 C-383.831,-580.441 -364.233,-580.441 -352.567,-592.107 C-340.901,-603.772 -340.901,-623.371 -352.567,-635.037 C-360.033,-642.503 -369.832,-650.436 -380.565,-657.436 Z M-444.494,-634.57 C-471.559,-634.57 -493.491,-656.502 -493.491,-683.567 C-493.491,-710.632 -471.559,-732.564 -444.494,-732.564 C-417.429,-732.564 -395.497,-710.632 -395.497,-683.567 C-395.031,-656.502 -417.429,-634.57 -444.494,-634.57 Z M-418.362,-684.034 C-418.362,-698.466 -430.062,-710.166 -444.494,-710.166 C-458.926,-710.166 -470.626,-698.466 -470.626,-684.034 C-470.626,-669.602 -458.926,-657.902 -444.494,-657.902 C-430.062,-657.902 -418.362,-669.602 -418.362,-684.034 Z M-380.565,-665.835 C-383.831,-667.235 -388.031,-665.835 -389.898,-662.569 C-391.297,-659.302 -389.898,-655.102 -386.631,-653.236 C-283.971,-607.039 -167.312,-466.115 -190.644,-355.522 C-191.577,-351.789 -189.244,-348.056 -185.511,-347.122 C-185.044,-347.122 -184.578,-347.122 -184.111,-347.122 C-180.844,-347.122 -178.045,-349.456 -177.578,-352.722 C-151.913,-469.381 -271.839,-616.838 -380.565,-665.835 Z " fill="#577cbc" fill-opacity="1.00" />					<path d="M370.11,-629.079 C340.072,-629.079 315.756,-653.395 315.756,-683.433 C315.756,-713.47 340.072,-737.786 370.11,-737.786 C400.148,-737.786 424.464,-713.47 424.464,-683.433 C424.464,-653.395 400.148,-629.079 370.11,-629.079 Z " fill="#ffcc1a" fill-opacity="1.00" />					<path d="M310.512,-657.436 C298.846,-654.636 286.714,-653.236 275.048,-653.236 C258.249,-653.236 244.716,-666.768 244.716,-683.567 C244.716,-700.366 258.249,-713.899 275.048,-713.899 C285.78,-713.899 297.913,-712.499 310.512,-710.166 C300.246,-716.698 290.913,-724.165 282.514,-732.564 C270.848,-744.23 270.848,-763.829 282.514,-775.495 C294.18,-787.161 313.778,-787.161 325.444,-775.495 C332.911,-768.028 340.843,-758.696 347.843,-747.496 C345.043,-759.162 343.643,-771.295 343.643,-782.961 C343.643,-799.76 357.176,-813.292 373.975,-813.292 C390.773,-813.292 404.306,-799.76 404.306,-782.961 C404.306,-772.228 402.906,-760.096 400.573,-747.496 C407.106,-757.762 414.572,-767.095 422.971,-775.495 C434.637,-787.161 454.236,-787.161 465.902,-775.495 C477.568,-763.829 477.568,-744.23 465.902,-732.564 C458.436,-725.098 449.103,-717.165 437.904,-710.166 C449.57,-712.965 461.702,-714.365 473.368,-714.365 C490.167,-714.365 503.699,-700.833 503.699,-684.034 C503.699,-667.235 490.167,-653.703 473.368,-653.703 C462.635,-653.703 450.503,-655.102 437.904,-657.436 C448.17,-650.903 457.502,-643.437 465.902,-635.037 C477.568,-623.371 477.568,-603.772 465.902,-592.107 C454.236,-580.441 434.637,-580.441 422.971,-592.107 C415.505,-599.573 407.572,-608.905 400.573,-620.105 C403.373,-608.439 404.773,-596.306 404.773,-584.64 C404.773,-567.841 391.24,-554.309 374.441,-554.309 C357.642,-554.309 344.11,-567.841 344.11,-584.64 C344.11,-595.373 345.51,-607.506 347.843,-620.105 C341.31,-609.839 333.844,-600.506 325.444,-592.107 C313.778,-580.441 294.18,-580.441 282.514,-592.107 C270.848,-603.772 270.848,-623.371 282.514,-635.037 C289.98,-642.503 299.779,-650.436 310.512,-657.436 Z M374.441,-634.57 C401.506,-634.57 423.438,-656.502 423.438,-683.567 C423.438,-710.632 401.506,-732.564 374.441,-732.564 C347.376,-732.564 325.444,-710.632 325.444,-683.567 C324.978,-656.502 347.376,-634.57 374.441,-634.57 Z M348.31,-684.034 C348.31,-698.466 360.009,-710.166 374.441,-710.166 C388.873,-710.166 400.573,-698.466 400.573,-684.034 C400.573,-669.602 388.873,-657.902 374.441,-657.902 C360.009,-657.902 348.31,-669.602 348.31,-684.034 Z M310.512,-665.835 C313.778,-667.235 317.978,-665.835 319.845,-662.569 C321.245,-659.302 319.845,-655.102 316.578,-653.236 C213.918,-607.039 97.2592,-466.115 120.591,-355.522 C121.524,-351.789 119.191,-348.056 115.458,-347.122 C114.991,-347.122 114.525,-347.122 114.058,-347.122 C110.792,-347.122 107.992,-349.456 107.525,-352.722 C81.8602,-469.381 201.786,-616.838 310.512,-665.835 Z " fill="#577cbc" fill-opacity="1.00" />				</g>				<path d="M-444.782,-652.631 C-427.43,-652.631 -413.384,-666.678 -413.384,-684.029 C-413.384,-701.381 -427.43,-715.427 -444.782,-715.427 C-462.133,-715.427 -476.179,-701.381 -476.179,-684.029 C-476.179,-666.678 -462.133,-652.631 -444.782,-652.631 Z " fill="#ff7503" fill-opacity="1.00" />				<path d="M374.493,-652.631 C391.845,-652.631 405.891,-666.678 405.891,-684.029 C405.891,-701.381 391.845,-715.427 374.493,-715.427 C357.142,-715.427 343.096,-701.381 343.096,-684.029 C343.096,-666.678 357.142,-652.631 374.493,-652.631 Z " fill="#ff7503" fill-opacity="1.00" />			</g>		</g>	</svg>
