<?xml version="1.0" encoding="utf-8" ?>	<!-- Generator: Assembly 1.8 - http://assemblyapp.co -->	<svg version="1.1" xmlns="http://www.w3.org/2000/svg" xmlns:xlink="http://www.w3.org/1999/xlink" width="2048.00" height="2048.00" viewBox="0 0 2048.0 2048.0">				<g id="document" transform="matrix(1,0,0,1,1024.0,1024.0)">			<g>				<g>					<path d="M-219.426,-511.615 C-191.429,-516.41 -170.201,-528.876 -172.014,-539.459 C-173.826,-550.041 -197.992,-554.733 -225.99,-549.938 C-253.987,-545.142 -275.215,-532.676 -273.402,-522.094 C-271.59,-511.511 -247.424,-506.82 -219.426,-511.615 Z " fill="#ff9702" fill-opacity="1.00" />					<path d="M-137.856,-338.091 C-103.441,-343.985 -80.581,-377.862 -86.7426,-413.837 C-92.9043,-449.812 -125.735,-474.15 -160.15,-468.256 C-194.566,-462.361 -217.426,-428.485 -211.264,-392.509 C-205.103,-356.534 -172.272,-332.196 -137.856,-338.091 Z M-191.866,-395.832 C-196.068,-420.36 -180.455,-443.906 -156.677,-447.979 C-133.212,-451.998 -110.398,-435.37 -106.14,-410.514 C-101.883,-385.659 -117.551,-362.44 -141.329,-358.368 C-164.795,-354.349 -187.609,-370.976 -191.866,-395.832 Z M-202.519,-454.266 C-202.005,-455.027 -201.547,-456.116 -201.659,-456.77 L-202.388,-461.021 C-205.636,-479.99 -172.218,-518.032 -165.353,-534.356 C-164.638,-535.825 -164.237,-537.241 -164.148,-538.602 C-164.204,-538.929 -164.003,-539.637 -164.059,-539.964 C-165.964,-551.084 -193.757,-555.413 -225.982,-549.893 C-258.208,-544.374 -282.976,-531.042 -281.072,-519.923 C-281.016,-519.596 -280.904,-518.942 -280.535,-518.668 C-280.054,-517.741 -279.629,-517.14 -279.148,-516.213 C-269.063,-502.454 -224.441,-475.086 -221.473,-457.753 L-217.496,-434.532 C-217.215,-432.897 -215.282,-432.892 -214.512,-434.033 C-211.934,-441.544 -207.623,-448.342 -202.519,-454.266 Z M-272.592,-523.058 C-273.992,-531.235 -252.955,-541.907 -225.735,-546.569 C-198.515,-551.231 -175.182,-548.495 -173.725,-539.992 C-172.325,-531.816 -193.362,-521.143 -220.582,-516.481 C-247.801,-511.819 -271.135,-514.555 -272.592,-523.058 Z M-176.285,-308.617 L-180.71,-334.454 C-180.878,-335.435 -181.359,-336.363 -182.353,-336.529 C-189.138,-340.417 -195.465,-345.392 -200.966,-351.183 C-202.128,-352.331 -203.893,-351.355 -203.613,-349.72 L-195.939,-304.914 C-195.715,-303.606 -191.424,-302.994 -185.792,-303.959 C-179.96,-305.631 -176.061,-307.309 -176.285,-308.617 Z M-152.49,-274.989 C-159.681,-286.886 -171.195,-297.706 -174.571,-300.495 C-174.94,-300.768 -175.622,-300.988 -176.192,-300.554 C-177.588,-299.305 -180.661,-298.442 -185.041,-297.692 C-189.108,-296.995 -192.662,-297.06 -194.338,-297.446 C-195.02,-297.666 -195.277,-297.285 -195.534,-296.904 C-197.789,-293.152 -205.304,-278.736 -208.069,-264.796 C-209.274,-260.55 -209.484,-256.138 -208.7,-251.559 C-202.396,-248.599 -190.372,-247.965 -176.919,-250.27 C-163.465,-252.574 -152.65,-257.119 -147.378,-262.062 C-147.849,-266.694 -149.572,-271.112 -152.49,-274.989 Z M-168.683,-224.749 C-158.839,-227.445 -151.199,-235.486 -148.019,-245.12 C-153.716,-240.778 -163.023,-236.827 -173.973,-234.952 C-184.924,-233.076 -194.646,-233.431 -201.832,-235.903 C-194.039,-226.129 -181.287,-221.244 -168.683,-224.749 Z " fill="#ffcc1a" fill-opacity="1.00" />					<path d="M-198.503,-319.334 L-178.569,-322.658 L-205.114,-481.848 L-225.048,-478.524 L-198.503,-319.334 Z " fill="#ffcc1a" fill-opacity="1.00" />				</g>				<g>					<path d="M150.538,-511.615 C122.54,-516.41 101.313,-528.876 103.126,-539.459 C104.938,-550.041 129.104,-554.733 157.101,-549.938 C185.099,-545.142 206.326,-532.676 204.514,-522.094 C202.701,-511.511 178.535,-506.82 150.538,-511.615 Z " fill="#ff9702" fill-opacity="1.00" />					<path d="M68.9681,-338.091 C34.5525,-343.985 11.6926,-377.862 17.8542,-413.837 C24.0159,-449.812 56.8465,-474.15 91.262,-468.256 C125.678,-462.361 148.537,-428.485 142.376,-392.509 C136.214,-356.534 103.384,-332.196 68.9681,-338.091 Z M122.978,-395.832 C127.179,-420.36 111.567,-443.906 87.7891,-447.979 C64.3239,-451.998 41.5092,-435.37 37.2521,-410.514 C32.9949,-385.659 48.663,-362.44 72.441,-358.368 C95.9061,-354.349 118.721,-370.976 122.978,-395.832 Z M133.63,-454.266 C133.117,-455.027 132.659,-456.116 132.771,-456.77 L133.499,-461.021 C136.748,-479.99 103.33,-518.032 96.4645,-534.356 C95.7499,-535.825 95.3482,-537.241 95.2594,-538.602 C95.3154,-538.929 95.1146,-539.637 95.1706,-539.964 C97.0751,-551.084 124.868,-555.413 157.094,-549.893 C189.319,-544.374 214.088,-531.042 212.183,-519.923 C212.127,-519.596 212.015,-518.942 211.646,-518.668 C211.166,-517.741 210.741,-517.14 210.26,-516.213 C200.174,-502.454 155.553,-475.086 152.584,-457.753 L148.607,-434.532 C148.327,-432.897 146.394,-432.892 145.623,-434.033 C143.045,-441.544 138.735,-448.342 133.63,-454.266 Z M203.703,-523.058 C205.104,-531.235 184.066,-541.907 156.847,-546.569 C129.627,-551.231 106.293,-548.495 104.837,-539.992 C103.436,-531.816 124.474,-521.143 151.693,-516.481 C178.913,-511.819 202.247,-514.555 203.703,-523.058 Z M107.396,-308.617 L111.821,-334.454 C111.989,-335.435 112.47,-336.363 113.465,-336.529 C120.25,-340.417 126.577,-345.392 132.077,-351.183 C133.24,-352.331 135.005,-351.355 134.725,-349.72 L127.051,-304.914 C126.827,-303.606 122.536,-302.994 116.904,-303.959 C111.071,-305.631 107.172,-307.309 107.396,-308.617 Z M83.602,-274.989 C90.7925,-286.886 102.307,-297.706 105.683,-300.495 C106.052,-300.768 106.734,-300.988 107.303,-300.554 C108.7,-299.305 111.772,-298.442 116.153,-297.692 C120.22,-296.995 123.773,-297.06 125.45,-297.446 C126.132,-297.666 126.388,-297.285 126.645,-296.904 C128.901,-293.152 136.415,-278.736 139.181,-264.796 C140.386,-260.55 140.596,-256.138 139.812,-251.559 C133.508,-248.599 121.484,-247.965 108.03,-250.27 C94.577,-252.574 83.7619,-257.119 78.4896,-262.062 C78.9609,-266.694 80.6837,-271.112 83.602,-274.989 Z M99.7947,-224.749 C89.951,-227.445 82.311,-235.486 79.1304,-245.12 C84.8276,-240.778 94.1344,-236.827 105.085,-234.952 C116.035,-233.076 125.757,-233.431 132.944,-235.903 C125.151,-226.129 112.398,-221.244 99.7947,-224.749 Z " fill="#ffcc1a" fill-opacity="1.00" />					<path d="M129.615,-319.334 L109.68,-322.658 L136.225,-481.848 L156.16,-478.524 L129.615,-319.334 Z " fill="#ffcc1a" fill-opacity="1.00" />				</g>			</g>		</g>	</svg>
