<?xml version="1.0" encoding="utf-8" ?>	<!-- Generator: Assembly 1.8 - http://assemblyapp.co -->	<svg version="1.1" xmlns="http://www.w3.org/2000/svg" xmlns:xlink="http://www.w3.org/1999/xlink" width="2048.00" height="2048.00" viewBox="0 0 2048.0 2048.0">				<g id="document" transform="matrix(1,0,0,1,1024.0,1024.0)">			<g>				<path d="M-203.051,-697.599 C-202.921,-698.084 -203.276,-698.699 -203.856,-700.413 C-204.518,-700.85 -205.44,-700.318 -205.7,-699.348 C-205.7,-699.348 -209.018,-683.089 -209.305,-658.743 C-209.41,-652.535 -209.159,-645.712 -208.424,-638.76 C-207.996,-631.63 -207.261,-624.678 -205.378,-617.158 C-203.851,-610.253 -201.968,-602.734 -199.424,-594.777 C-196.571,-586.997 -193.589,-579.703 -190.122,-572.278 C-186.348,-565.031 -182.444,-558.269 -177.44,-551.732 C-176.376,-549.888 -174.873,-548.706 -173.809,-546.861 C-172.744,-545.017 -171.242,-543.835 -169.87,-542.168 C-168.498,-540.502 -167.61,-538.965 -165.931,-537.475 C-164.251,-535.986 -163.057,-534.627 -161.377,-533.137 C-160.052,-532.263 -158.68,-530.596 -157.178,-529.414 C-155.499,-527.925 -154.482,-526.873 -152.979,-525.691 C-151.17,-524.686 -149.845,-523.812 -148.651,-522.452 C-147.456,-521.093 -146.131,-520.218 -144.322,-519.214 C-138.976,-514.923 -133.193,-511.295 -128.072,-508.104 C-122.999,-505.706 -118.185,-502.337 -113.774,-500.376 C-109.056,-498.592 -105.437,-496.583 -102.173,-495.189 C-95.8224,-492.708 -91.7662,-491.361 -91.7662,-491.361 C-90.749,-490.309 -89.8269,-490.841 -89.5671,-491.811 C-88.515,-492.828 -89.0474,-493.75 -90.0171,-494.01 C-90.0171,-494.01 -94.0732,-495.357 -100.424,-497.838 C-103.995,-499.055 -107.614,-501.064 -112.025,-503.025 C-116.306,-505.471 -121.072,-508.048 -126.323,-510.754 C-131.751,-513.767 -137.227,-517.573 -142.266,-522.041 C-144.075,-523.045 -145.092,-524.097 -146.594,-525.279 C-148.096,-526.461 -149.114,-527.513 -150.616,-528.695 C-152.118,-529.877 -153.135,-530.929 -154.637,-532.111 C-155.961,-532.985 -157.334,-534.652 -158.836,-535.834 C-160.16,-536.709 -161.532,-538.376 -163.034,-539.557 C-164.099,-541.402 -165.294,-542.761 -166.973,-544.25 C-168.346,-545.917 -169.233,-547.454 -170.912,-548.943 C-171.977,-550.788 -172.865,-552.324 -174.544,-553.814 C-179.37,-560.044 -183.712,-566.144 -187.179,-573.568 C-190.468,-580.685 -194.242,-587.932 -196.432,-595.274 C-198.799,-602.924 -200.682,-610.443 -202.387,-617.656 C-205.005,-632.128 -206.475,-646.033 -206.396,-657.963 C-206.317,-669.894 -205.611,-679.318 -204.939,-686.673 C-204.09,-693.72 -203.051,-697.599 -203.051,-697.599 Z M-237.584,-642.416 C-237.761,-642.724 -238.601,-643.468 -239.216,-643.113 C-240.185,-643.373 -240.753,-642.226 -240.22,-641.304 C-240.22,-641.304 -239.155,-639.46 -238.173,-636.338 C-236.883,-633.395 -234.221,-628.784 -231.819,-623.204 C-229.595,-617.931 -226.045,-611.783 -221.704,-605.683 C-217.977,-599.229 -213.636,-593.129 -208.632,-586.591 C-206.243,-583.873 -203.806,-580.362 -201.239,-577.335 C-199.287,-573.954 -196.59,-571.413 -194.023,-568.387 C-192.119,-565.798 -189.244,-562.949 -187.033,-560.538 C-185.128,-557.949 -182.916,-555.537 -180.574,-553.611 C-176.813,-549.225 -172.791,-545.809 -170.272,-543.575 C-167.93,-541.649 -166.251,-540.159 -166.251,-540.159 C-165.589,-539.722 -165.589,-539.722 -164.974,-540.077 C-164.537,-540.739 -164.537,-540.739 -164.891,-541.354 C-164.891,-541.354 -166.216,-542.229 -169.09,-545.077 C-171.787,-547.619 -174.839,-550.775 -178.778,-555.468 C-180.812,-557.572 -182.717,-560.161 -184.929,-562.572 C-187.14,-564.984 -189.045,-567.573 -191.612,-570.599 C-196.261,-576.521 -200.909,-582.444 -205.606,-589.158 C-210.61,-595.695 -214.336,-602.15 -218.678,-608.25 C-222.842,-614.043 -226.391,-620.19 -229.23,-625.108 C-232.07,-630.026 -233.939,-634.684 -235.537,-637.451 C-236.519,-640.572 -237.584,-642.416 -237.584,-642.416 Z M-160.432,-647.206 C-159.51,-647.738 -159.735,-648.838 -160.397,-649.275 C-160.93,-650.197 -161.899,-650.457 -162.822,-649.925 C-162.822,-649.925 -165.848,-647.358 -170.848,-643.242 C-172.952,-641.207 -175.493,-638.51 -178.342,-635.636 C-180.884,-632.94 -183.862,-629.58 -186.356,-626.092 C-189.157,-622.425 -191.473,-618.629 -193.175,-615.187 C-193.21,-613.118 -193.907,-611.486 -194.911,-609.677 C-195.561,-607.253 -195.951,-605.798 -196.34,-604.344 C-196.73,-602.889 -196.813,-601.612 -197.202,-600.158 C-197.462,-599.188 -197.237,-598.088 -197.319,-596.811 C-197.354,-594.742 -197.437,-593.465 -197.437,-593.465 C-197.259,-593.158 -197.259,-593.158 -196.289,-592.898 C-195.627,-592.46 -195.627,-592.46 -195.367,-593.43 C-195.367,-593.43 -194.93,-594.092 -194.895,-596.162 C-195.12,-597.261 -194.86,-598.231 -194.471,-599.685 C-194.211,-600.655 -193.821,-602.11 -193.431,-603.564 C-193.042,-605.019 -192.652,-606.473 -191.647,-608.283 C-191.258,-609.737 -190.561,-611.369 -189.556,-613.178 C-188.374,-614.681 -187.677,-616.312 -186.673,-618.122 C-185.976,-619.754 -184.794,-621.256 -183.482,-623.243 C-180.81,-626.424 -178.624,-629.736 -175.775,-632.61 C-172.927,-635.484 -170.515,-637.696 -168.281,-640.215 C-163.458,-644.639 -160.432,-647.206 -160.432,-647.206 Z M-246.917,-691.945 C-247.709,-691.897 -248.017,-691.72 -248.631,-691.365 C-249.506,-690.04 -249.329,-689.733 -248.359,-689.473 C-248.359,-689.473 -244.917,-687.772 -239.974,-684.888 C-237.632,-682.961 -234.498,-681.082 -231.979,-678.848 C-229.46,-676.614 -226.456,-674.251 -223.889,-671.224 C-222.517,-669.558 -221.629,-668.021 -219.95,-666.531 C-218.625,-665.657 -218.175,-663.458 -216.673,-662.276 C-215.171,-661.094 -215.076,-659.509 -214.189,-657.973 C-213.656,-657.05 -213.206,-654.851 -212.674,-653.929 C-212.141,-653.007 -211.254,-651.47 -211.336,-650.193 C-210.804,-649.271 -210.449,-648.656 -210.531,-647.379 C-209.644,-645.842 -209.727,-644.565 -209.727,-644.565 L-209.372,-643.951 C-209.017,-643.336 -208.177,-642.591 -207.562,-642.946 C-206.947,-643.301 -206.025,-643.833 -206.558,-644.756 C-206.558,-644.756 -207.09,-645.678 -207.363,-647.569 C-207.895,-648.492 -208.427,-649.414 -208.345,-650.691 C-208.877,-651.613 -209.41,-652.535 -209.682,-654.427 C-209.955,-656.319 -210.665,-657.548 -211.552,-659.085 C-212.262,-660.314 -212.535,-662.206 -214.214,-663.695 C-215.279,-665.54 -216.166,-667.077 -217.846,-668.566 C-219.218,-670.233 -220.105,-671.77 -221.785,-673.259 C-224.044,-676.462 -227.71,-679.264 -230.23,-681.498 C-233.056,-683.554 -235.576,-685.788 -238.532,-687.36 C-242.861,-690.598 -246.917,-691.945 -246.917,-691.945 Z M-140.378,-572.72 C-140.296,-573.997 -141.265,-574.257 -142.222,-571.655 C-143.322,-571.43 -143.452,-570.945 -143.712,-569.976 C-143.712,-569.976 -142.812,-565.577 -141.721,-558.01 C-140.869,-554.404 -140.454,-550.136 -139.246,-545.915 C-137.861,-541.386 -136.654,-537.166 -135.092,-532.33 C-134.027,-530.486 -132.914,-527.849 -132.464,-525.65 C-131.352,-523.014 -130.287,-521.169 -129.837,-518.97 C-128.773,-517.126 -128.322,-514.927 -127.258,-513.083 C-125.578,-511.593 -124.513,-509.749 -123.626,-508.212 C-122.739,-506.675 -122.029,-505.446 -120.527,-504.264 C-119.332,-502.905 -118.8,-501.982 -117.653,-501.415 C-116.281,-499.748 -115.133,-499.181 -115.133,-499.181 C-115.133,-499.181 -114.471,-498.744 -113.856,-499.099 C-113.549,-499.276 -113.112,-499.939 -113.467,-500.553 L-113.822,-501.168 C-113.822,-501.168 -114.354,-502.09 -116.033,-503.58 C-116.566,-504.502 -117.713,-505.069 -118.6,-506.606 C-119.488,-508.143 -120.197,-509.372 -121.7,-510.554 C-122.764,-512.398 -123.652,-513.935 -124.716,-515.779 C-125.781,-517.624 -126.231,-519.823 -127.296,-521.667 C-128.408,-524.303 -129.473,-526.148 -129.923,-528.347 C-130.728,-531.161 -131.485,-533.183 -131.935,-535.382 C-134.113,-539.862 -135.32,-544.083 -135.913,-548.659 C-137.12,-552.88 -137.713,-557.456 -138.388,-560.754 C-140.093,-567.967 -140.378,-572.72 -140.378,-572.72 Z M-148.248,-521.045 C-147.941,-521.223 -147.941,-521.223 -148.378,-520.561 C-147.941,-521.223 -147.859,-522.5 -148.828,-522.76 C-148.828,-522.76 -151.027,-522.31 -154.551,-522.734 C-158.075,-523.159 -162.746,-524.151 -167.724,-524.965 C-170.456,-525.437 -172.395,-525.957 -174.819,-526.606 C-176.758,-527.126 -178.828,-527.161 -180.637,-528.165 C-182.092,-528.555 -183.546,-528.945 -184.693,-529.512 C-185.178,-529.642 -186.148,-529.901 -186.148,-529.901 C-186.858,-531.131 -187.78,-530.599 -188.04,-529.629 C-189.092,-528.612 -188.559,-527.69 -187.59,-527.43 C-187.59,-527.43 -186.927,-526.992 -185.78,-526.425 C-184.633,-525.858 -183.178,-525.468 -181.369,-524.464 C-179.915,-524.074 -177.975,-523.555 -175.551,-522.905 C-172.819,-522.433 -170.573,-522.091 -167.841,-521.619 C-162.863,-520.804 -158.11,-521.09 -154.279,-520.843 C-150.625,-520.903 -148.248,-521.045 -148.248,-521.045 Z M-235.879,-635.204 C-235.879,-635.204 -235.492,-647.312 -235.033,-652.905 C-234.279,-661.537 -240.17,-669.611 -249.582,-667.456 C-257.716,-665.219 -260.254,-651.868 -249.48,-644.564 C-238.398,-637.438 -238.398,-637.438 -235.879,-635.204 Z M-165.658,-644.189 C-165.658,-644.189 -153.48,-647.941 -148.159,-649.374 C-139.67,-650.997 -133.855,-660.091 -139.262,-668.035 C-144.443,-674.88 -157.071,-673.327 -160.756,-660.544 C-163.956,-647.631 -163.908,-646.838 -165.658,-644.189 Z M-195.113,-684.56 C-195.113,-684.56 -182.758,-688.004 -177.26,-689.129 C-168.77,-690.752 -162.778,-699.539 -168.185,-707.484 C-173.058,-714.506 -186.171,-713.082 -190.034,-700.607 C-193.411,-688.001 -193.719,-687.823 -195.113,-684.56 Z M-178.878,-647.212 C-178.878,-647.212 -172.449,-656.662 -169.518,-660.813 C-164.482,-666.999 -165.36,-676.328 -173.78,-678.843 C-181.408,-681.407 -189.291,-672.347 -184.665,-661.494 C-179.813,-649.541 -179.635,-649.234 -178.878,-647.212 Z M-230.709,-700.073 C-230.709,-700.073 -229.79,-711.259 -228.184,-716.285 C-226.897,-723.995 -231.948,-731.324 -240,-730.364 C-247.875,-729.096 -250.685,-717.638 -241.626,-709.754 C-232.258,-702.047 -232.081,-701.74 -230.709,-700.073 Z M-248.871,-626.474 C-248.871,-626.474 -257.706,-633.258 -261.55,-636.366 C-266.813,-641.934 -276.012,-641.541 -279.498,-633.381 C-282.239,-626.061 -273.923,-617.337 -262.715,-621.349 C-251.2,-625.539 -250.892,-625.716 -248.871,-626.474 Z M-227.436,-597.866 C-227.436,-597.866 -235.881,-606.105 -240.647,-608.681 C-247.578,-612.876 -255.24,-613.37 -258.418,-605.388 C-261.159,-598.068 -252.844,-589.344 -241.636,-593.356 C-230.735,-597.191 -230.12,-597.546 -227.436,-597.866 Z M-153.227,-561.613 C-153.227,-561.613 -156.447,-572.868 -157.347,-577.267 C-158.615,-585.141 -166.692,-589.904 -173.715,-585.03 C-179.814,-580.689 -178.616,-568.676 -167.465,-565.688 C-156.136,-562.392 -155.522,-562.747 -153.227,-561.613 Z M-125.323,-562.97 C-125.323,-562.97 -114.067,-566.19 -109.669,-567.09 C-101.794,-568.357 -97.0316,-576.435 -101.905,-583.457 C-106.247,-589.557 -118.26,-588.359 -121.248,-577.207 C-123.881,-565.441 -124.188,-565.264 -125.323,-562.97 Z M-160.048,-630.215 C-160.048,-630.215 -148.412,-627.097 -142.547,-624.746 C-134.387,-621.26 -124.941,-625.485 -125.381,-635.476 C-125.727,-643.883 -137.813,-649.2 -147.636,-640.66 C-157.459,-632.119 -157.767,-631.942 -160.048,-630.215 Z M-141.097,-566.157 C-141.097,-566.157 -134.278,-577.061 -130.732,-581.567 C-125.26,-588.415 -126.363,-598.844 -135.09,-601.182 C-143.332,-603.391 -152.445,-593.621 -146.624,-581.409 C-142.435,-569.893 -142.08,-569.278 -141.097,-566.157 Z M-204.363,-695.612 C-204.363,-695.612 -197.544,-706.516 -193.643,-710.408 C-188.478,-717.078 -189.581,-727.507 -198.308,-729.845 C-206.728,-732.361 -215.664,-722.284 -210.197,-710.686 C-205.653,-698.556 -205.298,-697.941 -204.363,-695.612 Z M-242.943,-689.321 C-242.943,-689.321 -249.769,-699.724 -251.994,-704.997 C-255.638,-712.729 -265.867,-716.249 -271.647,-709.224 C-277.297,-702.683 -272.138,-690.908 -258.575,-690.132 C-246.774,-689.568 -246.112,-689.131 -242.943,-689.321 Z M-181.689,-527.148 C-181.689,-527.148 -190.926,-535.339 -194.865,-540.032 C-200.969,-546.344 -211.008,-546.696 -215.415,-538.004 C-219.078,-530.151 -210.668,-519.843 -197.698,-523.643 C-184.988,-526.473 -184.373,-526.828 -181.689,-527.148 Z M-177.95,-517.832 C-177.95,-517.832 -189.123,-515.889 -193.876,-515.604 C-201.621,-514.821 -207.353,-507.003 -203.449,-500.241 C-200.337,-493.431 -187.792,-493.707 -183.219,-504.953 C-179.344,-514.568 -178.907,-515.23 -177.95,-517.832 Z M-120.322,-567.086 C-120.192,-567.571 -119.578,-567.926 -119.578,-567.926 C-119.578,-567.926 -120.24,-568.363 -120.855,-568.008 C-120.855,-568.008 -122.084,-567.298 -124.011,-564.957 C-125.808,-563.1 -128.479,-559.918 -130.358,-556.784 C-132.059,-553.343 -134.553,-549.854 -135.333,-546.945 C-136.077,-546.105 -136.467,-544.65 -136.727,-543.681 C-136.857,-543.196 -137.117,-542.226 -137.117,-542.226 C-137.554,-541.564 -137.022,-540.642 -136.052,-540.382 C-135.39,-539.945 -134.467,-540.477 -134.208,-541.447 C-134.208,-541.447 -134.078,-541.932 -133.818,-542.901 C-133.995,-543.209 -133.428,-544.356 -133.038,-545.81 C-132.566,-548.542 -130.865,-551.983 -128.986,-555.117 C-127.284,-558.559 -125.05,-561.078 -123.124,-563.42 C-121.504,-565.584 -120.322,-567.086 -120.322,-567.086 Z M-154.21,-564.734 C-154.565,-565.349 -155.664,-565.124 -156.504,-565.868 C-156.811,-565.691 -157.071,-564.721 -156.539,-563.799 C-156.539,-563.799 -152.068,-558.184 -147.419,-552.262 C-145.514,-549.673 -142.817,-547.131 -140.783,-545.027 C-139.943,-544.283 -139.411,-543.361 -138.264,-542.793 C-137.731,-541.871 -136.762,-541.611 -136.762,-541.611 C-136.407,-540.997 -135.744,-540.559 -135.485,-541.529 C-134.87,-541.884 -134.433,-542.546 -135.402,-542.806 C-135.402,-542.806 -135.58,-543.114 -136.549,-543.373 C-137.389,-544.118 -137.567,-544.425 -139.069,-545.607 C-140.748,-547.097 -142.83,-549.993 -145.397,-553.019 C-149.868,-558.634 -154.21,-564.734 -154.21,-564.734 Z M-161.633,-521.514 C-161.633,-521.514 -161.456,-521.207 -161.633,-521.514 C-160.534,-521.739 -160.097,-522.401 -160.724,-524.908 C-161.079,-525.523 -161.256,-525.83 -162.533,-525.912 C-162.533,-525.912 -164.248,-525.333 -166.447,-524.883 C-168.646,-524.432 -171.283,-523.32 -174.404,-522.338 C-177.218,-521.533 -180.339,-520.55 -181.828,-518.871 C-182.751,-518.338 -183.318,-517.191 -183.932,-516.836 C-183.885,-516.044 -184.5,-515.689 -184.5,-515.689 C-185.114,-515.334 -185.114,-515.334 -184.759,-514.72 C-184.759,-514.72 -184.405,-514.105 -183.79,-514.46 C-183.79,-514.46 -183.482,-514.637 -182.868,-514.992 C-182.253,-515.347 -181.331,-515.88 -180.409,-516.412 C-178.564,-517.477 -175.621,-518.766 -172.807,-519.571 C-170.478,-520.506 -167.664,-521.311 -165.287,-521.454 C-163.525,-521.242 -161.633,-521.514 -161.633,-521.514 Z M-221.634,-609.822 C-221.327,-609.999 -221.327,-609.999 -221.634,-609.822 C-220.712,-610.354 -220.937,-611.454 -222.084,-612.021 C-236.503,-627.057 -258.178,-630.526 -259.455,-630.609 C-260.07,-630.254 -260.377,-630.076 -260.637,-629.107 C-260.282,-628.492 -260.104,-628.184 -259.135,-627.925 C-258.827,-628.102 -236.975,-624.325 -223.089,-610.212 C-222.911,-609.904 -222.249,-609.467 -221.634,-609.822 Z M-231.976,-707.948 C-232.509,-708.87 -233.478,-709.13 -235.24,-709.342 C-235.855,-708.987 -236.422,-707.84 -235.89,-706.918 C-235.89,-706.918 -235.133,-704.896 -234.505,-702.39 C-232.908,-699.623 -232.055,-696.017 -231.025,-692.104 C-229.995,-688.19 -229.143,-684.584 -228.645,-681.593 C-228.018,-679.086 -228.053,-677.017 -228.053,-677.017 C-227.698,-676.402 -227.52,-676.095 -226.551,-675.835 C-225.758,-675.883 -225.629,-676.367 -225.369,-677.337 C-225.369,-677.337 -225.334,-679.406 -225.654,-682.09 C-225.974,-684.774 -226.697,-688.865 -227.549,-692.471 C-228.402,-696.077 -229.432,-699.991 -230.414,-703.112 C-231.526,-705.749 -231.976,-707.948 -231.976,-707.948 Z M-153.014,-632.227 C-152.706,-632.405 -152.446,-633.374 -152.931,-633.504 C-153.286,-634.119 -153.819,-635.041 -154.741,-634.509 C-163.005,-631.786 -175.585,-629.441 -180.953,-628.801 C-176.298,-641.324 -177.557,-656.991 -177.297,-657.961 C-177.345,-658.753 -177.829,-658.883 -178.799,-659.143 C-179.591,-659.095 -179.721,-658.61 -179.981,-657.641 C-179.981,-657.641 -179.065,-639.727 -184.204,-627.334 C-184.204,-627.334 -184.642,-626.671 -184.287,-626.057 C-184.109,-625.749 -183.802,-625.927 -182.832,-625.667 C-181.863,-625.407 -164.222,-628.215 -153.014,-632.227 C-153.628,-631.872 -153.628,-631.872 -153.014,-632.227 Z M-206.222,-668.309 C-205.608,-668.664 -205.963,-669.279 -206.222,-668.309 C-201.425,-678.456 -188.008,-690.71 -186.731,-690.628 C-186.424,-690.806 -186.342,-692.083 -186.697,-692.697 C-186.874,-693.005 -188.021,-693.572 -188.943,-693.039 C-189.865,-692.507 -203.33,-681.045 -207.772,-670.284 C-209.001,-669.574 -208.469,-668.652 -207.499,-668.392 C-207.499,-668.392 -206.837,-667.955 -206.222,-668.309 Z M-203.286,-582.301 C-203.286,-582.301 -203.464,-582.608 -203.286,-582.301 C-202.364,-582.833 -202.589,-583.933 -203.606,-584.985 C-204.398,-584.937 -218.947,-599.488 -237.003,-600.949 C-237.795,-600.901 -237.925,-600.416 -238.185,-599.447 C-238.137,-598.655 -237.652,-598.525 -236.683,-598.265 C-219.904,-596.887 -205.095,-583.305 -204.741,-582.691 C-204.563,-582.383 -203.901,-581.946 -203.286,-582.301 Z " fill="#4d4d4d" fill-opacity="1.00" />				<path d="M140.665,-697.599 C140.535,-698.084 140.89,-698.699 141.47,-700.413 C142.132,-700.85 143.054,-700.318 143.314,-699.348 C143.314,-699.348 146.631,-683.089 146.919,-658.743 C147.023,-652.535 146.773,-645.712 146.038,-638.76 C145.61,-631.63 144.874,-624.678 142.992,-617.158 C141.464,-610.253 139.582,-602.734 137.037,-594.777 C134.185,-586.997 131.203,-579.703 127.736,-572.278 C123.962,-565.031 120.058,-558.269 115.054,-551.732 C113.989,-549.888 112.487,-548.706 111.422,-546.861 C110.357,-545.017 108.855,-543.835 107.483,-542.168 C106.111,-540.502 105.224,-538.965 103.544,-537.475 C101.865,-535.986 100.67,-534.627 98.9906,-533.137 C97.666,-532.263 96.2939,-530.596 94.7918,-529.414 C93.1123,-527.925 92.0951,-526.873 90.593,-525.691 C88.7836,-524.686 87.459,-523.812 86.2643,-522.452 C85.0696,-521.093 83.745,-520.218 81.9356,-519.214 C76.5897,-514.923 70.8065,-511.295 65.6856,-508.104 C60.6122,-505.706 55.7987,-502.337 51.3876,-500.376 C46.6691,-498.592 43.0503,-496.583 39.7864,-495.189 C33.436,-492.708 29.3798,-491.361 29.3798,-491.361 C28.3626,-490.309 27.4405,-490.841 27.1806,-491.811 C26.1286,-492.828 26.661,-493.75 27.6307,-494.01 C27.6307,-494.01 31.6868,-495.357 38.0372,-497.838 C41.6085,-499.055 45.2274,-501.064 49.6384,-503.025 C53.9196,-505.471 58.6856,-508.048 63.9364,-510.754 C69.3647,-513.767 74.8405,-517.573 79.8791,-522.041 C81.6885,-523.045 82.7057,-524.097 84.2078,-525.279 C85.7099,-526.461 86.7271,-527.513 88.2291,-528.695 C89.7312,-529.877 90.7484,-530.929 92.2505,-532.111 C93.5751,-532.985 94.9472,-534.652 96.4493,-535.834 C97.7739,-536.709 99.146,-538.376 100.648,-539.557 C101.713,-541.402 102.908,-542.761 104.587,-544.25 C105.959,-545.917 106.846,-547.454 108.526,-548.943 C109.591,-550.788 110.478,-552.324 112.158,-553.814 C116.984,-560.044 121.325,-566.144 124.792,-573.568 C128.082,-580.685 131.856,-587.932 134.046,-595.274 C136.413,-602.924 138.295,-610.443 140,-617.656 C142.618,-632.128 144.089,-646.033 144.01,-657.963 C143.931,-669.894 143.225,-679.318 142.553,-686.673 C141.704,-693.72 140.665,-697.599 140.665,-697.599 Z M175.197,-642.416 C175.375,-642.724 176.215,-643.468 176.829,-643.113 C177.799,-643.373 178.366,-642.226 177.834,-641.304 C177.834,-641.304 176.769,-639.46 175.787,-636.338 C174.497,-633.395 171.835,-628.784 169.433,-623.204 C167.208,-617.931 163.659,-611.783 159.317,-605.683 C155.591,-599.229 151.249,-593.129 146.246,-586.591 C143.856,-583.873 141.419,-580.362 138.852,-577.335 C136.9,-573.954 134.204,-571.413 131.637,-568.387 C129.732,-565.798 126.858,-562.949 124.646,-560.538 C122.742,-557.949 120.53,-555.537 118.188,-553.611 C114.426,-549.225 110.405,-545.809 107.886,-543.575 C105.544,-541.649 103.864,-540.159 103.864,-540.159 C103.202,-539.722 103.202,-539.722 102.587,-540.077 C102.15,-540.739 102.15,-540.739 102.505,-541.354 C102.505,-541.354 103.83,-542.229 106.704,-545.077 C109.401,-547.619 112.452,-550.775 116.391,-555.468 C118.426,-557.572 120.33,-560.161 122.542,-562.572 C124.754,-564.984 126.659,-567.573 129.225,-570.599 C133.874,-576.521 138.523,-582.444 143.219,-589.158 C148.223,-595.695 151.95,-602.15 156.291,-608.25 C160.455,-614.043 164.004,-620.19 166.844,-625.108 C169.683,-630.026 171.553,-634.684 173.15,-637.451 C174.133,-640.572 175.197,-642.416 175.197,-642.416 Z M98.0457,-647.206 C97.1236,-647.738 97.3486,-648.838 98.0109,-649.275 C98.5433,-650.197 99.513,-650.457 100.435,-649.925 C100.435,-649.925 103.461,-647.358 108.462,-643.242 C110.566,-641.207 113.107,-638.51 115.956,-635.636 C118.497,-632.94 121.476,-629.58 123.97,-626.092 C126.771,-622.425 129.087,-618.629 130.789,-615.187 C130.823,-613.118 131.521,-611.486 132.525,-609.677 C133.175,-607.253 133.564,-605.798 133.954,-604.344 C134.344,-602.889 134.426,-601.612 134.816,-600.158 C135.076,-599.188 134.851,-598.088 134.933,-596.811 C134.968,-594.742 135.05,-593.465 135.05,-593.465 C134.873,-593.158 134.873,-593.158 133.903,-592.898 C133.241,-592.46 133.241,-592.46 132.981,-593.43 C132.981,-593.43 132.544,-594.092 132.509,-596.162 C132.734,-597.261 132.474,-598.231 132.084,-599.685 C131.824,-600.655 131.435,-602.11 131.045,-603.564 C130.655,-605.019 130.266,-606.473 129.261,-608.283 C128.871,-609.737 128.174,-611.369 127.17,-613.178 C125.988,-614.681 125.291,-616.312 124.286,-618.122 C123.589,-619.754 122.407,-621.256 121.095,-623.243 C118.424,-626.424 116.238,-629.736 113.389,-632.61 C110.54,-635.484 108.129,-637.696 105.895,-640.215 C101.072,-644.639 98.0457,-647.206 98.0457,-647.206 Z M184.531,-691.945 C185.323,-691.897 185.63,-691.72 186.245,-691.365 C187.12,-690.04 186.942,-689.733 185.972,-689.473 C185.972,-689.473 182.531,-687.772 177.588,-684.888 C175.246,-682.961 172.112,-681.082 169.592,-678.848 C167.073,-676.614 164.069,-674.251 161.502,-671.224 C160.13,-669.558 159.243,-668.021 157.563,-666.531 C156.239,-665.657 155.789,-663.458 154.287,-662.276 C152.785,-661.094 152.689,-659.509 151.802,-657.973 C151.27,-657.05 150.82,-654.851 150.287,-653.929 C149.755,-653.007 148.868,-651.47 148.95,-650.193 C148.418,-649.271 148.063,-648.656 148.145,-647.379 C147.258,-645.842 147.34,-644.565 147.34,-644.565 L146.985,-643.951 C146.63,-643.336 145.791,-642.591 145.176,-642.946 C144.561,-643.301 143.639,-643.833 144.171,-644.756 C144.171,-644.756 144.704,-645.678 144.976,-647.569 C145.509,-648.492 146.041,-649.414 145.959,-650.691 C146.491,-651.613 147.023,-652.535 147.296,-654.427 C147.569,-656.319 148.278,-657.548 149.166,-659.085 C149.876,-660.314 150.148,-662.206 151.828,-663.695 C152.892,-665.54 153.78,-667.077 155.459,-668.566 C156.831,-670.233 157.719,-671.77 159.398,-673.259 C161.658,-676.463 165.324,-679.264 167.843,-681.498 C170.67,-683.554 173.189,-685.788 176.146,-687.36 C180.475,-690.598 184.531,-691.945 184.531,-691.945 Z M77.9916,-572.72 C77.9093,-573.997 78.8789,-574.257 79.8359,-571.655 C80.9355,-571.43 81.0654,-570.945 81.3252,-569.976 C81.3252,-569.976 80.4251,-565.577 79.3349,-558.01 C78.4824,-554.404 78.0672,-550.136 76.8597,-545.915 C75.4749,-541.386 74.2674,-537.166 72.7051,-532.33 C71.6403,-530.486 70.528,-527.849 70.078,-525.65 C68.9656,-523.014 67.9009,-521.169 67.4509,-518.97 C66.3861,-517.126 65.9361,-514.927 64.8713,-513.083 C63.1918,-511.593 62.127,-509.749 61.2397,-508.212 C60.3524,-506.675 59.6425,-505.446 58.1405,-504.264 C56.9458,-502.905 56.4134,-501.982 55.2663,-501.415 C53.8941,-499.748 52.747,-499.181 52.747,-499.181 C52.747,-499.181 52.0847,-498.744 51.4699,-499.099 C51.1626,-499.276 50.7253,-499.939 51.0802,-500.553 L51.4351,-501.168 C51.4351,-501.168 51.9675,-502.09 53.647,-503.58 C54.1794,-504.502 55.3266,-505.069 56.2139,-506.606 C57.1012,-508.143 57.811,-509.372 59.3131,-510.554 C60.3779,-512.398 61.2652,-513.935 62.3299,-515.779 C63.3947,-517.624 63.8447,-519.823 64.9095,-521.667 C66.0218,-524.303 67.0866,-526.148 67.5366,-528.347 C68.3416,-531.161 69.099,-533.183 69.549,-535.382 C71.7261,-539.862 72.9335,-544.083 73.5262,-548.659 C74.7336,-552.88 75.3263,-557.456 76.0013,-560.754 C77.7063,-567.967 77.9916,-572.72 77.9916,-572.72 Z M85.8618,-521.045 C85.5545,-521.223 85.5545,-521.223 85.9918,-520.561 C85.5545,-521.223 85.4721,-522.5 86.4418,-522.76 C86.4418,-522.76 88.6409,-522.31 92.1647,-522.734 C95.6885,-523.159 100.359,-524.151 105.338,-524.965 C108.069,-525.437 110.008,-525.957 112.433,-526.606 C114.372,-527.126 116.441,-527.161 118.251,-528.165 C119.705,-528.555 121.16,-528.945 122.307,-529.512 C122.792,-529.642 123.761,-529.901 123.761,-529.901 C124.471,-531.131 125.393,-530.599 125.653,-529.629 C126.705,-528.612 126.173,-527.69 125.203,-527.43 C125.203,-527.43 124.541,-526.992 123.394,-526.425 C122.247,-525.858 120.792,-525.468 118.983,-524.464 C117.528,-524.074 115.589,-523.555 113.165,-522.905 C110.433,-522.433 108.186,-522.091 105.455,-521.619 C100.477,-520.804 95.7233,-521.09 91.8921,-520.843 C88.2385,-520.903 85.8618,-521.045 85.8618,-521.045 Z M173.492,-635.204 C173.492,-635.204 173.106,-647.312 172.647,-652.905 C171.893,-661.537 177.784,-669.611 187.195,-667.456 C195.329,-665.219 197.867,-651.868 187.093,-644.564 C176.012,-637.438 176.012,-637.438 173.492,-635.204 Z M103.271,-644.189 C103.271,-644.189 91.0933,-647.941 85.7729,-649.374 C77.2836,-650.997 71.469,-660.091 76.8752,-668.035 C82.0564,-674.88 94.6842,-673.327 98.3693,-660.544 C101.57,-647.631 101.522,-646.838 103.271,-644.189 Z M132.726,-684.56 C132.726,-684.56 120.371,-688.004 114.873,-689.129 C106.384,-690.752 100.392,-699.539 105.798,-707.484 C110.672,-714.506 123.785,-713.082 127.647,-700.607 C131.025,-688.001 131.332,-687.823 132.726,-684.56 Z M116.492,-647.212 C116.492,-647.212 110.062,-656.662 107.131,-660.813 C102.096,-666.999 102.974,-676.328 111.394,-678.843 C119.021,-681.407 126.905,-672.347 122.278,-661.494 C117.426,-649.541 117.249,-649.234 116.492,-647.212 Z M168.322,-700.073 C168.322,-700.073 167.404,-711.259 165.797,-716.285 C164.511,-723.995 169.562,-731.324 177.614,-730.364 C185.489,-729.096 188.299,-717.638 179.239,-709.754 C169.872,-702.047 169.694,-701.74 168.322,-700.073 Z M186.484,-626.474 C186.484,-626.474 195.319,-633.258 199.163,-636.366 C204.427,-641.934 213.626,-641.541 217.111,-633.381 C219.852,-626.061 211.537,-617.337 200.329,-621.349 C188.813,-625.539 188.506,-625.716 186.484,-626.474 Z M165.05,-597.866 C165.05,-597.866 173.495,-606.105 178.261,-608.681 C185.191,-612.876 192.853,-613.37 196.032,-605.388 C198.772,-598.068 190.457,-589.344 179.249,-593.356 C168.348,-597.191 167.734,-597.546 165.05,-597.866 Z M90.841,-561.613 C90.841,-561.613 94.0608,-572.868 94.9609,-577.267 C96.2286,-585.141 104.306,-589.904 111.328,-585.03 C117.428,-580.689 116.23,-568.676 105.079,-565.688 C93.75,-562.392 93.1353,-562.747 90.841,-561.613 Z M62.9363,-562.97 C62.9363,-562.97 51.6806,-566.19 47.2823,-567.09 C39.4078,-568.357 34.6452,-576.435 39.519,-583.457 C43.8605,-589.557 55.8735,-588.359 58.8615,-577.207 C61.4945,-565.441 61.8019,-565.264 62.9363,-562.97 Z M97.6619,-630.215 C97.6619,-630.215 86.0259,-627.097 80.1603,-624.746 C72.0005,-621.26 62.5543,-625.485 62.995,-635.476 C63.3406,-643.883 75.4266,-649.2 85.2498,-640.66 C95.073,-632.119 95.3804,-631.942 97.6619,-630.215 Z M78.7108,-566.157 C78.7108,-566.157 71.8917,-577.061 68.3459,-581.567 C62.8735,-588.415 63.9765,-598.844 72.7035,-601.182 C80.9457,-603.391 90.059,-593.621 84.2376,-581.409 C80.0481,-569.893 79.6932,-569.278 78.7108,-566.157 Z M141.976,-695.612 C141.976,-695.612 135.157,-706.516 131.257,-710.408 C126.092,-717.078 127.195,-727.507 135.922,-729.845 C144.341,-732.361 153.277,-722.284 147.811,-710.686 C143.266,-698.556 142.911,-697.941 141.976,-695.612 Z M180.557,-689.321 C180.557,-689.321 187.383,-699.724 189.607,-704.997 C193.252,-712.729 203.481,-716.249 209.261,-709.224 C214.911,-702.683 209.751,-690.908 196.189,-690.132 C184.388,-689.568 183.726,-689.131 180.557,-689.321 Z M119.303,-527.148 C119.303,-527.148 128.54,-535.339 132.479,-540.032 C138.582,-546.344 148.621,-546.696 153.029,-538.004 C156.692,-530.151 148.282,-519.843 135.312,-523.643 C122.601,-526.473 121.987,-526.828 119.303,-527.148 Z M115.563,-517.832 C115.563,-517.832 126.737,-515.889 131.49,-515.604 C139.234,-514.821 144.967,-507.003 141.063,-500.241 C137.951,-493.431 125.405,-493.707 120.833,-504.953 C116.957,-514.568 116.52,-515.23 115.563,-517.832 Z M57.9359,-567.086 C57.806,-567.571 57.1913,-567.926 57.1913,-567.926 C57.1913,-567.926 57.8536,-568.363 58.4683,-568.008 C58.4683,-568.008 59.6978,-567.298 61.6244,-564.957 C63.4211,-563.1 66.0924,-559.918 67.9714,-556.784 C69.673,-553.343 72.1668,-549.854 72.9463,-546.945 C73.6909,-546.105 74.0806,-544.65 74.3405,-543.681 C74.4704,-543.196 74.7302,-542.226 74.7302,-542.226 C75.1675,-541.564 74.6351,-540.642 73.6654,-540.382 C73.0031,-539.945 72.081,-540.477 71.8212,-541.447 C71.8212,-541.447 71.6913,-541.932 71.4315,-542.901 C71.6089,-543.209 71.0417,-544.356 70.652,-545.81 C70.1799,-548.542 68.4783,-551.983 66.5993,-555.117 C64.8977,-558.559 62.6637,-561.078 60.7371,-563.42 C59.1179,-565.584 57.9359,-567.086 57.9359,-567.086 Z M91.8234,-564.734 C92.1783,-565.349 93.2779,-565.124 94.1177,-565.868 C94.4251,-565.691 94.6849,-564.721 94.1525,-563.799 C94.1525,-563.799 89.6811,-558.184 85.0323,-552.262 C83.1278,-549.673 80.4311,-547.131 78.3966,-545.027 C77.5568,-544.283 77.0245,-543.361 75.8773,-542.793 C75.3449,-541.871 74.3753,-541.611 74.3753,-541.611 C74.0204,-540.997 73.3581,-540.559 73.0982,-541.529 C72.4835,-541.884 72.0462,-542.546 73.0159,-542.806 C73.0159,-542.806 73.1933,-543.114 74.163,-543.373 C75.0028,-544.118 75.1802,-544.425 76.6823,-545.607 C78.3618,-547.097 80.4438,-549.993 83.0106,-553.019 C87.482,-558.634 91.8234,-564.734 91.8234,-564.734 Z M99.247,-521.514 C99.247,-521.514 99.0696,-521.207 99.247,-521.514 C98.1474,-521.739 97.7101,-522.401 98.3376,-524.908 C98.6926,-525.523 98.87,-525.83 100.147,-525.912 C100.147,-525.912 101.861,-525.333 104.061,-524.883 C106.26,-524.432 108.896,-523.32 112.017,-522.338 C114.831,-521.533 117.953,-520.55 119.442,-518.871 C120.364,-518.338 120.931,-517.191 121.546,-516.836 C121.498,-516.044 122.113,-515.689 122.113,-515.689 C122.728,-515.334 122.728,-515.334 122.373,-514.72 C122.373,-514.72 122.018,-514.105 121.403,-514.46 C121.403,-514.46 121.096,-514.637 120.481,-514.992 C119.866,-515.347 118.944,-515.88 118.022,-516.412 C116.178,-517.477 113.234,-518.766 110.42,-519.571 C108.091,-520.506 105.277,-521.311 102.901,-521.454 C101.139,-521.242 99.247,-521.514 99.247,-521.514 Z M159.248,-609.822 C158.94,-609.999 158.94,-609.999 159.248,-609.822 C158.326,-610.354 158.551,-611.454 159.698,-612.021 C174.116,-627.057 195.791,-630.526 197.068,-630.609 C197.683,-630.254 197.99,-630.076 198.25,-629.107 C197.895,-628.492 197.718,-628.184 196.748,-627.925 C196.441,-628.102 174.588,-624.325 160.702,-610.212 C160.525,-609.904 159.863,-609.467 159.248,-609.822 Z M169.59,-707.948 C170.122,-708.87 171.092,-709.13 172.854,-709.342 C173.469,-708.987 174.036,-707.84 173.503,-706.918 C173.503,-706.918 172.746,-704.896 172.119,-702.39 C170.521,-699.623 169.669,-696.017 168.639,-692.104 C167.609,-688.19 166.756,-684.584 166.259,-681.593 C165.631,-679.086 165.666,-677.017 165.666,-677.017 C165.311,-676.402 165.134,-676.095 164.164,-675.835 C163.372,-675.883 163.242,-676.367 162.982,-677.337 C162.982,-677.337 162.947,-679.406 163.268,-682.09 C163.588,-684.774 164.31,-688.865 165.163,-692.471 C166.015,-696.077 167.045,-699.991 168.028,-703.112 C169.14,-705.749 169.59,-707.948 169.59,-707.948 Z M90.6272,-632.227 C90.3198,-632.405 90.06,-633.374 90.5448,-633.504 C90.8997,-634.119 91.4321,-635.041 92.3542,-634.509 C100.618,-631.786 113.199,-629.441 118.567,-628.801 C113.912,-641.324 115.17,-656.991 114.911,-657.961 C114.958,-658.753 115.443,-658.883 116.413,-659.143 C117.205,-659.095 117.335,-658.61 117.595,-657.641 C117.595,-657.641 116.678,-639.727 121.818,-627.334 C121.818,-627.334 122.255,-626.671 121.9,-626.057 C121.723,-625.749 121.415,-625.927 120.446,-625.667 C119.476,-625.407 101.835,-628.215 90.6272,-632.227 C91.2419,-631.872 91.2419,-631.872 90.6272,-632.227 Z M143.836,-668.309 C143.221,-668.664 143.576,-669.279 143.836,-668.309 C139.039,-678.456 125.622,-690.71 124.345,-690.628 C124.038,-690.806 123.955,-692.083 124.31,-692.697 C124.488,-693.005 125.635,-693.572 126.557,-693.039 C127.479,-692.507 140.943,-681.045 145.386,-670.284 C146.615,-669.574 146.083,-668.652 145.113,-668.392 C145.113,-668.392 144.451,-667.955 143.836,-668.309 Z M140.9,-582.301 C140.9,-582.301 141.077,-582.608 140.9,-582.301 C139.977,-582.833 140.202,-583.933 141.22,-584.985 C142.012,-584.937 156.56,-599.488 174.616,-600.949 C175.409,-600.901 175.539,-600.416 175.798,-599.447 C175.751,-598.655 175.266,-598.525 174.296,-598.265 C157.517,-596.887 142.709,-583.305 142.354,-582.691 C142.177,-582.383 141.514,-581.946 140.9,-582.301 Z " fill="#4d4d4d" fill-opacity="1.00" />			</g>		</g>	</svg>
