<?xml version="1.0" encoding="utf-8" ?>	<!-- Generator: Assembly 1.8 - http://assemblyapp.co -->	<svg version="1.1" xmlns="http://www.w3.org/2000/svg" xmlns:xlink="http://www.w3.org/1999/xlink" width="2048.00" height="2048.00" viewBox="0 0 2048.0 2048.0">		<rect x="0" y="0" width="2048.00" height="2048.00" fill="none" />		<g id="document" transform="matrix(1,0,0,1,1024.0,1024.0)">			<g>				<path d="M359.204,-444.83 C494.01,-352.713 552.426,-103.322 552.426,-103.322 C552.426,-103.322 300.788,-62.8797 163.735,-152.75 C28.9291,-244.868 15.4485,-465.051 15.4485,-465.051 C15.4485,-465.051 222.151,-534.701 359.204,-444.83 Z " fill="#d6e6ed" fill-opacity="1.00" />				<g>					<path d="M468.963,-93.241 C468.963,-105.623 471.027,-117.012 475.154,-127.407 C479.282,-137.802 485.014,-146.784 492.352,-154.351 C499.69,-161.918 508.518,-167.841 518.837,-172.122 C529.155,-176.402 540.506,-178.542 552.888,-178.542 C565.271,-178.542 576.621,-176.402 586.94,-172.122 C597.259,-167.841 606.087,-161.918 613.425,-154.351 C620.762,-146.784 626.495,-137.802 630.622,-127.407 C634.75,-117.012 636.814,-105.623 636.814,-93.241 C636.814,-80.8586 634.75,-69.4316 630.622,-58.9601 C626.495,-48.4885 620.762,-39.4692 613.425,-31.9022 C606.087,-24.3351 597.259,-18.4497 586.94,-14.2458 C576.621,-10.0418 565.271,-7.93989 552.888,-7.93989 C540.506,-7.93989 529.155,-10.0418 518.837,-14.2458 C508.518,-18.4497 499.69,-24.3351 492.352,-31.9022 C485.014,-39.4692 479.282,-48.4885 475.154,-58.9601 C471.027,-69.4316 468.963,-80.8586 468.963,-93.241 Z M484.097,-93.241 C484.097,-83.1517 485.702,-73.7502 488.912,-65.0366 C492.123,-56.3231 496.709,-48.756 502.671,-42.3355 C508.633,-35.915 515.856,-30.8703 524.34,-27.2014 C532.824,-23.5326 542.34,-21.6981 552.888,-21.6981 C563.436,-21.6981 572.952,-23.5326 581.437,-27.2014 C589.921,-30.8703 597.144,-35.915 603.106,-42.3355 C609.068,-48.756 613.654,-56.3231 616.864,-65.0366 C620.074,-73.7502 621.68,-83.1517 621.68,-93.241 C621.68,-103.33 620.074,-112.732 616.864,-121.445 C613.654,-130.159 609.068,-137.726 603.106,-144.147 C597.144,-150.567 589.921,-155.612 581.437,-159.281 C572.952,-162.95 563.436,-164.784 552.888,-164.784 C542.34,-164.784 532.824,-162.95 524.34,-159.281 C515.856,-155.612 508.633,-150.567 502.671,-144.147 C496.709,-137.726 492.123,-130.159 488.912,-121.445 C485.702,-112.732 484.097,-103.33 484.097,-93.241 Z " fill="#2a00c3" fill-opacity="1.00" />					<path d="M552.888,-156.764 L560.23,-164.105 C580.491,-143.843 580.491,-110.955 560.23,-90.6931 L552.888,-98.0343 C569.112,-114.258 569.112,-140.54 552.888,-156.764 Z " fill="#2a00c3" fill-opacity="1.00" />					<path d="M552.919,-155.57 C544.6,-155.57 537.866,-162.305 537.866,-170.623 C537.866,-178.942 544.6,-185.676 552.919,-185.676 C561.237,-185.676 567.972,-178.942 567.972,-170.623 C567.972,-162.305 561.237,-155.57 552.919,-155.57 Z " fill="#2a00c3" fill-opacity="1.00" />					<path d="M552.506,-97.454 C554.052,-99.883 557.271,-100.597 559.7,-99.0505 C562.129,-97.5037 562.843,-94.2853 561.296,-91.8563 C559.75,-89.4273 556.531,-88.7131 554.102,-90.2599 C551.673,-91.8066 550.959,-95.025 552.506,-97.454 Z " fill="#2a00c3" fill-opacity="1.00" />					<path d="M539.853,-7.55433 C544.04,-0.301193 553.162,2.14295 560.415,-2.04465 C567.668,-6.23225 570.112,-15.3539 565.925,-22.6071 C562.699,-28.1939 556.398,-30.9595 550.324,-29.9357 L516.766,-88.0589 C515.352,-90.5093 512.105,-91.3792 509.654,-89.9645 C507.204,-88.5498 506.334,-85.3031 507.749,-82.8527 L541.306,-24.7295 C537.326,-20.0792 536.627,-13.1412 539.853,-7.55433 Z " fill="#2a00c3" fill-opacity="1.00" />				</g>				<path d="M374.311,-376.594 C482.879,-302.406 529.925,-101.555 529.925,-101.555 C529.925,-101.555 327.265,-68.985 216.888,-141.364 C108.32,-215.551 97.4632,-392.879 97.4632,-392.879 C97.4632,-392.879 263.934,-448.972 374.311,-376.594 Z " fill="#d6e6ed" fill-opacity="1.00" />				<path d="M459.923,-172.457 C395.87,-165.066 289.936,-140.43 198.784,-202.02 C105.169,-263.609 90.3872,-362.152 85.46,-413.887 C134.731,-426.205 211.102,-468.085 304.718,-404.033 C395.87,-342.443 442.678,-234.046 459.923,-172.457 Z " fill="#f37772" fill-opacity="1.00" />				<path d="M-443.591,-444.83 C-578.398,-352.713 -636.814,-103.322 -636.814,-103.322 C-636.814,-103.322 -385.175,-62.8797 -248.123,-152.75 C-113.316,-244.868 -99.8358,-465.051 -99.8358,-465.051 C-99.8358,-465.051 -306.539,-534.701 -443.591,-444.83 Z " fill="#d6e6ed" fill-opacity="1.00" />				<path d="M-526.951,-184.294 C-468.837,-177.588 -372.725,-155.237 -290.024,-211.116 C-205.088,-266.995 -191.677,-356.401 -187.207,-403.339 C-231.91,-414.515 -301.2,-452.513 -386.136,-394.399 C-468.837,-338.52 -511.305,-240.173 -526.951,-184.294 Z " fill="#f37772" fill-opacity="1.00" />			</g>		</g>	</svg>