<?xml version="1.0" encoding="utf-8" ?>	<!-- Generator: Assembly 1.8 - http://assemblyapp.co -->	<svg version="1.1" xmlns="http://www.w3.org/2000/svg" xmlns:xlink="http://www.w3.org/1999/xlink" width="2048.00" height="2048.00" viewBox="0 0 2048.0 2048.0">				<g id="document" transform="matrix(1,0,0,1,1024.0,1024.0)">			<g>				<path d="M-156.206,80.0872 C-156.206,100.41 -172.681,116.885 -193.004,116.885 C-213.327,116.885 -229.802,100.41 -229.802,80.0872 C-229.802,59.7641 -213.327,43.289 -193.004,43.289 C-172.681,43.289 -156.206,59.7641 -156.206,80.0872 Z " fill="#f0515f" fill-opacity="1.00" />				<path d="M154.798,72.965 C154.798,93.288 138.323,109.763 118,109.763 C97.6765,109.763 81.2014,93.288 81.2014,72.965 C81.2014,52.6419 97.6765,36.1668 118,36.1668 C138.323,36.1668 154.798,52.6419 154.798,72.965 Z " fill="#f0515f" fill-opacity="1.00" />				<path d="M149.627,-223.789 C163.392,-201.733 156.67,-172.694 134.613,-158.93 C112.557,-145.165 83.5179,-151.887 69.7534,-173.944 C55.9889,-196 62.711,-225.039 84.7675,-238.803 C106.824,-252.568 135.863,-245.846 149.627,-223.789 Z " fill="#434345" fill-opacity="1.00" />				<path d="M-144.69,-198.23 C-145.042,-170.891 -167.489,-149.013 -194.828,-149.365 C-222.167,-149.717 -244.044,-172.165 -243.692,-199.503 C-243.341,-226.842 -220.893,-248.72 -193.554,-248.368 C-166.215,-248.016 -144.338,-225.568 -144.69,-198.23 Z " fill="#f1ecef" fill-opacity="1.00" />				<path d="M106.507,-224.36 C113.672,-218.55 114.771,-208.031 108.961,-200.865 C103.151,-193.7 92.6318,-192.601 85.4662,-198.411 C78.3007,-204.221 77.202,-214.74 83.0122,-221.906 C88.8224,-229.071 99.3412,-230.17 106.507,-224.36 Z " fill="#ffffff" fill-opacity="1.00" />				<path d="M-150.641,-198.306 C-150.942,-174.862 -170.193,-156.1 -193.637,-156.402 C-217.082,-156.704 -235.843,-175.954 -235.541,-199.398 C-235.24,-222.843 -215.99,-241.604 -192.545,-241.303 C-169.1,-241.001 -150.339,-221.751 -150.641,-198.306 Z " fill="#434345" fill-opacity="1.00" />				<path d="M-193.715,-213.342 C-191.109,-205.441 -195.402,-196.923 -203.303,-194.317 C-211.204,-191.711 -219.722,-196.004 -222.328,-203.906 C-224.934,-211.807 -220.641,-220.325 -212.74,-222.931 C-204.838,-225.536 -196.32,-221.243 -193.715,-213.342 Z " fill="#ffffff" fill-opacity="1.00" />				<path d="M103.516,133.785 C112.851,253.213 -182.514,276.298 -191.849,156.87 C-191.849,156.87 -87.8013,152.201 -13.96,146.429 C59.8813,140.658 103.516,133.785 103.516,133.785 Z " fill="#f0515f" fill-opacity="1.00" />			</g>		</g>	</svg>
