<?xml version="1.0" encoding="utf-8" ?>	<!-- Generator: Assembly 1.8 - http://assemblyapp.co -->	<svg version="1.1" xmlns="http://www.w3.org/2000/svg" xmlns:xlink="http://www.w3.org/1999/xlink" width="2048.00" height="2048.00" viewBox="0 0 2048.0 2048.0">				<g id="document" transform="matrix(1,0,0,1,1024.0,1024.0)">			<g>				<g>					<path d="M-154.653,79.7079 C-154.653,99.9752 -171.083,116.405 -191.35,116.405 C-211.617,116.405 -228.047,99.9752 -228.047,79.7079 C-228.047,59.4407 -211.617,43.0108 -191.35,43.0108 C-171.083,43.0108 -154.653,59.4407 -154.653,79.7079 Z " fill="#f0515f" fill-opacity="1.00" />					<path d="M155.497,72.6053 C155.497,92.8725 139.067,109.302 118.8,109.302 C98.5329,109.302 82.1031,92.8725 82.1031,72.6053 C82.1031,52.338 98.5329,35.9081 118.8,35.9081 C139.067,35.9081 155.497,52.338 155.497,72.6053 Z " fill="#f0515f" fill-opacity="1.00" />					<path d="M156.196,-198.48 C156.196,-173.251 135.743,-152.798 110.514,-152.798 C85.2842,-152.798 64.8316,-173.251 64.8316,-198.48 C64.8316,-223.71 85.2842,-244.162 110.514,-244.162 C135.743,-244.162 156.196,-223.71 156.196,-198.48 Z " fill="#434345" fill-opacity="1.00" />					<path d="M-139.264,-198.48 C-139.264,-169.06 -163.113,-145.21 -192.534,-145.21 C-221.954,-145.21 -245.804,-169.06 -245.804,-198.48 C-245.804,-227.9 -221.954,-251.75 -192.534,-251.75 C-163.113,-251.75 -139.264,-227.9 -139.264,-198.48 Z " fill="#f1ecef" fill-opacity="1.00" />					<path d="M109.594,-214.093 C112.508,-205.629 108.009,-196.404 99.5442,-193.49 C91.0796,-190.576 81.8555,-195.076 78.9415,-203.54 C76.0275,-212.005 80.5271,-221.229 88.9916,-224.143 C97.4561,-227.057 106.68,-222.558 109.594,-214.093 Z " fill="#ffffff" fill-opacity="1.00" />					<path d="M-145.668,-198.48 C-145.668,-173.251 -166.12,-152.798 -191.35,-152.798 C-216.579,-152.798 -237.032,-173.251 -237.032,-198.48 C-237.032,-223.71 -216.579,-244.162 -191.35,-244.162 C-166.12,-244.162 -145.668,-223.71 -145.668,-198.48 Z " fill="#434345" fill-opacity="1.00" />					<path d="M-192.221,-214.062 C-189.308,-205.596 -193.809,-196.372 -202.275,-193.459 C-210.74,-190.546 -219.964,-195.047 -222.877,-203.512 C-225.79,-211.978 -221.289,-221.202 -212.824,-224.115 C-204.359,-227.028 -195.134,-222.527 -192.221,-214.062 Z " fill="#ffffff" fill-opacity="1.00" />				</g>				<path d="M-186.042,220.322 C-186.042,147.345 109.41,147.345 109.41,220.322 C109.41,220.322 27.9692,205.59 -45.894,205.59 C-119.757,205.59 -186.042,220.322 -186.042,220.322 Z " fill="#f0515f" fill-opacity="1.00" />			</g>		</g>	</svg>
