<?xml version="1.0" encoding="utf-8" ?>	<!-- Generator: Assembly 1.8 - http://assemblyapp.co -->	<svg version="1.1" xmlns="http://www.w3.org/2000/svg" xmlns:xlink="http://www.w3.org/1999/xlink" width="2048.00" height="2048.00" viewBox="0 0 2048.0 2048.0">		<rect x="0" y="0" width="2048.00" height="2048.00" fill="none" />		<g id="document" transform="matrix(1,0,0,1,1024.0,1024.0)">			<g>				<path d="M-276.166,303.442 C-297.474,303.442 -309.312,296.339 -314.047,285.685 C-334.171,284.502 -349.56,278.583 -367.317,262.01 C-370.868,258.458 -372.052,252.54 -368.5,248.988 C-364.949,245.437 -359.03,244.253 -355.479,247.804 C-342.457,258.458 -331.803,264.377 -319.966,265.561 C-321.149,248.988 -312.863,232.415 -301.025,225.313 C-292.739,220.578 -284.452,220.578 -276.166,225.313 C-266.696,231.232 -261.96,243.069 -265.512,253.723 C-269.063,264.377 -277.35,275.031 -291.555,279.767 C-288.004,280.95 -282.085,282.134 -272.614,282.134 C-259.593,282.134 -248.939,271.48 -245.387,258.458 C-244.204,253.723 -238.285,250.172 -233.55,252.54 C-228.815,253.723 -225.263,259.642 -227.631,264.377 C-234.733,286.869 -251.306,301.075 -272.614,302.258 C-273.798,303.442 -274.982,303.442 -276.166,303.442 Z M-289.187,243.069 C-290.371,243.069 -290.371,243.069 -291.555,244.253 C-296.29,247.805 -301.025,257.275 -301.025,267.929 C-291.555,265.561 -285.636,258.459 -283.268,252.54 C-282.085,247.805 -284.452,245.437 -285.636,244.253 C-286.82,243.069 -288.004,243.069 -289.187,243.069 Z " fill="#beccd4" fill-opacity="1.00" />				<path d="M-384.884,219.264 C-386.209,233.313 -379.384,240.204 -369.51,243.518 C-375.143,244.976 -380.709,244.114 -386.806,237.487 C-384.288,247.163 -375.739,250.609 -365.6,249.217 C-370.438,253.591 -375.54,253.789 -384.288,251.072 C-378.655,258.296 -369.642,259.952 -360.895,253.259 C-364.606,260.681 -370.106,263.067 -378.854,263.995 C-370.305,267.772 -359.437,264.989 -355.461,253.591 C-355.461,262.404 -358.576,267.242 -367.853,272.013 C-345.587,269.959 -347.774,247.825 -353.539,235.831 C-366.66,242.06 -379.848,237.686 -384.884,219.264 Z " fill="#1a1f2b" fill-opacity="1.00" />				<path d="M-332.834,239.906 C-346.084,235.052 -354.485,239.901 -360.2,248.608 C-360.178,242.79 -357.929,237.626 -349.97,233.414 C-359.968,233.39 -365.474,240.781 -366.706,250.941 C-369.706,245.15 -368.601,240.165 -363.749,232.396 C-372.167,236.007 -376.061,244.302 -371.811,254.463 C-378.046,248.987 -378.955,243.061 -377.628,234.365 C-383.455,241.673 -383.526,252.891 -373.513,259.635 C-382.037,257.394 -385.924,253.152 -388.18,242.966 C-391.854,265.022 -369.892,268.535 -356.826,266.009 C-359.514,251.735 -351.932,240.093 -332.834,239.906 Z " fill="#1a1f2b" fill-opacity="1.00" />				<path d="M-393.13,229.546 C-387.253,242.376 -377.896,244.931 -367.689,242.864 C-371.838,246.943 -377.089,248.98 -385.683,246.289 C-378.664,253.409 -369.538,252.119 -361.453,245.845 C-363.456,252.051 -367.775,254.775 -376.709,256.795 C-368.22,260.234 -359.586,257.163 -355.357,246.993 C-354.86,255.276 -358.431,260.092 -365.542,265.269 C-356.25,264.266 -348.23,256.422 -350.486,244.563 C-346.079,252.196 -346.357,257.942 -352.006,266.713 C-333.751,253.801 -346.711,235.726 -357.701,228.221 C-365.95,240.177 -379.557,242.983 -393.13,229.546 Z " fill="#1a1f2b" fill-opacity="1.00" />				<path d="M-351.422,221.761 C-364.251,227.638 -366.807,236.995 -364.739,247.203 C-368.818,243.054 -370.855,237.802 -368.165,229.209 C-375.285,236.227 -373.995,245.353 -367.72,253.438 C-373.926,251.436 -376.65,247.116 -378.671,238.182 C-382.11,246.672 -379.038,255.305 -368.868,259.534 C-377.151,260.031 -381.968,256.461 -387.145,249.349 C-386.142,258.641 -378.297,266.661 -366.438,264.406 C-374.071,268.813 -379.818,268.534 -388.589,262.885 C-375.676,281.141 -357.602,268.18 -350.097,257.19 C-362.052,248.942 -364.858,235.334 -351.422,221.761 Z " fill="#1a1f2b" fill-opacity="1.00" />				<path d="M-341.935,265.665 C-344.357,251.763 -352.756,246.912 -363.154,246.317 C-358.104,243.427 -352.508,242.791 -344.881,247.579 C-349.858,238.908 -359.013,237.836 -368.427,241.848 C-364.912,236.355 -360.042,234.819 -350.888,235.137 C-358.224,229.652 -367.355,230.427 -374.031,239.188 C-372.406,231.051 -367.728,227.301 -359.534,224.102 C-368.775,222.709 -378.526,228.257 -379.36,240.3 C-381.681,231.797 -379.951,226.31 -372.258,219.264 C-393.196,227.11 -385.257,247.886 -376.536,257.939 C-365.519,248.473 -351.646,249.219 -341.935,265.665 Z " fill="#1a1f2b" fill-opacity="1.00" />				<path d="M-364.607,228.221 C-372.78,239.725 -370.314,249.107 -363.42,256.913 C-369.027,255.359 -373.417,251.83 -375.383,243.043 C-378.04,252.681 -372.36,259.939 -362.884,263.804 C-369.26,265.172 -373.778,262.793 -379.995,256.067 C-378.729,265.139 -371.752,271.079 -360.83,269.657 C-367.755,274.229 -373.711,273.545 -381.75,269.975 C-376.236,277.52 -365.432,280.544 -356.29,272.661 C-360.697,280.294 -365.813,282.926 -376.233,282.419 C-355.923,291.773 -346.75,271.511 -345.746,258.241 C-360.223,257.075 -369.457,246.694 -364.607,228.221 Z " fill="#1a1f2b" fill-opacity="1.00" />			</g>		</g>	</svg>