<?xml version="1.0" encoding="utf-8" ?>	<!-- Generator: Assembly 1.8 - http://assemblyapp.co -->	<svg version="1.1" xmlns="http://www.w3.org/2000/svg" xmlns:xlink="http://www.w3.org/1999/xlink" width="2048.00" height="2048.00" viewBox="0 0 2048.0 2048.0">		<rect x="0" y="0" width="2048.00" height="2048.00" fill="none" />		<g id="document" transform="matrix(1,0,0,1,1024.0,1024.0)">			<g>				<path d="M-438.838,227.387 C-460.146,227.387 -471.984,220.285 -476.719,209.631 C-496.843,208.447 -512.232,202.528 -529.989,185.955 C-533.54,182.404 -534.724,176.485 -531.173,172.934 C-527.621,169.382 -521.702,168.198 -518.151,171.75 C-505.129,182.404 -494.475,188.323 -482.638,189.506 C-483.821,172.934 -475.535,156.361 -463.697,149.258 C-455.411,144.523 -447.124,144.523 -438.838,149.258 C-429.368,155.177 -424.632,167.015 -428.184,177.669 C-431.735,188.323 -440.022,198.977 -454.227,203.712 C-450.676,204.896 -444.757,206.079 -435.286,206.079 C-422.265,206.079 -411.611,195.425 -408.06,182.404 C-406.876,177.669 -400.957,174.117 -396.222,176.485 C-391.487,177.669 -387.935,183.588 -390.303,188.323 C-397.406,210.814 -413.978,225.02 -435.286,226.204 C-436.47,227.387 -437.654,227.387 -438.838,227.387 Z M-451.859,167.015 C-453.043,167.015 -453.043,167.015 -454.227,168.198 C-458.962,171.75 -463.697,181.22 -463.697,191.874 C-454.227,189.506 -448.308,182.404 -445.94,176.485 C-444.757,171.75 -447.124,169.382 -448.308,168.198 C-449.492,167.015 -450.676,167.015 -451.859,167.015 Z " fill="#e60000" fill-opacity="1.00" />				<path d="M-487.021,170.95 C-487.021,170.95 -539.799,168.529 -561.249,149.843 C-534.983,171.826 -525.776,216.892 -525.776,216.892 C-525.776,216.892 -530.319,193.35 -521.464,181.583 C-512.609,169.816 -487.021,170.95 -487.021,170.95 Z " fill="#e60000" fill-opacity="1.00" />			</g>		</g>	</svg>