<?xml version="1.0" encoding="utf-8" ?>	<!-- Generator: Assembly 1.8 - http://assemblyapp.co -->	<svg version="1.1" xmlns="http://www.w3.org/2000/svg" xmlns:xlink="http://www.w3.org/1999/xlink" width="2048.00" height="2048.00" viewBox="0 0 2048.0 2048.0">		<rect x="0" y="0" width="2048.00" height="2048.00" fill="none" />		<g id="document" transform="matrix(1,0,0,1,1024.0,1024.0)">			<g>				<g>					<path d="M-341.455,277.991 C-362.966,277.991 -374.916,270.821 -379.697,260.065 C-400.012,258.87 -415.548,252.895 -433.474,236.164 C-437.059,232.579 -438.254,226.604 -434.669,223.019 C-431.084,219.434 -425.108,218.239 -421.523,221.824 C-408.378,232.579 -397.622,238.554 -385.672,239.749 C-386.867,223.019 -378.502,206.288 -366.551,199.118 C-358.186,194.338 -349.821,194.338 -341.455,199.118 C-331.895,205.093 -327.115,217.044 -330.7,227.799 C-334.285,238.554 -342.65,249.31 -356.991,254.09 C-353.406,255.285 -347.43,256.48 -337.87,256.48 C-324.725,256.48 -313.969,245.725 -310.384,232.579 C-309.189,227.799 -303.214,224.214 -298.434,226.604 C-293.653,227.799 -290.068,233.774 -292.458,238.554 C-299.629,261.26 -316.359,275.601 -337.87,276.796 C-339.065,277.991 -340.26,277.991 -341.455,277.991 Z M-354.601,217.044 C-355.796,217.044 -355.796,217.044 -356.991,218.239 C-361.771,221.824 -366.551,231.384 -366.551,242.139 C-356.991,239.749 -351.016,232.579 -348.626,226.604 C-347.43,221.824 -349.821,219.434 -351.016,218.239 C-352.211,217.044 -353.406,217.044 -354.601,217.044 Z " fill="#beccd4" fill-opacity="1.00" />					<path d="M-426.087,267.282 L-422.717,232.094 L-388.444,223.017 L-420.976,208.789 L-418.972,173.401 L-442.45,199.956 L-475.577,187.174 L-457.611,217.74 L-479.977,245.114 L-445.345,237.512 L-426.087,267.282 Z " fill="#ffcc1a" fill-opacity="1.00" />				</g>			</g>		</g>	</svg>