<?xml version="1.0" encoding="utf-8" ?>	<!-- Generator: Assembly 1.8 - http://assemblyapp.co -->	<svg version="1.1" xmlns="http://www.w3.org/2000/svg" xmlns:xlink="http://www.w3.org/1999/xlink" width="2048.00" height="2048.00" viewBox="0 0 2048.0 2048.0">		<rect x="0" y="0" width="2048.00" height="2048.00" fill="none" />		<g id="document" transform="matrix(1,0,0,1,1024.0,1024.0)">			<g>				<path d="M-438.838,227.387 C-460.146,227.387 -471.984,220.285 -476.719,209.631 C-496.843,208.447 -512.232,202.528 -529.989,185.955 C-533.54,182.404 -534.724,176.485 -531.173,172.934 C-527.621,169.382 -521.702,168.198 -518.151,171.75 C-505.129,182.404 -494.475,188.323 -482.638,189.506 C-483.821,172.934 -475.535,156.361 -463.697,149.258 C-455.411,144.523 -447.124,144.523 -438.838,149.258 C-429.368,155.177 -424.632,167.015 -428.184,177.669 C-431.735,188.323 -440.022,198.977 -454.227,203.712 C-450.676,204.896 -444.757,206.079 -435.286,206.079 C-422.265,206.079 -411.611,195.425 -408.06,182.404 C-406.876,177.669 -400.957,174.117 -396.222,176.485 C-391.487,177.669 -387.935,183.588 -390.303,188.323 C-397.406,210.814 -413.978,225.02 -435.286,226.204 C-436.47,227.387 -437.654,227.387 -438.838,227.387 Z M-451.859,167.015 C-453.043,167.015 -453.043,167.015 -454.227,168.198 C-458.962,171.75 -463.697,181.22 -463.697,191.874 C-454.227,189.506 -448.308,182.404 -445.94,176.485 C-444.757,171.75 -447.124,169.382 -448.308,168.198 C-449.492,167.015 -450.676,167.015 -451.859,167.015 Z " fill="#beccd4" fill-opacity="1.00" />				<path d="M-562.802,197.237 C-569.905,190.134 -572.273,179.48 -567.537,171.194 C-575.824,162.907 -575.824,149.886 -567.537,140.415 C-559.251,132.129 -546.229,130.945 -537.943,138.048 C-529.656,133.313 -519.002,133.313 -510.716,140.415 C-501.246,148.702 -501.246,162.907 -509.532,172.377 C-514.267,177.112 -519.002,179.48 -524.921,179.48 C-524.921,185.399 -526.105,191.318 -530.84,196.053 C-539.127,205.523 -553.332,205.523 -562.802,197.237 Z " fill="#434345" fill-opacity="1.00" />			</g>		</g>	</svg>