<?xml version="1.0" encoding="utf-8" ?>	<!-- Generator: Assembly 1.8 - http://assemblyapp.co -->	<svg version="1.1" xmlns="http://www.w3.org/2000/svg" xmlns:xlink="http://www.w3.org/1999/xlink" width="2048.00" height="2048.00" viewBox="0 0 2048.0 2048.0">		<rect x="0" y="0" width="2048.00" height="2048.00" fill="none" />		<g id="document" transform="matrix(1,0,0,1,1024.0,1024.0)">			<g>				<path d="M-340.986,277.991 C-362.294,277.991 -374.132,270.888 -378.867,260.234 C-398.991,259.05 -414.38,253.131 -432.137,236.559 C-435.688,233.007 -436.872,227.088 -433.321,223.537 C-429.77,219.986 -423.851,218.802 -420.299,222.353 C-407.278,233.007 -396.624,238.926 -384.786,240.11 C-385.97,223.537 -377.683,206.964 -365.846,199.861 C-357.559,195.126 -349.273,195.126 -340.986,199.861 C-331.516,205.78 -326.781,217.618 -330.332,228.272 C-333.883,238.926 -342.17,249.58 -356.375,254.315 C-352.824,255.499 -346.905,256.683 -337.435,256.683 C-324.413,256.683 -313.759,246.029 -310.208,233.007 C-309.024,228.272 -303.105,224.721 -298.37,227.088 C-293.635,228.272 -290.084,234.191 -292.451,238.926 C-299.554,261.418 -316.127,275.623 -337.435,276.807 C-338.619,277.991 -339.802,277.991 -340.986,277.991 Z M-354.008,217.618 C-355.192,217.618 -355.192,217.618 -356.375,218.802 C-361.11,222.353 -365.846,231.823 -365.846,242.477 C-356.375,240.11 -350.456,233.007 -348.089,227.088 C-346.905,222.353 -349.273,219.986 -350.456,218.802 C-351.64,217.618 -352.824,217.618 -354.008,217.618 Z " fill="#beccd4" fill-opacity="1.00" />				<path d="M-449.705,193.813 C-451.03,207.861 -444.204,214.753 -434.33,218.067 C-439.963,219.524 -445.53,218.663 -451.626,212.036 C-449.108,221.711 -440.56,225.157 -430.421,223.766 C-435.258,228.139 -440.361,228.338 -449.108,225.621 C-443.475,232.844 -434.463,234.501 -425.716,227.808 C-429.427,235.23 -434.927,237.616 -443.674,238.543 C-435.126,242.321 -424.258,239.537 -420.282,228.139 C-420.282,236.953 -423.396,241.791 -432.674,246.562 C-410.408,244.507 -412.594,222.374 -418.36,210.38 C-431.481,216.609 -444.668,212.235 -449.705,193.813 Z " fill="#1a1f2b" fill-opacity="1.00" />				<path d="M-397.654,214.455 C-410.905,209.601 -419.305,214.45 -425.02,223.157 C-424.998,217.339 -422.75,212.174 -414.791,207.963 C-424.788,207.938 -430.294,215.33 -431.526,225.489 C-434.526,219.699 -433.421,214.713 -428.569,206.944 C-436.987,210.555 -440.881,218.851 -436.632,229.012 C-442.866,223.536 -443.775,217.61 -442.449,208.914 C-448.275,216.221 -448.346,227.44 -438.334,234.183 C-446.858,231.942 -450.745,227.7 -453,217.515 C-456.675,239.571 -434.712,243.084 -421.646,240.557 C-424.335,226.284 -416.752,214.642 -397.654,214.455 Z " fill="#1a1f2b" fill-opacity="1.00" />				<path d="M-457.95,204.095 C-452.074,216.924 -442.717,219.48 -432.509,217.413 C-436.658,221.492 -441.91,223.529 -450.503,220.838 C-443.485,227.958 -434.358,226.668 -426.274,220.393 C-428.276,226.6 -432.596,229.323 -441.53,231.344 C-433.04,234.783 -424.407,231.712 -420.178,221.542 C-419.681,229.825 -423.251,234.641 -430.363,239.818 C-421.071,238.815 -413.05,230.971 -415.306,219.111 C-410.899,226.744 -411.178,232.491 -416.827,241.262 C-398.571,228.35 -411.532,210.275 -422.522,202.77 C-430.77,214.725 -444.378,217.531 -457.95,204.095 Z " fill="#1a1f2b" fill-opacity="1.00" />				<path d="M-416.242,196.31 C-429.072,202.187 -431.627,211.544 -429.56,221.752 C-433.639,217.602 -435.676,212.351 -432.985,203.758 C-440.105,210.776 -438.815,219.902 -432.54,227.987 C-438.747,225.984 -441.47,221.665 -443.491,212.731 C-446.93,221.221 -443.859,229.854 -433.689,234.083 C-441.972,234.58 -446.788,231.01 -451.965,223.898 C-450.962,233.19 -443.118,241.21 -431.259,238.954 C-438.891,243.361 -444.638,243.083 -453.409,237.434 C-440.497,255.69 -422.422,242.729 -414.917,231.739 C-426.872,223.49 -429.678,209.883 -416.242,196.31 Z " fill="#1a1f2b" fill-opacity="1.00" />				<path d="M-406.755,240.214 C-409.177,226.312 -417.577,221.461 -427.975,220.865 C-422.925,217.975 -417.328,217.34 -409.701,222.127 C-414.679,213.457 -423.833,212.384 -433.248,216.397 C-429.733,210.904 -424.863,209.368 -415.709,209.685 C-423.045,204.201 -432.175,204.976 -438.851,213.737 C-437.226,205.599 -432.548,201.849 -424.354,198.65 C-433.596,197.258 -443.347,202.806 -444.18,214.848 C-446.502,206.346 -444.771,200.859 -437.078,193.813 C-458.017,201.659 -450.078,222.435 -441.357,232.487 C-430.34,223.022 -416.466,223.768 -406.755,240.214 Z " fill="#1a1f2b" fill-opacity="1.00" />				<path d="M-429.428,202.77 C-437.6,214.274 -435.135,223.655 -428.24,231.462 C-433.847,229.908 -438.237,226.379 -440.204,217.591 C-442.861,227.229 -437.18,234.488 -427.704,238.352 C-434.08,239.721 -438.599,237.342 -444.816,230.615 C-443.549,239.687 -436.572,245.628 -425.65,244.206 C-432.575,248.778 -438.531,248.094 -446.571,244.523 C-441.056,252.069 -430.253,255.092 -421.11,247.209 C-425.517,254.842 -430.633,257.474 -441.053,256.968 C-420.743,266.322 -411.57,246.06 -410.566,232.79 C-425.044,231.624 -434.277,221.243 -429.428,202.77 Z " fill="#1a1f2b" fill-opacity="1.00" />			</g>		</g>	</svg>