<?xml version="1.0" encoding="utf-8" ?>	<!-- Generator: Assembly 1.8 - http://assemblyapp.co -->	<svg version="1.1" xmlns="http://www.w3.org/2000/svg" xmlns:xlink="http://www.w3.org/1999/xlink" width="2048.00" height="2048.00" viewBox="0 0 2048.0 2048.0">		<rect x="0" y="0" width="2048.00" height="2048.00" fill="none" />		<g id="document" transform="matrix(1,0,0,1,1024.0,1024.0)">			<g>				<path d="M-276.166,303.442 C-297.474,303.442 -309.312,296.339 -314.047,285.685 C-334.171,284.502 -349.56,278.583 -367.317,262.01 C-370.868,258.458 -372.052,252.54 -368.5,248.988 C-364.949,245.437 -359.03,244.253 -355.479,247.804 C-342.457,258.458 -331.803,264.377 -319.966,265.561 C-321.149,248.988 -312.863,232.415 -301.025,225.313 C-292.739,220.578 -284.452,220.578 -276.166,225.313 C-266.696,231.232 -261.96,243.069 -265.512,253.723 C-269.063,264.377 -277.35,275.031 -291.555,279.767 C-288.004,280.95 -282.085,282.134 -272.614,282.134 C-259.593,282.134 -248.939,271.48 -245.387,258.458 C-244.204,253.723 -238.285,250.172 -233.55,252.54 C-228.815,253.723 -225.263,259.642 -227.631,264.377 C-234.733,286.869 -251.306,301.075 -272.614,302.258 C-273.798,303.442 -274.982,303.442 -276.166,303.442 Z M-289.187,243.069 C-290.371,243.069 -290.371,243.069 -291.555,244.253 C-296.29,247.805 -301.025,257.275 -301.025,267.929 C-291.555,265.561 -285.636,258.459 -283.268,252.54 C-282.085,247.805 -284.452,245.437 -285.636,244.253 C-286.82,243.069 -288.004,243.069 -289.187,243.069 Z " fill="#e60000" fill-opacity="1.00" />				<path d="M-324.349,247.005 C-324.349,247.005 -377.127,244.584 -398.577,225.897 C-372.311,247.881 -363.104,292.947 -363.104,292.947 C-363.104,292.947 -367.647,269.405 -358.792,257.638 C-349.937,245.871 -324.349,247.005 -324.349,247.005 Z " fill="#e60000" fill-opacity="1.00" />			</g>		</g>	</svg>