<?xml version="1.0" encoding="utf-8" ?>	<!-- Generator: Assembly 1.8 - http://assemblyapp.co -->	<svg version="1.1" xmlns="http://www.w3.org/2000/svg" xmlns:xlink="http://www.w3.org/1999/xlink" width="2048.00" height="2048.00" viewBox="0 0 2048.0 2048.0">		<rect x="0" y="0" width="2048.00" height="2048.00" fill="none" />		<g id="document" transform="matrix(1,0,0,1,1024.0,1024.0)">			<g>				<g>					<path d="M-438.838,227.387 C-460.146,227.387 -471.984,220.285 -476.719,209.631 C-496.843,208.447 -512.232,202.528 -529.989,185.955 C-533.54,182.404 -534.724,176.485 -531.173,172.934 C-527.621,169.382 -521.702,168.198 -518.151,171.75 C-505.129,182.404 -494.475,188.323 -482.638,189.506 C-483.821,172.934 -475.535,156.361 -463.697,149.258 C-455.411,144.523 -447.124,144.523 -438.838,149.258 C-429.368,155.177 -424.632,167.015 -428.184,177.669 C-431.735,188.323 -440.022,198.977 -454.227,203.712 C-450.676,204.896 -444.757,206.079 -435.286,206.079 C-422.265,206.079 -411.611,195.425 -408.06,182.404 C-406.876,177.669 -400.957,174.117 -396.222,176.485 C-391.487,177.669 -387.935,183.588 -390.303,188.323 C-397.406,210.814 -413.978,225.02 -435.286,226.204 C-436.47,227.387 -437.654,227.387 -438.838,227.387 Z M-451.859,167.015 C-453.043,167.015 -453.043,167.015 -454.227,168.198 C-458.962,171.75 -463.697,181.22 -463.697,191.874 C-454.227,189.506 -448.308,182.404 -445.94,176.485 C-444.757,171.75 -447.124,169.382 -448.308,168.198 C-449.492,167.015 -450.676,167.015 -451.859,167.015 Z " fill="#beccd4" fill-opacity="1.00" />					<path d="M-547.556,143.209 C-548.881,157.258 -542.056,164.15 -532.182,167.463 C-537.815,168.921 -543.381,168.06 -549.478,161.433 C-546.96,171.108 -538.411,174.554 -528.272,173.162 C-533.11,177.536 -538.212,177.735 -546.96,175.018 C-541.327,182.241 -532.315,183.898 -523.567,177.205 C-527.278,184.627 -532.778,187.012 -541.526,187.94 C-532.977,191.717 -522.109,188.934 -518.133,177.536 C-518.133,186.349 -521.248,191.187 -530.525,195.958 C-508.259,193.904 -510.446,171.771 -516.211,159.776 C-529.332,166.005 -542.52,161.632 -547.556,143.209 Z " fill="#1a1f2b" fill-opacity="1.00" />					<path d="M-495.506,163.851 C-508.756,158.998 -517.157,163.847 -522.872,172.554 C-522.85,166.735 -520.601,161.571 -512.642,157.359 C-522.64,157.335 -528.146,164.726 -529.378,174.886 C-532.378,169.095 -531.273,164.11 -526.421,156.341 C-534.839,159.952 -538.733,168.247 -534.483,178.409 C-540.718,172.933 -541.627,167.007 -540.3,158.311 C-546.127,165.618 -546.198,176.836 -536.185,183.58 C-544.709,181.339 -548.596,177.097 -550.852,166.911 C-554.526,188.968 -532.564,192.48 -519.498,189.954 C-522.186,175.68 -514.604,164.038 -495.506,163.851 Z " fill="#1a1f2b" fill-opacity="1.00" />					<path d="M-555.802,153.492 C-549.925,166.321 -540.568,168.877 -530.361,166.809 C-534.51,170.888 -539.761,172.925 -548.355,170.235 C-541.336,177.354 -532.21,176.064 -524.125,169.79 C-526.128,175.996 -530.447,178.72 -539.381,180.74 C-530.892,184.18 -522.258,181.108 -518.029,170.938 C-517.532,179.221 -521.103,184.037 -528.214,189.214 C-518.922,188.211 -510.902,180.367 -513.158,168.508 C-508.751,176.141 -509.029,181.888 -514.678,190.658 C-496.423,177.746 -509.383,159.672 -520.373,152.167 C-528.622,164.122 -542.229,166.928 -555.802,153.492 Z " fill="#1a1f2b" fill-opacity="1.00" />					<path d="M-514.094,145.707 C-526.923,151.583 -529.479,160.94 -527.411,171.148 C-531.49,166.999 -533.528,161.747 -530.837,153.154 C-537.957,160.173 -536.667,169.299 -530.392,177.384 C-536.598,175.381 -539.322,171.061 -541.343,162.127 C-544.782,170.617 -541.71,179.251 -531.54,183.479 C-539.823,183.977 -544.64,180.406 -549.817,173.295 C-548.814,182.586 -540.969,190.607 -529.11,188.351 C-536.743,192.758 -542.49,192.479 -551.261,186.83 C-538.349,205.086 -520.274,192.126 -512.769,181.135 C-524.724,172.887 -527.53,159.279 -514.094,145.707 Z " fill="#1a1f2b" fill-opacity="1.00" />					<path d="M-504.607,189.61 C-507.029,175.708 -515.428,170.858 -525.826,170.262 C-520.776,167.372 -515.18,166.737 -507.553,171.524 C-512.53,162.854 -521.685,161.781 -531.099,165.794 C-527.584,160.3 -522.714,158.765 -513.56,159.082 C-520.897,153.597 -530.027,154.373 -536.703,163.133 C-535.078,154.996 -530.4,151.246 -522.206,148.047 C-531.447,146.655 -541.198,152.202 -542.032,164.245 C-544.353,155.743 -542.623,150.255 -534.93,143.209 C-555.868,151.055 -547.929,171.831 -539.208,181.884 C-528.191,172.419 -514.318,173.165 -504.607,189.61 Z " fill="#1a1f2b" fill-opacity="1.00" />					<path d="M-527.279,152.167 C-535.452,163.671 -532.986,173.052 -526.092,180.858 C-531.699,179.305 -536.089,175.775 -538.056,166.988 C-540.712,176.626 -535.032,183.885 -525.556,187.749 C-531.932,189.118 -536.45,186.739 -542.667,180.012 C-541.401,189.084 -534.424,195.025 -523.502,193.602 C-530.427,198.174 -536.383,197.49 -544.422,193.92 C-538.908,201.465 -528.104,204.489 -518.962,196.606 C-523.369,204.239 -528.485,206.871 -538.905,206.364 C-518.595,215.718 -509.422,195.457 -508.418,182.186 C-522.895,181.021 -532.129,170.639 -527.279,152.167 Z " fill="#1a1f2b" fill-opacity="1.00" />				</g>			</g>		</g>	</svg>