<?xml version="1.0" encoding="utf-8" ?>	<!-- Generator: Assembly 1.8 - http://assemblyapp.co -->	<svg version="1.1" xmlns="http://www.w3.org/2000/svg" xmlns:xlink="http://www.w3.org/1999/xlink" width="2048.00" height="2048.00" viewBox="0 0 2048.0 2048.0">		<rect x="0" y="0" width="2048.00" height="2048.00" fill="none" />		<g id="document" transform="matrix(1,0,0,1,1024.0,1024.0)">			<g>				<path d="M-340.986,277.991 C-362.294,277.991 -374.132,270.888 -378.867,260.234 C-398.991,259.05 -414.38,253.131 -432.137,236.559 C-435.688,233.007 -436.872,227.088 -433.321,223.537 C-429.77,219.986 -423.851,218.802 -420.299,222.353 C-407.278,233.007 -396.624,238.926 -384.786,240.11 C-385.97,223.537 -377.683,206.964 -365.846,199.861 C-357.559,195.126 -349.273,195.126 -340.986,199.861 C-331.516,205.78 -326.781,217.618 -330.332,228.272 C-333.883,238.926 -342.17,249.58 -356.375,254.315 C-352.824,255.499 -346.905,256.683 -337.435,256.683 C-324.413,256.683 -313.759,246.029 -310.208,233.007 C-309.024,228.272 -303.105,224.721 -298.37,227.088 C-293.635,228.272 -290.084,234.191 -292.451,238.926 C-299.554,261.418 -316.127,275.623 -337.435,276.807 C-338.619,277.991 -339.802,277.991 -340.986,277.991 Z M-354.008,217.618 C-355.192,217.618 -355.192,217.618 -356.375,218.802 C-361.11,222.353 -365.846,231.823 -365.846,242.477 C-356.375,240.11 -350.456,233.007 -348.089,227.088 C-346.905,222.353 -349.273,219.986 -350.456,218.802 C-351.64,217.618 -352.824,217.618 -354.008,217.618 Z " fill="#beccd4" fill-opacity="1.00" />				<path d="M-464.951,247.84 C-472.053,240.737 -474.421,230.083 -469.686,221.797 C-477.972,213.511 -477.972,200.489 -469.686,191.019 C-461.399,182.732 -448.378,181.549 -440.091,188.651 C-431.805,183.916 -421.151,183.916 -412.864,191.019 C-403.394,199.305 -403.394,213.511 -411.681,222.981 C-416.416,227.716 -421.151,230.083 -427.07,230.083 C-427.07,236.002 -428.254,241.921 -432.989,246.656 C-441.275,256.127 -455.48,256.127 -464.951,247.84 Z " fill="#434345" fill-opacity="1.00" />			</g>		</g>	</svg>