<?xml version="1.0" encoding="utf-8" ?>	<!-- Generator: Assembly 1.8 - http://assemblyapp.co -->	<svg version="1.1" xmlns="http://www.w3.org/2000/svg" xmlns:xlink="http://www.w3.org/1999/xlink" width="2048.00" height="2048.00" viewBox="0 0 2048.0 2048.0">		<rect x="0" y="0" width="2048.00" height="2048.00" fill="none" />		<g id="document" transform="matrix(1,0,0,1,1024.0,1024.0)">			<g>				<path d="M-276.166,305.479 C-297.474,305.479 -309.312,298.376 -314.047,287.722 C-334.171,286.538 -349.56,280.619 -367.317,264.047 C-370.868,260.495 -372.052,254.576 -368.5,251.025 C-364.949,247.474 -359.03,246.29 -355.479,249.841 C-342.457,260.495 -331.803,266.414 -319.966,267.598 C-321.149,251.025 -312.863,234.452 -301.025,227.349 C-292.739,222.614 -284.452,222.614 -276.166,227.349 C-266.696,233.268 -261.96,245.106 -265.512,255.76 C-269.063,266.414 -277.35,277.068 -291.555,281.803 C-288.004,282.987 -282.085,284.171 -272.614,284.171 C-259.593,284.171 -248.939,273.517 -245.387,260.495 C-244.204,255.76 -238.285,252.209 -233.55,254.576 C-228.815,255.76 -225.263,261.679 -227.631,266.414 C-234.733,288.906 -251.306,303.111 -272.614,304.295 C-273.798,305.479 -274.982,305.479 -276.166,305.479 Z M-289.187,245.106 C-290.371,245.106 -290.371,245.106 -291.555,246.29 C-296.29,249.841 -301.025,259.311 -301.025,269.965 C-291.555,267.598 -285.636,260.495 -283.268,254.576 C-282.085,249.841 -284.452,247.474 -285.636,246.29 C-286.82,245.106 -288.004,245.106 -289.187,245.106 Z " fill="#beccd4" fill-opacity="1.00" />				<path d="M-359.999,294.871 L-356.661,260.015 L-322.711,251.023 L-354.937,236.93 L-352.952,201.875 L-376.208,228.179 L-409.023,215.518 L-391.227,245.796 L-413.382,272.912 L-379.076,265.382 L-359.999,294.871 Z " fill="#ffcc1a" fill-opacity="1.00" />			</g>		</g>	</svg>