<?xml version="1.0" encoding="utf-8" ?>	<!-- Generator: Assembly 1.8 - http://assemblyapp.co -->	<svg version="1.1" xmlns="http://www.w3.org/2000/svg" xmlns:xlink="http://www.w3.org/1999/xlink" width="2048.00" height="2048.00" viewBox="0 0 2048.0 2048.0">		<rect x="0" y="0" width="2048.00" height="2048.00" fill="none" />		<g id="document" transform="matrix(1,0,0,1,1024.0,1024.0)">			<g>				<g>					<path d="M-118.312,-100.76 C-180.314,-100.76 -230.98,-100.76 -230.98,-100.76 C-230.98,-100.76 -276.936,-165.208 -291.646,-185.837 C-285.853,-256.583 -88.7429,-347.122 -88.7429,-347.122 C-88.7429,-347.122 -71.8208,-181.286 -118.312,-100.76 Z " fill="#000000" fill-opacity="1.00" />					<path d="M-149.365,-77.5884 L-253.249,-87.8071 L-314.041,-172.664 C-314.041,-172.664 -343.162,-92.7456 -346.846,-38.8267 C-350.529,15.0921 -328.777,43.0108 -328.777,43.0108 L-328.602,42.893 C-328.602,42.893 -298.059,0.848873 -253.249,-29.2715 C-208.44,-59.3918 -149.365,-77.5884 -149.365,-77.5884 Z " fill="#000000" fill-opacity="1.00" />				</g>				<g>					<path d="M137.882,395.134 C119.947,383.65 98.3559,369.89 98.3559,369.89 L98.3559,313.521 L184.663,276.884 C184.663,276.884 181.058,348.606 137.882,395.134 Z " fill="#000000" fill-opacity="1.00" />					<path d="M125.053,411.228 L131.444,404.401 L87.1229,376.375 L87.1229,317.368 L-6.14181,414.673 L125.053,411.228 Z " fill="#000000" fill-opacity="1.00" />				</g>				<g>					<path d="M-92.8383,361.746 L-112.634,410.776 L-182.404,407.901 L-193.062,395.152 L-189.5,297.047 L-92.8383,361.746 Z " fill="#000000" fill-opacity="1.00" />					<path d="M-85.5416,366.024 L-106.489,418.937 L-175.445,415.088 L-160.201,429.371 L-62.9052,449.854 L-85.5416,366.024 Z " fill="#000000" fill-opacity="1.00" />				</g>			</g>		</g>	</svg>