<?xml version="1.0" encoding="utf-8" ?>	<!-- Generator: Assembly 1.8 - http://assemblyapp.co -->	<svg version="1.1" xmlns="http://www.w3.org/2000/svg" xmlns:xlink="http://www.w3.org/1999/xlink" width="2048.00" height="2048.00" viewBox="0 0 2048.0 2048.0">		<rect x="0" y="0" width="2048.00" height="2048.00" fill="none" />		<g id="document" transform="matrix(1,0,0,1,1024.0,1024.0)">			<g>				<g>					<path d="M-118.312,-100.76 C-180.314,-100.76 -230.98,-100.76 -230.98,-100.76 C-230.98,-100.76 -276.936,-165.208 -291.646,-185.837 C-285.853,-256.583 -88.7429,-347.122 -88.7429,-347.122 C-88.7429,-347.122 -71.8208,-181.286 -118.312,-100.76 Z " fill="#000000" fill-opacity="1.00" />					<path d="M-149.365,-77.5884 L-253.249,-87.8071 L-314.041,-172.664 C-314.041,-172.664 -343.162,-92.7456 -346.846,-38.8267 C-350.529,15.0921 -328.777,43.0108 -328.777,43.0108 L-328.602,42.893 C-328.602,42.893 -298.059,0.848873 -253.249,-29.2715 C-208.44,-59.3918 -149.365,-77.5884 -149.365,-77.5884 Z " fill="#000000" fill-opacity="1.00" />				</g>				<g>					<path d="M180.221,382.601 C158.446,368.659 135.579,353.904 135.579,353.904 L135.579,285.468 L232.279,239.314 C232.279,239.314 236.455,328.392 180.221,382.601 Z " fill="#000000" fill-opacity="1.00" />					<path d="M164.088,401.136 L171.848,392.847 L121.941,361.778 L121.941,290.138 L8.70878,408.276 L164.088,401.136 Z " fill="#000000" fill-opacity="1.00" />				</g>				<g>					<path d="M-146.568,356.351 L-160.473,407.365 L-230.099,412.697 L-242.179,401.287 L-250.154,303.442 L-146.568,356.351 Z " fill="#000000" fill-opacity="1.00" />					<path d="M-138.819,359.744 L-153.413,414.748 L-222.344,419.018 L-205.53,431.413 L-106.503,440.338 L-138.819,359.744 Z " fill="#000000" fill-opacity="1.00" />				</g>			</g>		</g>	</svg>