<?xml version="1.0" encoding="utf-8" ?>	<!-- Generator: Assembly 1.8 - http://assemblyapp.co -->	<svg version="1.1" xmlns="http://www.w3.org/2000/svg" xmlns:xlink="http://www.w3.org/1999/xlink" width="2048.00" height="2048.00" viewBox="0 0 2048.0 2048.0">		<rect x="0" y="0" width="2048.00" height="2048.00" fill="none" />		<g id="document" transform="matrix(1,0,0,1,1024.0,1024.0)">			<g>				<path d="M-118.312,-100.76 C-180.314,-100.76 -230.98,-100.76 -230.98,-100.76 C-230.98,-100.76 -276.936,-165.208 -291.646,-185.837 C-285.853,-256.583 -88.7429,-347.122 -88.7429,-347.122 C-88.7429,-347.122 -71.8208,-181.286 -118.312,-100.76 Z " fill="#000000" fill-opacity="1.00" />				<path d="M-149.365,-77.5884 L-253.249,-87.8071 L-314.041,-172.664 C-314.041,-172.664 -343.162,-92.7456 -346.846,-38.8267 C-350.529,15.0921 -328.777,43.0108 -328.777,43.0108 L-328.602,42.893 C-328.602,42.893 -298.059,0.848873 -253.249,-29.2715 C-208.44,-59.3918 -149.365,-77.5884 -149.365,-77.5884 Z " fill="#000000" fill-opacity="1.00" />			</g>			<path d="M329.036,389.491 C444.846,316.476 423.183,209.306 423.183,209.306 L289.78,223.171 L273.368,318.422 C273.368,318.422 306.875,360.102 329.036,389.491 Z M304.504,407.543 L315.581,399.565 L255.506,323.128 L272.686,223.419 L111.726,335.927 L304.504,407.543 Z " fill="#000000" fill-opacity="1.00" />			<path d="M-197.794,295.672 L-370.633,262.137 L-323.109,402.193 L-302.761,414.473 L-199.789,376.372 L-197.794,295.672 Z M-185.072,297.352 L-186.63,384.195 L-290.337,423.54 L-259.86,438.349 L-107.764,401.771 L-185.072,297.352 Z " fill="#000000" fill-opacity="1.00" />		</g>	</svg>