<?xml version="1.0" encoding="utf-8" ?>	<!-- Generator: Assembly 1.8 - http://assemblyapp.co -->	<svg version="1.1" xmlns="http://www.w3.org/2000/svg" xmlns:xlink="http://www.w3.org/1999/xlink" width="2048.00" height="2048.00" viewBox="0 0 2048.0 2048.0">			<g id="document" transform="matrix(1,0,0,1,1024.0,1024.0)">			<g>				<g>					<path d="M-33.0109,382.095 L-36.916,366.694 C-37.0689,366.09 -37.6473,365.746 -38.2505,365.899 L-50.2454,368.94 C-50.8487,369.093 -51.193,369.671 -51.0401,370.275 L-47.135,385.676 C-46.9821,386.28 -46.4037,386.624 -45.8005,386.471 L-33.8056,383.43 C-33.2023,383.277 -32.8669,382.663 -33.0109,382.095 Z M-40.494,396.079 C-40.3971,395.865 -40.1131,395.793 -39.8907,395.926 L-31.9148,401.91 C-31.5944,402.131 -31.178,401.837 -31.268,401.482 L-35.1371,386.222 C-35.299,385.584 -35.9663,385.186 -36.6051,385.348 L-48.387,388.335 C-49.0258,388.497 -49.4232,389.165 -49.2612,389.803 L-45.3921,405.063 C-45.3021,405.418 -44.7958,405.479 -44.6194,405.132 L-40.494,396.079 Z " fill="#2a00c3" fill-opacity="1.00" />					<path d="M-34.7142,375.377 L-38.6193,359.976 C-38.7722,359.372 -39.3505,359.028 -39.9538,359.181 L-51.9487,362.222 C-52.552,362.375 -52.8963,362.954 -52.7434,363.557 L-48.8383,378.958 C-48.6853,379.562 -48.107,379.906 -47.5037,379.753 L-35.5089,376.712 C-34.9056,376.559 -34.5702,375.945 -34.7142,375.377 Z M-42.1973,389.361 C-42.1003,389.147 -41.8164,389.075 -41.594,389.208 L-33.6181,395.193 C-33.2977,395.414 -32.8813,395.119 -32.9713,394.764 L-36.8404,379.505 C-37.0023,378.866 -37.6696,378.468 -38.3084,378.63 L-50.0903,381.618 C-50.7291,381.78 -51.1264,382.447 -50.9645,383.086 L-47.0954,398.345 C-47.0054,398.7 -46.4991,398.761 -46.3227,398.414 L-42.1973,389.361 Z " fill="#2a00c3" fill-opacity="1.00" />				</g>				<g>					<path d="M-21.9464,376.271 L-33.3321,365.188 C-33.7781,364.754 -33.7872,364.081 -33.3531,363.635 L-24.7218,354.768 C-24.2877,354.322 -23.6147,354.313 -23.1687,354.747 L-11.783,365.83 C-11.337,366.264 -11.3279,366.937 -11.7621,367.383 L-20.3933,376.25 C-20.8274,376.696 -21.5267,376.68 -21.9464,376.271 Z M-6.09486,376.782 C-6.32817,376.76 -6.53246,376.969 -6.52897,377.228 L-5.33399,387.128 C-5.30286,387.516 -5.76601,387.729 -6.02835,387.474 L-17.3091,376.493 C-17.7813,376.034 -17.7918,375.257 -17.3322,374.785 L-8.85413,366.075 C-8.39448,365.603 -7.61792,365.592 -7.1457,366.052 L4.13506,377.033 C4.39741,377.288 4.19661,377.757 3.80798,377.736 L-6.09486,376.782 Z " fill="#2a00c3" fill-opacity="1.00" />					<path d="M-26.9126,371.437 L-38.2983,360.354 C-38.7443,359.92 -38.7533,359.247 -38.3192,358.801 L-29.688,349.934 C-29.2539,349.488 -28.5809,349.479 -28.1349,349.913 L-16.7492,360.996 C-16.3032,361.43 -16.2941,362.103 -16.7282,362.549 L-25.3595,371.416 C-25.7936,371.862 -26.4928,371.846 -26.9126,371.437 Z M-11.061,371.948 C-11.2943,371.926 -11.4986,372.135 -11.4951,372.394 L-10.3002,382.294 C-10.269,382.682 -10.7322,382.895 -10.9945,382.64 L-22.2753,371.659 C-22.7475,371.2 -22.758,370.423 -22.2983,369.951 L-13.8203,361.241 C-13.3606,360.769 -12.5841,360.758 -12.1119,361.218 L-0.8311,372.199 C-0.568756,372.454 -0.769556,372.923 -1.15818,372.902 L-11.061,371.948 Z " fill="#2a00c3" fill-opacity="1.00" />				</g>				<path d="M-28.4708,332.119 L-31.2367,332.255 L-29.7358,329.928 C-26.4814,324.513 -28.2625,317.699 -33.6445,314.503 C-39.0599,311.248 -45.8732,313.029 -49.0699,318.411 L-50.5708,320.739 L-51.8025,318.605 C-55.047,313.252 -61.7772,311.449 -67.1395,314.544 C-72.5018,317.64 -74.2475,324.337 -71.1516,329.7 L-69.9199,331.833 L-72.1668,331.669 C-78.4838,331.78 -83.4662,336.733 -83.2646,343.074 C-83.1538,349.391 -78.2015,354.373 -71.8602,354.172 L-69.0943,354.035 L-70.5952,356.363 C-73.9072,361.811 -72.1261,368.625 -66.7441,371.821 C-61.3287,375.076 -54.5154,373.295 -51.3187,367.913 L-49.8178,365.585 L-48.5861,367.719 C-45.4902,373.081 -38.76,374.884 -33.3977,371.788 C-28.0354,368.693 -26.2321,361.962 -29.328,356.6 L-30.5597,354.467 L-27.7938,354.331 C-21.4768,354.22 -16.4944,349.268 -16.6961,342.926 C-17.7537,337.233 -22.7304,332.341 -28.4708,332.119 Z M-44.1276,354.535 C-50.2971,358.097 -58.152,355.944 -61.6806,349.832 C-65.2093,343.72 -63.0892,335.808 -56.9773,332.279 C-50.7501,328.684 -42.8953,330.837 -39.3666,336.949 C-35.8379,343.061 -37.9004,350.94 -44.1276,354.535 Z " fill="#2a00c3" fill-opacity="1.00" />			</g>		</g>	</svg>
