<?xml version="1.0" encoding="utf-8" ?>	<!-- Generator: Assembly 1.8 - http://assemblyapp.co -->	<svg version="1.1" xmlns="http://www.w3.org/2000/svg" xmlns:xlink="http://www.w3.org/1999/xlink" width="2048.00" height="2048.00" viewBox="0 0 2048.0 2048.0">			<g id="document" transform="matrix(1,0,0,1,1024.0,1024.0)">			<g>				<path d="M-31.0571,352.003 C-63.376,352.003 -90.1126,328.351 -95.2542,297.648 C-95.8418,301.027 -96.1357,304.553 -96.1357,308.225 C-96.1357,344.364 -66.7548,373.451 -30.9102,373.451 C5.22818,373.451 34.0214,344.658 34.0214,308.519 C34.0214,304.994 33.8745,301.174 33.14,297.942 C27.9983,328.645 1.11487,352.003 -31.0571,352.003 Z " fill="#ff7503" fill-opacity="1.00" />				<path d="M-40.4791,326.449 L-45.7858,337.929 L-57.8069,333.489 L-58.2401,346.268 L-71.0194,346.701 L-66.5791,358.722 L-78.0588,364.029 L-69.3949,373.451 L-78.0588,382.873 L-66.5791,388.18 L-71.0194,400.201 L-58.2401,400.634 L-57.8069,413.413 L-45.7858,408.973 L-40.4791,420.453 L-31.0571,411.789 L-21.6351,420.453 L-16.3285,408.973 L-4.30733,413.413 L-3.87414,400.634 L8.90512,400.201 L4.46487,388.18 L15.9445,382.873 L7.28064,373.451 L15.9445,364.029 L4.46487,358.722 L8.90512,346.701 L-3.87414,346.268 L-4.30733,333.489 L-16.3285,337.929 L-21.6351,326.449 L-31.0571,335.113 L-40.4791,326.449 Z " fill="#ffcc1a" fill-opacity="1.00" />			</g>		</g>	</svg>
