<?xml version="1.0" encoding="utf-8" ?>	<!-- Generator: Assembly 1.8 - http://assemblyapp.co -->	<svg version="1.1" xmlns="http://www.w3.org/2000/svg" xmlns:xlink="http://www.w3.org/1999/xlink" width="2048.00" height="2048.00" viewBox="0 0 2048.0 2048.0">		<g id="document" transform="matrix(1,0,0,1,1024.0,1024.0)">			<g>				<path d="M-24.0949,340.828 L-12.6848,352.27 L-9.89633,349.418 L-24.0949,335.155 L-38.2934,349.418 L-35.505,352.27 L-24.0949,340.828 Z " fill="#ff7503" fill-opacity="1.00" />				<path d="M44.7231,293.905 L15.106,323.522 L-68.1519,323.522 L-97.769,293.905 L-107.764,303.899 L-73.9286,337.734 L20.8827,337.734 L54.7177,303.899 L44.7231,293.905 Z " fill="#ffa539" fill-opacity="1.00" />				<g>					<path d="M-43.1496,453.49 C-43.1496,462.658 -35.691,470.117 -26.523,470.117 C-17.3549,470.117 -9.89634,462.658 -9.89634,453.49 C-9.89634,445.181 -16.023,438.275 -23.9964,437.055 L-23.9964,411.714 L-28.8449,411.714 L-28.8449,437.029 C-36.9171,438.162 -43.1496,445.11 -43.1496,453.49 Z " fill="#ffcc1a" fill-opacity="1.00" />					<path d="M-1.6708,345.497 L-26.523,345.497 L-51.3751,345.497 C-51.3751,345.497 -48.7437,409.07 -74.9603,443.772 C-52.1548,443.772 -26.523,443.772 -26.523,443.772 C-26.523,443.772 -0.988584,443.772 21.9144,443.772 C-3.52253,406.155 -1.6708,345.497 -1.6708,345.497 Z " fill="#ffa539" fill-opacity="1.00" />				</g>			</g>		</g>	</svg>
