<?xml version="1.0" encoding="utf-8" ?>	<!-- Generator: Assembly 1.8 - http://assemblyapp.co -->	<svg version="1.1" xmlns="http://www.w3.org/2000/svg" xmlns:xlink="http://www.w3.org/1999/xlink" width="2048.00" height="2048.00" viewBox="0 0 2048.0 2048.0">		<rect x="0" y="0" width="2048.00" height="2048.00" fill="none" />		<g id="document" transform="matrix(1,0,0,1,1024.0,1024.0)">			<path d="M-126.242,-494.425 C-114.404,-526.387 -96.6475,-559.533 -37.4586,-577.289 C-44.5612,-558.349 -45.745,-538.225 -43.3775,-519.284 C-22.0694,-541.776 0.42236,-555.981 21.7304,-560.716 C14.6277,-546.511 13.4439,-528.754 18.179,-508.63 C-20.8857,-505.079 -126.242,-494.425 -126.242,-494.425 Z " fill="#d6e6ed" fill-opacity="1.00" />			<path d="M115.385,-600.729 L115.385,-624.734 C115.385,-629.535 111.484,-633.056 106.933,-633.056 L105.632,-633.056 C103.032,-633.056 100.756,-632.096 99.1309,-630.175 C85.8026,-614.172 65.3226,-603.93 42.5671,-603.93 L-47.805,-603.93 C-128.1,-603.93 -189.865,-532.875 -175.886,-455.419 C-174.261,-446.777 -172.635,-441.656 -170.035,-441.656 C-151.505,-441.656 -144.519,-514.768 -79.5032,-514.768 C-42.1191,-514.768 -31.2259,-495.747 8.75883,-495.747 C68.8985,-495.747 115.385,-542.797 115.385,-600.729 Z M115.385,-537.676 C104.007,-519.432 88.0782,-504.069 68.8985,-493.507 C96.2052,-483.585 87.103,-441.656 103.357,-441.656 C116.685,-441.656 115.385,-489.026 115.385,-537.676 Z " fill="#1a1f2b" fill-opacity="1.00" />		</g>	</svg>