<?xml version="1.0" encoding="utf-8" ?>	<!-- Generator: Assembly 1.8 - http://assemblyapp.co -->	<svg version="1.1" xmlns="http://www.w3.org/2000/svg" xmlns:xlink="http://www.w3.org/1999/xlink" width="2048.00" height="2048.00" viewBox="0 0 2048.0 2048.0">		<rect x="0" y="0" width="2048.00" height="2048.00" fill="none" />		<g id="document" transform="matrix(1,0,0,1,1024.0,1024.0)">			<path d="M-135.409,-667.428 C-168.253,-670.728 -199.608,-680.059 -199.608,-680.059 C-166.692,-678.643 -159.118,-687.369 -159.118,-687.369 C-204.674,-689.72 -239.875,-711.93 -239.875,-711.93 L-241.694,-711.314 C-241.694,-711.314 -226.8,-682.228 -245.804,-658.018 C-245.804,-658.018 -229.258,-657.221 -214.763,-674.927 C-214.763,-674.927 -217.29,-647.527 -234.244,-627.803 C-234.244,-627.803 -217.164,-630.979 -203.972,-643.03 C-203.972,-643.03 -203.156,-621.265 -218.51,-596.632 C-218.51,-596.632 -198.305,-599.918 -184.498,-616.68 C-184.498,-616.68 -190.368,-583.645 -201.354,-566.89 C-201.354,-566.89 -187.903,-565.215 -174.364,-577.745 C-173.032,-577.481 -171.365,-577.253 -169.352,-577.161 C-170.621,-571.766 -172.475,-564.414 -174.692,-557.186 C-179.115,-554.338 -183.31,-551.826 -186.875,-550.007 C-186.616,-550.007 -182.809,-549.584 -177.172,-549.652 C-178.879,-544.848 -180.726,-540.463 -182.635,-537.203 C-182.069,-537.395 -161.127,-541.592 -151.377,-553.777 C-149.895,-554.294 -148.423,-554.874 -146.975,-555.522 C-145.834,-555.067 -144.349,-554.456 -142.621,-553.701 C-136.488,-545.795 -121.83,-522.895 -144.94,-508.875 L-141.548,-508.875 L-141.548,-508.875 C-144.02,-507.565 -133.438,-498.402 -135.409,-497.206 L77.193,-497.206 C75.2223,-498.402 60.699,-507.565 59.2489,-508.875 L67.6621,-508.875 C63.8836,-511.167 59.0954,-513.697 53.6349,-516.359 C49.9595,-524.428 52.3695,-533.219 55.8286,-540.137 L55.8286,-540.137 C59.5027,-544.061 64.2085,-547.603 69.0448,-550.657 C86.2929,-544.002 105.705,-546.241 106.301,-546.241 C100.421,-549.242 92.8268,-554.126 85.3265,-559.294 C90.2773,-561.521 93.6928,-562.745 93.6928,-562.745 C102.267,-548.466 126.236,-543.668 126.842,-543.463 C118.7,-557.359 111.711,-591.721 111.711,-591.721 C127.137,-570.856 145.561,-573.15 145.561,-573.15 C134.575,-589.905 128.705,-622.94 128.705,-622.94 C142.512,-606.178 162.717,-602.892 162.717,-602.892 C147.363,-627.525 148.179,-649.29 148.179,-649.29 C161.371,-637.239 178.451,-634.063 178.451,-634.063 C161.497,-653.787 158.97,-681.187 158.97,-681.187 C173.465,-663.481 190.011,-664.278 190.011,-664.278 C171.007,-688.488 185.901,-717.573 185.901,-717.573 L184.082,-718.189 C184.082,-718.189 148.881,-695.979 103.325,-693.629 C103.325,-693.629 110.899,-684.902 143.815,-686.318 C143.815,-686.318 102.09,-673.901 64.4871,-672.65 C64.4871,-672.65 77.7169,-665.564 102.109,-664.889 C102.109,-664.889 77.5971,-656.235 42.4124,-651.076 C30.6088,-659.003 23.0806,-665.776 23.0806,-665.776 C48.7619,-655.481 61.44,-660.629 61.44,-660.629 C26.9816,-674.927 15.9289,-702.38 15.9289,-702.38 L13.9784,-702.38 C13.9784,-702.38 3.2508,-674.927 -31.5327,-660.629 C-31.5327,-660.629 -18.5295,-655.672 6.82667,-665.776 C6.82667,-665.776 -11.5987,-649.197 -35.9948,-637.561 C-64.5207,-648.955 -87.4008,-669.542 -87.4008,-669.542 C-62.0446,-659.438 -49.0414,-664.394 -49.0414,-664.394 C-83.8249,-678.693 -94.5525,-706.146 -94.5525,-706.146 L-96.503,-706.146 C-96.503,-706.146 -106.126,-682.243 -135.409,-667.428 L-135.409,-667.428 Z M-128.228,-663.284 C-122.098,-663.781 -113.914,-665.429 -103.655,-669.542 C-103.655,-669.542 -113.974,-660.257 -129.392,-650.707 C-147.037,-654.794 -157.902,-658.629 -157.902,-658.629 C-144.556,-658.999 -134.552,-661.287 -128.228,-663.284 L-128.228,-663.284 Z M-126.052,-635.47 C-126.222,-635.321 -126.396,-635.17 -126.574,-635.016 C-127.966,-635.367 -128.728,-635.564 -128.728,-635.564 C-127.822,-635.525 -126.93,-635.494 -126.052,-635.47 L-126.052,-635.47 Z M-167.649,-584.764 C-167.879,-584.629 -168.108,-584.495 -168.337,-584.362 C-168.058,-584.721 -167.781,-585.088 -167.504,-585.462 C-167.504,-585.462 -167.554,-585.218 -167.649,-584.764 L-167.649,-584.764 Z M-39.9736,-599.632 C-42.7352,-600.195 -45.526,-600.779 -48.3041,-601.374 C-49.2706,-602.071 -50.2119,-602.756 -51.1238,-603.424 C-45.142,-603.423 -35.7715,-604.116 -24.6123,-607.357 C-23.1648,-607.463 -22.3849,-607.582 -22.3849,-607.582 C-22.5718,-607.673 -22.7582,-607.765 -22.944,-607.857 C-20.3629,-608.653 -17.6932,-609.587 -14.9536,-610.679 C-14.9536,-610.679 -18.0533,-608.199 -22.9806,-604.473 L-22.9806,-604.473 C-30.701,-602.991 -37.8742,-601.782 -43.4974,-601.139 C-43.4974,-601.139 -42.2497,-600.517 -39.9736,-599.632 L-39.9736,-599.632 Z M-62.7343,-612.178 C-61.9908,-612.308 -61.2806,-612.445 -60.6022,-612.588 C-56.1402,-611.064 -51.9101,-609.953 -48.0025,-609.15 C-50.0257,-608.02 -52.1256,-606.891 -54.3015,-605.769 L-54.3015,-605.769 C-57.8313,-608.396 -60.7467,-610.633 -62.7343,-612.178 L-62.7343,-612.178 Z M42.3302,-634.555 C40.5553,-636.221 39.6597,-637.179 39.6597,-637.179 C41.9085,-636.499 44.1087,-635.92 46.2432,-635.429 C44.9641,-635.141 43.6582,-634.849 42.3302,-634.555 L42.3302,-634.555 Z M62.5031,-639.233 C60.7484,-640.121 59.0293,-641.031 57.3509,-641.953 C62.0034,-641.655 67.1947,-641.575 72.9352,-641.823 C72.9352,-641.823 68.9301,-640.789 62.5031,-639.233 L62.5031,-639.233 Z M-37.2323,-615.599 C-59.1924,-628.616 -70.8217,-640.945 -70.8217,-640.945 C-56.2396,-636.531 -43.6994,-636.408 -37.8796,-636.678 C-40.5781,-635.436 -43.3441,-634.259 -46.1613,-633.176 C-46.1613,-633.176 -29.9073,-631.079 -9.75238,-637.179 C-9.75238,-637.179 -19.2308,-627.131 -37.2323,-615.599 L-37.2323,-615.599 Z " fill="#1a1f2b" fill-opacity="1.00" />		</g>	</svg>