<?xml version="1.0" encoding="utf-8" ?>	<!-- Generator: Assembly 1.8 - http://assemblyapp.co -->	<svg version="1.1" xmlns="http://www.w3.org/2000/svg" xmlns:xlink="http://www.w3.org/1999/xlink" width="2048.00" height="2048.00" viewBox="0 0 2048.0 2048.0">		<rect x="0" y="0" width="2048.00" height="2048.00" fill="none" />		<g id="document" transform="matrix(1,0,0,1,1024.0,1024.0)">			<g>				<path d="M-373.652,3.94608 C-373.652,-51.6915 -322.749,-191.377 -322.749,-224.523 C-322.749,-384.333 -193.717,-513.365 -33.9072,-513.365 C125.903,-513.365 254.935,-384.333 254.935,-224.523 C254.935,-186.642 296.367,-49.3239 296.367,3.94608 C297.551,147.183 147.211,263.194 -38.6424,263.194 C-223.312,263.194 -373.652,147.183 -373.652,3.94608 Z " fill="#f1ecef" fill-opacity="1.00" />				<path d="M-373.652,3.94607 C-373.652,-51.6915 -322.749,-191.377 -322.749,-224.523 C-322.749,-384.333 -193.717,-513.365 -33.9072,-513.365 C-33.9072,-409.193 -38.6424,136.529 -38.6424,262.01 C-223.312,263.194 -373.652,147.183 -373.652,3.94607 Z " fill="#d6e6ed" fill-opacity="1.00" />				<path d="M212.319,148.367 C212.319,234.013 101.55,303.442 -35.091,303.442 C-171.732,303.442 -282.501,234.013 -282.501,148.367 C-282.501,62.7215 -171.732,-6.70793 -35.091,-6.70793 C101.55,-6.70793 212.319,62.7215 212.319,148.367 Z " fill="#d6e6ed" fill-opacity="1.00" />				<path d="M237.178,101.016 C237.178,195.161 115.279,271.48 -35.091,271.48 C-185.461,271.48 -307.36,195.161 -307.36,101.016 C-307.36,6.87119 -185.461,-69.4482 -35.091,-69.4482 C115.279,-69.4482 237.178,6.87119 237.178,101.016 Z " fill="#f79f9e" fill-opacity="1.00" />			</g>		</g>	</svg>