<?xml version="1.0" encoding="utf-8" ?>	<!-- Generator: Assembly 1.8 - http://assemblyapp.co -->	<svg version="1.1" xmlns="http://www.w3.org/2000/svg" xmlns:xlink="http://www.w3.org/1999/xlink" width="2048.00" height="2048.00" viewBox="0 0 2048.0 2048.0">		<rect x="0" y="0" width="2048.00" height="2048.00" fill="#ffffff" />		<g id="document" transform="matrix(1,0,0,1,1024.0,1024.0)">			<g>				<path d="M-903.163,173.391 C-917.873,166.92 -928.472,154.936 -934.477,192.064 C-931.351,172.737 -949.639,53.7428 -967.855,78.3078 C-987.728,106.448 -987.213,152.201 -987.213,152.201 C-1008.95,50.1457 -1003.92,106.636 -1003.92,106.636 C-1003.92,106.636 -1018.68,76.5749 -1007.12,41.5437 C-1007.12,41.5437 -998.892,13.5824 -964.5,-12.7464 C-939.049,-32.3673 -945.002,-53.6915 -956.606,-60.8628 C-960.863,-50.932 -964.816,-39.2451 -968.171,-25.4968 C-968.007,-38.1296 -967.843,-50.7624 -966.726,-63.2652 C-968.148,-63.085 -969.554,-62.6765 -970.908,-62.0178 C-987.869,-53.3832 -1000.94,-22.9549 -1004.29,-12.8143 C-1004.29,-12.8143 -1013.42,-61.4656 -973.372,-117.132 C-973.372,-117.132 -994.098,-116.934 -1011.12,-79.1272 C-1009.59,-86.8074 -1008.06,-94.4875 -1005.62,-101.862 C-992.474,-141.692 -970.415,-190.532 -937.079,-229.057 C-968.268,-301.004 -937.403,-387.865 -907.612,-443.313 C-904.252,-449.567 -900.123,-455.398 -895.995,-461.229 C-910.387,-426.1 -897.572,-411.955 -897.572,-411.955 C-885.744,-473.819 -847.839,-498.031 -847.839,-498.031 C-852.46,-489.431 -864.435,-461.582 -859.556,-444.715 C-854.466,-428.238 -818.921,-430.449 -822.942,-471.156 C-826.999,-510.87 -813.63,-533.899 -813.63,-533.899 C-797.669,-563.606 -768.549,-572.393 -768.549,-572.393 C-768.549,-572.393 -809.081,-540.512 -727.958,-589.555 C-727.958,-589.555 -758.562,-561.324 -764.773,-530.302 C-769.653,-502.634 -679.473,-564.59 -668.633,-578.778 C-688.607,-552.635 -676.032,-551.859 -663.084,-546.623 L-663.084,-546.623 C-643.121,-569.864 -618.53,-588.521 -597.269,-601.751 C-592.537,-604.696 -587.444,-607.042 -582.351,-609.388 C-605.871,-591.048 -602.627,-576.194 -602.627,-576.194 C-570.442,-613.918 -535.11,-615.327 -535.11,-615.327 C-541.617,-611.278 -560.65,-596.965 -563.888,-583.427 C-566.83,-570.073 -541.682,-557.326 -528.57,-586.886 C-515.869,-615.777 -497.761,-626.222 -497.761,-626.222 C-475.282,-640.211 -451.962,-634.557 -451.962,-634.557 C-451.962,-634.557 -492.077,-628.936 -417.542,-630.049 C-417.542,-630.049 -449.451,-622.95 -465.781,-604.146 C-479.895,-587.11 -394.14,-593.452 -381.206,-598.842 C-419.533,-582.871 -374.786,-578.154 -386.725,-553.235 C-387.055,-546.497 -387.267,-539.93 -387.376,-533.533 L-387.376,-533.533 C-371.6,-548.351 -354.584,-560.674 -339.292,-570.19 C-334.56,-573.135 -329.467,-575.481 -324.374,-577.827 C-347.895,-559.487 -344.65,-544.633 -344.65,-544.633 C-312.465,-582.357 -277.133,-583.766 -277.133,-583.766 C-283.641,-579.717 -302.673,-565.404 -305.911,-551.866 C-308.853,-538.512 -283.705,-525.765 -270.593,-555.325 C-257.892,-584.217 -239.784,-594.661 -239.784,-594.661 C-217.305,-608.65 -193.985,-602.996 -193.985,-602.996 C-193.985,-602.996 -234.1,-597.375 -159.565,-598.488 C-159.565,-598.488 -191.474,-591.389 -207.804,-572.585 C-221.918,-555.549 -136.163,-561.891 -123.229,-567.281 C-161.556,-551.31 -116.81,-546.594 -128.749,-521.675 C-131.719,-460.939 -125.154,-414.115 -119.362,-380.385 C-93.8224,-306.777 -107.854,-194.785 -187.681,-27.9372 C-474.699,-640.406 -435.189,201.555 -310.552,302.863 C-321.062,299.028 -330.985,295.76 -340.353,293.026 C-312.715,346.98 -299.016,411.189 -310.705,444.636 C-312.393,449.468 -314.676,454.087 -316.958,458.706 C-310.663,432.089 -321.366,423.521 -321.366,423.521 C-322.836,468.835 -347.081,490.416 -347.081,490.416 C-344.76,483.773 -339.367,462.606 -344.731,451.187 C-350.2,440.071 -375.235,445.751 -367.807,474.203 C-360.464,501.945 -367.389,519.85 -367.389,519.85 C-368.876,524.103 -370.764,527.899 -372.855,531.259 L-372.855,531.259 C-372.735,536.366 -372.553,541.572 -372.303,546.876 C-359.569,573.472 -407.484,578.832 -366.482,595.665 C-380.318,589.984 -472.117,583.79 -457.039,601.931 C-439.592,621.95 -405.443,629.328 -405.443,629.328 C-485.24,628.655 -442.302,634.393 -442.302,634.393 C-442.302,634.393 -467.28,640.608 -491.32,625.788 C-491.32,625.788 -509.54,615.386 -522.993,586.614 C-523.368,587.384 -523.75,588.147 -524.14,588.904 C-524.035,587.512 -523.934,586.132 -523.84,584.763 C-523.969,584.473 -524.099,584.182 -524.228,583.888 C-538.209,552.332 -565.158,566.154 -562.033,580.431 C-558.593,594.902 -538.244,610.093 -531.285,614.383 C-531.285,614.383 -569.109,613.12 -603.494,572.956 C-603.494,572.956 -606.996,588.881 -581.85,608.353 C-587.298,605.876 -592.746,603.4 -597.807,600.28 C-621.778,585.503 -649.7,564.293 -671.59,537.643 C-671.521,552.361 -670.407,563.466 -670.407,563.466 C-670.407,563.466 -700.431,529.839 -713.043,482.852 C-713.101,484.867 -713.105,486.995 -713.054,489.244 C-713.379,475.134 -723.692,437.142 -738.109,396.354 L-738.109,396.354 C-750.228,392.342 -759.074,389.898 -759.436,421.732 C-759.213,402.159 -794.971,287.395 -809.343,314.45 C-824.824,345.29 -817.521,390.413 -817.521,390.413 C-828.11,362.245 -834.524,346.808 -838.292,339.098 C-842.356,386.676 -833.897,429.504 -833.897,429.504 C-915.624,233.068 -884.451,344.489 -884.451,344.489 C-884.451,344.489 -925.333,289.839 -915.149,215.104 C-915.149,215.104 -913.453,198.637 -903.163,173.391 L-903.163,173.391 Z " fill="#f2efef" fill-opacity="1.00" />				<path d="M823.132,156.164 C837.679,149.332 847.978,137.09 854.898,174.058 C851.296,154.814 866.64,35.4046 885.457,59.5122 C906.019,87.1527 906.633,132.904 906.633,132.904 C925.842,30.3437 922.206,86.9413 922.206,86.9413 C922.206,86.9413 936.225,56.5244 923.797,21.7896 C923.797,21.7896 914.885,-5.96008 879.853,-31.4314 C853.926,-50.4177 859.35,-71.8824 870.773,-79.3381 C875.275,-69.5155 879.515,-57.9298 883.208,-44.2686 C882.733,-56.8935 882.257,-69.5183 880.831,-81.9897 C882.257,-81.8447 883.673,-81.471 885.043,-80.846 C902.211,-72.633 916.029,-42.5367 919.626,-32.4819 C919.626,-32.4819 927.554,-81.344 886.145,-136.004 C886.145,-136.004 906.869,-136.318 924.815,-98.9433 C923.098,-106.583 921.381,-114.223 918.765,-121.536 C904.635,-161.028 881.375,-209.308 847.099,-246.998 C876.501,-319.694 843.5,-405.767 812.349,-460.461 C808.835,-466.63 804.564,-472.358 800.292,-478.085 C815.548,-443.322 803.086,-428.865 803.086,-428.865 C789.734,-490.419 751.243,-513.686 751.243,-513.686 C756.074,-505.204 768.733,-477.659 764.272,-460.676 C759.591,-444.078 724.002,-445.411 727.017,-486.205 C730.092,-526.006 716.157,-548.699 716.157,-548.699 C699.468,-578.002 670.139,-586.068 670.139,-586.068 C670.139,-586.068 711.447,-555.197 629.138,-602.222 C629.138,-602.222 660.429,-574.756 667.405,-543.896 C672.967,-516.357 581.283,-576.067 570.097,-589.983 C590.71,-564.341 578.158,-563.255 565.343,-557.7 L565.343,-557.7 C544.813,-580.442 519.768,-598.485 498.187,-611.186 C493.383,-614.013 488.234,-616.233 483.085,-618.452 C507.051,-600.699 504.174,-585.769 504.174,-585.769 C471.068,-622.687 435.712,-623.223 435.712,-623.223 C442.317,-619.335 461.697,-605.497 465.269,-592.043 C468.54,-578.766 443.714,-565.402 429.876,-594.628 C416.465,-623.198 398.105,-633.192 398.105,-633.192 C375.287,-646.621 352.114,-640.393 352.114,-640.393 C352.114,-640.393 392.356,-635.765 317.816,-635.036 C317.816,-635.036 349.89,-628.728 366.68,-610.333 C381.211,-593.651 295.325,-597.873 282.262,-602.942 C320.971,-587.922 276.355,-582.102 288.906,-557.485 C289.402,-550.757 289.776,-544.197 290.043,-537.805 L290.043,-537.805 C273.905,-552.228 256.591,-564.128 241.069,-573.263 C236.265,-576.09 231.116,-578.31 225.966,-580.529 C249.933,-562.776 247.056,-547.846 247.056,-547.846 C213.949,-584.764 178.593,-585.3 178.593,-585.3 C185.198,-581.413 204.579,-567.574 208.15,-554.12 C211.421,-540.843 186.595,-527.479 172.757,-556.706 C159.346,-585.275 140.987,-595.269 140.987,-595.269 C118.168,-608.698 94.995,-602.47 94.995,-602.47 C94.995,-602.47 135.237,-597.842 60.6969,-597.113 C60.6969,-597.113 92.7716,-590.805 109.561,-572.41 C124.092,-555.728 38.2061,-559.95 25.1431,-565.019 C63.8525,-549.999 19.2365,-544.179 31.7874,-519.562 C36.2569,-458.919 30.8501,-411.947 25.8936,-378.084 C2.17946,-303.867 18.9724,-192.257 102.896,-27.4312 C374.7,-646.802 355.997,195.877 233.9,300.234 C244.312,296.14 254.151,292.627 263.449,289.663 C237.152,344.283 225.044,408.811 237.555,441.96 C239.362,446.748 241.758,451.309 244.154,455.871 C237.203,429.417 247.691,420.588 247.691,420.588 C250.28,465.852 275.051,486.827 275.051,486.827 C272.566,480.243 266.652,459.216 271.732,447.668 C276.925,436.42 302.093,441.48 295.369,470.107 C288.714,498.022 296.08,515.75 296.08,515.75 C297.671,519.966 299.652,523.713 301.825,527.021 L301.825,527.021 C301.831,532.13 301.778,537.338 301.659,542.647 C289.586,569.549 337.618,573.724 297.044,591.565 C310.737,585.544 402.354,577.084 387.729,595.592 C370.782,616.036 336.826,624.255 336.826,624.255 C416.581,621.611 373.799,628.409 373.799,628.409 C373.799,628.409 398.922,634.005 422.589,618.595 C422.589,618.595 440.546,607.746 453.284,578.651 C453.678,579.411 454.079,580.165 454.488,580.912 C454.348,579.523 454.214,578.145 454.085,576.78 C454.208,576.487 454.33,576.192 454.452,575.895 C467.649,544.004 494.931,557.156 492.16,571.505 C489.078,586.057 469.111,601.746 462.26,606.207 C462.26,606.207 500.041,604.01 533.423,563.008 C533.423,563.008 537.318,578.842 512.661,598.929 C518.046,596.319 523.431,593.709 528.414,590.465 C552.012,575.1 579.402,553.207 600.627,526.025 C600.921,540.74 600.082,551.869 600.082,551.869 C600.082,551.869 629.266,517.511 640.714,470.226 C640.822,472.239 640.879,474.367 640.882,476.616 C640.86,462.503 650.231,424.267 663.636,383.136 L663.636,383.136 C675.652,378.825 684.435,376.164 685.583,407.979 C684.877,388.418 717.79,272.805 732.826,299.497 C749.063,329.946 742.877,375.235 742.877,375.235 C752.767,346.814 758.798,331.224 762.374,323.423 C767.612,370.886 760.214,413.91 760.214,413.91 C837.064,215.516 808.652,327.672 808.652,327.672 C808.652,327.672 848.172,272.029 836.145,197.569 C836.145,197.569 834.043,181.148 823.132,156.164 L823.132,156.164 Z " fill="#f2efef" fill-opacity="1.00" />			</g>		</g>	</svg>