<?xml version="1.0" encoding="utf-8" ?>	<!-- Generator: Assembly 1.8 - http://assemblyapp.co -->	<svg version="1.1" xmlns="http://www.w3.org/2000/svg" xmlns:xlink="http://www.w3.org/1999/xlink" width="2048.00" height="2048.00" viewBox="0 0 2048.0 2048.0">		<rect x="0" y="0" width="2048.00" height="2048.00" fill="#ffffff" />		<g id="document" transform="matrix(1,0,0,1,1024.0,1024.0)">			<g>				<g>					<path d="M165.997,241.749 C173.711,134.952 212.025,-86.7345 399.764,-86.7345 C647.048,-86.7345 753.455,244.209 829.888,582.295 C829.888,-31.9741 711.492,-396.25 510.667,-615.291 C599.09,-253.397 266.38,-191.493 266.38,-467.676 C266.38,-367.383 214.603,-305.934 165.997,-303.472 L165.997,241.749 L165.997,241.749 Z " fill="#a63131" fill-opacity="1.00" />					<path d="M43.7651,-33.9218 C-93.9979,-71.2883 380.339,-376.43 39.0254,-640.354 C266.763,-451.576 268.246,-617.447 332.006,-591.747 C229.679,-593.674 105.001,-85.8943 270.661,-466.771 C270.661,-466.771 266.877,-407.866 312.677,-348.561 C423.002,-256.959 520.322,-291.56 506.142,-591.277 C515.174,-579.096 515.536,-617.519 503.981,-627.244 C701.587,-495.734 840.979,47.5384 838.669,558.913 C849.773,582.592 861.161,631.923 852.147,629.723 C863.484,620.097 813.076,517.834 840.187,612.325 C825.74,578.36 827.525,560.584 823.701,566.111 C749.167,-366.523 603.746,-462.507 537.798,-571.721 C577.126,-426.872 597.244,-32.8215 460.151,27.3181 C492.593,7.72928 501.69,-27.2462 506.403,-59.0264 C523.452,39.7885 574.949,-372.545 526.176,-450.076 C496.35,-187.554 285.562,-284.072 263.463,-404.396 C162.392,-197.943 159.392,155.027 171.69,286.924 C128.295,93.2426 143.404,-61.9977 143.447,-100.302 C151.032,-151.723 84.9791,-172.369 43.7651,-33.9218 Z " fill="#9b133a" fill-opacity="1.00" />				</g>				<g>					<path d="M-255.605,239.872 C-263.319,133.076 -301.633,-88.6109 -489.371,-88.6109 C-736.656,-88.6109 -843.063,242.332 -919.496,580.418 C-919.496,-33.8505 -801.099,-398.126 -600.275,-617.168 C-688.697,-255.273 -355.988,-193.37 -355.988,-469.553 C-355.988,-369.26 -304.21,-307.81 -255.605,-305.348 L-255.605,239.872 L-255.605,239.872 Z " fill="#a63131" fill-opacity="1.00" />					<path d="M-133.373,-35.7982 C4.3902,-73.1647 -469.947,-378.306 -128.633,-642.231 C-356.371,-453.452 -357.854,-619.323 -421.614,-593.623 C-319.287,-595.551 -194.609,-87.7707 -360.269,-468.648 C-360.269,-468.648 -356.484,-409.743 -402.284,-350.438 C-512.61,-258.836 -609.93,-293.437 -595.75,-593.153 C-604.782,-580.972 -605.144,-619.395 -593.589,-629.12 C-791.195,-497.611 -930.587,45.662 -928.277,557.036 C-939.38,580.715 -950.769,630.047 -941.754,627.847 C-953.091,618.22 -902.683,515.957 -929.795,610.449 C-915.347,576.483 -917.133,558.708 -913.309,564.235 C-838.775,-368.399 -693.354,-464.384 -627.405,-573.598 C-666.734,-428.748 -686.852,-34.6979 -549.759,25.4417 C-582.201,5.85287 -591.298,-29.1227 -596.011,-60.9029 C-613.06,37.9121 -664.557,-374.421 -615.784,-451.952 C-585.958,-189.43 -375.17,-285.948 -353.07,-406.273 C-252,-199.82 -248.999,153.15 -261.298,285.048 C-217.903,91.3662 -233.012,-63.8741 -233.055,-102.178 C-240.639,-153.599 -174.587,-174.246 -133.373,-35.7982 Z " fill="#9b133a" fill-opacity="1.00" />				</g>			</g>		</g>	</svg>