<?xml version="1.0" encoding="utf-8" ?>	<!-- Generator: Assembly 1.8 - http://assemblyapp.co -->	<svg version="1.1" xmlns="http://www.w3.org/2000/svg" xmlns:xlink="http://www.w3.org/1999/xlink" width="2048.00" height="2048.00" viewBox="0 0 2048.0 2048.0">		<rect x="0" y="0" width="2048.00" height="2048.00" fill="none" />		<g id="document" transform="matrix(1,0,0,1,1024.0,1024.0)">			<g>				<path d="M-31.1899,317.01 C-1.78857,373.079 24.1361,423.271 27.9931,437.631 C50.096,449.886 295.374,420.643 396.679,343.612 C633.399,294.184 778.617,55.183 778.617,55.183 C618.512,-8.69224 165.105,68.1481 -31.2262,106.365 C-227.593,68.1437 -680.916,-8.67228 -841.003,55.1959 C-841.003,55.1959 -695.786,294.197 -459.065,343.625 C-357.76,420.656 -112.482,449.899 -90.3796,437.644 C-86.5223,423.283 -60.5939,373.084 -31.1899,317.01 L-31.1899,317.01 Z " fill="#3a8686" fill-opacity="1.00" />				<path d="M-78.7584,231.779 C-68.5431,261.786 -57.2486,294.605 -44.8151,325.24 C-53.0245,354.313 -66.9216,390.601 -88.5006,436.45 C-67.3741,423.64 -48.3316,393.427 -31.2348,356.614 C-14.1078,393.436 4.95884,423.66 26.094,436.486 C4.47914,390.627 -9.44828,354.332 -17.6833,325.254 C-5.27572,294.627 5.99096,261.816 16.1806,231.816 C43.2686,275.173 75.0115,368.764 74.8155,438.461 C80.1213,370.609 45.4505,282.681 59.984,206.847 C62.4316,212.666 121.576,335.265 133.992,431.352 C118.643,289.646 67.7276,246.933 115.195,209.081 C126.323,233.577 161.381,317.297 186.545,425.019 C182.877,396 138.269,237.04 147.554,230.059 C160.085,240.417 209.792,380.675 228.079,413.745 C190.061,329.956 177.11,259.528 160.694,232.209 L159.403,232.205 C193.017,264.289 252.02,364.036 271.693,402.015 C263.642,376.412 180.278,239.01 175.966,234.231 C210.335,263.349 208.986,281.646 308.06,388.622 C232.655,302.771 204.642,251.549 186.576,225.508 L186.599,225.616 C189.867,218.561 229.601,244.028 350.299,370.617 C274.066,280.447 234.277,233.049 195.273,202.356 L195.703,202.357 C234.734,210.319 290.668,239.86 394.233,345.878 C248.527,191.123 221.153,222.865 227.319,184.41 C263.844,192.068 298.118,195.094 444.663,331.262 C283.862,173.45 282.053,191.598 259.681,157.244 C279.952,161.324 453.215,285.566 493.63,311.626 C400.535,240.604 347.138,200.756 312.287,180.012 L281.883,159.562 C338.852,175.321 494.651,258.789 539.579,289.517 C515.122,265.675 298.246,157.059 290.538,154.294 C346.564,166.278 411.855,198.127 587.256,258.472 C451.084,207.58 344.183,169.755 308.257,151.433 L294.753,144.172 C392.279,143.62 394.723,159.726 636.117,217.74 C410.223,152.303 335.147,134.135 279.595,123.909 C375.984,116.011 560.654,162.472 666.414,191.521 C480.495,133.987 328.821,116.826 345.173,102.918 C359.117,91.4459 665.316,156.981 691.653,163.542 C509.769,118.231 397.471,109.79 403.425,94.6832 C411.223,93.5679 545.703,91.2669 728.095,125.115 C589.359,95.5747 471.772,94.9337 430.271,83.174 C449.963,79.2579 469.92,75.6174 489.862,72.3259 C517.699,70.1858 566.722,71.9144 753.537,92.6863 C664.567,77.3463 593.181,70.111 521.017,67.4704 C628.688,51.6999 724.629,38.2148 778.036,56.9609 C694.665,-3.82297 184.274,47.5043 -31.3782,96.5344 C-247.106,47.3224 -757.459,-4.43045 -840.77,56.2764 C-787.38,37.5763 -691.427,51.1441 -583.742,67.0073 C-655.904,69.5857 -727.284,76.7595 -816.241,92.0228 C-629.444,71.4119 -580.423,69.7256 -552.584,71.8896 C-532.639,75.1983 -512.678,78.8561 -492.983,82.7891 C-534.473,94.513 -652.061,95.0527 -790.77,124.474 C-608.408,90.7825 -473.926,93.1994 -466.127,94.3214 C-460.16,109.433 -572.451,117.778 -754.296,162.931 C-727.964,156.393 -421.822,91.1223 -407.868,102.607 C-391.504,116.528 -543.163,133.559 -729.033,190.933 C-623.297,161.975 -438.667,115.673 -342.272,123.654 C-397.815,133.832 -472.875,151.936 -698.713,217.177 C-457.369,159.372 -454.939,143.268 -357.412,143.904 L-370.91,151.154 C-406.82,169.444 -513.689,207.177 -649.816,257.952 C-474.468,197.758 -409.204,165.965 -353.189,154.029 C-360.894,156.788 -577.676,265.217 -602.113,289.038 C-557.211,258.349 -401.485,175.015 -344.529,159.305 L-374.916,179.729 C-409.749,200.442 -463.111,240.245 -556.144,311.187 C-515.752,285.161 -342.597,161.069 -322.329,157.006 C-344.671,191.341 -346.496,173.191 -507.161,330.865 C-360.733,194.823 -326.462,191.826 -289.944,184.2 C-283.744,222.661 -311.146,190.895 -456.718,345.525 C-353.244,239.595 -297.336,210.103 -258.312,202.175 L-257.882,202.173 C-296.859,232.833 -336.608,280.196 -412.763,370.301 C-292.174,243.816 -252.462,218.383 -249.188,225.441 L-249.164,225.333 C-267.208,251.359 -295.177,302.556 -370.508,388.343 C-271.526,281.452 -272.891,263.154 -238.548,234.065 C-242.855,238.841 -326.1,376.171 -334.13,401.767 C-314.489,363.804 -255.572,264.109 -221.986,232.053 L-223.277,232.057 C-239.669,259.361 -252.559,329.778 -290.506,413.534 C-272.247,380.48 -222.661,240.265 -210.139,229.918 C-200.848,236.907 -245.319,395.828 -248.961,424.844 C-223.89,317.143 -188.905,233.454 -177.798,208.968 C-130.298,246.861 -181.177,289.529 -196.403,431.223 C-184.071,335.146 -125.032,212.598 -122.589,206.781 C-107.99,282.627 -142.585,370.526 -137.22,438.382 C-137.477,368.681 -105.81,275.109 -78.7584,231.779 L-78.7584,231.779 Z M-219.315,177.965 C-220.113,176.106 -220.967,174.12 -221.874,171.998 C-220.264,173.419 -218.861,174.82 -217.674,176.2 C-218.214,176.79 -218.761,177.378 -219.315,177.965 Z M156.686,178.114 C156.131,177.527 155.583,176.938 155.043,176.348 C156.228,174.969 157.63,173.569 159.239,172.15 C158.334,174.271 157.482,176.256 156.686,178.114 Z " fill="#0bfbdb" fill-opacity="1.00" />			</g>		</g>	</svg>