<?xml version="1.0" encoding="utf-8" ?>	<!-- Generator: Assembly 1.8 - http://assemblyapp.co -->	<svg version="1.1" xmlns="http://www.w3.org/2000/svg" xmlns:xlink="http://www.w3.org/1999/xlink" width="2048.00" height="2048.00" viewBox="0 0 2048.0 2048.0">		<rect x="0" y="0" width="2048.00" height="2048.00" fill="#ffffff" />		<g id="document" transform="matrix(1,0,0,1,1024.0,1024.0)">			<g>				<path d="M-28.2974,303.107 C3.58224,363.901 31.6923,418.325 35.8743,433.895 C59.8404,447.183 325.794,415.475 435.638,331.951 C692.313,278.356 849.772,19.2089 849.772,19.2089 C676.17,-50.0507 184.544,33.2668 -28.3368,74.7049 C-241.256,33.2621 -732.792,-50.0291 -906.374,19.2228 C-906.374,19.2228 -748.915,278.37 -492.24,331.965 C-382.396,415.489 -116.443,447.197 -92.4765,433.909 C-88.2941,418.338 -60.1801,363.907 -28.2974,303.107 L-28.2974,303.107 Z " fill="#3a8686" fill-opacity="1.00" />				<path d="M-79.8758,210.691 C-68.7994,243.228 -56.5527,278.813 -43.0712,312.03 C-51.9726,343.554 -67.0412,382.901 -90.4391,432.614 C-67.5318,418.725 -46.8841,385.965 -28.3462,346.048 C-9.77545,385.974 10.8984,418.747 33.8151,432.654 C10.3783,382.929 -4.72314,343.574 -13.6523,312.045 C-0.19886,278.837 12.0175,243.26 23.0662,210.731 C52.4374,257.743 86.8562,359.224 86.6437,434.795 C92.3967,361.224 54.8033,265.883 70.5619,183.657 C73.2158,189.967 137.346,322.901 150.809,427.087 C134.166,273.436 78.9583,227.123 130.427,186.08 C142.493,212.641 180.506,303.417 207.791,420.22 C203.814,388.754 155.446,216.395 165.514,208.826 C179.101,220.058 232.998,372.138 252.827,407.995 C211.603,317.143 197.561,240.779 179.761,211.157 L178.362,211.152 C214.808,245.942 278.785,354.096 300.117,395.277 C291.387,367.516 200.996,218.532 196.321,213.349 C233.587,244.922 232.124,264.762 339.549,380.755 C257.788,287.667 227.414,232.128 207.824,203.892 L207.85,204.009 C211.393,196.358 254.477,223.972 385.349,361.232 C302.69,263.461 259.547,212.068 217.255,178.788 L217.722,178.789 C260.042,187.422 320.691,219.453 432.986,334.408 C274.999,166.608 245.316,201.026 252.003,159.329 C291.606,167.632 328.77,170.914 487.667,318.56 C313.312,147.445 311.35,167.123 287.093,129.873 C309.072,134.297 496.94,269.012 540.762,297.269 C439.82,220.26 381.922,177.052 344.133,154.561 L311.166,132.386 C372.937,149.474 541.869,239.978 590.584,273.296 C564.066,247.444 328.909,129.673 320.551,126.674 C381.299,139.668 452.094,174.202 642.28,239.634 C494.63,184.452 378.718,143.438 339.763,123.573 L325.12,115.699 C430.868,115.101 433.518,132.564 695.26,195.468 C450.324,124.516 368.92,104.816 308.685,93.7281 C413.199,85.1648 613.435,135.542 728.111,167.04 C526.52,104.656 362.06,86.0476 379.791,70.9679 C394.91,58.5286 726.92,129.588 755.477,136.701 C558.262,87.5717 436.497,78.4186 442.954,62.0387 C451.408,60.8294 597.225,58.3344 794.991,95.0363 C644.561,63.0054 517.061,62.3104 472.062,49.5594 C493.414,45.3132 515.053,41.3658 536.677,37.7968 C566.86,35.4764 620.015,37.3506 822.577,59.8735 C726.108,43.2404 648.704,35.3952 570.457,32.5321 C687.205,15.4322 791.233,0.81035 849.142,21.1367 C758.743,-44.771 205.329,10.8829 -28.5016,64.046 C-262.414,10.6856 -815.788,-45.4297 -906.121,20.3944 C-848.23,0.117979 -744.189,14.8295 -627.427,32.0299 C-705.672,34.8256 -783.068,42.6041 -879.524,59.1541 C-676.981,36.8058 -623.828,34.9773 -593.642,37.3237 C-572.016,40.9114 -550.372,44.8775 -529.017,49.142 C-574.005,61.8542 -701.504,62.4394 -851.907,94.3407 C-654.172,57.8092 -508.354,60.4298 -499.898,61.6464 C-493.427,78.0319 -615.184,87.0801 -812.357,136.04 C-783.806,128.951 -451.857,58.1776 -436.727,70.6301 C-418.984,85.7251 -583.427,104.192 -784.965,166.402 C-670.316,135.003 -470.123,84.7981 -365.602,93.4514 C-425.827,104.488 -507.214,124.117 -752.089,194.859 C-490.401,132.18 -487.766,114.719 -382.018,115.408 L-396.654,123.269 C-435.592,143.101 -551.469,184.015 -699.071,239.07 C-508.941,173.802 -438.176,139.329 -377.439,126.388 C-385.794,129.379 -620.85,246.947 -647.346,272.777 C-598.659,239.501 -429.806,149.142 -368.049,132.108 L-400.998,154.254 C-438.767,176.713 -496.627,219.871 -597.503,296.793 C-553.705,268.573 -365.954,134.02 -343.978,129.615 C-368.203,166.844 -370.182,147.165 -544.39,318.129 C-385.62,170.62 -348.459,167.37 -308.863,159.102 C-302.14,200.804 -331.852,166.36 -489.695,334.025 C-377.499,219.166 -316.878,187.188 -274.565,178.591 L-274.098,178.59 C-316.361,211.834 -359.461,263.19 -442.035,360.889 C-311.282,223.742 -268.221,196.166 -264.671,203.819 L-264.646,203.702 C-284.211,231.921 -314.537,287.435 -396.218,380.452 C-288.893,264.551 -290.373,244.711 -253.134,213.169 C-257.805,218.348 -348.067,367.254 -356.773,395.008 C-335.477,353.845 -271.594,245.746 -235.177,210.988 L-236.576,210.992 C-254.35,240.598 -268.327,316.951 -309.472,407.767 C-289.674,371.927 -235.909,219.893 -222.331,208.673 C-212.257,216.251 -260.476,388.568 -264.426,420.031 C-237.241,303.251 -199.307,212.508 -187.264,185.957 C-135.76,227.044 -190.927,273.31 -207.437,426.947 C-194.065,322.772 -130.049,189.893 -127.401,183.586 C-111.571,265.826 -149.082,361.134 -143.266,434.71 C-143.544,359.133 -109.208,257.673 -79.8758,210.691 L-79.8758,210.691 Z M-232.281,152.341 C-233.146,150.325 -234.072,148.172 -235.056,145.871 C-233.309,147.412 -231.788,148.931 -230.501,150.427 C-231.087,151.067 -231.68,151.705 -232.281,152.341 Z M175.415,152.503 C174.814,151.866 174.22,151.228 173.634,150.587 C174.919,149.093 176.439,147.574 178.184,146.035 C177.202,148.335 176.278,150.488 175.415,152.503 Z " fill="#0bfbdb" fill-opacity="1.00" />			</g>		</g>	</svg>