<?xml version="1.0" encoding="utf-8" ?>	<!-- Generator: Assembly 1.8 - http://assemblyapp.co -->	<svg version="1.1" xmlns="http://www.w3.org/2000/svg" xmlns:xlink="http://www.w3.org/1999/xlink" width="2048.00" height="2048.00" viewBox="0 0 2048.0 2048.0">		<rect x="0" y="0" width="2048.00" height="2048.00" fill="#ffffff" />		<g id="document" transform="matrix(1,0,0,1,1024.0,1024.0)">			<g>				<g>					<g>						<path d="M-916.716,-708.949 C-414.454,-745.034 -153.082,-465.132 -200.87,-21.3862 C-338.383,-272.03 -361.789,-385.16 -645.592,-520.722 C-429.083,-358.828 -353.012,-170.602 -263.287,61.5114 C-319.853,49.8082 -395.924,8.84703 -459.316,-14.5593 C-590.977,-64.2979 -752.775,-153.309 -798.207,-317.368 C-845.02,-543.629 -902.087,-688.468 -916.716,-708.949 Z " fill="#ffd91f" fill-opacity="1.00" />						<path d="M-482.158,-215.532 C-369.42,-259.256 -275.316,-264.197 -228.467,-217.349 C-181.87,-170.752 -182.773,-51.8326 -222.339,52.3207 C-336.742,86.4759 -427.796,75.678 -474.645,28.8294 C-521.494,-18.0192 -525.417,-103.763 -482.158,-215.532 Z " fill="#ffd91f" fill-opacity="1.00" />						<path d="M-941.363,-539.498 C-500.475,-634.739 -101.478,-365.184 -220.948,52.2857 C-274.917,-81.1601 -392.693,-352.111 -786.043,-303.876 C-569.528,-295.221 -374.297,-132.516 -261.075,62.7737 C-312.714,59.5168 -389.121,31.5062 -448.288,18.73 C-571.314,-8.80329 -709.385,-67.7297 -761.643,-212.074 C-831.647,-406.84 -925.81,-523.176 -941.363,-539.498 Z " fill="#ffb938" fill-opacity="1.00" />						<path d="M-936.808,-314.798 C-547.879,-543.24 -222.851,-377.463 -222.196,53.8437 C-287.12,-228.975 -334.127,-386.348 -791.999,-303.567 C-553.871,-259.569 -738.021,-22.8417 -271.552,64.4876 C-454.48,104.342 -568.834,60.6667 -663.642,-60.071 C-791.086,-223.143 -916.929,-304.164 -936.808,-314.798 Z " fill="#ffe876" fill-opacity="1.00" />					</g>					<g>						<path d="M-762.813,709.612 C-367.369,738.023 -161.585,517.649 -199.21,168.277 C-307.477,365.615 -325.905,454.686 -549.35,561.417 C-378.887,433.954 -318.995,285.758 -248.352,103.01 C-292.888,112.224 -352.78,144.474 -402.69,162.902 C-506.35,202.062 -633.738,272.143 -669.508,401.311 C-706.365,579.452 -751.295,693.487 -762.813,709.612 Z " fill="#ffd91f" fill-opacity="1.00" />						<path d="M-420.675,321.132 C-331.913,355.558 -257.822,359.448 -220.937,322.563 C-184.25,285.876 -184.961,192.248 -216.112,110.246 C-306.185,83.3544 -377.874,91.8558 -414.759,128.741 C-451.644,165.626 -454.734,233.134 -420.675,321.132 Z " fill="#ffd91f" fill-opacity="1.00" />						<path d="M-782.218,576.199 C-435.096,651.185 -120.956,438.957 -215.017,110.273 C-257.508,215.338 -350.237,428.665 -659.931,390.688 C-489.463,383.874 -335.753,255.772 -246.611,102.016 C-287.267,104.58 -347.424,126.633 -394.008,136.692 C-490.869,158.37 -599.576,204.764 -640.72,318.41 C-695.836,471.754 -769.973,563.349 -782.218,576.199 Z " fill="#ffb938" fill-opacity="1.00" />						<path d="M-778.632,399.287 C-472.418,579.146 -216.516,448.625 -216,109.046 C-267.116,331.717 -304.126,455.621 -664.621,390.445 C-477.136,355.804 -622.122,169.423 -254.859,100.666 C-398.883,69.2879 -488.917,103.675 -563.562,198.734 C-663.902,327.125 -762.981,390.915 -778.632,399.287 Z " fill="#ffe876" fill-opacity="1.00" />					</g>				</g>				<g>					<g>						<path d="M879.849,-708.949 C377.587,-745.034 116.216,-465.132 164.004,-21.3862 C301.517,-272.03 324.923,-385.16 608.725,-520.722 C392.216,-358.828 316.146,-170.602 226.421,61.5114 C282.987,49.8082 359.057,8.84703 422.45,-14.5593 C554.111,-64.2979 715.908,-153.309 761.341,-317.368 C808.154,-543.629 865.22,-688.468 879.849,-708.949 Z " fill="#ffd91f" fill-opacity="1.00" />						<path d="M445.292,-215.532 C332.554,-259.256 238.449,-264.197 191.601,-217.349 C145.004,-170.752 145.907,-51.8326 185.472,52.3207 C299.876,86.4759 390.93,75.678 437.779,28.8294 C484.627,-18.0192 488.551,-103.763 445.292,-215.532 Z " fill="#ffd91f" fill-opacity="1.00" />						<path d="M904.496,-539.498 C463.609,-634.739 64.6121,-365.184 184.081,52.2857 C238.05,-81.1601 355.827,-352.111 749.177,-303.876 C532.661,-295.221 337.43,-132.516 224.209,62.7737 C275.848,59.5168 352.255,31.5062 411.422,18.73 C534.447,-8.80329 672.519,-67.7297 724.776,-212.074 C794.781,-406.84 888.944,-523.176 904.496,-539.498 Z " fill="#ffb938" fill-opacity="1.00" />						<path d="M899.942,-314.798 C511.012,-543.24 185.985,-377.463 185.33,53.8437 C250.253,-228.975 297.261,-386.348 755.133,-303.567 C517.005,-259.569 701.155,-22.8417 234.685,64.4876 C417.613,104.342 531.968,60.6667 626.776,-60.071 C754.22,-223.143 880.063,-304.164 899.942,-314.798 Z " fill="#ffe876" fill-opacity="1.00" />					</g>					<g>						<path d="M725.947,709.612 C330.503,738.023 124.719,517.649 162.343,168.277 C270.611,365.615 289.039,454.686 512.484,561.417 C342.021,433.954 282.128,285.758 211.486,103.01 C256.021,112.224 315.914,144.474 365.824,162.902 C469.484,202.062 596.872,272.143 632.642,401.311 C669.499,579.452 714.429,693.487 725.947,709.612 Z " fill="#ffd91f" fill-opacity="1.00" />						<path d="M383.809,321.132 C295.047,355.558 220.956,359.448 184.071,322.563 C147.384,285.876 148.095,192.248 179.246,110.246 C269.319,83.3544 341.008,91.8558 377.893,128.741 C414.778,165.626 417.867,233.134 383.809,321.132 Z " fill="#ffd91f" fill-opacity="1.00" />						<path d="M745.352,576.199 C398.23,651.185 84.0897,438.957 178.151,110.273 C220.642,215.338 313.371,428.665 623.065,390.688 C452.597,383.874 298.886,255.772 209.744,102.016 C250.401,104.58 310.558,126.633 357.141,136.692 C454.003,158.37 562.71,204.764 603.854,318.41 C658.97,471.754 733.107,563.349 745.352,576.199 Z " fill="#ffb938" fill-opacity="1.00" />						<path d="M741.766,399.287 C435.552,579.146 179.65,448.625 179.134,109.046 C230.25,331.717 267.26,455.621 627.754,390.445 C440.27,355.804 585.256,169.423 217.993,100.666 C362.017,69.2879 452.05,103.675 526.695,198.734 C627.035,327.125 726.115,390.915 741.766,399.287 Z " fill="#ffe876" fill-opacity="1.00" />					</g>				</g>			</g>		</g>	</svg>