<?xml version="1.0" encoding="utf-8" ?>	<!-- Generator: Assembly 1.8 - http://assemblyapp.co -->	<svg version="1.1" xmlns="http://www.w3.org/2000/svg" xmlns:xlink="http://www.w3.org/1999/xlink" width="2048.00" height="2048.00" viewBox="0 0 2048.0 2048.0">		<rect x="0" y="0" width="2048.00" height="2048.00" fill="none" />		<g id="document" transform="matrix(1,0,0,1,1024.0,1024.0)">			<g>				<g>					<path d="M-180.727,291.125 C-189.818,165.264 -234.972,-95.9949 -456.223,-95.9949 C-747.649,-95.9949 -873.051,294.024 -963.128,692.461 C-963.128,-31.4594 -823.596,-460.761 -586.923,-718.903 C-691.13,-292.407 -299.029,-219.454 -299.029,-544.938 C-299.029,-426.742 -238.009,-354.323 -180.727,-351.422 L-180.727,291.125 L-180.727,291.125 Z " fill="#a63131" fill-opacity="1.00" />					<path d="M-36.6756,-33.7548 C125.679,-77.7914 -433.331,-437.403 -31.0899,-748.44 C-299.48,-525.963 -301.228,-721.443 -376.37,-691.156 C-255.777,-693.427 -108.842,-95.0047 -304.074,-543.871 C-304.074,-543.871 -299.614,-474.451 -353.59,-404.56 C-483.609,-296.606 -598.301,-337.384 -581.59,-690.602 C-592.234,-676.247 -592.661,-721.528 -579.043,-732.989 C-811.924,-578.004 -976.199,62.2467 -973.476,664.905 C-986.561,692.811 -999.983,750.949 -989.359,748.356 C-1002.72,737.011 -943.314,616.493 -975.265,727.852 C-958.238,687.824 -960.343,666.875 -955.836,673.389 C-867.997,-425.728 -696.618,-538.846 -618.896,-667.556 C-665.246,-496.849 -688.955,-32.458 -527.389,38.4169 C-565.622,15.3313 -576.344,-25.8876 -581.898,-63.3408 C-601.991,53.1134 -662.68,-432.825 -605.201,-524.196 C-570.05,-214.812 -321.635,-328.558 -295.591,-470.362 C-176.479,-227.055 -172.942,188.922 -187.436,344.365 C-136.295,116.109 -154.101,-66.8424 -154.152,-111.984 C-163.09,-172.584 -85.2466,-196.916 -36.6756,-33.7548 Z " fill="#9b133a" fill-opacity="1.00" />				</g>				<g>					<path d="M117.051,291.125 C126.141,165.264 171.295,-95.9949 392.546,-95.9949 C683.972,-95.9949 809.374,294.024 899.451,692.461 C899.451,-31.4594 759.92,-460.761 523.246,-718.903 C627.453,-292.407 235.352,-219.454 235.352,-544.938 C235.352,-426.742 174.332,-354.323 117.051,-351.422 L117.051,291.125 L117.051,291.125 Z " fill="#a63131" fill-opacity="1.00" />					<path d="M-27.0009,-33.7548 C-189.356,-77.7914 369.654,-437.403 -32.5866,-748.44 C235.804,-525.963 237.552,-721.443 312.693,-691.156 C192.1,-693.427 45.1659,-95.0047 240.398,-543.871 C240.398,-543.871 235.938,-474.451 289.913,-404.56 C419.933,-296.606 534.625,-337.384 517.914,-690.602 C528.558,-676.247 528.985,-721.528 515.367,-732.989 C748.247,-578.004 912.522,62.2467 909.8,664.905 C922.885,692.811 936.307,750.949 925.683,748.356 C939.044,737.011 879.637,616.493 911.589,727.852 C894.562,687.824 896.666,666.875 892.16,673.389 C804.321,-425.728 632.941,-538.846 555.22,-667.556 C601.569,-496.849 625.278,-32.458 463.713,38.4169 C501.946,15.3313 512.668,-25.8876 518.222,-63.3408 C538.314,53.1134 599.003,-432.825 541.524,-524.196 C506.374,-214.812 257.958,-328.558 231.914,-470.362 C112.802,-227.055 109.266,188.922 123.76,344.365 C72.618,116.109 90.4246,-66.8424 90.4751,-111.984 C99.4134,-172.584 21.5701,-196.916 -27.0009,-33.7548 Z " fill="#9b133a" fill-opacity="1.00" />				</g>			</g>		</g>	</svg>