<?xml version="1.0" encoding="utf-8" ?>	<!-- Generator: Assembly 1.8 - http://assemblyapp.co -->	<svg version="1.1" xmlns="http://www.w3.org/2000/svg" xmlns:xlink="http://www.w3.org/1999/xlink" width="2048.00" height="2048.00" viewBox="0 0 2048.0 2048.0">		<rect x="0" y="0" width="2048.00" height="2048.00" fill="none" />		<g id="document" transform="matrix(1,0,0,1,1024.0,1024.0)">			<g>				<path d="M-888.102,176.857 C-902.795,170.692 -913.506,158.991 -918.829,195.9 C-916.058,176.687 -936.205,59.0311 -953.847,83.6926 C-973.071,111.926 -971.785,157.275 -971.785,157.275 C-995.062,56.4704 -989.115,112.387 -989.115,112.387 C-989.115,112.387 -1004.26,82.8363 -993.392,47.9117 C-993.392,47.9117 -985.713,20.0526 -952.064,-6.63163 C-927.166,-26.5144 -933.429,-47.5534 -945.054,-54.466 C-949.107,-44.5489 -952.827,-32.8959 -955.92,-19.2096 C-955.971,-31.736 -956.023,-44.2624 -955.127,-56.6761 C-956.534,-56.4733 -957.921,-56.0445 -959.253,-55.3686 C-975.92,-46.5211 -988.361,-16.1342 -991.508,-6.02443 C-991.508,-6.02443 -1001.39,-54.1005 -962.629,-109.965 C-962.629,-109.965 -983.173,-109.417 -999.402,-71.6486 C-998.018,-79.2882 -996.633,-86.9279 -994.344,-94.2804 C-981.983,-133.988 -960.942,-182.78 -928.547,-221.537 C-960.687,-292.334 -931.561,-378.968 -902.967,-434.441 C-899.742,-440.698 -895.748,-446.549 -891.754,-452.399 C-905.426,-417.33 -892.482,-403.524 -892.482,-403.524 C-881.805,-465.055 -844.638,-489.7 -844.638,-489.7 C-849.073,-481.096 -860.473,-453.285 -855.35,-436.646 C-850.025,-420.398 -814.824,-423.192 -819.501,-463.479 C-824.196,-502.781 -811.332,-525.838 -811.332,-525.838 C-796.013,-555.559 -767.293,-564.764 -767.293,-564.764 C-767.293,-564.764 -806.935,-532.471 -727.345,-582.465 C-727.345,-582.465 -757.205,-553.96 -762.837,-523.101 C-767.206,-495.589 -678.855,-558.538 -668.35,-572.787 C-687.707,-546.532 -675.228,-545.975 -662.303,-541.004 L-662.303,-541.004 C-642.907,-564.383 -618.844,-583.295 -597.992,-596.771 C-593.35,-599.771 -588.341,-602.183 -583.332,-604.595 C-606.338,-586.015 -602.87,-571.344 -602.87,-571.344 C-571.603,-609.288 -536.6,-611.284 -536.6,-611.284 C-542.982,-607.159 -561.608,-592.647 -564.588,-579.171 C-567.279,-565.883 -542.132,-553.673 -529.634,-583.199 C-517.532,-612.056 -499.759,-622.718 -499.759,-622.718 C-477.711,-636.966 -454.496,-631.757 -454.496,-631.757 C-454.496,-631.757 -494.169,-625.505 -420.297,-627.871 C-420.297,-627.871 -451.81,-620.293 -467.681,-601.374 C-481.384,-584.246 -396.477,-591.988 -383.746,-597.55 C-421.471,-581.067 -377.032,-577.15 -388.445,-552.244 C-388.658,-545.558 -388.757,-539.045 -388.756,-532.701 L-388.756,-532.701 C-373.367,-547.658 -356.708,-560.163 -341.709,-569.856 C-337.068,-572.856 -332.059,-575.268 -327.05,-577.68 C-350.056,-559.1 -346.587,-544.429 -346.587,-544.429 C-315.32,-582.373 -280.318,-584.369 -280.318,-584.369 C-286.7,-580.244 -305.325,-565.732 -308.306,-552.256 C-310.996,-538.968 -285.849,-526.758 -273.351,-556.284 C-261.25,-585.142 -243.476,-595.803 -243.476,-595.803 C-221.428,-610.052 -198.214,-604.842 -198.214,-604.842 C-198.214,-604.842 -237.887,-598.59 -164.015,-600.956 C-164.015,-600.956 -195.528,-593.378 -211.398,-574.459 C-225.102,-557.331 -140.195,-565.073 -127.464,-570.635 C-165.189,-554.152 -120.749,-550.235 -132.163,-525.329 C-134.078,-465.068 -126.776,-418.76 -120.462,-385.42 C-93.8954,-312.88 -105.907,-201.619 -182.216,-34.8596 C-477.136,-637.17 -423.695,196.845 -298.417,295.165 C-308.902,291.541 -318.794,288.469 -328.128,285.918 C-299.814,338.937 -285.145,402.359 -296.166,435.716 C-297.758,440.534 -299.942,445.152 -302.127,449.77 C-296.337,423.275 -307.092,414.964 -307.092,414.964 C-307.782,459.911 -331.452,481.716 -331.452,481.716 C-329.263,475.091 -324.276,454.016 -329.787,442.787 C-335.397,431.859 -360.12,437.914 -352.273,465.995 C-344.524,493.373 -351.086,511.24 -351.086,511.24 C-352.487,515.482 -354.295,519.276 -356.311,522.643 L-356.311,522.643 C-356.105,527.704 -355.836,532.862 -355.498,538.116 C-342.424,564.266 -389.833,570.392 -348.9,586.384 C-362.714,580.988 -453.824,576.403 -438.569,594.131 C-420.933,613.681 -386.955,620.417 -386.955,620.417 C-466.073,621.102 -423.409,626.064 -423.409,626.064 C-423.409,626.064 -448.066,632.648 -472.149,618.364 C-472.149,618.364 -490.388,608.36 -504.212,580.065 C-504.571,580.834 -504.937,581.598 -505.311,582.355 C-505.23,580.973 -505.154,579.603 -505.083,578.245 C-505.217,577.959 -505.35,577.672 -505.483,577.383 C-519.878,546.337 -546.36,560.497 -543.021,574.597 C-539.364,588.885 -518.934,603.6 -511.963,607.735 C-511.963,607.735 -549.481,607.124 -584.249,567.889 C-584.249,567.889 -587.452,583.736 -562.193,602.614 C-567.636,600.251 -573.079,597.888 -578.149,594.881 C-602.163,580.638 -630.204,560.085 -652.356,534.036 C-652.037,548.626 -650.745,559.616 -650.745,559.616 C-650.745,559.616 -681.08,526.789 -694.379,480.421 C-694.403,482.419 -694.371,484.529 -694.281,486.758 C-694.844,472.776 -705.711,435.286 -720.695,395.096 L-720.695,395.096 C-732.777,391.323 -741.588,389.051 -741.407,420.616 C-741.518,401.209 -778.913,288.042 -792.702,315.107 C-807.526,345.943 -799.521,390.552 -799.521,390.552 C-810.496,362.807 -817.117,347.612 -820.983,340.033 C-824.205,387.268 -815.094,429.583 -815.094,429.583 C-899.444,236.23 -866.651,346.16 -866.651,346.16 C-866.651,346.16 -908.107,292.674 -899.277,218.413 C-899.277,218.413 -897.875,202.06 -888.102,176.857 L-888.102,176.857 Z " fill="#f2efef" fill-opacity="1.00" />				<path d="M802.189,173.193 C816.883,167.027 827.593,155.327 832.916,192.236 C830.145,173.023 850.293,55.3668 867.935,80.0284 C887.159,108.262 885.872,153.611 885.872,153.611 C909.15,52.8062 903.203,108.723 903.203,108.723 C903.203,108.723 918.351,79.172 907.479,44.2475 C907.479,44.2475 899.8,16.3884 866.152,-10.2959 C841.253,-30.1787 847.517,-51.2177 859.142,-58.1303 C863.194,-48.2132 866.914,-36.5602 870.007,-22.8739 C870.059,-35.4003 870.11,-47.9267 869.215,-60.3404 C870.621,-60.1376 872.008,-59.7088 873.34,-59.0328 C890.007,-50.1854 902.448,-19.7984 905.595,-9.68871 C905.595,-9.68871 915.474,-57.7648 876.717,-113.629 C876.717,-113.629 897.26,-113.081 913.489,-75.3129 C912.105,-82.9525 910.72,-90.5921 908.432,-97.9447 C896.07,-137.652 875.029,-186.444 842.635,-225.202 C874.774,-295.999 845.648,-382.633 817.055,-438.105 C813.829,-444.362 809.835,-450.213 805.841,-456.064 C819.514,-420.995 806.57,-407.189 806.57,-407.189 C795.893,-468.719 758.726,-493.364 758.726,-493.364 C763.16,-484.761 774.56,-456.949 769.437,-440.31 C764.112,-424.062 728.912,-426.857 733.588,-467.144 C738.283,-506.445 725.42,-529.502 725.42,-529.502 C710.1,-559.223 681.381,-568.428 681.381,-568.428 C681.381,-568.428 721.022,-536.135 641.432,-586.129 C641.432,-586.129 671.293,-557.624 676.924,-526.765 C681.293,-499.253 592.942,-562.203 582.437,-576.451 C601.795,-550.196 589.316,-549.639 576.39,-544.668 L576.39,-544.668 C556.994,-568.047 532.932,-586.959 512.079,-600.435 C507.438,-603.435 502.428,-605.847 497.419,-608.259 C520.426,-589.679 516.957,-575.008 516.957,-575.008 C485.69,-612.952 450.687,-614.948 450.687,-614.948 C457.07,-610.823 475.695,-596.312 478.676,-582.836 C481.366,-569.547 456.219,-557.337 443.721,-586.863 C431.62,-615.721 413.846,-626.382 413.846,-626.382 C391.798,-640.631 368.583,-635.421 368.583,-635.421 C368.583,-635.421 408.257,-629.169 334.384,-631.535 C334.384,-631.535 365.897,-623.957 381.768,-605.039 C395.471,-587.911 310.564,-595.652 297.834,-601.214 C335.559,-584.731 291.119,-580.814 302.533,-555.908 C302.745,-549.223 302.844,-542.709 302.844,-536.365 L302.844,-536.365 C287.455,-551.322 270.795,-563.827 255.797,-573.52 C251.155,-576.52 246.146,-578.932 241.137,-581.344 C264.143,-562.764 260.675,-548.093 260.675,-548.093 C229.408,-586.037 194.405,-588.033 194.405,-588.033 C200.787,-583.908 219.413,-569.397 222.393,-555.921 C225.084,-542.632 199.937,-530.422 187.439,-559.948 C175.337,-588.806 157.564,-599.467 157.564,-599.467 C135.515,-613.716 112.301,-608.506 112.301,-608.506 C112.301,-608.506 151.974,-602.254 78.1021,-604.621 C78.1021,-604.621 109.615,-597.042 125.486,-578.124 C139.189,-560.996 54.282,-568.737 41.5514,-574.299 C79.2761,-557.816 34.8367,-553.899 46.2501,-528.993 C48.1653,-468.732 40.8629,-422.425 34.5498,-389.084 C7.98281,-316.545 19.9943,-205.283 96.3034,-38.5239 C391.223,-640.835 337.782,193.18 212.505,291.501 C222.989,287.877 232.881,284.805 242.215,282.254 C213.901,335.273 199.233,398.695 210.253,432.051 C211.845,436.869 214.03,441.488 216.214,446.106 C210.424,419.611 221.18,411.3 221.18,411.3 C221.87,456.247 245.539,478.052 245.539,478.052 C243.351,471.427 238.363,450.351 243.874,439.123 C249.484,428.195 274.207,434.25 266.36,462.33 C258.611,489.708 265.173,507.576 265.173,507.576 C266.574,511.818 268.382,515.612 270.398,518.979 L270.398,518.979 C270.192,524.04 269.923,529.198 269.586,534.452 C256.511,560.602 303.921,566.728 262.988,582.72 C276.801,577.323 367.911,572.739 352.656,590.467 C335.021,610.017 301.042,616.753 301.042,616.753 C380.16,617.438 337.497,622.399 337.497,622.399 C337.497,622.399 362.153,628.984 386.237,614.7 C386.237,614.7 404.476,604.696 418.3,576.4 C418.659,577.17 419.025,577.934 419.398,578.691 C419.317,577.308 419.241,575.938 419.171,574.58 C419.304,574.295 419.438,574.008 419.57,573.719 C433.966,542.673 460.447,556.832 457.108,570.932 C453.452,585.221 433.021,599.935 426.05,604.07 C426.05,604.07 463.568,603.459 498.337,564.225 C498.337,564.225 501.539,580.072 476.28,598.949 C481.723,596.587 487.166,594.224 492.236,591.217 C516.25,576.974 544.291,556.421 566.444,530.372 C566.125,544.961 564.833,555.951 564.833,555.951 C564.833,555.951 595.167,523.124 608.466,476.757 C608.49,478.755 608.458,480.865 608.369,483.094 C608.931,469.111 619.799,431.622 634.782,391.431 L634.782,391.431 C646.864,387.659 655.676,385.387 655.495,416.952 C655.606,397.544 693,284.377 706.789,311.442 C721.613,342.279 713.609,386.888 713.609,386.888 C724.584,359.143 731.204,343.948 735.07,336.368 C738.292,383.604 729.181,425.919 729.181,425.919 C813.531,232.566 780.739,342.495 780.739,342.495 C780.739,342.495 822.194,289.01 813.365,214.749 C813.365,214.749 811.962,198.395 802.189,173.193 L802.189,173.193 Z " fill="#f2efef" fill-opacity="1.00" />			</g>		</g>	</svg>