<?xml version="1.0" encoding="utf-8" ?>	<!-- Generator: Assembly 1.8 - http://assemblyapp.co -->	<svg version="1.1" xmlns="http://www.w3.org/2000/svg" xmlns:xlink="http://www.w3.org/1999/xlink" width="2048.00" height="2048.00" viewBox="0 0 2048.0 2048.0">		<rect x="0" y="0" width="2048.00" height="2048.00" fill="#ffffff" />		<g id="document" transform="matrix(1,0,0,1,1024.0,1024.0)">			<g>				<g>					<path d="M892.421,-748.306 C394.563,-784.074 135.483,-506.627 182.852,-66.7719 C319.159,-315.218 342.36,-427.356 623.674,-561.73 C409.063,-401.255 333.66,-214.679 244.722,15.3989 C300.791,3.79831 376.195,-36.8037 439.032,-60.0048 C569.538,-109.307 729.917,-197.538 774.951,-360.158 C821.354,-584.436 877.92,-728.005 892.421,-748.306 Z " fill="#ffd91f" fill-opacity="1.00" />					<path d="M461.674,-259.215 C349.924,-302.556 256.645,-307.454 210.207,-261.016 C164.019,-214.828 164.914,-96.9513 204.132,6.28874 C317.533,40.1445 407.788,29.4413 454.226,-16.9966 C500.664,-63.4344 504.553,-148.426 461.674,-259.215 Z " fill="#ffd91f" fill-opacity="1.00" />					<path d="M916.852,-580.34 C479.83,-674.747 84.3316,-407.555 202.753,6.25411 C256.249,-126.022 372.993,-394.596 762.894,-346.785 C548.277,-338.206 354.758,-176.927 242.529,16.6501 C293.715,13.4218 369.452,-14.3432 428.1,-27.0074 C550.047,-54.2993 686.908,-112.709 738.707,-255.788 C808.098,-448.846 901.436,-564.162 916.852,-580.34 Z " fill="#ffb938" fill-opacity="1.00" />					<path d="M912.337,-357.611 C526.818,-584.05 204.64,-419.726 203.991,7.79845 C268.345,-272.541 314.941,-428.534 768.798,-346.478 C532.758,-302.866 715.293,-68.2146 252.914,18.349 C434.238,57.8539 547.589,14.5616 641.566,-105.117 C767.893,-266.759 892.632,-347.07 912.337,-357.611 Z " fill="#ffe876" fill-opacity="1.00" />				</g>				<g>					<path d="M739.867,657.817 C347.891,685.978 143.911,467.537 181.206,121.228 C288.524,316.836 306.791,405.126 528.276,510.921 C359.308,384.575 299.941,237.679 229.918,56.5331 C274.063,65.6666 333.43,97.6336 382.903,115.9 C485.654,154.717 611.924,224.183 647.381,352.219 C683.914,528.798 728.451,641.834 739.867,657.817 Z " fill="#ffd91f" fill-opacity="1.00" />					<path d="M400.729,272.744 C312.746,306.867 239.305,310.723 202.743,274.162 C166.378,237.796 167.083,144.989 197.96,63.7058 C287.244,37.0503 358.304,45.4772 394.866,82.0389 C431.427,118.601 434.489,185.517 400.729,272.744 Z " fill="#ffd91f" fill-opacity="1.00" />					<path d="M759.102,525.574 C415.024,599.902 103.638,389.535 196.875,63.7331 C238.993,167.877 330.909,379.333 637.888,341.69 C468.914,334.935 316.552,207.956 228.191,55.548 C268.491,58.0897 328.121,79.9499 374.296,89.9207 C470.308,111.408 578.062,157.396 618.845,270.045 C673.478,422.045 746.965,512.836 759.102,525.574 Z " fill="#ffb938" fill-opacity="1.00" />					<path d="M755.548,350.213 C452.019,528.494 198.361,399.118 197.849,62.5172 C248.517,283.235 285.203,406.052 642.536,341.448 C456.696,307.111 600.41,122.364 236.367,54.2105 C379.128,23.1072 468.373,57.1923 542.363,151.419 C641.823,278.683 740.034,341.914 755.548,350.213 Z " fill="#ffe876" fill-opacity="1.00" />				</g>				<g>					<path d="M-962.701,-737.869 C-464.843,-773.637 -205.763,-496.19 -253.132,-56.335 C-389.439,-304.781 -412.64,-416.92 -693.954,-551.293 C-479.344,-390.818 -403.94,-204.242 -315.002,25.8357 C-371.071,14.2352 -446.475,-26.3669 -509.312,-49.568 C-639.818,-98.8705 -800.197,-187.101 -845.231,-349.721 C-891.634,-573.999 -948.2,-717.568 -962.701,-737.869 Z " fill="#ffd91f" fill-opacity="1.00" />					<path d="M-531.954,-248.778 C-420.204,-292.119 -326.925,-297.017 -280.487,-250.579 C-234.299,-204.391 -235.194,-86.5145 -274.412,16.7256 C-387.813,50.5813 -478.068,39.8781 -524.506,-6.55972 C-570.944,-52.9976 -574.833,-137.989 -531.954,-248.778 Z " fill="#ffd91f" fill-opacity="1.00" />					<path d="M-987.132,-569.904 C-550.11,-664.31 -154.612,-397.118 -273.033,16.691 C-326.529,-115.585 -443.273,-384.16 -833.174,-336.348 C-618.557,-327.769 -425.038,-166.49 -312.809,27.087 C-363.995,23.8587 -439.733,-3.90638 -498.38,-16.5706 C-620.328,-43.8624 -757.188,-102.272 -808.987,-245.351 C-878.378,-438.409 -971.716,-553.725 -987.132,-569.904 Z " fill="#ffb938" fill-opacity="1.00" />					<path d="M-982.617,-347.174 C-597.098,-573.613 -274.92,-409.289 -274.271,18.2353 C-338.625,-262.104 -385.221,-418.097 -839.078,-336.041 C-603.038,-292.429 -785.573,-57.7777 -323.194,28.7858 C-504.518,68.2907 -617.869,24.9985 -711.847,-94.6806 C-838.173,-256.322 -962.913,-336.633 -982.617,-347.174 Z " fill="#ffe876" fill-opacity="1.00" />				</g>				<g>					<path d="M-810.148,668.254 C-418.171,696.415 -214.191,477.974 -251.486,131.665 C-358.804,327.273 -377.071,415.562 -598.556,521.358 C-429.588,395.012 -370.221,248.116 -300.198,66.97 C-344.343,76.1034 -403.71,108.07 -453.183,126.337 C-555.934,165.154 -682.204,234.62 -717.661,362.655 C-754.195,539.235 -798.731,652.27 -810.148,668.254 Z " fill="#ffd91f" fill-opacity="1.00" />					<path d="M-471.009,283.18 C-383.026,317.304 -309.585,321.16 -273.023,284.598 C-236.658,248.233 -237.363,155.426 -268.241,74.1427 C-357.524,47.4872 -428.584,55.9141 -465.146,92.4757 C-501.708,129.037 -504.77,195.954 -471.009,283.18 Z " fill="#ffd91f" fill-opacity="1.00" />					<path d="M-829.382,536.011 C-485.305,610.339 -173.919,399.972 -267.155,74.1699 C-309.274,178.314 -401.189,389.77 -708.168,352.126 C-539.194,345.372 -386.832,218.393 -298.471,65.9849 C-338.771,68.5266 -398.401,90.3867 -444.576,100.358 C-540.588,121.845 -648.342,167.833 -689.125,280.482 C-743.758,432.482 -817.245,523.273 -829.382,536.011 Z " fill="#ffb938" fill-opacity="1.00" />					<path d="M-825.828,360.65 C-522.299,538.931 -268.641,409.555 -268.129,72.954 C-318.797,293.672 -355.483,416.489 -712.816,351.885 C-526.976,317.548 -670.691,132.801 -306.647,64.6473 C-449.409,33.5441 -538.653,67.6292 -612.644,161.855 C-712.104,289.12 -810.314,352.351 -825.828,360.65 Z " fill="#ffe876" fill-opacity="1.00" />				</g>			</g>		</g>	</svg>