<?xml version="1.0" encoding="utf-8" ?>	<!-- Generator: Assembly 1.8 - http://assemblyapp.co -->	<svg version="1.1" xmlns="http://www.w3.org/2000/svg" xmlns:xlink="http://www.w3.org/1999/xlink" width="2048.00" height="2048.00" viewBox="0 0 2048.0 2048.0">		<rect x="0" y="0" width="2048.00" height="2048.00" fill="#ffffff" />		<g id="document" transform="matrix(1,0,0,1,1024.0,1024.0)">			<g>				<g>					<path d="M220.403,304.543 C228.813,188.106 270.586,-53.5905 475.27,-53.5905 C744.875,-53.5905 860.887,307.225 944.219,675.827 C944.219,6.11276 815.136,-391.044 596.184,-629.857 C692.588,-235.296 329.847,-167.805 329.847,-468.917 C329.847,-359.572 273.396,-292.575 220.403,-289.892 L220.403,304.543 L220.403,304.543 Z " fill="#a63131" fill-opacity="1.00" />					<path d="M87.1378,3.98923 C-63.0602,-36.7501 454.092,-369.435 81.9703,-657.182 C330.264,-451.364 331.882,-632.206 401.396,-604.187 C289.833,-606.289 153.901,-52.6745 334.514,-467.931 C334.514,-467.931 330.388,-403.709 380.322,-339.051 C500.606,-239.18 606.71,-276.905 591.25,-603.674 C601.098,-590.394 601.492,-632.285 588.894,-642.888 C804.337,-499.508 956.311,92.8023 953.793,650.335 C965.898,676.151 978.315,729.936 968.487,727.537 C980.847,717.042 925.889,605.548 955.448,708.569 C939.696,671.538 941.643,652.157 937.474,658.183 C856.212,-358.634 697.665,-463.282 625.763,-582.354 C668.642,-424.429 690.576,5.18885 541.108,70.7569 C576.478,49.3999 586.397,11.2673 591.535,-23.3815 C610.123,84.3529 666.268,-365.199 613.093,-449.729 C580.575,-163.51 350.76,-268.74 326.666,-399.926 C216.473,-174.837 213.201,209.993 226.61,353.796 C179.298,142.632 195.771,-26.6209 195.817,-68.3824 C204.087,-124.445 132.072,-146.955 87.1378,3.98923 Z " fill="#9b133a" fill-opacity="1.00" />				</g>				<g>					<path d="M-239.255,302.497 C-247.665,186.06 -289.437,-55.6363 -494.121,-55.6363 C-763.726,-55.6363 -879.738,305.179 -963.071,673.782 C-963.071,4.06698 -833.987,-393.089 -615.035,-631.902 C-711.439,-237.342 -348.698,-169.851 -348.698,-470.963 C-348.698,-361.618 -292.247,-294.621 -239.255,-291.937 L-239.255,302.497 L-239.255,302.497 Z " fill="#a63131" fill-opacity="1.00" />					<path d="M-105.989,1.94345 C44.2088,-38.7959 -472.944,-371.481 -100.822,-659.228 C-349.116,-453.409 -350.733,-634.252 -420.248,-606.233 C-308.685,-608.334 -172.752,-54.7203 -353.366,-469.977 C-353.366,-469.977 -349.24,-405.755 -399.174,-341.097 C-519.458,-241.226 -625.562,-278.95 -610.102,-605.72 C-619.949,-592.44 -620.344,-634.331 -607.746,-644.934 C-823.188,-501.554 -975.163,90.7565 -972.644,648.289 C-984.75,674.105 -997.166,727.89 -987.338,725.491 C-999.699,714.996 -944.74,603.502 -974.299,706.523 C-958.547,669.492 -960.494,650.111 -956.325,656.138 C-875.063,-360.68 -716.516,-465.328 -644.615,-584.4 C-687.493,-426.475 -709.427,3.14307 -559.959,68.7111 C-595.33,47.3541 -605.248,9.22154 -610.387,-25.4272 C-628.975,82.3071 -685.12,-367.245 -631.945,-451.774 C-599.426,-165.556 -369.611,-270.786 -345.517,-401.971 C-235.324,-176.883 -232.053,207.947 -245.461,351.75 C-198.149,140.586 -214.622,-28.6667 -214.669,-70.4282 C-222.938,-126.49 -150.923,-149.001 -105.989,1.94345 Z " fill="#9b133a" fill-opacity="1.00" />				</g>			</g>		</g>	</svg>