<?xml version="1.0" encoding="utf-8" ?>	<!-- Generator: Assembly 1.8 - http://assemblyapp.co -->	<svg version="1.1" xmlns="http://www.w3.org/2000/svg" xmlns:xlink="http://www.w3.org/1999/xlink" width="2048.00" height="2048.00" viewBox="0 0 2048.0 2048.0">		<rect x="0" y="0" width="2048.00" height="2048.00" fill="#ffffff" />		<g id="document" transform="matrix(1,0,0,1,1024.0,1024.0)">			<g>				<path d="M504.706,249.765 C512.433,243.63 517.353,236.839 524.024,247.211 C520.551,241.811 520.346,198.263 532.795,201.213 C546.495,204.866 550.25,219.821 550.25,219.821 C553.488,180.809 555.644,200.481 555.644,200.481 C555.644,200.481 561.316,186.693 551.693,178.528 C551.693,178.528 544.581,171.733 522.85,172.654 C506.756,173.292 508.229,164.753 514.141,159.244 C517.421,161.29 520.685,163.988 523.793,167.518 C522.584,163.473 521.374,159.428 519.638,155.687 C520.456,155.355 521.286,155.101 522.108,154.942 C532.44,153.08 542.504,159.342 545.29,161.706 C545.29,161.706 546.14,143.446 518.624,136.421 C518.624,136.421 530.334,130.794 543.278,138.36 C541.737,136.293 540.196,134.226 538.17,132.507 C527.229,123.224 510.465,113.469 488.251,110.152 C499.484,78.2919 474.39,58.646 452.68,48.876 C450.231,47.774 447.386,47.02 444.541,46.2661 C455.767,53.6866 449.789,61.786 449.789,61.786 C437.645,45.0048 414.119,47.5763 414.119,47.5763 C417.486,49.0915 426.705,54.8191 425.444,61.6204 C424.03,68.3527 403.781,77.3989 402.45,63.1151 C401.226,49.1431 391.647,45.3587 391.647,45.3587 C380.016,40.1242 362.81,45.2767 362.81,45.2767 C362.81,45.2767 388.496,44.467 338.393,50.8681 C338.393,50.8681 358.155,51.6031 364.402,59.9411 C369.602,67.5588 313.246,72.2668 305.877,70.6504 C319.457,73.6289 312.431,77.3337 305.589,82.5852 L305.589,82.5852 C292.272,80.5429 276.748,81.2564 263.584,82.812 C260.654,83.1583 257.573,83.7974 254.492,84.4365 C269.384,83.9147 268.867,89.615 268.867,89.615 C247.373,86.2406 227.315,95.4878 227.315,95.4878 C231.345,95.0117 243.348,94.4186 246.372,97.9124 C249.213,101.428 236.152,112.462 226.141,106.493 C216.42,100.627 205.281,102.218 205.281,102.218 C191.362,103.863 178.705,112.098 178.705,112.098 C178.705,112.098 201.834,102.9 159.686,123.011 C159.686,123.011 178.315,116.545 189.191,118.148 C198.66,119.788 149.719,141.286 141.946,143.093 C164.981,137.738 140.154,151.554 149.093,156.343 C149.875,158.434 150.575,160.502 151.202,162.544 L151.202,162.544 C140.991,162.079 130.302,162.762 120.834,163.881 C117.903,164.227 114.823,164.867 111.742,165.506 C126.633,164.984 126.116,170.684 126.116,170.684 C104.623,167.31 84.5649,176.557 84.5649,176.557 C88.5942,176.081 100.597,175.488 103.621,178.982 C106.462,182.497 93.4016,193.531 83.3901,187.562 C73.6697,181.696 62.5306,183.287 62.5306,183.287 C48.6114,184.932 35.9549,193.167 35.9549,193.167 C35.9549,193.167 59.0836,183.969 16.935,204.08 C16.935,204.08 35.5648,197.614 46.4407,199.218 C55.9099,200.857 6.96883,222.355 -0.804576,224.163 C22.2303,218.807 27.2089,247.168 -47.9265,299.147 C18.0554,261.052 -21.6303,370.622 -21.9147,383.133 C2.70719,386.193 23.4617,348.986 83.2522,381.082 C-56.1313,141.414 464.684,196.06 181.825,454.438 C187.415,450.31 192.724,446.527 197.768,443.069 C186.947,468.128 184.897,492.678 194.449,500.297 C195.829,501.398 197.525,502.267 199.221,503.135 C193.315,496.246 198.596,490.533 198.596,490.533 C203.433,504.8 219.019,505.129 219.019,505.129 C217.122,503.615 212.208,498.243 214.224,493.074 C216.327,487.972 230.953,482.936 229.278,494.187 C227.589,505.186 233.08,509.081 233.08,509.081 C234.294,510.05 235.695,510.76 237.172,511.274 L237.172,511.274 C237.556,512.96 237.913,514.696 238.241,516.482 C233.409,528.59 260.915,517.166 239.272,533.877 C246.576,528.237 297.817,501.02 290.915,511.035 C282.842,522.308 264.229,534.075 264.229,534.075 C309.188,511.942 285.472,525.592 285.472,525.592 C285.472,525.592 300.113,520.744 312.365,509.344 C312.365,509.344 321.724,500.972 326.769,487.962 C327.049,488.108 327.332,488.25 327.619,488.388 C327.437,487.966 327.258,487.547 327.084,487.13 C327.131,487.001 327.178,486.871 327.225,486.74 C332.322,472.684 348.748,469.757 348.248,475.238 C347.587,480.868 337.45,491.375 333.904,494.675 C333.904,494.675 355.131,483.878 370.978,461.431 C370.978,461.431 374.362,465.625 361.897,478.835 C364.752,476.537 367.606,474.239 370.186,471.839 C382.402,460.472 396.28,445.936 406.273,431.296 C407.535,436.08 407.889,439.981 407.889,439.981 C407.889,439.981 421.853,420.849 424.813,402.172 C425.024,402.808 425.215,403.496 425.385,404.239 C424.321,399.581 426.779,384.448 431.305,367.283 L431.305,367.283 C437.788,362.655 442.562,359.435 445.582,369.642 C443.725,363.366 453.75,316.389 464.25,321.201 C475.711,326.935 475.581,343.55 475.581,343.55 C479.064,331.522 481.318,324.762 482.762,321.231 C489.262,335.519 488.278,351.708 488.278,351.708 C517.014,265.664 509.28,310.299 509.28,310.299 C509.28,310.299 527.512,281.377 515.157,259.978 C515.157,259.978 512.744,255.113 504.706,249.765 L504.706,249.765 Z " fill="#dce8eb" fill-opacity="1.00" />				<path d="M-566.82,249.765 C-574.547,243.63 -579.467,236.839 -586.138,247.211 C-582.665,241.811 -582.46,198.263 -594.909,201.213 C-608.609,204.866 -612.364,219.821 -612.364,219.821 C-615.602,180.809 -617.758,200.481 -617.758,200.481 C-617.758,200.481 -623.43,186.693 -613.807,178.528 C-613.807,178.528 -606.695,171.733 -584.964,172.654 C-568.87,173.292 -570.343,164.753 -576.255,159.244 C-579.536,161.29 -582.799,163.988 -585.907,167.518 C-584.698,163.473 -583.488,159.428 -581.752,155.687 C-582.57,155.355 -583.4,155.101 -584.222,154.942 C-594.554,153.08 -604.618,159.342 -607.404,161.706 C-607.404,161.706 -608.254,143.446 -580.738,136.421 C-580.738,136.421 -592.448,130.794 -605.392,138.36 C-603.851,136.293 -602.31,134.226 -600.284,132.507 C-589.343,123.224 -572.579,113.469 -550.365,110.152 C-561.599,78.2919 -536.504,58.646 -514.794,48.876 C-512.345,47.774 -509.5,47.02 -506.655,46.2661 C-517.882,53.6866 -511.903,61.786 -511.903,61.786 C-499.759,45.0048 -476.233,47.5763 -476.233,47.5763 C-479.6,49.0915 -488.819,54.8191 -487.558,61.6204 C-486.144,68.3527 -465.895,77.3989 -464.564,63.1151 C-463.341,49.1431 -453.762,45.3587 -453.762,45.3587 C-442.13,40.1242 -424.924,45.2767 -424.924,45.2767 C-424.924,45.2767 -450.61,44.467 -400.507,50.8681 C-400.507,50.8681 -420.269,51.6031 -426.517,59.9411 C-431.716,67.5588 -375.361,72.2668 -367.991,70.6504 C-381.571,73.6289 -374.546,77.3337 -367.704,82.5852 L-367.704,82.5852 C-354.386,80.5429 -338.863,81.2564 -325.698,82.812 C-322.768,83.1583 -319.687,83.7974 -316.607,84.4365 C-331.498,83.9147 -330.981,89.615 -330.981,89.615 C-309.487,86.2406 -289.43,95.4878 -289.43,95.4878 C-293.459,95.0117 -305.462,94.4186 -308.486,97.9124 C-311.327,101.428 -298.266,112.462 -288.255,106.493 C-278.535,100.627 -267.395,102.218 -267.395,102.218 C-253.476,103.863 -240.82,112.098 -240.82,112.098 C-240.82,112.098 -263.948,102.9 -221.8,123.011 C-221.8,123.011 -240.43,116.545 -251.305,118.148 C-260.775,119.788 -211.834,141.286 -204.06,143.093 C-227.095,137.738 -202.268,151.554 -211.207,156.343 C-211.989,158.434 -212.689,160.502 -213.317,162.544 L-213.317,162.544 C-203.106,162.079 -192.417,162.762 -182.948,163.881 C-180.017,164.227 -176.937,164.867 -173.856,165.506 C-188.747,164.984 -188.23,170.684 -188.23,170.684 C-166.737,167.31 -146.679,176.557 -146.679,176.557 C-150.708,176.081 -162.712,175.488 -165.736,178.982 C-168.576,182.497 -155.516,193.531 -145.504,187.562 C-135.784,181.696 -124.645,183.287 -124.645,183.287 C-110.726,184.932 -98.0692,193.167 -98.0692,193.167 C-98.0692,193.167 -121.198,183.969 -79.0493,204.08 C-79.0493,204.08 -97.679,197.614 -108.555,199.218 C-118.024,200.857 -69.0831,222.355 -61.3097,224.163 C-84.3446,218.807 -89.3231,247.168 -14.1877,299.147 C-80.1697,261.052 -40.4839,370.622 -40.1995,383.133 C-64.8214,386.193 -85.5759,348.986 -145.366,381.082 C-5.98297,141.414 -526.798,196.06 -243.939,454.438 C-249.53,450.31 -254.839,446.527 -259.882,443.069 C-249.061,468.128 -247.011,492.678 -256.563,500.297 C-257.943,501.398 -259.639,502.267 -261.335,503.135 C-255.43,496.246 -260.71,490.533 -260.71,490.533 C-265.547,504.8 -281.134,505.129 -281.134,505.129 C-279.237,503.615 -274.322,498.243 -276.338,493.074 C-278.441,487.972 -293.067,482.936 -291.392,494.187 C-289.703,505.186 -295.194,509.081 -295.194,509.081 C-296.408,510.05 -297.81,510.76 -299.286,511.274 L-299.286,511.274 C-299.67,512.96 -300.028,514.696 -300.356,516.482 C-295.524,528.59 -323.029,517.166 -301.386,533.877 C-308.69,528.237 -359.932,501.02 -353.03,511.035 C-344.957,522.308 -326.344,534.075 -326.344,534.075 C-371.303,511.942 -347.586,525.592 -347.586,525.592 C-347.586,525.592 -362.228,520.744 -374.479,509.344 C-374.479,509.344 -383.839,500.972 -388.884,487.962 C-389.163,488.108 -389.447,488.25 -389.734,488.388 C-389.551,487.966 -389.372,487.547 -389.198,487.13 C-389.246,487.001 -389.293,486.871 -389.34,486.74 C-394.437,472.684 -410.862,469.757 -410.362,475.238 C-409.701,480.868 -399.564,491.375 -396.018,494.675 C-396.018,494.675 -417.245,483.878 -433.092,461.431 C-433.092,461.431 -436.476,465.625 -424.012,478.835 C-426.866,476.537 -429.721,474.239 -432.3,471.839 C-444.517,460.472 -458.394,445.936 -468.387,431.296 C-469.649,436.08 -470.003,439.981 -470.003,439.981 C-470.003,439.981 -483.967,420.849 -486.928,402.172 C-487.139,402.808 -487.329,403.496 -487.499,404.239 C-486.435,399.581 -488.893,384.448 -493.42,367.283 L-493.42,367.283 C-499.902,362.655 -504.677,359.435 -507.696,369.642 C-505.839,363.366 -515.864,316.389 -526.365,321.201 C-537.825,326.935 -537.696,343.55 -537.696,343.55 C-541.179,331.522 -543.432,324.762 -544.876,321.231 C-551.376,335.519 -550.392,351.708 -550.392,351.708 C-579.128,265.664 -571.394,310.299 -571.394,310.299 C-571.394,310.299 -589.626,281.377 -577.271,259.978 C-577.271,259.978 -574.858,255.113 -566.82,249.765 L-566.82,249.765 Z " fill="#dce8eb" fill-opacity="1.00" />			</g>		</g>	</svg>