<?xml version="1.0" encoding="utf-8" ?>	<!-- Generator: Assembly 1.8 - http://assemblyapp.co -->	<svg version="1.1" xmlns="http://www.w3.org/2000/svg" xmlns:xlink="http://www.w3.org/1999/xlink" width="2048.00" height="2048.00" viewBox="0 0 2048.0 2048.0">		<rect x="0" y="0" width="2048.00" height="2048.00" fill="#ffffff" />		<g id="document" transform="matrix(1,0,0,1,1024.0,1024.0)">			<g>				<path d="M-31.0542,343.279 C-5.14327,392.691 17.7038,436.925 21.1029,449.58 C40.5818,460.38 256.742,434.609 346.02,366.723 C554.638,323.162 682.616,112.534 682.616,112.534 C541.518,56.2419 141.938,123.96 -31.0862,157.64 C-204.141,123.956 -603.648,56.2595 -744.73,112.545 C-744.73,112.545 -616.752,323.173 -408.134,366.734 C-318.856,434.62 -102.696,460.391 -83.2172,449.591 C-79.8178,436.935 -56.9675,392.695 -31.0542,343.279 L-31.0542,343.279 Z " fill="#3a8686" fill-opacity="1.00" />				<path d="M-72.9756,268.165 C-63.973,294.611 -54.0193,323.533 -43.0619,350.531 C-50.2967,376.153 -62.544,408.133 -81.5612,448.539 C-62.9428,437.25 -46.1609,410.623 -31.0938,378.18 C-16,410.631 0.803126,437.268 19.4292,448.571 C0.380372,408.155 -11.8936,376.169 -19.151,350.543 C-8.21644,323.552 1.71272,294.636 10.6927,268.198 C34.5649,306.408 62.5395,388.889 62.3668,450.311 C67.0427,390.514 36.4878,313.024 49.2959,246.193 C51.453,251.321 103.576,359.366 114.518,444.047 C100.991,319.163 56.1203,281.521 97.9526,248.162 C107.759,269.75 138.655,343.531 160.832,438.465 C157.6,412.891 118.287,272.802 126.47,266.65 C137.514,275.778 181.319,399.386 197.436,428.529 C163.931,354.687 152.517,292.62 138.05,268.545 L136.912,268.541 C166.535,296.816 218.534,384.721 235.872,418.192 C228.776,395.628 155.309,274.538 151.509,270.326 C181.798,295.988 180.609,312.113 267.921,406.389 C201.468,330.73 176.781,285.589 160.859,262.639 L160.88,262.734 C163.76,256.516 198.777,278.96 305.146,390.521 C237.963,311.056 202.897,269.285 168.524,242.235 L168.903,242.237 C203.3,249.254 252.594,275.287 343.865,368.72 C215.456,232.336 191.331,260.31 196.766,226.42 C228.954,233.168 259.16,235.836 388.308,355.838 C246.596,216.761 245.002,232.755 225.286,202.479 C243.151,206.075 395.844,315.567 431.461,338.534 C349.418,275.943 302.361,240.825 271.647,222.544 L244.852,204.522 C295.058,218.41 432.361,291.969 471.956,319.049 C450.402,298.037 259.273,202.316 252.48,199.879 C301.854,210.44 359.394,238.509 513.972,291.69 C393.967,246.839 299.756,213.504 268.095,197.358 L256.194,190.959 C342.143,190.473 344.296,204.666 557.033,255.793 C357.956,198.125 291.793,182.113 242.836,173.101 C327.782,166.141 490.528,207.087 583.734,232.687 C419.886,181.983 286.218,166.859 300.629,154.602 C312.917,144.492 582.766,202.247 605.976,208.029 C445.685,168.098 346.718,160.658 351.966,147.345 C358.837,146.362 477.353,144.334 638.092,174.165 C515.826,148.131 412.198,147.566 375.624,137.202 C392.978,133.751 410.566,130.543 428.141,127.642 C452.674,125.756 495.877,127.279 660.513,145.585 C582.105,132.066 519.194,125.69 455.597,123.363 C550.486,109.465 635.037,97.5803 682.104,114.101 C608.631,60.5331 158.831,105.767 -31.2201,148.977 C-221.338,105.607 -671.104,59.9977 -744.525,113.498 C-697.473,97.0176 -612.911,108.975 -518.01,122.955 C-581.605,125.227 -644.511,131.549 -722.907,145.001 C-558.286,126.836 -515.085,125.35 -490.551,127.257 C-472.973,130.173 -455.382,133.397 -438.025,136.863 C-474.59,147.195 -578.218,147.671 -700.461,173.599 C-539.748,143.907 -421.23,146.037 -414.358,147.026 C-409.099,160.344 -508.059,167.698 -668.316,207.491 C-645.111,201.729 -375.312,144.207 -363.015,154.328 C-348.593,166.597 -482.248,181.606 -646.053,232.168 C-552.869,206.648 -390.158,165.843 -305.206,172.876 C-354.155,181.846 -420.304,197.801 -619.332,255.297 C-406.639,204.354 -404.498,190.162 -318.549,190.722 L-330.444,197.112 C-362.092,213.231 -456.273,246.484 -576.24,291.231 C-421.708,238.183 -364.192,210.164 -314.827,199.646 C-321.618,202.077 -512.664,297.634 -534.2,318.627 C-494.629,291.581 -357.389,218.14 -307.195,204.295 L-333.975,222.295 C-364.672,240.549 -411.7,275.627 -493.688,338.147 C-458.091,315.211 -305.492,205.85 -287.631,202.27 C-307.32,232.528 -308.929,216.533 -450.52,355.488 C-321.476,235.597 -291.273,232.956 -259.09,226.235 C-253.626,260.13 -277.775,232.135 -406.066,368.408 C-314.876,275.054 -265.605,249.063 -231.214,242.076 L-230.834,242.075 C-265.184,269.094 -300.214,310.835 -367.328,390.243 C-261.056,278.773 -226.058,256.36 -223.172,262.58 L-223.152,262.485 C-239.054,285.421 -263.702,330.541 -330.09,406.143 C-242.859,311.942 -244.062,295.816 -213.795,270.18 C-217.591,274.389 -290.954,395.416 -298.03,417.973 C-280.721,384.517 -228.799,296.657 -199.2,268.407 L-200.338,268.41 C-214.784,292.473 -226.144,354.53 -259.585,428.344 C-243.494,399.214 -199.795,275.644 -188.76,266.525 C-180.571,272.684 -219.763,412.739 -222.973,438.311 C-200.878,343.396 -170.046,269.642 -160.258,248.063 C-118.397,281.457 -163.235,319.06 -176.654,443.932 C-165.786,359.262 -113.755,251.261 -111.603,246.135 C-98.737,312.977 -129.225,390.441 -124.497,450.242 C-124.723,388.815 -96.8159,306.352 -72.9756,268.165 L-72.9756,268.165 Z M-196.846,220.74 C-197.55,219.102 -198.302,217.352 -199.102,215.482 C-197.682,216.734 -196.446,217.969 -195.4,219.185 C-195.876,219.705 -196.358,220.223 -196.846,220.74 Z M134.518,220.872 C134.029,220.354 133.546,219.835 133.07,219.315 C134.115,218.1 135.35,216.866 136.768,215.615 C135.97,217.484 135.219,219.234 134.518,220.872 Z " fill="#0bfbdb" fill-opacity="1.00" />			</g>		</g>	</svg>