<?xml version="1.0" encoding="utf-8" ?>	<!-- Generator: Assembly 1.8 - http://assemblyapp.co -->	<svg version="1.1" xmlns="http://www.w3.org/2000/svg" xmlns:xlink="http://www.w3.org/1999/xlink" width="2048.00" height="2048.00" viewBox="0 0 2048.0 2048.0">		<rect x="0" y="0" width="2048.00" height="2048.00" fill="none" />		<g id="document" transform="matrix(1,0,0,1,1024.0,1024.0)">			<g>				<g>					<path d="M-982.042,-834.919 C-399.268,-876.788 -95.9993,-552.019 -151.448,-37.1409 C-311.003,-327.962 -338.162,-459.228 -667.457,-616.52 C-416.242,-428.675 -327.977,-210.276 -223.87,59.0451 C-289.503,45.4659 -377.768,-2.06133 -451.322,-29.2197 C-604.088,-86.9313 -791.822,-190.21 -844.537,-380.568 C-898.854,-643.099 -965.068,-811.155 -982.042,-834.919 Z " fill="#ffd91f" fill-opacity="1.00" />					<path d="M-477.826,-262.408 C-347.016,-313.141 -237.826,-318.874 -183.468,-264.516 C-129.402,-210.45 -130.449,-72.4679 -176.357,48.3811 C-309.1,88.0113 -414.75,75.4826 -469.108,21.1242 C-523.466,-33.2342 -528.019,-132.723 -477.826,-262.408 Z " fill="#ffd91f" fill-opacity="1.00" />					<path d="M-1010.64,-638.305 C-499.079,-748.814 -36.1232,-436.049 -174.743,48.3406 C-237.363,-106.496 -374.02,-420.88 -830.423,-364.914 C-579.2,-354.872 -352.674,-166.085 -221.303,60.5097 C-281.219,56.7308 -369.875,24.2301 -438.526,9.40583 C-581.273,-22.541 -741.476,-90.9133 -802.111,-258.396 C-883.337,-484.383 -992.594,-619.368 -1010.64,-638.305 Z " fill="#ffb938" fill-opacity="1.00" />					<path d="M-1005.36,-377.586 C-554.081,-642.648 -176.952,-450.296 -176.192,50.1483 C-251.523,-278.006 -306.065,-460.606 -837.334,-364.555 C-561.034,-313.504 -774.703,-38.8297 -233.459,62.4983 C-445.71,108.741 -578.395,58.065 -688.401,-82.0268 C-836.274,-271.239 -982.29,-365.248 -1005.36,-377.586 Z " fill="#ffe876" fill-opacity="1.00" />				</g>				<g>					<path d="M-803.469,811.036 C-344.636,844 -105.865,588.301 -149.521,182.925 C-275.143,411.896 -296.526,515.245 -555.788,639.085 C-358,491.189 -288.507,319.238 -206.541,107.195 C-258.215,117.887 -327.708,155.306 -385.619,176.688 C-505.896,222.126 -653.703,303.44 -695.207,453.314 C-737.972,660.011 -790.105,792.326 -803.469,811.036 Z " fill="#ffd91f" fill-opacity="1.00" />					<path d="M-406.486,360.283 C-303.496,400.227 -217.529,404.741 -174.731,361.943 C-132.164,319.375 -132.988,210.739 -169.133,115.591 C-273.644,84.3894 -356.825,94.2536 -399.623,137.051 C-442.421,179.849 -446.005,258.179 -406.486,360.283 Z " fill="#ffd91f" fill-opacity="1.00" />					<path d="M-825.985,656.237 C-423.22,743.243 -58.723,496.995 -167.862,115.623 C-217.165,237.53 -324.757,485.052 -684.095,440.989 C-486.301,433.082 -307.951,284.446 -204.52,106.042 C-251.693,109.017 -321.494,134.606 -375.545,146.278 C-487.933,171.43 -614.065,225.261 -661.804,357.125 C-725.756,535.05 -811.777,641.327 -825.985,656.237 Z " fill="#ffb938" fill-opacity="1.00" />					<path d="M-821.824,450.966 C-466.524,659.656 -169.601,508.213 -169.003,114.2 C-228.312,372.564 -271.255,516.33 -689.536,440.706 C-471.999,400.513 -640.226,184.255 -214.09,104.476 C-381.201,68.0682 -485.668,107.967 -572.278,218.265 C-688.702,367.236 -803.664,441.252 -821.824,450.966 Z " fill="#ffe876" fill-opacity="1.00" />				</g>				<g>					<path d="M919.656,-822.702 C336.882,-864.571 33.6128,-539.802 89.0612,-24.9239 C248.617,-315.745 275.775,-447.011 605.071,-604.303 C353.856,-416.458 265.591,-198.059 161.484,71.2621 C227.116,57.6829 315.381,10.1557 388.935,-17.0027 C541.701,-74.7143 729.435,-177.993 782.15,-368.351 C836.467,-630.882 902.682,-798.938 919.656,-822.702 Z " fill="#ffd91f" fill-opacity="1.00" />					<path d="M415.439,-250.191 C284.629,-300.924 175.44,-306.657 121.081,-252.299 C67.0153,-198.233 68.0629,-60.2509 113.971,60.5981 C246.713,100.228 352.363,87.6996 406.722,33.3412 C461.08,-21.0172 465.632,-120.506 415.439,-250.191 Z " fill="#ffd91f" fill-opacity="1.00" />					<path d="M948.253,-626.088 C436.693,-736.597 -26.2633,-423.832 112.357,60.5575 C174.977,-94.2795 311.633,-408.663 768.037,-352.697 C516.814,-342.655 290.288,-153.868 158.917,72.7267 C218.833,68.9478 307.489,36.4471 376.139,21.6228 C518.886,-10.324 679.09,-78.6963 739.724,-246.179 C820.95,-472.166 930.208,-607.151 948.253,-626.088 Z " fill="#ffb938" fill-opacity="1.00" />					<path d="M942.969,-365.369 C491.694,-630.431 114.566,-438.079 113.806,62.3653 C189.136,-265.789 243.679,-448.389 774.948,-352.338 C498.648,-301.287 712.317,-26.6127 171.073,74.7153 C383.324,120.958 516.009,70.282 626.015,-69.8098 C773.888,-259.022 919.903,-353.031 942.969,-365.369 Z " fill="#ffe876" fill-opacity="1.00" />				</g>				<g>					<path d="M741.082,823.253 C282.25,856.217 43.4785,600.518 87.1344,195.142 C212.757,424.113 234.139,527.462 493.402,651.302 C295.614,503.406 226.121,331.455 144.154,119.412 C195.829,130.104 265.322,167.523 323.233,188.905 C443.509,234.343 591.317,315.657 632.821,465.531 C675.586,672.228 727.718,804.543 741.082,823.253 Z " fill="#ffd91f" fill-opacity="1.00" />					<path d="M344.1,372.5 C241.11,412.444 155.142,416.958 112.345,374.16 C69.7771,331.592 70.6019,222.956 106.746,127.808 C211.258,96.6064 294.439,106.471 337.236,149.268 C380.034,192.066 383.618,270.396 344.1,372.5 Z " fill="#ffd91f" fill-opacity="1.00" />					<path d="M763.598,668.454 C360.833,755.46 -3.66344,509.212 105.476,127.84 C154.778,249.747 262.371,497.269 621.709,453.206 C423.915,445.299 245.565,296.663 142.134,118.259 C189.307,121.234 259.108,146.823 313.158,158.495 C425.546,183.647 551.679,237.478 599.418,369.342 C663.369,547.267 749.391,653.544 763.598,668.454 Z " fill="#ffb938" fill-opacity="1.00" />					<path d="M759.438,463.183 C404.138,671.873 107.215,520.429 106.616,126.417 C165.926,384.781 208.869,528.547 627.15,452.923 C409.612,412.73 577.839,196.472 151.704,116.693 C318.815,80.2852 423.281,120.184 509.892,230.482 C626.316,379.453 741.277,453.469 759.438,463.183 Z " fill="#ffe876" fill-opacity="1.00" />				</g>			</g>		</g>	</svg>