<?xml version="1.0" encoding="utf-8" ?>	<!-- Generator: Assembly 1.8 - http://assemblyapp.co -->	<svg version="1.1" xmlns="http://www.w3.org/2000/svg" xmlns:xlink="http://www.w3.org/1999/xlink" width="2048.00" height="2048.00" viewBox="0 0 2048.0 2048.0">		<rect x="0" y="0" width="2048.00" height="2048.00" fill="#00dffe" />		<g id="document" transform="matrix(1,0,0,1,1024.0,1024.0)">			<path d="M1445.53,1024 C1445.53,316.936 -1445.53,316.936 -1445.53,1024 L1445.53,1024 Z " fill="#1a7f0b" fill-opacity="1.00" />			<path d="M883.452,-170.879 L488.545,-639.573 L-504.849,-639.573 L-883.719,-170.879 L-886.331,-170.879 L-886.331,-167.647 L-886.481,-167.462 L-886.331,-167.462 L-886.331,839.195 L886.481,839.195 L886.481,-170.879 L883.452,-170.879 L883.452,-170.879 Z M-507.733,-639.573 L484.245,-639.573 L-10.6016,-808.219 L-507.733,-639.573 Z " fill="#e60000" fill-opacity="1.00" stroke-width="15.44" stroke="#ffffff" stroke-linecap="square" stroke-linejoin="miter" />			<path d="M-568.217,-694.344 L-971.831,-193.707 L-906.207,-140.801 L-502.593,-641.438 L-568.217,-694.344 Z " fill="#ffffff" fill-opacity="1.00" />			<path d="M-6.44821,-883.249 L-567.85,-694.71 L-541.014,-614.802 L20.3878,-803.341 L-6.44821,-883.249 Z " fill="#ffffff" fill-opacity="1.00" />			<path d="M10.8795,-881.803 L546.013,-699.006 L518.765,-619.237 L-16.3686,-802.034 L10.8795,-881.803 Z " fill="#ffffff" fill-opacity="1.00" />			<path d="M545.651,-699.763 L970.546,-196.825 L906.155,-142.426 L481.26,-645.364 L545.651,-699.763 Z " fill="#ffffff" fill-opacity="1.00" />			<path d="M0.532043,-892.39 L-111.672,-844.798 L0.532043,-797.54 L111.822,-844.798 L0.532043,-892.39 Z " fill="#ffffff" fill-opacity="1.00" />			<g>				<path d="M-378.67,831.835 L-7.28427,831.835 L-7.28427,501.061 L-378.67,501.061 L-378.67,831.835 Z " fill="#e60000" fill-opacity="1.00" stroke-width="14.72" stroke="#ffffff" stroke-linecap="square" stroke-linejoin="miter" />				<path d="M-208.494,669.024 L-373.931,827.064 L-349.65,827.064 L-192.713,675.617 L-37.0805,827.064 L-11.7055,827.064 L-175.93,668.925 L-11.7055,506.457 L-35.9868,506.457 L-191.711,662.332 L-349.65,506.457 L-375.025,506.457 L-208.494,669.024 L-208.494,669.024 Z " fill="#ffffff" fill-opacity="1.00" />			</g>			<g>				<path d="M7.35928,831.835 L378.745,831.835 L378.745,501.061 L7.35928,501.061 L7.35928,831.835 Z " fill="#e60000" fill-opacity="1.00" stroke-width="14.72" stroke="#ffffff" stroke-linecap="square" stroke-linejoin="miter" />				<path d="M177.535,669.024 L12.0986,827.064 L36.3798,827.064 L193.316,675.617 L348.949,827.064 L374.324,827.064 L210.1,668.925 L374.324,506.457 L350.043,506.457 L194.319,662.332 L36.3798,506.457 L11.0048,506.457 L177.535,669.024 L177.535,669.024 Z " fill="#ffffff" fill-opacity="1.00" />			</g>			<g>				<path d="M-378.745,486.343 L-7.35928,486.343 L-7.35928,155.568 L-378.745,155.568 L-378.745,486.343 Z " fill="#e60000" fill-opacity="1.00" stroke-width="14.72" stroke="#ffffff" stroke-linecap="square" stroke-linejoin="miter" />				<path d="M-208.569,323.531 L-374.006,481.571 L-349.725,481.571 L-192.788,330.124 L-37.1555,481.571 L-11.7805,481.571 L-176.005,323.432 L-11.7805,160.964 L-36.0618,160.964 L-191.786,316.839 L-349.725,160.964 L-375.1,160.964 L-208.569,323.531 L-208.569,323.531 Z " fill="#ffffff" fill-opacity="1.00" />			</g>			<g>				<path d="M7.35928,486.343 L378.745,486.343 L378.745,155.568 L7.35928,155.568 L7.35928,486.343 Z " fill="#e60000" fill-opacity="1.00" stroke-width="14.72" stroke="#ffffff" stroke-linecap="square" stroke-linejoin="miter" />				<path d="M177.535,323.531 L12.0986,481.571 L36.3798,481.571 L193.316,330.124 L348.949,481.571 L374.324,481.571 L210.1,323.432 L374.324,160.964 L350.043,160.964 L194.319,316.839 L36.3798,160.964 L11.0048,160.964 L177.535,323.531 L177.535,323.531 Z " fill="#ffffff" fill-opacity="1.00" />			</g>			<g>				<path d="M-281.191,-240.29 C-281.191,-281.777 -274.276,-319.935 -260.447,-354.764 C-246.618,-389.592 -227.411,-419.683 -202.826,-445.037 C-178.241,-470.39 -148.662,-490.237 -114.09,-504.578 C-79.5171,-518.92 -41.4872,-526.09 0,-526.09 C41.4872,-526.09 79.5171,-518.92 114.09,-504.578 C148.662,-490.237 178.241,-470.39 202.826,-445.037 C227.411,-419.683 246.618,-389.592 260.447,-354.764 C274.276,-319.935 281.191,-281.777 281.191,-240.29 C281.191,-198.802 274.276,-160.516 260.447,-125.432 C246.618,-90.3468 227.411,-60.1278 202.826,-34.7745 C178.241,-9.4212 148.662,10.298 114.09,24.3832 C79.5171,38.4683 41.4872,45.5109 0,45.5109 C-41.4872,45.5109 -79.5171,38.4683 -114.09,24.3832 C-148.662,10.298 -178.241,-9.4212 -202.826,-34.7745 C-227.411,-60.1278 -246.618,-90.3468 -260.447,-125.432 C-274.276,-160.516 -281.191,-198.802 -281.191,-240.29 Z M-230.484,-240.29 C-230.484,-206.485 -225.106,-174.986 -214.35,-145.791 C-203.595,-116.596 -188.229,-91.2431 -168.254,-69.7313 C-148.278,-48.2194 -124.077,-31.3172 -95.651,-19.0247 C-67.2246,-6.73221 -35.3409,-0.585965 0,-0.585965 C35.3409,-0.585965 67.2246,-6.73221 95.651,-19.0247 C124.077,-31.3172 148.278,-48.2194 168.254,-69.7313 C188.229,-91.2431 203.595,-116.596 214.35,-145.791 C225.106,-174.986 230.484,-206.485 230.484,-240.29 C230.484,-274.094 225.106,-305.594 214.35,-334.788 C203.595,-363.983 188.229,-389.336 168.254,-410.848 C148.278,-432.36 124.077,-449.262 95.651,-461.555 C67.2246,-473.847 35.3409,-479.993 0,-479.993 C-35.3409,-479.993 -67.2246,-473.847 -95.651,-461.555 C-124.077,-449.262 -148.278,-432.36 -168.254,-410.848 C-188.229,-389.336 -203.595,-363.983 -214.35,-334.788 C-225.106,-305.594 -230.484,-274.094 -230.484,-240.29 Z " fill="#ffffff" fill-opacity="1.00" />				<path d="M-4.54747e-13,-453.122 L24.5966,-477.719 C92.4833,-409.832 92.4833,-299.639 24.5966,-231.753 L-4.54747e-13,-256.349 C54.3585,-310.708 54.3585,-398.764 -4.54747e-13,-453.122 Z " fill="#ffffff" fill-opacity="1.00" />				<path d="M0.102094,-449.124 C-27.7693,-449.124 -50.3319,-471.686 -50.3319,-499.558 C-50.3319,-527.429 -27.7693,-549.992 0.102094,-549.992 C27.9735,-549.992 50.5361,-527.429 50.5361,-499.558 C50.5361,-471.686 27.9735,-449.124 0.102094,-449.124 Z " fill="#ffffff" fill-opacity="1.00" />				<path d="M-1.28178,-254.405 C3.90054,-262.543 14.6839,-264.936 22.8222,-259.754 C30.9604,-254.572 33.3534,-243.788 28.1711,-235.65 C22.9887,-227.512 12.2054,-225.119 4.06711,-230.301 C-4.07117,-235.484 -6.46409,-246.267 -1.28178,-254.405 Z " fill="#ffffff" fill-opacity="1.00" />				<path d="M-43.676,46.8027 C-29.6455,71.1043 0.916543,79.2934 25.2181,65.2629 C49.5197,51.2324 57.7088,20.6703 43.6783,-3.63129 C32.871,-22.3501 11.7581,-31.616 -8.59271,-28.1859 L-121.026,-222.927 C-125.767,-231.137 -136.645,-234.052 -144.855,-229.312 C-153.065,-224.572 -155.979,-213.694 -151.239,-205.484 L-38.8055,-10.7426 C-52.141,4.83832 -54.4833,28.084 -43.676,46.8027 Z " fill="#ffffff" fill-opacity="1.00" />			</g>		</g>	</svg>