<?xml version="1.0" encoding="utf-8" ?>	<!-- Generator: Assembly 1.8 - http://assemblyapp.co -->	<svg version="1.1" xmlns="http://www.w3.org/2000/svg" xmlns:xlink="http://www.w3.org/1999/xlink" width="2048.00" height="2048.00" viewBox="0 0 2048.0 2048.0">		<rect x="0" y="0" width="2048.00" height="2048.00" fill="none" />		<g id="document" transform="matrix(1,0,0,1,1024.0,1024.0)">			<path d="M-61.6384,47.0281 L-62.8736,47.3064 L-555.884,420.211 L-555.602,420.582 L-555.446,420.464 L-568.065,403.742 C-561.868,398.569 -559.897,390.157 -564.176,384.487 C-568.454,378.817 -577.081,378.409 -584.51,383.524 C-591.939,388.639 -593.294,397.08 -589.156,403.35 L-568.686,430.477 L-568.308,430.19 L-569.048,429.21 L-667.456,503.519 L-680.782,520.504 C-683.159,517.354 -687.472,517.15 -690.641,520.037 C-694.426,522.895 -695.412,527.101 -692.894,529.65 L-675.304,552.96 C-672.927,556.11 -668.613,556.315 -665.445,553.427 C-662.892,550.511 -661.906,546.305 -663.667,543.184 L-643.686,535.019 L-640.802,532.842 L-640.801,532.843 L-638.608,531.185 L-545.278,460.71 L-545.328,460.643 L-545.706,460.929 L-525.927,487.141 C-521.648,492.811 -513.021,493.219 -505.592,488.104 C-499.114,481.729 -497.143,473.318 -501.422,467.648 C-505.7,461.978 -514.327,461.569 -520.999,466.113 L-532.466,450.917 L-429.568,373.101 L-39.3191,78.4013 L-38.9773,77.7218 L368.954,-230.771 C370.245,-229.188 371.547,-227.605 372.86,-226.02 C399.675,-193.669 427.015,-165.905 454.881,-142.728 C482.747,-119.551 509.486,-101.795 535.098,-89.4599 C560.709,-77.1247 584.554,-70.6932 606.63,-70.1654 C620.294,-69.8387 632.711,-72.0164 643.882,-76.6983 C645.088,-75.7508 646.309,-74.8424 647.542,-73.9778 C668.514,-59.2707 685.275,-62.1277 685.325,-80.4181 C685.345,-87.611 682.777,-96.0438 678.378,-104.524 C685.235,-114.376 689.859,-125.926 692.25,-139.173 C696.119,-160.612 694.473,-184.935 687.311,-212.14 C680.149,-239.346 667.824,-268.719 650.337,-300.261 C632.849,-331.802 610.698,-363.748 583.883,-396.1 C557.068,-428.452 529.811,-456.116 502.11,-479.093 C474.41,-502.07 447.754,-519.726 422.142,-532.061 C396.53,-544.396 372.603,-550.928 350.361,-551.655 C336.363,-552.113 323.687,-549.942 312.332,-545.142 C298.83,-555.044 285.499,-558.448 278.237,-552.595 C270.98,-546.747 271.704,-533.199 278.846,-518.192 C271.781,-508.155 267.079,-496.307 264.741,-482.647 C261.038,-461.009 262.767,-436.586 269.929,-409.381 C277.091,-382.175 289.333,-352.902 306.655,-321.56 C317.708,-301.562 330.693,-281.358 345.61,-260.949 L345.61,-260.949 L-61.6384,47.0281 Z M365.259,-275.807 C354.681,-290.567 345.216,-305.273 336.863,-319.924 C322.029,-345.943 311.408,-370.36 304.999,-393.176 C298.591,-415.992 296.747,-436.492 299.468,-454.674 C300.99,-464.841 304.159,-473.836 308.976,-481.659 C322.601,-471.551 336.106,-468.034 343.432,-473.939 C343.89,-474.308 344.315,-474.707 344.71,-475.135 C392.434,-451.158 440.427,-396.583 461.098,-344.698 L459.373,-346.98 L365.259,-275.807 L365.259,-275.807 Z M388.461,-245.523 L475.658,-311.464 C479.02,-307.982 482.9,-305.353 486.354,-304.501 C492.555,-302.971 495.095,-307.732 492.237,-315.222 C473.779,-383.339 411.077,-461.202 347.076,-497.001 C346.082,-500.731 344.59,-504.686 342.631,-508.744 C351.34,-511.818 360.88,-513.08 371.251,-512.529 C389.862,-511.54 409.868,-505.679 431.267,-494.945 C452.666,-484.212 474.819,-469.088 497.724,-449.575 C520.63,-430.062 543.007,-407.125 564.856,-380.765 C586.706,-354.404 605.047,-328.215 619.881,-302.196 C634.714,-276.177 645.336,-251.76 651.744,-228.944 C658.153,-206.128 659.996,-185.629 657.275,-167.446 C655.719,-157.047 652.438,-147.873 647.434,-139.926 C631.403,-151.062 617.625,-151.841 612.238,-143.064 L444.181,-260.919 C437.096,-265.888 431.13,-264.871 431.113,-258.691 C431.096,-252.512 437.034,-243.148 444.119,-238.18 L612.176,-120.324 C612.865,-118.123 613.722,-115.872 614.73,-113.598 C605.855,-110.363 596.109,-109.027 585.493,-109.591 C566.881,-110.58 546.876,-116.441 525.476,-127.175 C504.077,-137.909 481.925,-153.032 459.019,-172.545 C436.113,-192.058 413.736,-214.995 391.887,-241.355 C390.735,-242.745 389.593,-244.134 388.461,-245.523 L388.461,-245.523 Z " fill="#8a8a8a" fill-opacity="1.00" />		</g>	</svg>