<?xml version="1.0" encoding="utf-8" ?>	<!-- Generator: Assembly 1.8 - http://assemblyapp.co -->	<svg version="1.1" xmlns="http://www.w3.org/2000/svg" xmlns:xlink="http://www.w3.org/1999/xlink" width="2048.00" height="2048.00" viewBox="0 0 2048.0 2048.0">		<rect x="0" y="0" width="2048.00" height="2048.00" fill="none" />		<g id="document" transform="matrix(1,0,0,1,1024.0,1024.0)">			<g>				<path d="M-149.003,393.409 L-76.6326,393.409 L-76.6326,576.895 L-149.003,576.895 L-149.003,393.409 Z " fill="#d6e6ed" fill-opacity="1.00" />				<path d="M-178.784,606.489 C-178.784,563.873 -150.029,530.728 -113.663,530.728 C-77.2977,530.728 -46.8519,563.873 -46.8519,606.489 L-104.361,606.489 L-112.818,583.998 L-121.275,606.489 L-178.784,606.489 Z " fill="#434345" fill-opacity="1.00" />				<path d="M14.5183,393.409 L86.8886,393.409 L86.8886,576.895 L14.5183,576.895 L14.5183,393.409 Z " fill="#f1ecef" fill-opacity="1.00" />				<path d="M-15.2623,606.489 C-15.2623,563.873 13.492,530.728 49.8577,530.728 C86.2235,530.728 116.669,563.873 116.669,606.489 L59.1606,606.489 L50.7035,583.998 L42.2463,606.489 L-15.2623,606.489 Z " fill="#434345" fill-opacity="1.00" />			</g>			<g>				<path d="M-245.562,239.004 C-245.562,104.053 -195.342,-43.9193 -32.59,-48.6545 C143.182,-55.7571 186.892,108.788 186.892,243.739 C186.892,378.69 80.871,488.781 -26.08,488.781 C-132.101,488.781 -245.562,373.955 -245.562,239.004 Z " fill="#f1ecef" fill-opacity="1.00" />				<path d="M-249.006,234.783 C-249.006,99.8321 -200.872,-48.1402 -44.882,-52.8753 C-44.882,159.021 -38.6424,309.361 -38.6424,484.56 C-140.259,484.56 -249.006,369.734 -249.006,234.783 Z " fill="#d6e6ed" fill-opacity="1.00" />			</g>			<g>				<path d="M-276.166,303.442 C-297.474,303.442 -309.312,296.339 -314.047,285.685 C-334.171,284.502 -349.56,278.583 -367.317,262.01 C-370.868,258.458 -372.052,252.54 -368.5,248.988 C-364.949,245.437 -359.03,244.253 -355.479,247.804 C-342.457,258.458 -331.803,264.377 -319.966,265.561 C-321.149,248.988 -312.863,232.415 -301.025,225.313 C-292.739,220.578 -284.452,220.578 -276.166,225.313 C-266.696,231.232 -261.96,243.069 -265.512,253.723 C-269.063,264.377 -277.35,275.031 -291.555,279.767 C-288.004,280.95 -282.085,282.134 -272.614,282.134 C-259.593,282.134 -248.939,271.48 -245.387,258.458 C-244.204,253.723 -238.285,250.172 -233.55,252.54 C-228.815,253.723 -225.263,259.642 -227.631,264.377 C-234.733,286.869 -251.306,301.075 -272.614,302.258 C-273.798,303.442 -274.982,303.442 -276.166,303.442 Z M-289.187,243.069 C-290.371,243.069 -290.371,243.069 -291.555,244.253 C-296.29,247.805 -301.025,257.275 -301.025,267.929 C-291.555,265.561 -285.636,258.459 -283.268,252.54 C-282.085,247.805 -284.452,245.437 -285.636,244.253 C-286.82,243.069 -288.004,243.069 -289.187,243.069 Z " fill="#beccd4" fill-opacity="1.00" />				<path d="M-400.13,273.291 C-407.233,266.189 -409.6,255.535 -404.865,247.248 C-413.152,238.962 -413.152,225.94 -404.865,216.47 C-396.579,208.184 -383.557,207 -375.271,214.103 C-366.984,209.367 -356.33,209.367 -348.044,216.47 C-338.574,224.757 -338.574,238.962 -346.86,248.432 C-351.595,253.167 -356.33,255.535 -362.249,255.535 C-362.249,261.454 -363.433,267.373 -368.168,272.108 C-376.455,281.578 -390.66,281.578 -400.13,273.291 Z " fill="#434345" fill-opacity="1.00" />			</g>			<g>				<path d="M359.204,-444.83 C494.01,-352.713 552.426,-103.322 552.426,-103.322 C552.426,-103.322 300.788,-62.8797 163.735,-152.75 C28.9291,-244.868 15.4485,-465.051 15.4485,-465.051 C15.4485,-465.051 222.151,-534.701 359.204,-444.83 Z " fill="#d6e6ed" fill-opacity="1.00" />				<g>					<path d="M468.963,-93.241 C468.963,-105.623 471.027,-117.012 475.154,-127.407 C479.282,-137.802 485.014,-146.784 492.352,-154.351 C499.69,-161.918 508.518,-167.841 518.837,-172.122 C529.155,-176.402 540.506,-178.542 552.888,-178.542 C565.271,-178.542 576.621,-176.402 586.94,-172.122 C597.259,-167.841 606.087,-161.918 613.425,-154.351 C620.762,-146.784 626.495,-137.802 630.622,-127.407 C634.75,-117.012 636.814,-105.623 636.814,-93.241 C636.814,-80.8586 634.75,-69.4316 630.622,-58.9601 C626.495,-48.4885 620.762,-39.4692 613.425,-31.9022 C606.087,-24.3351 597.259,-18.4497 586.94,-14.2458 C576.621,-10.0418 565.271,-7.93989 552.888,-7.93989 C540.506,-7.93989 529.155,-10.0418 518.837,-14.2458 C508.518,-18.4497 499.69,-24.3351 492.352,-31.9022 C485.014,-39.4692 479.282,-48.4885 475.154,-58.9601 C471.027,-69.4316 468.963,-80.8586 468.963,-93.241 Z M484.097,-93.241 C484.097,-83.1517 485.702,-73.7502 488.912,-65.0366 C492.123,-56.3231 496.709,-48.756 502.671,-42.3355 C508.633,-35.915 515.856,-30.8703 524.34,-27.2014 C532.824,-23.5326 542.34,-21.6981 552.888,-21.6981 C563.436,-21.6981 572.952,-23.5326 581.437,-27.2014 C589.921,-30.8703 597.144,-35.915 603.106,-42.3355 C609.068,-48.756 613.654,-56.3231 616.864,-65.0366 C620.074,-73.7502 621.68,-83.1517 621.68,-93.241 C621.68,-103.33 620.074,-112.732 616.864,-121.445 C613.654,-130.159 609.068,-137.726 603.106,-144.147 C597.144,-150.567 589.921,-155.612 581.437,-159.281 C572.952,-162.95 563.436,-164.784 552.888,-164.784 C542.34,-164.784 532.824,-162.95 524.34,-159.281 C515.856,-155.612 508.633,-150.567 502.671,-144.147 C496.709,-137.726 492.123,-130.159 488.912,-121.445 C485.702,-112.732 484.097,-103.33 484.097,-93.241 Z " fill="#2a00c3" fill-opacity="1.00" />					<path d="M552.888,-156.764 L560.23,-164.105 C580.491,-143.843 580.491,-110.955 560.23,-90.6931 L552.888,-98.0343 C569.112,-114.258 569.112,-140.54 552.888,-156.764 Z " fill="#2a00c3" fill-opacity="1.00" />					<path d="M552.919,-155.57 C544.6,-155.57 537.866,-162.305 537.866,-170.623 C537.866,-178.942 544.6,-185.676 552.919,-185.676 C561.237,-185.676 567.972,-178.942 567.972,-170.623 C567.972,-162.305 561.237,-155.57 552.919,-155.57 Z " fill="#2a00c3" fill-opacity="1.00" />					<path d="M552.506,-97.454 C554.052,-99.883 557.271,-100.597 559.7,-99.0505 C562.129,-97.5037 562.843,-94.2853 561.296,-91.8563 C559.75,-89.4273 556.531,-88.7131 554.102,-90.2599 C551.673,-91.8066 550.959,-95.025 552.506,-97.454 Z " fill="#2a00c3" fill-opacity="1.00" />					<path d="M539.853,-7.55433 C544.04,-0.301193 553.162,2.14295 560.415,-2.04465 C567.668,-6.23225 570.112,-15.3539 565.925,-22.6071 C562.699,-28.1939 556.398,-30.9595 550.324,-29.9357 L516.766,-88.0589 C515.352,-90.5093 512.105,-91.3792 509.654,-89.9645 C507.204,-88.5498 506.334,-85.3031 507.749,-82.8527 L541.306,-24.7295 C537.326,-20.0792 536.627,-13.1412 539.853,-7.55433 Z " fill="#2a00c3" fill-opacity="1.00" />				</g>				<path d="M374.311,-376.594 C482.879,-302.406 529.925,-101.555 529.925,-101.555 C529.925,-101.555 327.265,-68.985 216.888,-141.364 C108.32,-215.551 97.4632,-392.879 97.4632,-392.879 C97.4632,-392.879 263.934,-448.972 374.311,-376.594 Z " fill="#d6e6ed" fill-opacity="1.00" />				<path d="M459.923,-172.457 C395.87,-165.066 289.936,-140.43 198.784,-202.02 C105.169,-263.609 90.3872,-362.152 85.46,-413.887 C134.731,-426.205 211.102,-468.085 304.718,-404.033 C395.87,-342.443 442.678,-234.046 459.923,-172.457 Z " fill="#f37772" fill-opacity="1.00" />				<path d="M-443.591,-444.83 C-578.398,-352.713 -636.814,-103.322 -636.814,-103.322 C-636.814,-103.322 -385.175,-62.8797 -248.123,-152.75 C-113.316,-244.868 -99.8358,-465.051 -99.8358,-465.051 C-99.8358,-465.051 -306.539,-534.701 -443.591,-444.83 Z " fill="#d6e6ed" fill-opacity="1.00" />				<path d="M-526.951,-184.294 C-468.837,-177.588 -372.725,-155.237 -290.024,-211.116 C-205.088,-266.995 -191.677,-356.401 -187.207,-403.339 C-231.91,-414.515 -301.2,-452.513 -386.136,-394.399 C-468.837,-338.52 -511.305,-240.173 -526.951,-184.294 Z " fill="#f37772" fill-opacity="1.00" />			</g>			<g>				<path d="M-97.038,-471.056 C167.409,-472.251 420.186,-750.25 420.186,-750.25 C484.732,-557.205 248.431,-293.173 52.8348,-244.162 C-121.624,-312.175 -115.395,-434.258 -97.038,-471.056 Z " fill="#434345" fill-opacity="1.00" />				<path d="M34.6515,-471.056 C-229.796,-472.251 -482.573,-750.25 -482.573,-750.25 C-547.118,-557.205 -310.817,-293.173 -115.221,-244.162 C59.2377,-312.175 53.0084,-434.258 34.6515,-471.056 Z " fill="#434345" fill-opacity="1.00" />			</g>			<path d="M-126.242,-494.425 C-114.404,-526.387 -96.6475,-559.533 -37.4586,-577.289 C-44.5612,-558.349 -45.745,-538.225 -43.3775,-519.284 C-22.0694,-541.776 0.42236,-555.981 21.7304,-560.716 C14.6277,-546.511 13.4439,-528.754 18.179,-508.63 C-20.8857,-505.079 -126.242,-494.425 -126.242,-494.425 Z " fill="#d6e6ed" fill-opacity="1.00" />			<g>				<path d="M-373.652,3.94608 C-373.652,-51.6915 -322.749,-191.377 -322.749,-224.523 C-322.749,-384.333 -193.717,-513.365 -33.9072,-513.365 C125.903,-513.365 254.935,-384.333 254.935,-224.523 C254.935,-186.642 296.367,-49.3239 296.367,3.94608 C297.551,147.183 147.211,263.194 -38.6424,263.194 C-223.312,263.194 -373.652,147.183 -373.652,3.94608 Z " fill="#f1ecef" fill-opacity="1.00" />				<path d="M-373.652,3.94607 C-373.652,-51.6915 -322.749,-191.377 -322.749,-224.523 C-322.749,-384.333 -193.717,-513.365 -33.9072,-513.365 C-33.9072,-409.193 -38.6424,136.529 -38.6424,262.01 C-223.312,263.194 -373.652,147.183 -373.652,3.94607 Z " fill="#d6e6ed" fill-opacity="1.00" />				<path d="M212.319,148.367 C212.319,234.013 101.55,303.442 -35.091,303.442 C-171.732,303.442 -282.501,234.013 -282.501,148.367 C-282.501,62.7215 -171.732,-6.70793 -35.091,-6.70793 C101.55,-6.70793 212.319,62.7215 212.319,148.367 Z " fill="#d6e6ed" fill-opacity="1.00" />				<path d="M237.178,101.016 C237.178,195.161 115.279,271.48 -35.091,271.48 C-185.461,271.48 -307.36,195.161 -307.36,101.016 C-307.36,6.87119 -185.461,-69.4482 -35.091,-69.4482 C115.279,-69.4482 237.178,6.87119 237.178,101.016 Z " fill="#f79f9e" fill-opacity="1.00" />			</g>			<g>				<path d="M-118.312,-100.76 C-180.314,-100.76 -230.98,-100.76 -230.98,-100.76 C-230.98,-100.76 -276.936,-165.208 -291.646,-185.837 C-285.853,-256.583 -88.7429,-347.122 -88.7429,-347.122 C-88.7429,-347.122 -71.8208,-181.286 -118.312,-100.76 Z " fill="#000000" fill-opacity="1.00" />				<path d="M-149.365,-77.5884 L-253.249,-87.8071 L-314.041,-172.664 C-314.041,-172.664 -343.162,-92.7456 -346.846,-38.8267 C-350.529,15.0921 -328.777,43.0108 -328.777,43.0108 L-328.602,42.893 C-328.602,42.893 -298.059,0.848873 -253.249,-29.2715 C-208.44,-59.3918 -149.365,-77.5884 -149.365,-77.5884 Z " fill="#000000" fill-opacity="1.00" />			</g>			<g>				<path d="M137.882,395.134 C119.947,383.65 98.3559,369.89 98.3559,369.89 L98.3559,313.521 L184.663,276.884 C184.663,276.884 181.058,348.606 137.882,395.134 Z " fill="#000000" fill-opacity="1.00" />				<path d="M125.053,411.228 L131.444,404.401 L87.1229,376.375 L87.1229,317.368 L-6.14181,414.673 L125.053,411.228 Z " fill="#000000" fill-opacity="1.00" />			</g>			<g>				<path d="M-92.8383,361.746 L-112.634,410.776 L-182.404,407.901 L-193.062,395.152 L-189.5,297.047 L-92.8383,361.746 Z " fill="#000000" fill-opacity="1.00" />				<path d="M-85.5416,366.024 L-106.489,418.937 L-175.445,415.088 L-160.201,429.371 L-62.9052,449.854 L-85.5416,366.024 Z " fill="#000000" fill-opacity="1.00" />			</g>			<g>				<path d="M-154.653,79.7079 C-154.653,99.9752 -171.083,116.405 -191.35,116.405 C-211.617,116.405 -228.047,99.9752 -228.047,79.7079 C-228.047,59.4407 -211.617,43.0108 -191.35,43.0108 C-171.083,43.0108 -154.653,59.4407 -154.653,79.7079 Z " fill="#f0515f" fill-opacity="1.00" />				<path d="M155.497,72.6053 C155.497,92.8725 139.067,109.302 118.8,109.302 C98.5329,109.302 82.1031,92.8725 82.1031,72.6053 C82.1031,52.338 98.5329,35.9081 118.8,35.9081 C139.067,35.9081 155.497,52.338 155.497,72.6053 Z " fill="#f0515f" fill-opacity="1.00" />				<path d="M156.196,-198.48 C156.196,-173.251 135.743,-152.798 110.514,-152.798 C85.2842,-152.798 64.8316,-173.251 64.8316,-198.48 C64.8316,-223.71 85.2842,-244.162 110.514,-244.162 C135.743,-244.162 156.196,-223.71 156.196,-198.48 Z " fill="#434345" fill-opacity="1.00" />				<path d="M-139.264,-198.48 C-139.264,-169.06 -163.113,-145.21 -192.534,-145.21 C-221.954,-145.21 -245.804,-169.06 -245.804,-198.48 C-245.804,-227.9 -221.954,-251.75 -192.534,-251.75 C-163.113,-251.75 -139.264,-227.9 -139.264,-198.48 Z " fill="#f1ecef" fill-opacity="1.00" />				<path d="M109.594,-214.093 C112.508,-205.629 108.009,-196.404 99.5442,-193.49 C91.0796,-190.576 81.8555,-195.076 78.9415,-203.54 C76.0275,-212.005 80.5271,-221.229 88.9916,-224.143 C97.4561,-227.057 106.68,-222.558 109.594,-214.093 Z " fill="#ffffff" fill-opacity="1.00" />				<path d="M-145.668,-198.48 C-145.668,-173.251 -166.12,-152.798 -191.35,-152.798 C-216.579,-152.798 -237.032,-173.251 -237.032,-198.48 C-237.032,-223.71 -216.579,-244.162 -191.35,-244.162 C-166.12,-244.162 -145.668,-223.71 -145.668,-198.48 Z " fill="#434345" fill-opacity="1.00" />				<path d="M-192.221,-214.062 C-189.308,-205.596 -193.809,-196.372 -202.275,-193.459 C-210.74,-190.546 -219.964,-195.047 -222.877,-203.512 C-225.79,-211.978 -221.289,-221.202 -212.824,-224.115 C-204.359,-227.028 -195.134,-222.527 -192.221,-214.062 Z " fill="#ffffff" fill-opacity="1.00" />				<path d="M-81.4955,135.117 C-81.4955,274.046 20.7836,274.046 20.7836,135.117 C20.7836,135.117 -7.4095,163.163 -32.9793,163.163 C-58.549,163.163 -81.4955,135.117 -81.4955,135.117 Z " fill="#f0515f" fill-opacity="1.00" />			</g>		</g>	</svg>