<?xml version="1.0" encoding="utf-8" ?>	<!-- Generator: Assembly 1.8 - http://assemblyapp.co -->	<svg version="1.1" xmlns="http://www.w3.org/2000/svg" xmlns:xlink="http://www.w3.org/1999/xlink" width="2048.00" height="2048.00" viewBox="0 0 2048.0 2048.0">		<rect x="0" y="0" width="2048.00" height="2048.00" fill="none" />		<g id="document" transform="matrix(1,0,0,1,1024.0,1024.0)">			<g>				<g>					<path d="M684.682,-222.348 C808.593,-202.955 931.437,-49.2595 931.437,-49.2595 C931.437,-49.2595 770.25,61.859 645.522,44.7664 C521.611,25.3738 439.576,-122.896 439.576,-122.896 C439.576,-122.896 559.955,-239.44 684.682,-222.348 Z " fill="#d6e6ed" fill-opacity="1.00" />					<g>						<path d="M876.874,-14.7157 C872.787,-23.3042 870.458,-31.8848 869.89,-40.4574 C869.321,-49.03 870.333,-57.1517 872.924,-64.8225 C875.516,-72.4933 879.683,-79.5163 885.428,-85.8914 C891.172,-92.2666 898.338,-97.4979 906.927,-101.585 C915.515,-105.673 924.094,-107.935 932.664,-108.373 C941.235,-108.81 949.313,-107.616 956.901,-104.79 C964.488,-101.963 971.429,-97.6263 977.723,-91.7787 C984.018,-85.9311 989.209,-78.7131 993.296,-70.1246 C997.384,-61.5361 999.724,-52.929 1000.32,-44.3033 C1000.91,-35.6777 999.913,-27.5295 997.322,-19.8587 C994.73,-12.1879 990.55,-5.19146 984.781,1.13068 C979.011,7.45282 971.832,12.6577 963.244,16.7452 C954.655,20.8327 946.089,23.1217 937.544,23.6121 C928.999,24.1026 920.933,22.9346 913.345,20.1084 C905.758,17.2821 898.804,12.9186 892.485,7.01799 C886.165,1.11738 880.962,-6.12719 876.874,-14.7157 Z M887.371,-19.7116 C890.702,-12.7135 894.919,-6.72249 900.022,-1.73845 C905.125,3.24559 910.804,6.98022 917.058,9.46545 C923.313,11.9507 929.988,13.0653 937.084,12.8093 C944.18,12.5534 951.386,10.6844 958.702,7.2024 C966.018,3.72042 972.013,-0.693298 976.687,-6.03876 C981.36,-11.3842 984.705,-17.2677 986.721,-23.689 C988.736,-30.1104 989.419,-36.8729 988.77,-43.9764 C988.12,-51.0799 986.13,-58.1306 982.799,-65.1287 C979.469,-72.1267 975.252,-78.1178 970.149,-83.1018 C965.046,-88.0859 959.367,-91.8205 953.112,-94.3057 C946.857,-96.791 940.182,-97.9056 933.086,-97.6496 C925.99,-97.3936 918.784,-95.5247 911.468,-92.0427 C904.152,-88.5607 898.157,-84.147 893.484,-78.8015 C888.81,-73.456 885.465,-67.5726 883.45,-61.1512 C881.434,-54.7299 880.751,-47.9674 881.401,-40.8639 C882.05,-33.7604 884.041,-26.7096 887.371,-19.7116 Z " fill="#2a00c3" fill-opacity="1.00" />						<path d="M914.116,-86.48 L916.784,-93.9953 C937.526,-86.6302 948.383,-63.8184 941.018,-43.0762 L933.503,-45.7448 C939.4,-62.3535 930.725,-80.5826 914.116,-86.48 Z " fill="#2a00c3" fill-opacity="1.00" />						<path d="M914.531,-85.6622 C908.761,-82.9162 901.867,-85.364 899.121,-91.1338 C896.375,-96.9037 898.823,-103.797 904.593,-106.544 C910.363,-109.29 917.256,-106.842 920.002,-101.072 C922.749,-95.3021 920.301,-88.4083 914.531,-85.6622 Z " fill="#2a00c3" fill-opacity="1.00" />						<path d="M933.429,-45.216 C933.7,-47.4113 935.697,-48.9691 937.892,-48.6981 C940.087,-48.4272 941.645,-46.4306 941.374,-44.2352 C941.103,-42.0399 939.107,-40.4821 936.911,-40.7531 C934.716,-41.0241 933.158,-43.0206 933.429,-45.216 Z " fill="#2a00c3" fill-opacity="1.00" />						<path d="M954.329,21.3158 C959.628,24.9643 966.762,23.6484 970.41,18.3495 C974.059,13.0507 972.743,5.91701 967.444,2.26855 C963.363,-0.541743 958.079,-0.379787 954.204,2.33537 L911.741,-26.9016 C909.951,-28.1342 907.412,-27.6658 906.18,-25.8757 C904.947,-24.0855 905.415,-21.5464 907.206,-20.3138 L949.668,8.92314 C948.442,13.4625 950.248,18.5055 954.329,21.3158 Z " fill="#2a00c3" fill-opacity="1.00" />					</g>					<path d="M717.686,-180.005 C817.479,-164.387 916.413,-40.6065 916.413,-40.6065 C916.413,-40.6065 786.599,48.8841 686.148,35.1184 C586.355,19.5003 520.287,-99.911 520.287,-99.911 C520.287,-99.911 617.235,-193.771 717.686,-180.005 Z " fill="#d6e6ed" fill-opacity="1.00" />					<path d="M844.454,-66.676 C802.466,-40.4054 737.123,11.6516 653.568,-0.976997 C568.305,-12.7923 525.522,-76.2627 505.027,-110.52 C535.135,-135.328 574.281,-189.588 660.358,-176.064 C743.913,-163.435 812.162,-103.702 844.454,-66.676 Z " fill="#f37772" fill-opacity="1.00" />					<path d="M127.859,42.6616 C64.7654,151.055 106.574,343.318 106.574,343.318 C106.574,343.318 294.462,288.301 359.855,180.724 C422.949,72.3302 359.615,-84.8402 359.615,-84.8402 C359.615,-84.8402 193.253,-64.9154 127.859,42.6616 Z " fill="#d6e6ed" fill-opacity="1.00" />					<path d="M156.046,250.889 C198.567,236.356 272.61,220.132 311.525,154.074 C351.991,87.2775 331.779,20.8377 319.385,-13.1947 C284.69,-6.18941 224.086,-9.6717 184.358,58.6747 C145.443,124.733 148.452,206.966 156.046,250.889 Z " fill="#f37772" fill-opacity="1.00" />				</g>				<g>					<path d="M359.573,-89.9289 C542.6,-178.054 626.158,-454.319 626.158,-454.319 C734.653,-341.729 657.912,-80.5903 538.425,17.9719 C394.968,28.3885 358.988,-58.3454 359.573,-89.9289 Z " fill="#434345" fill-opacity="1.00" />					<path d="M450.913,-133.401 C267.097,-46.9333 0,-156.311 0,-156.311 C18.9563,-1.10693 270.015,104.022 421.861,73.4485 C520.415,-31.3155 475.793,-113.937 450.913,-133.401 Z " fill="#434345" fill-opacity="1.00" />				</g>				<path d="M331.603,-96.4969 C329.263,-122.574 330.637,-151.425 365.829,-183.28 C367.155,-167.798 372.977,-153.449 380.872,-141.094 C388.226,-163.728 399.138,-181.006 412.354,-191.324 C412.117,-179.126 417.157,-166.419 427.085,-154.024 C401.161,-138.666 331.603,-96.4969 331.603,-96.4969 Z " fill="#d6e6ed" fill-opacity="1.00" />				<g>					<path d="M324.514,330.848 C306.148,292.257 295.343,178.567 284.401,155.577 C231.646,44.7318 278.549,-87.3599 389.394,-140.115 C500.239,-192.869 632.331,-145.966 685.086,-35.1212 C697.59,-8.84684 771.658,72.7208 789.243,109.669 C837.348,208.629 771.367,338.722 642.458,400.074 C514.371,461.035 371.798,430.198 324.514,330.848 Z " fill="#f1ecef" fill-opacity="1.00" />					<path d="M324.514,330.848 C306.148,292.257 295.343,178.567 284.401,155.577 C231.646,44.7318 278.549,-87.3599 389.394,-140.115 C423.782,-67.8599 600.645,312.219 642.068,399.253 C514.371,461.035 371.798,430.198 324.514,330.848 Z " fill="#d6e6ed" fill-opacity="1.00" />					<path d="M778.621,237.585 C806.893,296.99 752.983,381.712 658.208,426.818 C563.433,471.924 463.684,460.334 435.412,400.929 C407.139,341.525 461.05,256.803 555.825,211.696 C650.6,166.59 750.349,178.181 778.621,237.585 Z " fill="#d6e6ed" fill-opacity="1.00" />					<path d="M780.233,196.536 C811.311,261.835 751.954,355.011 647.657,404.649 C543.359,454.288 433.616,441.592 402.538,376.293 C371.46,310.993 430.816,217.818 535.114,168.179 C639.411,118.541 749.155,131.237 780.233,196.536 Z " fill="#f79f9e" fill-opacity="1.00" />				</g>				<g>					<path d="M467.055,173.933 C424.05,194.401 388.908,211.126 388.908,211.126 C388.908,211.126 335.758,181.595 318.745,172.142 C299.409,121.16 406.238,-6.70598 406.238,-6.70598 C406.238,-6.70598 472.719,102.733 467.055,173.933 Z " fill="#000000" fill-opacity="1.00" />					<path d="M453.166,200.256 L377.738,227.461 L307.56,188.672 C307.56,188.672 313.744,253.717 328.988,292.331 C344.231,330.946 368.535,343.13 368.535,343.13 L368.618,342.99 C368.618,342.99 375.924,303.746 397.061,268.062 C418.198,232.379 453.166,200.256 453.166,200.256 Z " fill="#000000" fill-opacity="1.00" />				</g>				<path d="M500.842,311.38 C507.532,325.437 501.56,342.257 487.503,348.947 C473.445,355.637 456.626,349.665 449.935,335.608 C443.245,321.55 449.217,304.731 463.275,298.04 C477.332,291.35 494.152,297.322 500.842,311.38 Z " fill="#f0515f" fill-opacity="1.00" />				<path d="M713.619,204.07 C720.31,218.128 714.337,234.947 700.28,241.638 C686.222,248.328 669.403,242.356 662.712,228.298 C656.022,214.241 661.994,197.421 676.052,190.731 C690.109,184.04 706.929,190.013 713.619,204.07 Z " fill="#f0515f" fill-opacity="1.00" />				<path d="M624.616,15.8133 C632.945,33.3127 625.51,54.2502 608.011,62.5787 C590.512,70.9072 569.574,63.4727 561.245,45.9734 C552.917,28.474 560.351,7.53646 577.851,-0.792022 C595.35,-9.1205 616.288,-1.68605 624.616,15.8133 Z " fill="#434345" fill-opacity="1.00" />				<path d="M419.684,113.347 C429.396,133.753 420.726,158.168 400.32,167.88 C379.914,177.592 355.499,168.923 345.787,148.517 C336.075,128.111 344.745,103.695 365.151,93.9834 C385.557,84.2715 409.972,92.9408 419.684,113.347 Z " fill="#f1ecef" fill-opacity="1.00" />				<path d="M587.139,20.3677 C591.954,25.2768 591.878,33.16 586.969,37.9754 C582.06,42.7908 574.177,42.7148 569.362,37.8057 C564.546,32.8966 564.622,25.0134 569.531,20.198 C574.44,15.3826 582.324,15.4586 587.139,20.3677 Z " fill="#ffffff" fill-opacity="1.00" />				<path d="M415.242,115.461 C423.57,132.96 416.136,153.898 398.637,162.226 C381.137,170.555 360.2,163.12 351.871,145.621 C343.543,128.122 350.977,107.184 368.477,98.8556 C385.976,90.5271 406.914,97.9616 415.242,115.461 Z " fill="#434345" fill-opacity="1.00" />				<path d="M377.808,120.021 C382.623,124.931 382.547,132.815 377.637,137.63 C372.727,142.445 364.843,142.368 360.028,137.458 C355.213,132.548 355.29,124.664 360.2,119.849 C365.11,115.034 372.993,115.111 377.808,120.021 Z " fill="#ffffff" fill-opacity="1.00" />				<path d="M569.875,325.662 C615.737,422.024 686.678,388.261 640.817,291.898 C640.817,291.898 630.52,320.658 612.784,329.099 C595.049,337.54 569.875,325.662 569.875,325.662 Z " fill="#f0515f" fill-opacity="1.00" />			</g>			<g>				<g>					<path d="M-181.423,83.627 C-143.442,203.157 -226.105,381.706 -226.105,381.706 C-226.105,381.706 -397.508,287.103 -437.912,167.87 C-475.894,48.3396 -379.861,-91.2723 -379.861,-91.2723 C-379.861,-91.2723 -221.828,-35.6066 -181.423,83.627 Z " fill="#d6e6ed" fill-opacity="1.00" />					<g>						<path d="M-281.379,348.311 C-275.519,340.818 -268.882,334.904 -261.465,330.567 C-254.049,326.23 -246.33,323.508 -238.309,322.401 C-230.289,321.295 -222.144,321.888 -213.874,324.18 C-205.605,326.473 -197.724,330.549 -190.231,336.408 C-182.739,342.268 -176.883,348.934 -172.665,356.407 C-168.447,363.879 -165.908,371.641 -165.048,379.692 C-164.189,387.743 -164.97,395.89 -167.391,404.134 C-169.813,412.377 -173.953,420.245 -179.812,427.737 C-185.672,435.23 -192.328,441.168 -199.78,445.551 C-207.233,449.934 -214.97,452.679 -222.99,453.786 C-231.011,454.892 -239.138,454.276 -247.371,451.937 C-255.604,449.598 -263.467,445.499 -270.96,439.64 C-278.452,433.781 -284.326,427.138 -288.58,419.711 C-292.835,412.285 -295.392,404.546 -296.251,396.495 C-297.111,388.444 -296.312,380.274 -293.854,371.984 C-291.397,363.695 -287.238,355.804 -281.379,348.311 Z M-272.221,355.472 C-276.995,361.578 -280.473,368.026 -282.654,374.818 C-284.834,381.609 -285.64,388.358 -285.071,395.064 C-284.501,401.771 -282.518,408.241 -279.12,414.476 C-275.722,420.71 -270.832,426.323 -264.449,431.315 C-258.067,436.306 -251.441,439.699 -244.571,441.494 C-237.701,443.288 -230.943,443.654 -224.297,442.59 C-217.651,441.526 -211.296,439.117 -205.23,435.364 C-199.164,431.61 -193.744,426.681 -188.97,420.576 C-184.196,414.471 -180.718,408.022 -178.538,401.231 C-176.357,394.439 -175.551,387.69 -176.121,380.984 C-176.69,374.278 -178.674,367.807 -182.071,361.573 C-185.469,355.338 -190.359,349.725 -196.742,344.734 C-203.124,339.742 -209.751,336.349 -216.621,334.555 C-223.49,332.76 -230.248,332.395 -236.894,333.458 C-243.54,334.522 -249.895,336.931 -255.961,340.685 C-262.027,344.438 -267.447,349.367 -272.221,355.472 Z " fill="#2a00c3" fill-opacity="1.00" />						<path d="M-200.537,349.586 L-192.621,348.618 C-189.948,370.466 -205.511,390.367 -227.359,393.04 L-228.327,385.124 C-210.833,382.984 -198.397,367.081 -200.537,349.586 Z " fill="#2a00c3" fill-opacity="1.00" />						<path d="M-201.083,350.323 C-206.117,346.387 -207.005,339.125 -203.069,334.092 C-199.132,329.058 -191.871,328.17 -186.837,332.106 C-181.804,336.043 -180.916,343.304 -184.852,348.338 C-188.788,353.371 -196.05,354.259 -201.083,350.323 Z " fill="#2a00c3" fill-opacity="1.00" />						<path d="M-228.834,385.294 C-226.748,384.556 -224.463,385.647 -223.725,387.732 C-222.987,389.817 -224.078,392.103 -226.163,392.841 C-228.248,393.579 -230.534,392.488 -231.272,390.402 C-232.01,388.317 -230.919,386.032 -228.834,385.294 Z " fill="#2a00c3" fill-opacity="1.00" />						<path d="M-279.03,433.705 C-279.928,440.075 -275.565,445.87 -269.195,446.769 C-262.824,447.667 -257.029,443.304 -256.131,436.934 C-255.439,432.027 -257.943,427.371 -262.103,425.117 L-254.905,374.067 C-254.602,371.915 -256.155,369.852 -258.307,369.549 C-260.459,369.245 -262.522,370.798 -262.825,372.95 L-270.023,424 C-274.632,424.93 -278.338,428.798 -279.03,433.705 Z " fill="#2a00c3" fill-opacity="1.00" />					</g>					<path d="M-204.571,132.066 C-173.983,228.33 -240.557,372.127 -240.557,372.127 C-240.557,372.127 -378.598,295.937 -411.138,199.911 C-441.727,103.646 -364.386,-8.79174 -364.386,-8.79174 C-364.386,-8.79174 -237.112,36.0393 -204.571,132.066 Z " fill="#d6e6ed" fill-opacity="1.00" />					<path d="M-249.364,296.1 C-291.62,270.262 -367.378,235.042 -393.39,154.642 C-420.893,73.0756 -383.208,6.45282 -361.708,-27.1835 C-326.065,-11.322 -260.036,-0.525779 -233.698,82.5311 C-207.686,162.932 -230.656,250.672 -249.364,296.1 Z " fill="#f37772" fill-opacity="1.00" />					<path d="M-667.195,-296.252 C-792.356,-304.302 -945.714,-181.037 -945.714,-181.037 C-945.714,-181.037 -812.585,-37.4918 -687.128,-27.0198 C-561.967,-18.9704 -449.62,-145.824 -449.62,-145.824 C-449.62,-145.824 -541.738,-285.78 -667.195,-296.252 Z " fill="#d6e6ed" fill-opacity="1.00" />					<path d="M-840.92,-178.047 C-808.929,-146.49 -761.348,-87.4854 -684.864,-82.1641 C-607.027,-75.7851 -556.606,-123.539 -531.69,-149.826 C-553.451,-177.742 -577.398,-233.522 -656.292,-238.548 C-732.776,-243.87 -805.011,-204.456 -840.92,-178.047 Z " fill="#f37772" fill-opacity="1.00" />				</g>				<g>					<path d="M-445.085,-148.134 C-284.503,-23.7219 0,-72.3258 0,-72.3258 C-52.2912,75.0283 -320.216,122.977 -461.763,60.0787 C-535.145,-63.6287 -473.606,-134.554 -445.085,-148.134 Z " fill="#434345" fill-opacity="1.00" />					<path d="M-365.4,-85.8192 C-524.852,-211.677 -546.259,-499.507 -546.259,-499.507 C-676.664,-413.239 -658.616,-141.656 -563.453,-19.4447 C-425.705,21.9543 -371.705,-54.8659 -365.4,-85.8192 Z " fill="#434345" fill-opacity="1.00" />				</g>				<path d="M-451.699,-176.093 C-429.411,-189.832 -402.983,-201.486 -358.765,-184.223 C-372.025,-176.123 -382.264,-164.506 -389.794,-151.925 C-366.258,-155.452 -345.926,-153.404 -330.792,-146.187 C-341.812,-140.952 -350.93,-130.768 -357.588,-116.35 C-382.906,-132.686 -451.699,-176.093 -451.699,-176.093 Z " fill="#d6e6ed" fill-opacity="1.00" />				<g>					<path d="M-837.233,8.39745 C-810.906,-25.2688 -714.006,-85.7059 -698.322,-105.762 C-622.7,-202.464 -483.566,-219.483 -386.865,-143.862 C-290.164,-68.2405 -273.144,70.894 -348.765,167.595 C-366.69,190.517 -406.598,293.214 -431.805,325.447 C-498.868,412.68 -644.734,411.738 -757.194,323.793 C-868.937,236.408 -905.013,95.0703 -837.233,8.39745 Z " fill="#f1ecef" fill-opacity="1.00" />					<path d="M-837.233,8.39745 C-810.906,-25.2689 -714.006,-85.7059 -698.322,-105.762 C-622.7,-202.464 -483.566,-219.483 -386.865,-143.862 C-436.159,-80.8272 -697.257,247.148 -756.634,323.077 C-868.937,236.408 -905.013,95.0703 -837.233,8.39745 Z " fill="#d6e6ed" fill-opacity="1.00" />					<path d="M-551.002,373.065 C-591.529,424.889 -691.409,414.486 -774.09,349.828 C-856.772,285.17 -890.944,190.743 -850.417,138.919 C-809.89,87.0947 -710.01,97.4984 -627.329,162.156 C-544.648,226.814 -510.475,321.241 -551.002,373.065 Z " fill="#d6e6ed" fill-opacity="1.00" />					<path d="M-513.553,356.176 C-558.102,413.143 -667.977,401.642 -758.966,330.488 C-849.955,259.333 -887.602,155.47 -843.053,98.5033 C-798.504,41.5363 -688.629,53.0375 -597.64,124.192 C-506.652,195.346 -469.004,299.209 -513.553,356.176 Z " fill="#f79f9e" fill-opacity="1.00" />				</g>				<g>					<path d="M-633.181,65.8653 C-670.698,36.5262 -701.356,12.5513 -701.356,12.5513 C-701.356,12.5513 -698.668,-48.1921 -697.807,-67.6352 C-660.825,-107.703 -498.711,-69.2165 -498.711,-69.2165 C-498.711,-69.2165 -566.945,39.1388 -633.181,65.8653 Z " fill="#000000" fill-opacity="1.00" />					<path d="M-662.935,65.1926 L-720.961,9.85154 L-717.592,-70.2621 C-717.592,-70.2621 -773.03,-35.6829 -800.773,-4.79981 C-828.516,26.0832 -828.565,53.27 -828.565,53.27 L-828.403,53.2817 C-828.403,53.2817 -790.026,42.2937 -748.659,45.2714 C-707.292,48.2492 -662.935,65.1926 -662.935,65.1926 Z " fill="#000000" fill-opacity="1.00" />				</g>				<path d="M-741.074,157.474 C-750.664,169.738 -768.38,171.905 -780.644,162.315 C-792.908,152.724 -795.075,135.008 -785.485,122.744 C-775.894,110.481 -758.178,108.313 -745.914,117.904 C-733.651,127.494 -731.483,145.21 -741.074,157.474 Z " fill="#f0515f" fill-opacity="1.00" />				<path d="M-550.041,299.938 C-559.632,312.202 -577.348,314.369 -589.612,304.778 C-601.875,295.188 -604.042,277.472 -594.452,265.208 C-584.862,252.944 -567.145,250.777 -554.882,260.368 C-542.618,269.958 -540.451,287.674 -550.041,299.938 Z " fill="#f0515f" fill-opacity="1.00" />				<path d="M-421.342,136.235 C-433.281,151.501 -455.335,154.199 -470.601,142.26 C-485.867,130.322 -488.565,108.268 -476.627,93.0016 C-464.688,77.7352 -442.634,75.0374 -427.368,86.9759 C-412.101,98.9144 -409.404,120.968 -421.342,136.235 Z " fill="#434345" fill-opacity="1.00" />				<path d="M-600.125,-3.57535 C-614.046,14.2268 -639.763,17.3727 -657.565,3.4512 C-675.368,-10.4703 -678.513,-36.1875 -664.592,-53.9896 C-650.67,-71.7918 -624.953,-74.9377 -607.151,-61.0162 C-589.349,-47.0947 -586.203,-21.3775 -600.125,-3.57535 Z " fill="#f1ecef" fill-opacity="1.00" />				<path d="M-442.153,104.736 C-444.395,111.236 -451.482,114.689 -457.983,112.447 C-464.484,110.205 -467.936,103.117 -465.694,96.6163 C-463.452,90.1155 -456.365,86.6632 -449.864,88.9053 C-443.363,91.1474 -439.911,98.2349 -442.153,104.736 Z " fill="#ffffff" fill-opacity="1.00" />				<path d="M-604,-6.60574 C-615.938,8.66066 -637.992,11.3584 -653.259,-0.580074 C-668.525,-12.5186 -671.223,-34.5725 -659.284,-49.8389 C-647.346,-65.1053 -625.292,-67.8031 -610.025,-55.8646 C-594.759,-43.9261 -592.061,-21.8721 -604,-6.60574 Z " fill="#434345" fill-opacity="1.00" />				<path d="M-624.796,-38.0632 C-627.039,-31.5624 -634.128,-28.1107 -640.628,-30.3538 C-647.129,-32.5968 -650.581,-39.6852 -648.338,-46.1861 C-646.095,-52.687 -639.006,-56.1386 -632.506,-53.8956 C-626.005,-51.6525 -622.553,-44.5641 -624.796,-38.0632 Z " fill="#ffffff" fill-opacity="1.00" />				<path d="M-716.213,225.268 C-791.675,300.73 -736.12,356.285 -660.658,280.823 C-660.658,280.823 -691.206,280.743 -705.094,266.854 C-718.983,252.965 -716.213,225.268 -716.213,225.268 Z " fill="#f0515f" fill-opacity="1.00" />			</g>		</g>	</svg>