<?xml version="1.0" encoding="utf-8" ?>	<!-- Generator: Assembly 1.8 - http://assemblyapp.co -->	<svg version="1.1" xmlns="http://www.w3.org/2000/svg" xmlns:xlink="http://www.w3.org/1999/xlink" width="2048.00" height="2048.00" viewBox="0 0 2048.0 2048.0">		<rect x="0" y="0" width="2048.00" height="2048.00" fill="none" />		<g id="document" transform="matrix(1,0,0,1,1024.0,1024.0)">			<path d="M243.113,629.97 L-820.861,240.609 L-15.199,-630.345 L820.861,-463.382 L243.113,629.97 Z " fill="#ffffff" fill-opacity="1.00" stroke-width="2.90" stroke="#000000" stroke-linecap="square" stroke-linejoin="miter" />			<g>				<g>					<path d="M-133.56,91.9641 L-97.7329,112.649 L-150.176,203.483 L-186.003,182.798 L-133.56,91.9641 Z " fill="#d6e6ed" fill-opacity="1.00" />					<path d="M-209.204,188.937 C-197.024,167.84 -173.315,159.65 -155.313,170.044 C-137.31,180.438 -131.711,205.548 -143.892,226.645 L-172.361,210.208 L-170.119,196.657 L-180.734,205.374 L-209.204,188.937 Z " fill="#434345" fill-opacity="1.00" />					<path d="M-52.6089,138.701 L-16.7822,159.386 L-69.2253,250.22 L-105.052,229.535 L-52.6089,138.701 Z " fill="#f1ecef" fill-opacity="1.00" />					<path d="M-128.253,235.674 C-116.073,214.577 -92.3647,206.387 -74.3619,216.781 C-56.3592,227.174 -50.7607,252.285 -62.941,273.382 L-91.4105,256.945 L-89.1686,243.393 L-99.7838,252.111 L-128.253,235.674 Z " fill="#434345" fill-opacity="1.00" />				</g>				<g>					<path d="M-137.229,-12.072 C-98.6583,-78.879 -31.5041,-137.778 50.4189,-93.6056 C139.464,-46.8835 114.073,47.0672 75.5023,113.874 C36.9313,180.681 -47.0199,204.879 -99.9657,174.311 C-152.451,144.008 -175.8,54.735 -137.229,-12.072 Z " fill="#f1ecef" fill-opacity="1.00" />					<path d="M-137.728,-15.1459 C-99.157,-81.9529 -33.0356,-141.449 45.5402,-99.2084 C-15.023,5.69029 -54.9036,81.899 -104.978,168.631 C-155.283,139.587 -176.299,51.661 -137.728,-15.1459 Z " fill="#d6e6ed" fill-opacity="1.00" />				</g>				<g>					<path d="M-170.797,11.081 C-181.346,4.99082 -185.176,-1.90877 -184.475,-8.53636 C-194.099,-14.8742 -200.026,-22.2028 -204.079,-35.4823 C-204.822,-38.2554 -203.717,-41.5239 -200.943,-42.2669 C-198.17,-43.01 -194.902,-41.9043 -194.159,-39.1312 C-190.758,-30.1352 -187.175,-24.16 -181.653,-20.1905 C-177.502,-28.7332 -168.663,-34.5692 -160.773,-34.7019 C-155.318,-34.6776 -151.215,-32.3092 -148.467,-27.5967 C-145.47,-21.9599 -146.509,-14.7462 -151.313,-10.487 C-156.116,-6.22782 -163.263,-3.32199 -171.649,-5.03799 C-170.229,-3.43694 -167.637,-1.1592 -162.949,1.54754 C-156.503,5.2693 -148.183,3.04015 -142.703,-2.39111 C-140.764,-4.39687 -136.819,-4.46324 -135.151,-1.93782 C-133.146,0.0015809 -133.079,3.94674 -135.605,5.61415 C-145.549,14.7186 -157.814,17.0141 -168.701,11.51 C-169.625,11.7577 -170.211,11.4193 -170.797,11.081 Z M-159.988,-22.5281 C-160.574,-22.8664 -160.574,-22.8664 -161.498,-22.6188 C-164.857,-22.214 -169.908,-18.8792 -172.953,-13.605 C-167.589,-12.0703 -162.628,-13.8947 -159.765,-16.1482 C-157.825,-18.1539 -158.321,-20.0027 -158.568,-20.9271 C-158.816,-21.8514 -159.402,-22.1898 -159.988,-22.5281 Z " fill="#beccd4" fill-opacity="1.00" />					<path d="M-223.548,-39.276 C-225.034,-44.8222 -223.161,-50.7731 -218.448,-53.5219 C-220.182,-59.9925 -216.46,-66.4388 -209.652,-68.7586 C-203.181,-70.4924 -196.396,-67.3566 -194.324,-61.4721 C-188.869,-61.4478 -183.594,-58.4027 -181.522,-52.5182 C-179.202,-45.7093 -183.263,-38.6769 -190.071,-36.3571 C-193.769,-35.3664 -196.79,-35.5477 -199.72,-37.2394 C-201.412,-34.3093 -203.689,-31.7175 -207.387,-30.7268 C-214.196,-28.4069 -221.228,-32.467 -223.548,-39.276 Z " fill="#434345" fill-opacity="1.00" />				</g>				<g>					<path d="M357.609,-177.751 C398.015,-93.6183 355.654,46.5383 355.654,46.5383 C355.654,46.5383 219.523,-5.36315 177.361,-89.0252 C136.955,-173.157 193.213,-286.011 193.213,-286.011 C193.213,-286.011 315.447,-261.413 357.609,-177.751 Z " fill="#d6e6ed" fill-opacity="1.00" />					<g>						<path d="M311.455,27.6735 C314.994,21.5437 319.271,16.4955 324.285,12.5291 C329.299,8.56277 334.704,5.75518 340.499,4.10638 C346.295,2.45758 352.358,2.04831 358.69,2.87858 C365.021,3.70885 371.252,5.89353 377.382,9.43262 C383.512,12.9717 388.519,17.2754 392.404,22.3436 C396.289,27.4118 398.966,32.8675 400.436,38.7108 C401.906,44.5541 402.177,50.6386 401.249,56.9644 C400.321,63.2901 398.088,69.518 394.549,75.6478 C391.01,81.7777 386.722,86.8448 381.686,90.849 C376.65,94.8532 371.234,97.6797 365.438,99.3285 C359.643,100.977 353.591,101.368 347.281,100.5 C340.971,99.6315 334.751,97.4279 328.621,93.8888 C322.491,90.3497 317.473,86.0649 313.566,81.0346 C309.66,76.0042 306.972,70.5674 305.502,64.7241 C304.032,58.8808 303.772,52.7774 304.722,46.4138 C305.671,40.0502 307.916,33.8034 311.455,27.6735 Z M318.947,31.9991 C316.063,36.9938 314.171,42.1067 313.269,47.3379 C312.368,52.5691 312.476,57.6259 313.592,62.5083 C314.708,67.3908 316.842,71.9526 319.994,76.1938 C323.145,80.435 327.332,84.063 332.554,87.0778 C337.775,90.0926 343.011,91.9043 348.259,92.513 C353.508,93.1216 358.526,92.6887 363.312,91.2143 C368.099,89.7398 372.532,87.3046 376.612,83.9085 C380.691,80.5124 384.173,76.317 387.057,71.3223 C389.94,66.3276 391.833,61.2146 392.734,55.9835 C393.635,50.7523 393.528,45.6955 392.411,40.813 C391.295,35.9306 389.161,31.3687 386.01,27.1276 C382.858,22.8864 378.672,19.2584 373.45,16.2436 C368.228,13.2288 362.993,11.4171 357.744,10.8084 C352.495,10.1998 347.478,10.6326 342.691,12.1071 C337.905,13.5815 333.472,16.0168 329.392,19.4129 C325.312,22.809 321.831,27.0044 318.947,31.9991 Z " fill="#2a00c3" fill-opacity="1.00" />						<path d="M371.158,20.2139 L376.89,18.6779 C381.129,34.4995 371.729,50.7809 355.908,55.0203 L354.372,49.2878 C367.04,45.8932 374.552,32.8826 371.158,20.2139 Z " fill="#2a00c3" fill-opacity="1.00" />						<path d="M370.832,20.8134 C366.713,18.4358 365.304,13.1774 367.682,9.05929 C370.06,4.94119 375.318,3.5322 379.436,5.90979 C383.554,8.28738 384.963,13.5458 382.586,17.6639 C380.208,21.782 374.95,23.191 370.832,20.8134 Z " fill="#2a00c3" fill-opacity="1.00" />						<path d="M354.016,49.4657 C355.476,48.7053 357.274,49.2717 358.034,50.7316 C358.795,52.1916 358.228,53.989 356.768,54.7493 C355.308,55.5097 353.511,54.9434 352.751,53.4835 C351.99,52.0235 352.557,50.2261 354.016,49.4657 Z " fill="#2a00c3" fill-opacity="1.00" />						<path d="M322.058,90.3538 C322.058,95.1414 325.875,98.9584 330.662,98.9584 C335.45,98.9584 339.267,95.1414 339.267,90.3538 C339.267,86.6661 336.938,83.496 333.638,82.2668 L333.638,43.9019 C333.638,42.2845 332.28,40.9258 330.662,40.9258 C329.045,40.9258 327.686,42.2845 327.686,43.9019 L327.686,82.2668 C324.387,83.4313 322.058,86.6661 322.058,90.3538 Z " fill="#2a00c3" fill-opacity="1.00" />					</g>					<path d="M345.584,-139.652 C378.126,-71.8954 344.01,40.9814 344.01,40.9814 C344.01,40.9814 234.375,-0.818086 200.42,-68.1964 C167.878,-135.953 213.186,-226.842 213.186,-226.842 C213.186,-226.842 311.629,-207.031 345.584,-139.652 Z " fill="#d6e6ed" fill-opacity="1.00" />					<path d="M329.621,-14.1258 C295.799,-28.7744 236.316,-46.856 208.794,-103.398 C180.053,-160.645 200.901,-213.653 213.248,-240.672 C241.161,-232.688 290.938,-231.593 318.975,-173.127 C346.496,-116.584 338.687,-49.5443 329.621,-14.1258 Z " fill="#f37772" fill-opacity="1.00" />					<path d="M-39.8128,-407.202 C-132.877,-400.129 -233.075,-293.365 -233.075,-293.365 C-233.075,-293.365 -120.062,-201.422 -26.5276,-206.741 C66.5364,-213.813 136.142,-318.962 136.142,-318.962 C136.142,-318.962 53.7212,-412.52 -39.8128,-407.202 Z " fill="#d6e6ed" fill-opacity="1.00" />					<path d="M-155.545,-302.049 C-128.692,-282.12 -87.501,-243.585 -30.589,-247.61 C27.4294,-250.997 59.6222,-291.424 75.2509,-313.383 C56.315,-331.693 32.8735,-370.307 -25.7838,-365.814 C-82.6957,-361.789 -131.829,-325.24 -155.545,-302.049 Z " fill="#f37772" fill-opacity="1.00" />				</g>				<g>					<path d="M139.243,-321.135 C270.498,-246.143 535.683,-321.135 535.683,-321.135 C512.461,-207.12 259.425,-134.334 148.587,-165.975 C81.661,-249.508 119.638,-308.164 139.243,-321.135 Z " fill="#434345" fill-opacity="1.00" />					<path d="M204.436,-283.496 C73.8635,-359.67 -7.16188,-535.205 -7.16188,-535.205 C-94.2903,-458.087 -17.4292,-294.176 65.3918,-214.008 C171.196,-197.815 203.006,-260.032 204.436,-283.496 Z " fill="#434345" fill-opacity="1.00" />				</g>				<path d="M131.465,-341.05 C146.46,-353.489 164.724,-364.823 199.101,-356.696 C190.171,-349.35 183.833,-339.726 179.592,-329.673 C196.569,-334.717 211.763,-335.321 223.665,-331.575 C216.089,-326.572 210.428,-318.12 207.02,-306.805 C186.666,-316.212 131.465,-341.05 131.465,-341.05 Z " fill="#d6e6ed" fill-opacity="1.00" />				<g>					<path d="M-133.457,-165.047 C-117.555,-192.59 -52.4311,-247.192 -42.9575,-263.601 C2.71873,-342.714 103.475,-369.712 182.588,-324.036 C261.702,-278.36 288.699,-177.603 243.023,-98.4899 C232.196,-79.737 213.459,0.0839553 198.234,26.4551 C157.881,97.7026 50.2978,112.164 -41.7083,59.044 C-133.128,6.26257 -174.396,-94.1374 -133.457,-165.047 Z " fill="#f1ecef" fill-opacity="1.00" />					<path d="M-133.457,-165.047 C-117.555,-192.59 -52.4311,-247.192 -42.9575,-263.601 C2.71873,-342.714 103.475,-369.712 182.588,-324.036 C152.814,-272.465 -5.50564,-3.66082 -41.3699,58.4579 C-133.128,6.26257 -174.396,-94.1375 -133.457,-165.047 Z " fill="#d6e6ed" fill-opacity="1.00" />					<path d="M115.348,73.928 C90.8696,116.327 16.1897,119.038 -51.4538,79.9839 C-119.097,40.9299 -154.089,-25.1005 -129.61,-67.4991 C-105.132,-109.898 -30.4517,-112.609 37.1919,-73.555 C104.835,-34.5009 139.827,31.5294 115.348,73.928 Z " fill="#d6e6ed" fill-opacity="1.00" />					<path d="M141.189,57.5921 C114.281,104.198 32.1217,107.139 -42.3186,64.1612 C-116.759,21.1831 -155.291,-51.4393 -128.383,-98.0453 C-101.475,-144.651 -19.3162,-147.592 55.124,-104.614 C129.564,-61.6362 168.097,10.9861 141.189,57.5921 Z " fill="#f79f9e" fill-opacity="1.00" />				</g>				<g>					<path d="M22.875,-143.901 C-7.81887,-161.622 -32.9009,-176.103 -32.9009,-176.103 C-32.9009,-176.103 -37.2309,-221.143 -38.6168,-235.559 C-15.5286,-268.927 107.927,-257.411 107.927,-257.411 C107.927,-257.411 68.9059,-170.477 22.875,-143.901 Z " fill="#000000" fill-opacity="1.00" />					<path d="M0.879805,-141.305 L-47.6273,-176.056 L-53.4686,-235.44 C-53.4686,-235.44 -90.7266,-204.199 -107.961,-178.56 C-125.196,-152.92 -122.407,-132.882 -122.407,-132.882 L-122.286,-132.89 C-122.286,-132.89 -95.1492,-144.974 -64.3577,-147.078 C-33.5661,-149.182 0.879805,-141.305 0.879805,-141.305 Z " fill="#000000" fill-opacity="1.00" />				</g>				<g>					<path d="M7.96893,174.814 C2.3725,164.003 -4.38304,151.02 -4.38304,151.02 L11.7279,123.115 L64.9256,129.646 C64.9256,129.646 42.6415,164.121 7.96893,174.814 Z " fill="#000000" fill-opacity="1.00" />					<path d="M-2.98204,179.115 L2.13318,177.562 L-11.7975,151.02 L5.06748,121.809 L-68.9141,143.323 L-2.98204,179.115 Z " fill="#000000" fill-opacity="1.00" />				</g>				<g>					<path d="M-96.7056,92.3421 L-120.519,110.956 L-154.237,89.5915 L-155.869,80.2342 L-126.066,32.6857 L-96.7056,92.3421 Z " fill="#000000" fill-opacity="1.00" />					<path d="M-94.3162,96.5455 L-119.809,116.753 L-152.846,95.1388 L-149.382,106.566 L-107.07,144.515 L-94.3162,96.5455 Z " fill="#000000" fill-opacity="1.00" />				</g>				<g>					<path d="M-46.6957,-64.9476 C-52.4884,-54.9144 -65.3179,-51.4767 -75.3512,-57.2694 C-85.3844,-63.0621 -88.8221,-75.8916 -83.0294,-85.9248 C-77.2367,-95.9581 -64.4072,-99.3957 -54.3739,-93.603 C-44.3407,-87.8103 -40.903,-74.9809 -46.6957,-64.9476 Z " fill="#f0515f" fill-opacity="1.00" />					<path d="M108.873,20.1819 C103.08,30.2152 90.2509,33.6528 80.2177,27.8601 C70.1844,22.0674 66.7468,9.23794 72.5395,-0.795311 C78.3322,-10.8286 91.1617,-14.2662 101.195,-8.47351 C111.228,-2.68081 114.666,10.1487 108.873,20.1819 Z " fill="#f0515f" fill-opacity="1.00" />					<path d="M186.699,-113.818 C179.488,-101.329 163.518,-97.0493 151.028,-104.26 C138.538,-111.471 134.259,-127.442 141.47,-139.932 C148.681,-152.422 164.651,-156.701 177.141,-149.49 C189.631,-142.279 193.91,-126.308 186.699,-113.818 Z " fill="#434345" fill-opacity="1.00" />					<path d="M40.433,-198.265 C32.0243,-183.701 13.4008,-178.711 -1.16356,-187.12 C-15.728,-195.528 -20.7181,-214.152 -12.3093,-228.716 C-3.90057,-243.28 14.7228,-248.271 29.2872,-239.862 C43.8516,-231.453 48.8418,-212.83 40.433,-198.265 Z " fill="#f1ecef" fill-opacity="1.00" />					<path d="M168.092,-134.867 C167.115,-129.844 162.251,-126.564 157.228,-127.54 C152.205,-128.517 148.924,-133.381 149.901,-138.404 C150.878,-143.427 155.742,-146.708 160.765,-145.731 C165.788,-144.754 169.068,-139.89 168.092,-134.867 Z " fill="#ffffff" fill-opacity="1.00" />					<path d="M37.2627,-200.096 C30.0517,-187.606 14.081,-183.327 1.59122,-190.538 C-10.8986,-197.749 -15.1779,-213.719 -7.96692,-226.209 C-0.755919,-238.699 15.2147,-242.978 27.7045,-235.767 C40.1944,-228.556 44.4737,-212.585 37.2627,-200.096 Z " fill="#434345" fill-opacity="1.00" />					<path d="M18.6699,-221.115 C17.6925,-216.092 12.8279,-212.812 7.80451,-213.789 C2.78113,-214.767 -0.498783,-219.631 0.478627,-224.655 C1.45605,-229.678 6.32066,-232.958 11.344,-231.981 C16.3674,-231.003 19.6473,-226.139 18.6699,-221.115 Z " fill="#ffffff" fill-opacity="1.00" />					<path d="M-26.3162,-16.6082 C-66.0245,52.1686 -15.3915,81.4015 24.3168,12.6247 C24.3168,12.6247 2.3439,18.4507 -10.3143,11.1425 C-22.9726,3.83425 -26.3162,-16.6082 -26.3162,-16.6082 Z " fill="#f0515f" fill-opacity="1.00" />				</g>			</g>		</g>	</svg>