<?xml version="1.0" encoding="utf-8" ?>	<!-- Generator: Assembly 1.8 - http://assemblyapp.co -->	<svg version="1.1" xmlns="http://www.w3.org/2000/svg" xmlns:xlink="http://www.w3.org/1999/xlink" width="2048.00" height="2048.00" viewBox="0 0 2048.0 2048.0">		<rect x="0" y="0" width="2048.00" height="2048.00" fill="none" />		<g id="document" transform="matrix(1,0,0,1,1024.0,1024.0)">			<g>				<path d="M-335.895,629.794 L-263.525,629.794 L-263.525,813.28 L-335.895,813.28 L-335.895,629.794 Z " fill="#d6e6ed" fill-opacity="1.00" />				<path d="M-365.675,842.874 C-365.675,800.258 -336.921,767.112 -300.555,767.112 C-264.19,767.112 -233.744,800.258 -233.744,842.874 L-291.253,842.874 L-299.71,820.382 L-308.167,842.874 L-365.675,842.874 Z " fill="#434345" fill-opacity="1.00" />				<path d="M-172.374,629.794 L-100.003,629.794 L-100.003,813.28 L-172.374,813.28 L-172.374,629.794 Z " fill="#f1ecef" fill-opacity="1.00" />				<path d="M-202.154,842.874 C-202.154,800.258 -173.4,767.112 -137.034,767.112 C-100.668,767.112 -70.2227,800.258 -70.2227,842.874 L-127.731,842.874 L-136.189,820.382 L-144.646,842.874 L-202.154,842.874 Z " fill="#434345" fill-opacity="1.00" />			</g>			<g>				<path d="M-432.454,475.389 C-432.454,340.438 -382.233,192.465 -219.482,187.73 C-43.7104,180.628 1.13687e-13,345.173 1.13687e-13,480.124 C1.13687e-13,615.075 -106.021,725.166 -212.972,725.166 C-318.993,725.166 -432.454,610.339 -432.454,475.389 Z " fill="#f1ecef" fill-opacity="1.00" />				<path d="M-435.898,471.168 C-435.898,336.217 -387.764,188.245 -231.774,183.51 C-231.774,395.406 -225.534,545.746 -225.534,720.945 C-327.151,720.945 -435.898,606.119 -435.898,471.168 Z " fill="#d6e6ed" fill-opacity="1.00" />			</g>			<g>				<path d="M-463.058,539.827 C-484.366,539.827 -496.204,532.724 -500.939,522.07 C-521.063,520.886 -536.452,514.968 -554.209,498.395 C-557.76,494.843 -558.944,488.924 -555.392,485.373 C-551.841,481.822 -545.922,480.638 -542.371,484.189 C-529.349,494.843 -518.695,500.762 -506.858,501.946 C-508.041,485.373 -499.755,468.8 -487.917,461.698 C-479.631,456.962 -471.344,456.962 -463.058,461.698 C-453.587,467.616 -448.852,479.454 -452.404,490.108 C-455.955,500.762 -464.242,511.416 -478.447,516.151 C-474.896,517.335 -468.977,518.519 -459.506,518.519 C-446.485,518.519 -435.831,507.865 -432.279,494.843 C-431.096,490.108 -425.177,486.557 -420.442,488.924 C-415.707,490.108 -412.155,496.027 -414.523,500.762 C-421.625,523.254 -438.198,537.459 -459.506,538.643 C-460.69,539.827 -461.874,539.827 -463.058,539.827 Z M-476.079,479.454 C-477.263,479.454 -477.263,479.454 -478.447,480.638 C-483.182,484.189 -487.917,493.66 -487.917,504.314 C-478.447,501.946 -472.528,494.843 -470.16,488.924 C-468.977,484.189 -471.344,481.822 -472.528,480.638 C-473.712,479.454 -474.896,479.454 -476.079,479.454 Z " fill="#beccd4" fill-opacity="1.00" />				<path d="M-587.022,509.676 C-594.125,502.574 -596.492,491.92 -591.757,483.633 C-600.044,475.347 -600.044,462.325 -591.757,452.855 C-583.471,444.568 -570.449,443.385 -562.163,450.487 C-553.876,445.752 -543.222,445.752 -534.936,452.855 C-525.466,461.141 -525.466,475.347 -533.752,484.817 C-538.487,489.552 -543.222,491.92 -549.141,491.92 C-549.141,497.838 -550.325,503.757 -555.06,508.492 C-563.347,517.963 -577.552,517.963 -587.022,509.676 Z " fill="#434345" fill-opacity="1.00" />			</g>			<g>				<path d="M172.312,-208.446 C307.118,-116.328 365.534,133.063 365.534,133.063 C365.534,133.063 113.896,173.505 -23.1568,83.6344 C-157.963,-8.48314 -171.444,-228.667 -171.444,-228.667 C-171.444,-228.667 35.2593,-298.316 172.312,-208.446 Z " fill="#d6e6ed" fill-opacity="1.00" />				<g>					<path d="M282.071,143.144 C282.071,130.761 284.135,119.373 288.262,108.977 C292.39,98.5823 298.122,89.6013 305.46,82.0342 C312.798,74.4672 321.626,68.5435 331.945,64.2631 C342.263,59.9828 353.614,57.8426 365.996,57.8426 C378.379,57.8426 389.729,59.9828 400.048,64.2631 C410.367,68.5435 419.195,74.4672 426.533,82.0342 C433.87,89.6013 439.603,98.5823 443.73,108.977 C447.858,119.373 449.922,130.761 449.922,143.144 C449.922,155.526 447.858,166.953 443.73,177.425 C439.603,187.896 433.87,196.916 426.533,204.483 C419.195,212.05 410.367,217.935 400.048,222.139 C389.729,226.343 378.379,228.445 365.996,228.445 C353.614,228.445 342.263,226.343 331.945,222.139 C321.626,217.935 312.798,212.05 305.46,204.483 C298.122,196.916 292.39,187.896 288.262,177.425 C284.135,166.953 282.071,155.526 282.071,143.144 Z M297.205,143.144 C297.205,153.233 298.81,162.635 302.02,171.348 C305.231,180.062 309.817,187.629 315.779,194.049 C321.741,200.47 328.964,205.515 337.448,209.183 C345.932,212.852 355.448,214.687 365.996,214.687 C376.544,214.687 386.06,212.852 394.545,209.183 C403.029,205.515 410.252,200.47 416.214,194.049 C422.176,187.629 426.762,180.062 429.972,171.348 C433.182,162.635 434.788,153.233 434.788,143.144 C434.788,133.054 433.182,123.653 429.972,114.939 C426.762,106.226 422.176,98.6588 416.214,92.2382 C410.252,85.8177 403.029,80.773 394.545,77.1042 C386.06,73.4353 376.544,71.6009 365.996,71.6009 C355.448,71.6009 345.932,73.4353 337.448,77.1042 C328.964,80.773 321.741,85.8177 315.779,92.2382 C309.817,98.6588 305.231,106.226 302.02,114.939 C298.81,123.653 297.205,133.054 297.205,143.144 Z " fill="#2a00c3" fill-opacity="1.00" />					<path d="M365.996,79.6209 L373.338,72.2797 C393.599,92.5414 393.599,125.43 373.338,145.692 L365.996,138.351 C382.22,122.126 382.22,95.8449 365.996,79.6209 Z " fill="#2a00c3" fill-opacity="1.00" />					<path d="M366.027,80.8143 C357.708,80.8143 350.974,74.0802 350.974,65.7616 C350.974,57.443 357.708,50.7089 366.027,50.7089 C374.345,50.7089 381.08,57.443 381.08,65.7616 C381.08,74.0802 374.345,80.8143 366.027,80.8143 Z " fill="#2a00c3" fill-opacity="1.00" />					<path d="M365.614,138.931 C367.161,136.502 370.379,135.788 372.808,137.334 C375.237,138.881 375.951,142.1 374.404,144.529 C372.858,146.957 369.639,147.672 367.21,146.125 C364.781,144.578 364.067,141.36 365.614,138.931 Z " fill="#2a00c3" fill-opacity="1.00" />					<path d="M352.961,228.83 C357.148,236.084 366.27,238.528 373.523,234.34 C380.776,230.153 383.22,221.031 379.033,213.778 C375.807,208.191 369.506,205.425 363.432,206.449 L329.874,148.326 C328.46,145.876 325.213,145.006 322.762,146.42 C320.312,147.835 319.442,151.082 320.857,153.532 L354.414,211.655 C350.434,216.306 349.735,223.244 352.961,228.83 Z " fill="#2a00c3" fill-opacity="1.00" />				</g>				<path d="M187.419,-140.209 C295.987,-66.0209 343.033,134.829 343.033,134.829 C343.033,134.829 140.373,167.4 29.9958,95.0213 C-78.572,20.8333 -89.4288,-156.494 -89.4288,-156.494 C-89.4288,-156.494 77.0418,-212.587 187.419,-140.209 Z " fill="#d6e6ed" fill-opacity="1.00" />				<path d="M273.031,63.928 C208.978,71.3187 103.044,95.9544 11.8923,34.3651 C-81.7234,-27.2242 -96.5048,-125.767 -101.432,-177.502 C-52.1605,-189.82 24.2102,-231.701 117.826,-167.648 C208.978,-106.058 255.786,2.33871 273.031,63.928 Z " fill="#f37772" fill-opacity="1.00" />				<path d="M-630.483,-208.446 C-765.29,-116.328 -823.706,133.063 -823.706,133.063 C-823.706,133.063 -572.067,173.505 -435.015,83.6344 C-300.208,-8.48314 -286.728,-228.667 -286.728,-228.667 C-286.728,-228.667 -493.43,-298.316 -630.483,-208.446 Z " fill="#d6e6ed" fill-opacity="1.00" />				<path d="M-713.843,52.0912 C-655.729,58.7966 -559.617,81.1482 -476.916,25.2692 C-391.98,-30.6099 -378.569,-120.016 -374.099,-166.955 C-418.802,-178.13 -488.092,-216.128 -573.028,-158.014 C-655.729,-102.135 -698.197,-3.78788 -713.843,52.0912 Z " fill="#f37772" fill-opacity="1.00" />			</g>			<g>				<path d="M-283.93,-234.672 C-19.4828,-235.866 233.294,-513.865 233.294,-513.865 C297.84,-320.82 61.5386,-56.7885 -134.057,-7.77738 C-308.516,-75.7897 -302.287,-197.873 -283.93,-234.672 Z " fill="#434345" fill-opacity="1.00" />				<path d="M-152.24,-234.672 C-416.688,-235.866 -669.465,-513.865 -669.465,-513.865 C-734.01,-320.82 -497.709,-56.7885 -302.113,-7.77738 C-127.654,-75.7897 -133.884,-197.873 -152.24,-234.672 Z " fill="#434345" fill-opacity="1.00" />			</g>			<path d="M-313.134,-258.04 C-301.296,-290.002 -283.539,-323.148 -224.351,-340.904 C-231.453,-321.964 -232.637,-301.84 -230.269,-282.899 C-208.961,-305.391 -186.47,-319.596 -165.162,-324.332 C-172.264,-310.126 -173.448,-292.369 -168.713,-272.245 C-207.778,-268.694 -313.134,-258.04 -313.134,-258.04 Z " fill="#d6e6ed" fill-opacity="1.00" />			<g>				<path d="M-560.544,240.331 C-560.544,184.693 -509.641,45.0074 -509.641,11.8616 C-509.641,-147.949 -380.609,-276.98 -220.799,-276.98 C-60.9891,-276.98 68.0428,-147.949 68.0428,11.8616 C68.0428,49.7425 109.475,187.061 109.475,240.331 C110.659,383.568 -39.6811,499.578 -225.534,499.578 C-410.204,499.578 -560.544,383.568 -560.544,240.331 Z " fill="#f1ecef" fill-opacity="1.00" />				<path d="M-560.544,240.331 C-560.544,184.693 -509.641,45.0074 -509.641,11.8616 C-509.641,-147.949 -380.609,-276.98 -220.799,-276.98 C-220.799,-172.808 -225.534,372.914 -225.534,498.395 C-410.204,499.578 -560.544,383.568 -560.544,240.331 Z " fill="#d6e6ed" fill-opacity="1.00" />				<path d="M25.4267,384.752 C25.4267,470.397 -85.3424,539.827 -221.983,539.827 C-358.624,539.827 -469.393,470.397 -469.393,384.752 C-469.393,299.106 -358.624,229.677 -221.983,229.677 C-85.3424,229.677 25.4267,299.106 25.4267,384.752 Z " fill="#d6e6ed" fill-opacity="1.00" />				<path d="M50.2861,337.401 C50.2861,431.545 -71.6129,507.865 -221.983,507.865 C-372.353,507.865 -494.252,431.545 -494.252,337.401 C-494.252,243.256 -372.353,166.937 -221.983,166.937 C-71.6129,166.937 50.2861,243.256 50.2861,337.401 Z " fill="#f79f9e" fill-opacity="1.00" />			</g>			<g>				<path d="M-305.204,135.625 C-367.206,135.625 -417.872,135.625 -417.872,135.625 C-417.872,135.625 -463.828,71.1768 -478.538,50.5479 C-472.745,-20.1987 -275.635,-110.738 -275.635,-110.738 C-275.635,-110.738 -258.713,55.0991 -305.204,135.625 Z " fill="#000000" fill-opacity="1.00" />				<path d="M-336.257,158.796 L-440.141,148.578 L-500.933,63.7204 C-500.933,63.7204 -530.054,143.639 -533.738,197.558 C-537.421,251.477 -515.669,279.396 -515.669,279.396 L-515.494,279.278 C-515.494,279.278 -484.951,237.234 -440.141,207.113 C-395.332,176.993 -336.257,158.796 -336.257,158.796 Z " fill="#000000" fill-opacity="1.00" />			</g>			<g>				<path d="M-49.0103,631.518 C-66.9454,620.035 -88.5361,606.274 -88.5361,606.274 L-88.5361,549.906 L-2.22862,513.269 C-2.22862,513.269 -5.83386,584.991 -49.0103,631.518 Z " fill="#000000" fill-opacity="1.00" />				<path d="M-61.8391,647.613 L-55.4479,640.786 L-99.7691,612.76 L-99.7691,553.753 L-193.034,651.058 L-61.8391,647.613 Z " fill="#000000" fill-opacity="1.00" />			</g>			<g>				<path d="M-279.73,598.131 L-299.526,647.161 L-369.296,644.286 L-379.954,631.537 L-376.392,533.432 L-279.73,598.131 Z " fill="#000000" fill-opacity="1.00" />				<path d="M-272.434,602.409 L-293.381,655.322 L-362.337,651.473 L-347.093,665.756 L-249.797,686.239 L-272.434,602.409 Z " fill="#000000" fill-opacity="1.00" />			</g>			<g>				<path d="M-341.545,316.093 C-341.545,336.36 -357.974,352.79 -378.242,352.79 C-398.509,352.79 -414.939,336.36 -414.939,316.093 C-414.939,295.825 -398.509,279.396 -378.242,279.396 C-357.974,279.396 -341.545,295.825 -341.545,316.093 Z " fill="#f0515f" fill-opacity="1.00" />				<path d="M-31.3946,308.99 C-31.3946,329.257 -47.8245,345.687 -68.0918,345.687 C-88.3591,345.687 -104.789,329.257 -104.789,308.99 C-104.789,288.723 -88.3591,272.293 -68.0918,272.293 C-47.8245,272.293 -31.3946,288.723 -31.3946,308.99 Z " fill="#f0515f" fill-opacity="1.00" />				<path d="M-30.6961,37.9047 C-30.6961,63.1343 -51.1486,83.5869 -76.3782,83.5869 C-101.608,83.5869 -122.06,63.1343 -122.06,37.9047 C-122.06,12.6752 -101.608,-7.77738 -76.3782,-7.77738 C-51.1486,-7.77738 -30.6961,12.6752 -30.6961,37.9047 Z " fill="#434345" fill-opacity="1.00" />				<path d="M-326.156,37.9047 C-326.156,67.325 -350.005,91.1748 -379.426,91.1748 C-408.846,91.1748 -432.696,67.325 -432.696,37.9047 C-432.696,8.48452 -408.846,-15.3653 -379.426,-15.3653 C-350.005,-15.3653 -326.156,8.48452 -326.156,37.9047 Z " fill="#f1ecef" fill-opacity="1.00" />				<path d="M-77.2977,22.2918 C-74.3837,30.7563 -78.8833,39.9804 -87.3478,42.8944 C-95.8123,45.8084 -105.036,41.3089 -107.95,32.8443 C-110.864,24.3798 -106.365,15.1557 -97.9004,12.2417 C-89.4359,9.32769 -80.2118,13.8273 -77.2977,22.2918 Z " fill="#ffffff" fill-opacity="1.00" />				<path d="M-332.56,37.9047 C-332.56,63.1343 -353.012,83.5869 -378.242,83.5869 C-403.471,83.5869 -423.924,63.1343 -423.924,37.9047 C-423.924,12.6752 -403.471,-7.77738 -378.242,-7.77738 C-353.012,-7.77738 -332.56,12.6752 -332.56,37.9047 Z " fill="#434345" fill-opacity="1.00" />				<path d="M-379.113,22.323 C-376.2,30.7884 -380.701,40.0125 -389.167,42.9257 C-397.632,45.8388 -406.856,41.3377 -409.769,32.8723 C-412.682,24.4069 -408.181,15.1828 -399.716,12.2697 C-391.251,9.35658 -382.026,13.8576 -379.113,22.323 Z " fill="#ffffff" fill-opacity="1.00" />				<path d="M-268.387,371.501 C-268.387,510.431 -166.108,510.431 -166.108,371.501 C-166.108,371.501 -194.301,399.547 -219.871,399.547 C-245.441,399.547 -268.387,371.501 -268.387,371.501 Z " fill="#f0515f" fill-opacity="1.00" />			</g>			<path d="M831.629,-804.485 L797.72,-827.133 L767.524,-781.92 C749.939,-791.848 731.236,-798.74 711.412,-802.597 C691.589,-806.453 672.252,-806.958 653.4,-804.112 C634.549,-801.265 616.742,-794.997 599.979,-785.307 C583.216,-775.618 568.823,-761.772 556.8,-743.771 C543.379,-723.677 535.37,-704.206 532.771,-685.359 C530.172,-666.512 531.483,-648.081 536.703,-630.065 C541.924,-612.049 550.008,-594.694 560.954,-578 C571.9,-561.306 584.557,-545.134 598.925,-529.484 L495.754,-375.008 C478.73,-387.588 464.921,-403.622 454.326,-423.108 C443.731,-442.595 438.932,-463.507 439.928,-485.846 L362.637,-474.811 C364.982,-441.16 374.976,-411.935 392.617,-387.137 C410.259,-362.339 432.894,-340.714 460.524,-322.26 L430.327,-277.048 L464.237,-254.4 L494.433,-299.613 C513.274,-288.846 533.059,-281.08 553.789,-276.316 C574.519,-271.551 594.763,-270.591 614.522,-273.437 C634.281,-276.283 652.996,-283.004 670.668,-293.6 C688.339,-304.197 703.605,-319.123 716.467,-338.381 C730.726,-359.731 738.842,-380.039 740.813,-399.306 C742.783,-418.572 740.635,-437.109 734.367,-454.916 C728.099,-472.723 718.724,-490.184 706.242,-507.298 C693.76,-524.413 680.196,-541.493 665.55,-558.539 L667.225,-558.328 L766.203,-706.525 C781.832,-695.481 794.142,-681.962 803.134,-665.968 C812.127,-649.974 817.383,-632.691 818.903,-614.12 L893.473,-627.88 C888.749,-655.25 877.984,-680.147 861.179,-702.57 C844.373,-724.994 824.458,-743.895 801.433,-759.273 L831.629,-804.485 Z M639.188,-589.767 C632.074,-598.151 625.694,-606.952 620.047,-616.172 C614.4,-625.392 610.254,-634.82 607.609,-644.456 C604.964,-654.092 604.205,-663.832 605.33,-673.674 C606.455,-683.517 610.373,-693.462 617.083,-703.509 C630.504,-723.603 647.478,-735.422 668.006,-738.965 C688.533,-742.508 709.963,-739.244 732.294,-729.172 L639.188,-589.767 Z M626.963,-498.045 C634.216,-488.964 641.189,-479.463 647.883,-469.544 C654.576,-459.626 659.559,-449.638 662.832,-439.583 C666.105,-429.527 667.353,-419.159 666.576,-408.478 C665.799,-397.798 661.776,-387.015 654.506,-376.131 C647.236,-365.247 638.747,-356.841 629.038,-350.916 C619.33,-344.99 608.925,-341.194 597.823,-339.528 C586.722,-337.862 575.412,-338.15 563.895,-340.394 C552.378,-342.638 540.968,-346.627 529.663,-352.361 L626.963,-498.045 Z " fill="#1a1f2b" fill-opacity="1.00" />		</g>	</svg>