<?xml version="1.0" encoding="utf-8" ?>	<!-- Generator: Assembly 1.8 - http://assemblyapp.co -->	<svg version="1.1" xmlns="http://www.w3.org/2000/svg" xmlns:xlink="http://www.w3.org/1999/xlink" width="2048.00" height="2048.00" viewBox="0 0 2048.0 2048.0">		<rect x="0" y="0" width="2048.00" height="2048.00" fill="#ffffff" />		<g id="document" transform="matrix(1,0,0,1,1024.0,1024.0)">			<g>				<path d="M337.032,-498.586 C571.418,-437.964 778.426,-119.538 778.426,-119.538 C778.426,-119.538 447.819,63.5331 211.43,7.17613 C-22.955,-53.4454 -152.589,-353.754 -152.589,-353.754 C-152.589,-353.754 100.644,-554.943 337.032,-498.586 Z " fill="#d6e6ed" fill-opacity="1.00" />				<g>					<path d="M667.093,-63.4656 C660.86,-80.7357 658.005,-97.6586 658.53,-114.235 C659.054,-130.81 662.528,-146.222 668.953,-160.47 C675.379,-174.717 684.71,-187.423 696.947,-198.587 C709.184,-209.751 723.937,-218.449 741.207,-224.682 C758.477,-230.915 775.386,-233.643 791.932,-232.867 C808.478,-232.092 823.773,-228.274 837.816,-221.413 C851.859,-214.553 864.375,-204.912 875.364,-192.492 C886.353,-180.071 894.964,-165.226 901.197,-147.956 C907.43,-130.686 910.304,-113.709 909.818,-97.0269 C909.332,-80.3444 905.877,-64.8794 899.452,-50.6319 C893.027,-36.3845 883.676,-23.7321 871.401,-12.6748 C859.125,-1.61741 844.353,7.0277 827.083,13.2606 C809.813,19.4934 792.924,22.2753 776.416,21.606 C759.908,20.9368 744.633,17.172 730.59,10.3117 C716.547,3.45134 704.011,-6.24246 692.983,-18.7697 C681.956,-31.297 673.326,-46.1956 667.093,-63.4656 Z M688.2,-71.0836 C693.279,-57.0117 700.25,-44.7073 709.114,-34.1702 C717.977,-23.6332 728.182,-15.3878 739.729,-9.43395 C751.277,-3.48014 763.89,-0.0800515 777.57,0.766323 C791.25,1.61269 805.446,-0.618864 820.157,-5.92835 C834.869,-11.2378 847.218,-18.5864 857.204,-27.9741 C867.19,-37.3618 874.725,-48.0336 879.808,-59.9894 C884.892,-71.9453 887.479,-84.8076 887.57,-98.5766 C887.662,-112.345 885.168,-126.266 880.089,-140.338 C875.011,-154.41 868.04,-166.714 859.176,-177.251 C850.313,-187.788 840.108,-196.034 828.56,-201.987 C817.013,-207.941 804.4,-211.341 790.72,-212.188 C777.04,-213.034 762.844,-210.802 748.133,-205.493 C733.421,-200.183 721.072,-192.835 711.086,-183.447 C701.1,-174.059 693.565,-163.388 688.481,-151.432 C683.398,-139.476 680.811,-126.614 680.719,-112.845 C680.628,-99.0758 683.122,-85.1555 688.2,-71.0836 Z " fill="#2a00c3" fill-opacity="1.00" />					<path d="M752.17,-194.307 L758.713,-208.242 C797.172,-190.181 813.727,-144.311 795.666,-105.852 L781.732,-112.396 C796.194,-143.19 782.964,-179.846 752.17,-194.307 Z " fill="#2a00c3" fill-opacity="1.00" />					<path d="M752.813,-192.658 C741.211,-188.471 728.429,-194.473 724.242,-206.075 C720.054,-217.678 726.057,-230.459 737.659,-234.647 C749.261,-238.834 762.043,-232.832 766.23,-221.229 C770.418,-209.627 764.415,-196.845 752.813,-192.658 Z " fill="#2a00c3" fill-opacity="1.00" />					<path d="M781.491,-111.394 C782.425,-115.56 786.555,-118.176 790.721,-117.242 C794.887,-116.307 797.503,-112.178 796.569,-108.012 C795.634,-103.845 791.505,-101.229 787.339,-102.164 C783.172,-103.098 780.556,-107.228 781.491,-111.394 Z " fill="#2a00c3" fill-opacity="1.00" />					<path d="M809.095,20.36 C818.587,28.3682 832.539,27.1856 840.548,17.6941 C848.556,8.2026 847.373,-5.74987 837.882,-13.7581 C830.571,-19.9266 820.39,-20.6118 812.434,-16.1265 L736.373,-80.3004 C733.167,-83.0059 728.201,-82.585 725.495,-79.3784 C722.79,-76.1718 723.211,-71.2057 726.417,-68.5002 L802.478,-4.32629 C799.267,4.1631 801.784,14.1915 809.095,20.36 Z " fill="#2a00c3" fill-opacity="1.00" />				</g>				<path d="M392.45,-411.019 C581.215,-362.196 747.932,-105.748 747.932,-105.748 C747.932,-105.748 481.673,41.6904 291.295,-3.69737 C102.53,-52.5196 -1.87241,-294.377 -1.87241,-294.377 C-1.87241,-294.377 202.072,-456.406 392.45,-411.019 Z " fill="#d6e6ed" fill-opacity="1.00" />				<path d="M614.61,-169.399 C528.994,-126.849 393.647,-39.1661 235.514,-79.1832 C73.9443,-117.96 3.7254,-247.959 -29.1881,-317.635 C33.3313,-359.616 118.766,-456.471 281.575,-414.258 C439.709,-374.241 559.556,-246.618 614.61,-169.399 Z " fill="#f37772" fill-opacity="1.00" />				<path d="M-782.643,-94.4871 C-924.291,101.848 -880.23,479.083 -880.23,479.083 C-880.23,479.083 -508.908,408.823 -362.996,214.491 C-221.348,18.1559 -313.378,-295.724 -313.378,-295.724 C-313.378,-295.724 -636.73,-288.819 -782.643,-94.4871 Z " fill="#d6e6ed" fill-opacity="1.00" />				<path d="M-767.761,310.849 C-683.333,290.949 -538.033,273.744 -450.815,154.179 C-360.481,33.4898 -386.78,-97.9577 -404.173,-165.674 C-472.147,-158.759 -587.913,-176.877 -677.123,-53.0702 C-764.34,66.4941 -774.067,225.038 -767.761,310.849 Z " fill="#f37772" fill-opacity="1.00" />			</g>			<g>				<path d="M-312.499,-305.508 C55.7293,-440.287 268.348,-955.256 268.348,-955.256 C455.543,-718.503 258.873,-231.307 10.742,-64.4943 C-266.814,-71.5361 -319.578,-244.944 -312.499,-305.508 Z " fill="#434345" fill-opacity="1.00" />				<path d="M-128.829,-371.795 C-498.26,-240.349 -990.748,-500.84 -990.748,-500.84 C-983.599,-199.107 -521.121,50.1981 -223.649,20.099 C-14.5627,-162.575 -84.7031,-329.712 -128.829,-371.795 Z " fill="#434345" fill-opacity="1.00" />			</g>			<path d="M-364.993,-323.4 C-364.571,-373.936 -356.49,-429.104 -282.876,-483.663 C-283.248,-453.671 -274.77,-425.007 -261.934,-399.783 C-243.536,-441.878 -219.317,-473.012 -191.982,-490.342 C-194.738,-466.954 -187.451,-441.593 -170.717,-415.909 C-223.413,-391.292 -364.993,-323.4 -364.993,-323.4 Z " fill="#d6e6ed" fill-opacity="1.00" />			<g>				<path d="M-459.198,496.225 C-487.204,418.626 -486.522,198.181 -503.207,151.952 C-583.65,-70.9382 -468.636,-315.852 -245.746,-396.294 C-22.8556,-476.737 222.058,-361.724 302.5,-138.833 C321.568,-86.0001 448.476,84.6651 475.29,158.962 C549.042,358.142 397.755,595.619 138.542,689.171 C-119.02,782.127 -387.098,696.001 -459.198,496.225 Z " fill="#f1ecef" fill-opacity="1.00" />				<path d="M-459.198,496.225 C-487.204,418.626 -486.522,198.181 -503.207,151.952 C-583.65,-70.9382 -468.636,-315.852 -245.746,-396.294 C-193.309,-251.003 74.7836,512.51 137.946,687.52 C-119.02,782.127 -387.098,696.001 -459.198,496.225 Z " fill="#d6e6ed" fill-opacity="1.00" />				<path d="M430.763,402.696 C473.874,522.147 354.33,674.739 163.755,743.519 C-26.8208,812.299 -216.261,771.222 -259.372,651.77 C-302.483,532.318 -182.939,379.727 7.63616,310.947 C198.212,242.167 387.652,283.244 430.763,402.696 Z " fill="#d6e6ed" fill-opacity="1.00" />				<path d="M441.6,324.141 C488.989,455.446 357.39,623.25 147.666,698.941 C-62.0581,774.632 -270.49,729.547 -317.879,598.242 C-365.268,466.936 -233.669,299.132 -23.945,223.441 C185.779,147.751 394.211,192.835 441.6,324.141 Z " fill="#f79f9e" fill-opacity="1.00" />			</g>			<g>				<path d="M-155.777,221.661 C-242.252,252.87 -312.917,278.374 -312.917,278.374 C-312.917,278.374 -409.453,211.619 -440.353,190.252 C-467.884,88.6645 -238.546,-136.83 -238.546,-136.83 C-238.546,-136.83 -131.468,85.9479 -155.777,221.661 Z " fill="#000000" fill-opacity="1.00" />				<path d="M-187.422,269.609 L-337.456,307.649 L-464.958,219.897 C-464.958,219.897 -465.344,346.02 -443.342,423.076 C-421.339,500.132 -376.947,528.121 -376.947,528.121 L-376.762,527.869 C-376.762,527.869 -355.326,453.855 -307.991,389.29 C-260.656,324.725 -187.422,269.609 -187.422,269.609 Z " fill="#000000" fill-opacity="1.00" />			</g>			<g>				<path d="M-116.228,491.303 C-106.106,519.348 -120.636,550.288 -148.681,560.41 C-176.726,570.531 -207.666,556.001 -217.788,527.956 C-227.909,499.911 -213.379,468.971 -185.335,458.85 C-157.29,448.728 -126.349,463.258 -116.228,491.303 Z " fill="#f0515f" fill-opacity="1.00" />				<path d="M309.397,326.583 C319.519,354.628 304.989,385.568 276.944,395.69 C248.899,405.812 217.959,391.282 207.838,363.237 C197.716,335.192 212.246,304.252 240.291,294.13 C268.336,284.008 299.276,298.538 309.397,326.583 Z " fill="#f0515f" fill-opacity="1.00" />				<path d="M154.468,-80.3505 C184.447,-56.7686 189.633,-13.3486 166.051,16.6309 C142.47,46.6103 99.0495,51.7964 69.0701,28.2145 C39.0907,4.63257 33.9045,-38.7875 57.4864,-68.7669 C81.0684,-98.7463 124.488,-103.932 154.468,-80.3505 Z " fill="#434345" fill-opacity="1.00" />				<path d="M-238.948,101.502 C-225.818,139.403 -245.899,180.773 -283.8,193.903 C-321.702,207.034 -363.072,186.952 -376.202,149.051 C-389.332,111.149 -369.251,69.7795 -331.35,56.6492 C-293.448,43.5188 -252.078,63.5999 -238.948,101.502 Z " fill="#f1ecef" fill-opacity="1.00" />				<path d="M94.6791,-59.6623 C107.461,-55.2132 114.216,-41.2448 109.767,-28.463 C105.318,-15.6812 91.3492,-8.92621 78.5674,-13.3753 C65.7856,-17.8244 59.0306,-31.7929 63.4798,-44.5747 C67.9289,-57.3565 81.8973,-64.1114 94.6791,-59.6623 Z " fill="#ffffff" fill-opacity="1.00" />				<path d="M-247.198,104.36 C-235.938,136.863 -253.159,172.339 -285.662,183.599 C-318.165,194.86 -353.641,177.639 -364.902,145.136 C-376.162,112.633 -358.941,77.1563 -326.438,65.8962 C-293.935,54.6362 -258.458,71.8569 -247.198,104.36 Z " fill="#434345" fill-opacity="1.00" />				<path d="M-314.127,105.063 C-306.596,114.669 -308.278,128.561 -317.883,136.092 C-327.489,143.623 -341.381,141.941 -348.912,132.336 C-356.443,122.73 -354.762,108.838 -345.156,101.307 C-335.55,93.7755 -321.658,95.4574 -314.127,105.063 Z " fill="#ffffff" fill-opacity="1.00" />				<path d="M268.922,436.052 C341.282,596.209 -54.8121,775.169 -127.173,615.011 C-127.173,615.011 14.083,556.748 113.107,512.008 C212.13,467.268 268.922,436.052 268.922,436.052 Z " fill="#f0515f" fill-opacity="1.00" />			</g>			<path d="M-469.364,-662.231 L-484.444,-682.023 C-489.242,-688.32 -492.94,-693.797 -495.539,-698.452 C-498.138,-703.107 -499.927,-707.787 -500.905,-712.493 C-501.884,-717.198 -502.148,-722.21 -501.698,-727.53 C-501.248,-732.849 -500.338,-739.586 -498.967,-747.739 L-497.554,-755.215 L-491.814,-803.667 C-491.528,-815.734 -492.992,-827.297 -496.205,-838.357 C-499.418,-849.417 -505.366,-860.645 -514.048,-872.04 C-524.102,-885.235 -535.394,-895.234 -547.925,-902.039 C-560.455,-908.843 -573.454,-912.684 -586.92,-913.562 C-600.386,-914.44 -614.02,-912.584 -627.822,-907.992 C-641.623,-903.401 -654.821,-896.307 -667.416,-886.711 C-693.806,-866.604 -710.267,-842.332 -716.8,-813.893 C-723.332,-785.454 -718.609,-756.705 -702.629,-727.645 L-653.32,-758.105 C-662.945,-774.47 -666.726,-790.785 -664.663,-807.05 C-662.6,-823.315 -654.221,-837.045 -639.527,-848.241 C-632.93,-853.268 -625.793,-856.809 -618.118,-858.866 C-610.442,-860.922 -602.906,-861.45 -595.509,-860.451 C-588.112,-859.451 -580.911,-856.999 -573.907,-853.093 C-566.902,-849.188 -560.772,-843.786 -555.517,-836.889 C-550.262,-829.992 -546.796,-822.799 -545.118,-815.309 C-543.44,-807.819 -542.665,-800.115 -542.793,-792.196 C-542.922,-784.278 -543.614,-776.167 -544.871,-767.863 C-546.127,-759.559 -547.441,-751.33 -548.812,-743.176 C-550.468,-732.909 -551.778,-724.209 -552.742,-717.076 C-553.706,-709.943 -553.731,-703.289 -552.817,-697.113 C-551.903,-690.936 -549.989,-684.692 -547.076,-678.381 C-544.163,-672.069 -539.622,-664.865 -533.453,-656.768 L-512.546,-629.329 L-469.364,-662.231 Z M-473.797,-560.742 C-467.627,-552.646 -459.391,-547.901 -449.088,-546.509 C-438.785,-545.117 -429.585,-547.505 -421.489,-553.674 C-413.392,-559.843 -408.647,-568.08 -407.255,-578.383 C-405.863,-588.686 -408.252,-597.886 -414.421,-605.982 C-420.59,-614.079 -428.826,-618.824 -439.129,-620.216 C-449.432,-621.608 -458.632,-619.219 -466.729,-613.05 C-474.825,-606.881 -479.57,-598.645 -480.962,-588.342 C-482.354,-578.039 -479.966,-568.839 -473.797,-560.742 Z " fill="#1a1f2b" fill-opacity="1.00" />			<path d="M759.355,727.953 L756.575,698.385 C755.69,688.977 755.401,681.095 755.707,674.739 C756.014,668.383 757.157,662.513 759.136,657.129 C761.116,651.746 764.012,646.502 767.826,641.398 C771.64,636.294 776.814,630.045 783.351,622.651 L789.502,615.971 L825.904,570.516 C833.811,558.474 839.628,545.837 843.355,532.606 C847.083,519.374 848.146,504.247 846.545,487.223 C844.692,467.511 839.567,450.254 831.169,435.451 C822.772,420.648 812.031,408.551 798.945,399.161 C785.859,389.77 770.877,383.044 753.999,378.981 C737.12,374.919 719.273,373.772 700.457,375.541 C661.034,379.248 629.036,393.443 604.466,418.125 C579.895,442.807 566.53,474.91 564.371,514.433 L633.546,514.708 C634.128,492.055 640.598,473.143 652.956,457.97 C665.314,442.798 682.469,434.179 704.421,432.115 C714.277,431.188 723.741,432.106 732.814,434.869 C741.887,437.631 749.854,441.854 756.716,447.536 C763.578,453.218 769.323,460.248 773.953,468.626 C778.582,477.004 781.381,486.345 782.35,496.649 C783.319,506.953 782.289,516.428 779.26,525.074 C776.231,533.72 772.153,542.012 767.024,549.952 C761.895,557.891 756.073,565.67 749.558,573.288 C743.043,580.906 736.517,588.412 729.981,595.806 C721.822,605.16 715.002,613.146 709.523,619.762 C704.044,626.379 699.817,633.104 696.844,639.937 C693.871,646.77 691.868,654.302 690.834,662.535 C689.8,670.767 689.852,680.931 690.989,693.027 L694.844,734.019 L759.355,727.953 Z M690.795,827.955 C691.933,840.05 697.28,850.056 706.837,857.97 C716.395,865.885 727.221,869.273 739.317,868.136 C751.413,866.999 761.418,861.651 769.333,852.094 C777.247,842.537 780.636,831.71 779.499,819.614 C778.361,807.518 773.014,797.513 763.456,789.598 C753.899,781.684 743.073,778.295 730.977,779.433 C718.881,780.57 708.876,785.917 700.961,795.475 C693.047,805.032 689.658,815.859 690.795,827.955 Z " fill="#1a1f2b" fill-opacity="1.00" />			<path d="M685.992,-632.945 L692.448,-655.307 C694.502,-662.422 696.553,-668.254 698.6,-672.802 C700.647,-677.349 703.165,-681.302 706.154,-684.661 C709.142,-688.019 712.759,-691.012 717.005,-693.641 C721.251,-696.269 726.818,-699.342 733.707,-702.859 L740.11,-705.965 L779.701,-728.671 C788.923,-735.185 796.791,-742.732 803.306,-751.312 C809.821,-759.892 814.937,-770.62 818.654,-783.495 C822.959,-798.403 824.172,-812.459 822.296,-825.665 C820.419,-838.87 816.056,-850.775 809.207,-861.378 C802.358,-871.982 793.361,-881.186 782.217,-888.992 C771.073,-896.798 758.386,-902.755 744.156,-906.863 C714.34,-915.472 686.931,-914.301 661.929,-903.35 C636.927,-892.399 617.969,-872.821 605.054,-844.616 L655.425,-824.566 C662.349,-840.92 672.494,-852.857 685.861,-860.377 C699.227,-867.896 714.211,-869.26 730.813,-864.466 C738.267,-862.314 744.907,-858.929 750.731,-854.311 C756.555,-849.693 761.154,-844.327 764.528,-838.214 C767.902,-832.101 770.075,-825.326 771.048,-817.887 C772.02,-810.449 771.381,-802.833 769.131,-795.04 C766.881,-787.248 763.411,-780.633 758.722,-775.196 C754.032,-769.76 748.678,-764.882 742.659,-760.563 C736.64,-756.245 730.162,-752.242 723.225,-748.556 C716.288,-744.869 709.375,-741.267 702.486,-737.75 C693.852,-733.269 686.587,-729.402 680.692,-726.149 C674.797,-722.895 669.786,-719.203 665.657,-715.073 C661.528,-710.943 657.905,-706.024 654.789,-700.317 C651.673,-694.609 648.794,-687.182 646.153,-678.034 L637.202,-647.032 L685.992,-632.945 Z M607.296,-579.685 C604.655,-570.537 605.684,-561.706 610.383,-553.191 C615.083,-544.677 622.006,-539.099 631.155,-536.458 C640.303,-533.817 649.134,-534.846 657.648,-539.545 C666.163,-544.244 671.741,-551.168 674.382,-560.316 C677.023,-569.464 675.994,-578.295 671.295,-586.81 C666.595,-595.324 659.672,-600.902 650.524,-603.543 C641.376,-606.185 632.544,-605.156 624.03,-600.456 C615.515,-595.757 609.938,-588.833 607.296,-579.685 Z " fill="#1a1f2b" fill-opacity="1.00" />			<path d="M-706.084,845.178 L-697.501,816.909 C-694.77,807.915 -692.066,800.549 -689.389,794.813 C-686.712,789.077 -683.447,784.104 -679.596,779.893 C-675.745,775.683 -671.102,771.947 -665.668,768.685 C-660.233,765.424 -653.114,761.621 -644.31,757.277 L-636.13,753.445 L-585.488,725.317 C-573.671,717.21 -563.553,707.769 -555.135,696.993 C-546.718,686.216 -540.038,672.69 -535.096,656.415 C-529.374,637.569 -527.589,619.75 -529.741,602.958 C-531.893,586.165 -537.223,570.981 -545.732,557.404 C-554.24,543.828 -565.498,531.989 -579.505,521.889 C-593.513,511.788 -609.511,504.007 -627.5,498.545 C-665.191,487.101 -699.998,488.11 -731.919,501.574 C-763.841,515.037 -788.243,539.555 -805.125,575.127 L-741.545,601.449 C-732.473,580.814 -719.389,565.841 -702.294,556.53 C-685.199,547.218 -666.158,545.749 -645.171,552.121 C-635.748,554.982 -627.381,559.394 -620.07,565.357 C-612.758,571.319 -607.014,578.209 -602.839,586.026 C-598.663,593.843 -596.023,602.48 -594.918,611.937 C-593.813,621.395 -594.757,631.049 -597.748,640.9 C-600.739,650.751 -605.258,659.086 -611.304,665.904 C-617.351,672.722 -624.231,678.82 -631.945,684.196 C-639.658,689.573 -647.95,694.54 -656.818,699.098 C-665.687,703.656 -674.523,708.107 -683.327,712.451 C-694.364,717.988 -703.651,722.769 -711.189,726.796 C-718.727,730.822 -725.152,735.421 -730.464,740.591 C-735.776,745.761 -740.459,751.941 -744.513,759.13 C-748.567,766.319 -752.35,775.696 -755.861,787.26 L-767.761,826.451 L-706.084,845.178 Z M-806.887,911.404 C-810.399,922.968 -809.246,934.195 -803.43,945.082 C-797.614,955.97 -788.924,963.17 -777.36,966.681 C-765.795,970.193 -754.569,969.04 -743.681,963.224 C-732.793,957.408 -725.594,948.718 -722.082,937.154 C-718.571,925.589 -719.724,914.363 -725.54,903.475 C-731.356,892.587 -740.046,885.388 -751.61,881.876 C-763.175,878.365 -774.401,879.517 -785.289,885.333 C-796.177,891.15 -803.376,899.84 -806.887,911.404 Z " fill="#1a1f2b" fill-opacity="1.00" />		</g>	</svg>