<?xml version="1.0" encoding="utf-8" ?>	<!-- Generator: Assembly 1.8 - http://assemblyapp.co -->	<svg version="1.1" xmlns="http://www.w3.org/2000/svg" xmlns:xlink="http://www.w3.org/1999/xlink" width="2048.00" height="2048.00" viewBox="0 0 2048.0 2048.0">		<rect x="0" y="0" width="2048.00" height="2048.00" fill="none" />		<g id="document" transform="matrix(1,0,0,1,1024.0,1024.0)">			<g>				<path d="M-80.4212,252.77 L177.805,-151.432 C199.073,-188.269 177.532,-221.903 140.695,-243.172 C103.857,-264.44 64.1753,-266.153 42.9071,-229.315 L-185.07,200.712 C-196.153,219.909 -169.45,249.932 -150.253,261.016 C-131.056,272.099 -91.5046,271.967 -80.4212,252.77 Z " fill="#ffffff" fill-opacity="1.00" stroke-width="8.38" stroke="#ef5b37" stroke-linecap="square" stroke-linejoin="miter" />				<path d="M-185.903,231.525 C-181.113,240.208 -174.27,248.371 -165.561,255.218 C-154.834,263.651 -142.836,268.863 -131.093,270.864 C-152.52,244.289 -165.137,192.691 -163.691,165.489 L-186.282,207.993 C-186.684,215.565 -186.57,223.506 -185.903,231.525 Z " fill="#ef5b37" fill-opacity="1.00" />				<path d="M52.1919,-243.957 C65.9908,-163.753 97.4824,-121.733 147.221,-109.205 C157.803,-123.218 177.528,-154.04 184.408,-166.331 C139.129,-178.529 108.821,-176.379 74.797,-205.25 L52.1919,-243.957 Z " fill="#ef5b37" fill-opacity="1.00" />				<path d="M24.495,-186.963 L-0.0299909,-139.075 C-0.0299905,-84.2002 40.3165,-30.1415 95.191,-30.1415 L118.291,-65.9436 C74.3514,-65.9436 24.495,-143.024 24.495,-186.963 Z " fill="#ef5b37" fill-opacity="1.00" />				<path d="M-22.57,-98.3856 L-45.8106,-56.787 C-48.7198,-2.80549 -14.5794,56.9643 39.4021,59.8736 L62.5426,25.3951 C19.3183,23.0656 -24.8995,-55.1613 -22.57,-98.3856 Z " fill="#ef5b37" fill-opacity="1.00" />				<path d="M-73.5077,-6.18249 L-94.7918,33.2633 C-96.7827,84.0747 -63.8472,139.819 -13.0358,141.81 L8.25253,109.062 C-32.4335,107.468 -75.1018,34.5035 -73.5077,-6.18249 Z " fill="#ef5b37" fill-opacity="1.00" />				<path d="M-117.318,80.415 L-139.908,122.919 C-142.378,169.401 -110.951,216.463 -66.462,223.313 L-43.3188,189.157 C-80.5379,187.179 -119.296,117.634 -117.318,80.415 Z " fill="#ef5b37" fill-opacity="1.00" />				<path d="M183.059,-168.354 C195.169,-189.329 176.182,-222.962 140.651,-243.476 C105.119,-263.99 66.4983,-263.617 54.3883,-242.641 C42.2783,-221.666 66.9154,-191.798 101.273,-169.961 C135.631,-148.123 170.949,-147.378 183.059,-168.354 Z " fill="#7f0b0b" fill-opacity="1.00" />			</g>			<path d="M489.647,-217.069 L8.85684,-393.359 L-473.002,-217.069 L-473.002,242.353 L8.85685,418.643 L489.647,242.353 L489.647,-217.069 Z " fill="#00d1ef" fill-opacity="0.69" />		</g>	</svg>