<?xml version="1.0" encoding="utf-8" ?>	<!-- Generator: Assembly 1.8 - http://assemblyapp.co -->	<svg version="1.1" xmlns="http://www.w3.org/2000/svg" xmlns:xlink="http://www.w3.org/1999/xlink" width="2048.00" height="2048.00" viewBox="0 0 2048.0 2048.0">		<rect x="0" y="0" width="2048.00" height="2048.00" fill="#00dffe" />		<g id="document" transform="matrix(1,0,0,1,1024.0,1024.0)">			<path d="M1445.53,1024 C1445.53,316.936 -1445.53,316.936 -1445.53,1024 L1445.53,1024 Z " fill="#1a7f0b" fill-opacity="1.00" />			<path d="M883.452,-170.879 L488.545,-639.573 L-504.849,-639.573 L-883.719,-170.879 L-886.331,-170.879 L-886.331,-167.647 L-886.481,-167.462 L-886.331,-167.462 L-886.331,839.195 L886.481,839.195 L886.481,-170.879 L883.452,-170.879 L883.452,-170.879 Z M-507.733,-639.573 L484.245,-639.573 L-10.6016,-808.219 L-507.733,-639.573 Z " fill="#7f0b0b" fill-opacity="1.00" stroke-width="15.44" stroke="#ffffff" stroke-linecap="square" stroke-linejoin="miter" />			<path d="M-568.217,-694.344 L-971.831,-193.707 L-906.207,-140.801 L-502.593,-641.438 L-568.217,-694.344 Z " fill="#ffffff" fill-opacity="1.00" />			<path d="M-6.44821,-883.249 L-567.85,-694.71 L-541.014,-614.802 L20.3878,-803.341 L-6.44821,-883.249 Z " fill="#ffffff" fill-opacity="1.00" />			<path d="M10.8795,-881.803 L546.013,-699.006 L518.765,-619.237 L-16.3686,-802.034 L10.8795,-881.803 Z " fill="#ffffff" fill-opacity="1.00" />			<path d="M545.651,-699.763 L970.546,-196.825 L906.155,-142.426 L481.26,-645.364 L545.651,-699.763 Z " fill="#ffffff" fill-opacity="1.00" />			<path d="M0.532043,-892.39 L-111.672,-844.798 L0.532043,-797.54 L111.822,-844.798 L0.532043,-892.39 Z " fill="#ffffff" fill-opacity="1.00" />			<path d="M-379.254,493.702 L379.405,493.702 L379.405,162.927 L-379.254,162.927 L-379.254,493.702 Z " fill="#bc5757" fill-opacity="1.00" stroke-width="13.02" stroke="#ffffff" stroke-linecap="square" stroke-linejoin="miter" />			<g>				<path d="M-137.303,572.912 C-137.303,507.251 -106.2,435.255 -5.40503,432.951 C103.454,429.495 130.524,509.555 130.524,575.216 C130.524,640.877 64.8635,694.442 -1.37323,694.442 C-67.034,694.442 -137.303,638.573 -137.303,572.912 Z " fill="#f1ecef" fill-opacity="1.00" />				<path d="M-137.303,571.238 C-137.303,505.577 -106.2,433.581 -5.40503,431.277 C-5.40503,534.376 -1.37323,607.524 -1.37323,692.768 C-67.034,692.768 -137.303,636.899 -137.303,571.238 Z " fill="#d6e6ed" fill-opacity="1.00" />				<path d="M-80.8573,648.418 L-22.6842,648.418 L-22.6842,737.694 L-80.8573,737.694 L-80.8573,648.418 Z " fill="#d6e6ed" fill-opacity="1.00" />				<path d="M-96.9846,752.093 C-96.9846,731.358 -77.4015,715.231 -52.6347,715.231 C-27.8679,715.231 -7.13294,731.358 -7.13294,752.093 L-46.299,752.093 L-52.0587,741.15 L-57.8185,752.093 L-96.9846,752.093 Z " fill="#434345" fill-opacity="1.00" />				<path d="M21.6656,648.418 L79.8388,648.418 L79.8388,737.694 L21.6656,737.694 L21.6656,648.418 Z " fill="#f1ecef" fill-opacity="1.00" />				<path d="M5.53844,752.093 C5.53844,731.358 25.1215,715.231 49.8883,715.231 C74.6551,715.231 95.39,731.358 95.39,752.093 L56.224,752.093 L50.4642,741.15 L44.7045,752.093 L5.53844,752.093 Z " fill="#434345" fill-opacity="1.00" />				<path d="M-148.48,592.261 C-158.847,592.261 -164.607,588.805 -166.911,583.622 C-176.702,583.046 -184.19,580.166 -192.83,572.102 C-194.557,570.374 -195.133,567.494 -193.406,565.766 C-191.678,564.039 -188.798,563.463 -187.07,565.191 C-180.734,570.374 -175.55,573.254 -169.791,573.83 C-170.367,565.766 -166.335,557.703 -160.575,554.247 C-156.543,551.943 -152.512,551.943 -148.48,554.247 C-143.872,557.127 -141.568,562.887 -143.296,568.07 C-145.024,573.254 -149.056,578.438 -155.967,580.742 C-154.239,581.318 -151.36,581.894 -146.752,581.894 C-140.416,581.894 -135.232,576.71 -133.504,570.374 C-132.928,568.07 -130.049,566.342 -127.745,567.494 C-125.441,568.07 -123.713,570.95 -124.865,573.254 C-128.321,584.198 -136.384,591.109 -146.752,591.685 C-147.328,592.261 -147.904,592.261 -148.48,592.261 Z M-154.815,562.887 C-155.391,562.887 -155.391,562.887 -155.967,563.463 C-158.271,565.191 -160.575,569.798 -160.575,574.982 C-155.967,573.83 -153.087,570.374 -151.936,567.494 C-151.36,565.191 -152.512,564.039 -153.087,563.463 C-153.663,562.887 -154.239,562.887 -154.815,562.887 Z " fill="#beccd4" fill-opacity="1.00" />				<path d="M-208.795,577.591 C-212.251,574.135 -213.403,568.952 -211.099,564.92 C-215.131,560.888 -215.131,554.552 -211.099,549.945 C-207.067,545.913 -200.731,545.337 -196.7,548.793 C-192.668,546.489 -187.484,546.489 -183.452,549.945 C-178.845,553.976 -178.845,560.888 -182.876,565.496 C-185.18,567.8 -187.484,568.952 -190.364,568.952 C-190.364,571.832 -190.94,574.711 -193.244,577.015 C-197.276,581.623 -204.187,581.623 -208.795,577.591 Z " fill="#434345" fill-opacity="1.00" />				<path d="M192.2,240.57 C257.791,285.39 286.213,406.732 286.213,406.732 C286.213,406.732 163.778,426.409 97.0943,382.682 C31.5039,337.862 24.9449,230.731 24.9449,230.731 C24.9449,230.731 125.517,196.843 192.2,240.57 Z " fill="#d6e6ed" fill-opacity="1.00" />				<g>					<path d="M245.604,411.637 C245.604,405.612 246.608,400.071 248.616,395.013 C250.625,389.955 253.414,385.586 256.984,381.904 C260.554,378.222 264.85,375.34 269.87,373.257 C274.891,371.175 280.413,370.133 286.438,370.133 C292.463,370.133 297.986,371.175 303.006,373.257 C308.027,375.34 312.322,378.222 315.892,381.904 C319.463,385.586 322.252,389.955 324.26,395.013 C326.268,400.071 327.272,405.612 327.272,411.637 C327.272,417.662 326.268,423.222 324.26,428.316 C322.252,433.411 319.463,437.8 315.892,441.482 C312.322,445.163 308.027,448.027 303.006,450.072 C297.986,452.118 292.463,453.141 286.438,453.141 C280.413,453.141 274.891,452.118 269.87,450.072 C264.85,448.027 260.554,445.163 256.984,441.482 C253.414,437.8 250.625,433.411 248.616,428.316 C246.608,423.222 245.604,417.662 245.604,411.637 Z M252.968,411.637 C252.968,416.546 253.749,421.12 255.311,425.36 C256.872,429.6 259.104,433.281 262.005,436.405 C264.905,439.529 268.42,441.984 272.548,443.769 C276.676,445.554 281.306,446.446 286.438,446.446 C291.57,446.446 296.2,445.554 300.329,443.769 C304.457,441.984 307.971,439.529 310.872,436.405 C313.773,433.281 316.004,429.6 317.566,425.36 C319.128,421.12 319.909,416.546 319.909,411.637 C319.909,406.728 319.128,402.154 317.566,397.914 C316.004,393.674 313.773,389.993 310.872,386.869 C307.971,383.745 304.457,381.29 300.329,379.505 C296.2,377.72 291.57,376.828 286.438,376.828 C281.306,376.828 276.676,377.72 272.548,379.505 C268.42,381.29 264.905,383.745 262.005,386.869 C259.104,389.993 256.872,393.674 255.311,397.914 C253.749,402.154 252.968,406.728 252.968,411.637 Z " fill="#2a00c3" fill-opacity="1.00" />					<path d="M286.438,380.73 L290.01,377.158 C299.868,387.016 299.868,403.018 290.01,412.877 L286.438,409.305 C294.332,401.411 294.332,388.624 286.438,380.73 Z " fill="#2a00c3" fill-opacity="1.00" />					<path d="M286.453,381.31 C282.406,381.31 279.129,378.034 279.129,373.986 C279.129,369.939 282.406,366.662 286.453,366.662 C290.5,366.662 293.777,369.939 293.777,373.986 C293.777,378.034 290.5,381.31 286.453,381.31 Z " fill="#2a00c3" fill-opacity="1.00" />					<path d="M286.252,409.587 C287.005,408.405 288.571,408.058 289.752,408.81 C290.934,409.563 291.282,411.129 290.529,412.311 C289.777,413.493 288.211,413.84 287.029,413.087 C285.847,412.335 285.499,410.769 286.252,409.587 Z " fill="#2a00c3" fill-opacity="1.00" />					<path d="M280.096,453.328 C282.133,456.857 286.571,458.046 290.1,456.009 C293.629,453.971 294.819,449.533 292.781,446.004 C291.212,443.286 288.146,441.94 285.19,442.438 L268.863,414.158 C268.175,412.966 266.595,412.543 265.403,413.231 C264.21,413.92 263.787,415.499 264.475,416.691 L280.803,444.971 C278.866,447.234 278.526,450.61 280.096,453.328 Z " fill="#2a00c3" fill-opacity="1.00" />				</g>				<path d="M199.551,273.771 C252.375,309.867 275.265,407.592 275.265,407.592 C275.265,407.592 176.66,423.439 122.956,388.223 C70.1318,352.126 64.8494,265.847 64.8494,265.847 C64.8494,265.847 145.846,238.555 199.551,273.771 Z " fill="#d6e6ed" fill-opacity="1.00" />				<path d="M241.205,373.094 C210.04,376.69 158.498,388.677 114.148,358.71 C68.5985,328.744 61.4066,280.797 59.0092,255.626 C82.9824,249.632 120.141,229.255 165.69,260.42 C210.04,290.387 232.815,343.128 241.205,373.094 Z " fill="#f37772" fill-opacity="1.00" />				<path d="M-15.7385,240.976 C112.929,240.395 235.919,105.133 235.919,105.133 C267.324,199.06 152.35,327.526 57.1826,351.372 C-27.701,318.281 -24.6701,258.881 -15.7385,240.976 Z " fill="#434345" fill-opacity="1.00" />				<path d="M15.7319,252.371 C-118.779,240.675 -233.796,88.6183 -233.796,88.6183 C-274.735,184.141 -165.566,328.399 -68.094,361.54 C21.5802,334.248 23.5297,271.866 15.7319,252.371 Z " fill="#434345" fill-opacity="1.00" />				<path d="M-198.403,240.57 C-263.993,285.39 -292.416,406.732 -292.416,406.732 C-292.416,406.732 -169.98,426.409 -103.297,382.682 C-37.7062,337.862 -31.1471,230.731 -31.1471,230.731 C-31.1471,230.731 -131.719,196.843 -198.403,240.57 Z " fill="#d6e6ed" fill-opacity="1.00" />				<path d="M-238.962,367.335 C-210.686,370.598 -163.922,381.473 -123.684,354.285 C-82.3579,327.096 -75.8327,283.595 -73.6577,260.757 C-95.4082,255.32 -129.121,236.832 -170.447,265.108 C-210.686,292.296 -231.349,340.147 -238.962,367.335 Z " fill="#f37772" fill-opacity="1.00" />				<path d="M-164.373,458.924 C-164.373,431.853 -139.606,363.888 -139.606,347.761 C-139.606,270.005 -76.8255,207.224 0.930662,207.224 C78.6869,207.224 141.468,270.005 141.468,347.761 C141.468,366.192 161.627,433.005 161.627,458.924 C162.203,528.616 89.0544,585.062 -1.37323,585.062 C-91.2248,585.062 -164.373,528.616 -164.373,458.924 Z " fill="#f1ecef" fill-opacity="1.00" />				<path d="M-164.373,458.924 C-164.373,431.853 -139.606,363.888 -139.606,347.761 C-139.606,270.005 -76.8255,207.224 0.930662,207.224 C0.930662,257.91 -1.37323,523.433 -1.37323,584.486 C-91.2248,585.062 -164.373,528.616 -164.373,458.924 Z " fill="#d6e6ed" fill-opacity="1.00" />				<path d="M-43.9951,216.44 C-38.2354,200.888 -29.5958,184.761 -0.797244,176.122 C-4.25308,185.337 -4.82905,195.129 -3.6771,204.344 C6.69039,193.401 17.6339,186.489 28.0013,184.185 C24.5455,191.097 23.9695,199.736 26.2734,209.528 C7.26635,211.256 -43.9951,216.44 -43.9951,216.44 Z " fill="#d6e6ed" fill-opacity="1.00" />				<path d="M120.733,529.192 C120.733,570.863 66.8377,604.645 0.354682,604.645 C-66.1283,604.645 -120.023,570.863 -120.023,529.192 C-120.023,487.521 -66.1283,453.74 0.354682,453.74 C66.8377,453.74 120.733,487.521 120.733,529.192 Z " fill="#d6e6ed" fill-opacity="1.00" />				<path d="M132.828,506.153 C132.828,551.96 73.5178,589.093 0.354682,589.093 C-72.8084,589.093 -132.119,551.96 -132.119,506.153 C-132.119,460.347 -72.8084,423.213 0.354682,423.213 C73.5178,423.213 132.828,460.347 132.828,506.153 Z " fill="#f79f9e" fill-opacity="1.00" />				<path d="M-57.8185,495.786 C-57.8185,505.647 -65.8125,513.641 -75.6736,513.641 C-85.5347,513.641 -93.5287,505.647 -93.5287,495.786 C-93.5287,485.925 -85.5347,477.931 -75.6736,477.931 C-65.8125,477.931 -57.8185,485.925 -57.8185,495.786 Z " fill="#f0515f" fill-opacity="1.00" />				<path d="M93.0862,492.33 C93.0862,502.191 85.0921,510.185 75.231,510.185 C65.3699,510.185 57.3759,502.191 57.3759,492.33 C57.3759,482.469 65.3699,474.475 75.231,474.475 C85.0921,474.475 93.0862,482.469 93.0862,492.33 Z " fill="#f0515f" fill-opacity="1.00" />				<path d="M89.0544,360.433 C89.0544,370.294 81.0604,378.288 71.1992,378.288 C61.3381,378.288 53.3441,370.294 53.3441,360.433 C53.3441,350.571 61.3381,342.577 71.1992,342.577 C81.0604,342.577 89.0544,350.571 89.0544,360.433 Z " fill="#434345" fill-opacity="1.00" />				<g>					<path d="M-40.1369,407.979 C-70.3042,407.979 -94.9559,407.979 -94.9559,407.979 C-94.9559,407.979 -117.316,376.621 -124.473,366.584 C-121.654,332.162 -25.7498,288.11 -25.7498,288.11 C-25.7498,288.11 -17.5163,368.799 -40.1369,407.979 Z " fill="#000000" fill-opacity="1.00" />					<path d="M-55.2455,419.253 L-105.791,414.281 L-135.37,372.993 C-135.37,372.993 -149.538,411.878 -151.331,438.112 C-153.123,464.347 -142.539,477.931 -142.539,477.931 L-142.454,477.873 C-142.454,477.873 -127.593,457.417 -105.791,442.762 C-83.9889,428.106 -55.2455,419.253 -55.2455,419.253 Z " fill="#000000" fill-opacity="1.00" />				</g>				<g>					<path d="M105.116,643.16 C94.521,636.376 83.3948,629.197 83.3948,629.197 L83.3948,595.899 L130.445,573.443 C130.445,573.443 132.476,616.784 105.116,643.16 Z " fill="#000000" fill-opacity="1.00" />					<path d="M97.2661,652.178 L101.042,648.145 L76.7592,633.028 L76.7592,598.172 L21.6656,655.652 L97.2661,652.178 Z " fill="#000000" fill-opacity="1.00" />				</g>				<g>					<path d="M-53.8847,630.388 L-60.6504,655.209 L-94.5272,657.803 L-100.405,652.252 L-104.285,604.645 L-53.8847,630.388 Z " fill="#000000" fill-opacity="1.00" />					<path d="M-50.1147,632.038 L-57.2153,658.801 L-90.7541,660.879 L-82.5731,666.909 L-34.3909,671.252 L-50.1147,632.038 Z " fill="#000000" fill-opacity="1.00" />				</g>				<path d="M-50.3308,360.433 C-50.3308,374.747 -61.935,386.351 -76.2496,386.351 C-90.5641,386.351 -102.168,374.747 -102.168,360.433 C-102.168,346.118 -90.5641,334.514 -76.2496,334.514 C-61.935,334.514 -50.3308,346.118 -50.3308,360.433 Z " fill="#f1ecef" fill-opacity="1.00" />				<path d="M70.8398,354.33 C71.9788,357.639 70.2201,361.244 66.9117,362.383 C63.6033,363.522 59.998,361.763 58.859,358.455 C57.7201,355.146 59.4788,351.541 62.7872,350.402 C66.0956,349.263 69.7009,351.022 70.8398,354.33 Z " fill="#ffffff" fill-opacity="1.00" />				<path d="M-57.8185,360.433 C-57.8185,370.294 -65.8125,378.288 -75.6736,378.288 C-85.5347,378.288 -93.5287,370.294 -93.5287,360.433 C-93.5287,350.571 -85.5347,342.577 -75.6736,342.577 C-65.8125,342.577 -57.8185,350.571 -57.8185,360.433 Z " fill="#434345" fill-opacity="1.00" />				<path d="M-76.0142,354.342 C-74.8756,357.651 -76.6349,361.256 -79.9436,362.395 C-83.2524,363.534 -86.8577,361.774 -87.9963,358.466 C-89.1349,355.157 -87.3757,351.552 -84.0669,350.413 C-80.7581,349.274 -77.1528,351.034 -76.0142,354.342 Z " fill="#ffffff" fill-opacity="1.00" />				<path d="M65.4659,550.404 C65.4659,582.569 -64.7565,582.569 -64.7565,550.404 C-64.7565,550.404 -28.8608,556.897 3.69477,556.897 C36.2504,556.897 65.4659,550.404 65.4659,550.404 Z " fill="#f0515f" fill-opacity="1.00" />			</g>			<g>				<path d="M-281.191,-240.29 C-281.191,-281.777 -274.276,-319.935 -260.447,-354.764 C-246.618,-389.592 -227.411,-419.683 -202.826,-445.037 C-178.241,-470.39 -148.662,-490.237 -114.09,-504.578 C-79.5171,-518.92 -41.4872,-526.09 0,-526.09 C41.4872,-526.09 79.5171,-518.92 114.09,-504.578 C148.662,-490.237 178.241,-470.39 202.826,-445.037 C227.411,-419.683 246.618,-389.592 260.447,-354.764 C274.276,-319.935 281.191,-281.777 281.191,-240.29 C281.191,-198.802 274.276,-160.516 260.447,-125.432 C246.618,-90.3468 227.411,-60.1278 202.826,-34.7745 C178.241,-9.4212 148.662,10.298 114.09,24.3832 C79.5171,38.4683 41.4872,45.5109 0,45.5109 C-41.4872,45.5109 -79.5171,38.4683 -114.09,24.3832 C-148.662,10.298 -178.241,-9.4212 -202.826,-34.7745 C-227.411,-60.1278 -246.618,-90.3468 -260.447,-125.432 C-274.276,-160.516 -281.191,-198.802 -281.191,-240.29 Z M-230.484,-240.29 C-230.484,-206.485 -225.106,-174.986 -214.35,-145.791 C-203.595,-116.596 -188.229,-91.2431 -168.254,-69.7313 C-148.278,-48.2194 -124.077,-31.3172 -95.651,-19.0247 C-67.2246,-6.73221 -35.3409,-0.585965 0,-0.585965 C35.3409,-0.585965 67.2246,-6.73221 95.651,-19.0247 C124.077,-31.3172 148.278,-48.2194 168.254,-69.7313 C188.229,-91.2431 203.595,-116.596 214.35,-145.791 C225.106,-174.986 230.484,-206.485 230.484,-240.29 C230.484,-274.094 225.106,-305.594 214.35,-334.788 C203.595,-363.983 188.229,-389.336 168.254,-410.848 C148.278,-432.36 124.077,-449.262 95.651,-461.555 C67.2246,-473.847 35.3409,-479.993 0,-479.993 C-35.3409,-479.993 -67.2246,-473.847 -95.651,-461.555 C-124.077,-449.262 -148.278,-432.36 -168.254,-410.848 C-188.229,-389.336 -203.595,-363.983 -214.35,-334.788 C-225.106,-305.594 -230.484,-274.094 -230.484,-240.29 Z " fill="#ffffff" fill-opacity="1.00" />				<path d="M-4.54747e-13,-453.122 L24.5966,-477.719 C92.4833,-409.832 92.4833,-299.639 24.5966,-231.753 L-4.54747e-13,-256.349 C54.3585,-310.708 54.3585,-398.764 -4.54747e-13,-453.122 Z " fill="#ffffff" fill-opacity="1.00" />				<path d="M0.102094,-449.124 C-27.7693,-449.124 -50.3319,-471.686 -50.3319,-499.558 C-50.3319,-527.429 -27.7693,-549.992 0.102094,-549.992 C27.9735,-549.992 50.5361,-527.429 50.5361,-499.558 C50.5361,-471.686 27.9735,-449.124 0.102094,-449.124 Z " fill="#ffffff" fill-opacity="1.00" />				<path d="M-1.28178,-254.405 C3.90054,-262.543 14.6839,-264.936 22.8222,-259.754 C30.9604,-254.572 33.3534,-243.788 28.1711,-235.65 C22.9887,-227.512 12.2054,-225.119 4.06711,-230.301 C-4.07117,-235.484 -6.46409,-246.267 -1.28178,-254.405 Z " fill="#ffffff" fill-opacity="1.00" />				<path d="M-43.676,46.8027 C-29.6455,71.1043 0.916543,79.2934 25.2181,65.2629 C49.5197,51.2324 57.7088,20.6703 43.6783,-3.63129 C32.871,-22.3501 11.7581,-31.616 -8.59271,-28.1859 L-121.026,-222.927 C-125.767,-231.137 -136.645,-234.052 -144.855,-229.312 C-153.065,-224.572 -155.979,-213.694 -151.239,-205.484 L-38.8055,-10.7426 C-52.141,4.83832 -54.4833,28.084 -43.676,46.8027 Z " fill="#ffffff" fill-opacity="1.00" />			</g>			<g>				<path d="M-378.67,831.835 L-7.28427,831.835 L-7.28427,501.061 L-378.67,501.061 L-378.67,831.835 Z " fill="#a63131" fill-opacity="1.00" stroke-width="14.72" stroke="#ffffff" stroke-linecap="square" stroke-linejoin="miter" />				<path d="M-208.494,669.024 L-373.931,827.064 L-349.65,827.064 L-192.713,675.617 L-37.0805,827.064 L-11.7055,827.064 L-175.93,668.925 L-11.7055,506.457 L-35.9868,506.457 L-191.711,662.332 L-349.65,506.457 L-375.025,506.457 L-208.494,669.024 L-208.494,669.024 Z " fill="#ffffff" fill-opacity="1.00" />			</g>			<g>				<path d="M7.35928,831.835 L378.745,831.835 L378.745,501.061 L7.35928,501.061 L7.35928,831.835 Z " fill="#a63131" fill-opacity="1.00" stroke-width="14.72" stroke="#ffffff" stroke-linecap="square" stroke-linejoin="miter" />				<path d="M177.535,669.024 L12.0986,827.064 L36.3798,827.064 L193.316,675.617 L348.949,827.064 L374.324,827.064 L210.1,668.925 L374.324,506.457 L350.043,506.457 L194.319,662.332 L36.3798,506.457 L11.0048,506.457 L177.535,669.024 L177.535,669.024 Z " fill="#ffffff" fill-opacity="1.00" />			</g>		</g>	</svg>