<?xml version="1.0" encoding="utf-8" ?>	<!-- Generator: Assembly 1.8 - http://assemblyapp.co -->	<svg version="1.1" xmlns="http://www.w3.org/2000/svg" xmlns:xlink="http://www.w3.org/1999/xlink" width="2048.00" height="2048.00" viewBox="0 0 2048.0 2048.0">		<rect x="0" y="0" width="2048.00" height="2048.00" fill="none" />		<g id="document" transform="matrix(1,0,0,1,1024.0,1024.0)">			<g>				<g>					<path d="M552.901,-340.828 C760.4,-199.037 850.316,184.835 850.316,184.835 C850.316,184.835 462.985,247.085 252.028,108.753 C44.5287,-33.0383 23.7789,-371.953 23.7789,-371.953 C23.7789,-371.953 341.944,-479.161 552.901,-340.828 Z " fill="#d6e6ed" fill-opacity="1.00" />					<g>						<path d="M721.846,200.352 C721.846,181.292 725.023,163.762 731.376,147.762 C737.729,131.761 746.553,117.937 757.847,106.29 C769.142,94.642 782.731,85.5241 798.614,78.9356 C814.497,72.3471 831.968,69.0529 851.027,69.0529 C870.087,69.0529 887.558,72.3471 903.441,78.9356 C919.324,85.5241 932.913,94.642 944.207,106.29 C955.502,117.937 964.326,131.761 970.679,147.762 C977.032,163.762 980.208,181.292 980.208,200.352 C980.208,219.411 977.032,237 970.679,253.118 C964.326,269.237 955.502,283.119 944.207,294.767 C932.913,306.414 919.324,315.474 903.441,321.944 C887.558,328.415 870.087,331.651 851.027,331.651 C831.968,331.651 814.497,328.415 798.614,321.944 C782.731,315.474 769.142,306.414 757.847,294.767 C746.553,283.119 737.729,269.237 731.376,253.118 C725.023,237 721.846,219.411 721.846,200.352 Z M745.141,200.352 C745.141,215.882 747.612,230.353 752.553,243.765 C757.495,257.177 764.554,268.825 773.73,278.708 C782.907,288.59 794.025,296.355 807.085,302.002 C820.144,307.65 834.791,310.473 851.027,310.473 C867.263,310.473 881.911,307.65 894.97,302.002 C908.029,296.355 919.147,288.59 928.324,278.708 C937.501,268.825 944.56,257.177 949.501,243.765 C954.443,230.353 956.913,215.882 956.913,200.352 C956.913,184.822 954.443,170.351 949.501,156.938 C944.56,143.526 937.501,131.879 928.324,121.996 C919.147,112.113 908.029,104.348 894.97,98.701 C881.911,93.0537 867.263,90.2301 851.027,90.2301 C834.791,90.2301 820.144,93.0537 807.085,98.701 C794.025,104.348 782.907,112.113 773.73,121.996 C764.554,131.879 757.495,143.526 752.553,156.938 C747.612,170.351 745.141,184.822 745.141,200.352 Z " fill="#2a00c3" fill-opacity="1.00" />						<path d="M851.027,102.575 L862.327,91.2749 C893.515,122.463 893.515,173.086 862.327,204.274 L851.027,192.974 C876,168.001 876,127.547 851.027,102.575 Z " fill="#2a00c3" fill-opacity="1.00" />						<path d="M851.074,104.412 C838.27,104.412 827.904,94.0464 827.904,81.2421 C827.904,68.4377 838.27,58.0723 851.074,58.0723 C863.879,58.0723 874.244,68.4377 874.244,81.2421 C874.244,94.0464 863.879,104.412 851.074,104.412 Z " fill="#2a00c3" fill-opacity="1.00" />						<path d="M850.438,193.867 C852.819,190.128 857.773,189.029 861.512,191.41 C865.251,193.79 866.35,198.744 863.969,202.483 C861.588,206.222 856.635,207.321 852.896,204.94 C849.157,202.56 848.058,197.606 850.438,193.867 Z " fill="#2a00c3" fill-opacity="1.00" />						<path d="M830.962,332.244 C837.408,343.408 851.448,347.171 862.613,340.725 C873.777,334.279 877.539,320.239 871.093,309.074 C866.128,300.475 856.429,296.218 847.08,297.794 L795.427,208.328 C793.249,204.557 788.252,203.218 784.48,205.395 C780.708,207.573 779.369,212.57 781.547,216.342 L833.2,305.807 C827.073,312.965 825.997,323.645 830.962,332.244 Z " fill="#2a00c3" fill-opacity="1.00" />					</g>					<path d="M576.154,-235.796 C743.266,-121.603 815.681,187.554 815.681,187.554 C815.681,187.554 503.739,237.688 333.842,126.28 C166.73,12.0867 150.019,-260.862 150.019,-260.862 C150.019,-260.862 406.257,-347.203 576.154,-235.796 Z " fill="#d6e6ed" fill-opacity="1.00" />					<path d="M707.931,78.4197 C609.338,89.7957 446.281,127.716 305.977,32.9153 C161.88,-61.8853 139.127,-213.566 131.543,-293.199 C207.384,-312.159 324.937,-376.623 469.034,-278.031 C609.339,-183.23 681.387,-16.3809 707.931,78.4197 Z " fill="#f37772" fill-opacity="1.00" />					<path d="M-682.793,-340.828 C-890.292,-199.037 -980.208,184.835 -980.208,184.835 C-980.208,184.835 -592.877,247.085 -381.92,108.753 C-174.421,-33.0383 -153.671,-371.953 -153.671,-371.953 C-153.671,-371.953 -471.836,-479.161 -682.793,-340.828 Z " fill="#d6e6ed" fill-opacity="1.00" />					<path d="M-811.104,60.2 C-721.652,70.5213 -573.713,104.926 -446.416,18.9145 C-315.679,-67.0966 -295.037,-204.715 -288.156,-276.964 C-356.965,-294.166 -463.618,-352.654 -594.355,-263.202 C-721.652,-177.191 -787.021,-25.8112 -811.104,60.2 Z " fill="#f37772" fill-opacity="1.00" />				</g>				<g>					<path d="M-149.365,-381.196 C257.683,-383.036 646.767,-810.942 646.767,-810.942 C746.118,-513.8 382.394,-107.392 81.3253,-31.952 C-187.209,-136.639 -177.62,-324.554 -149.365,-381.196 Z " fill="#434345" fill-opacity="1.00" />					<path d="M53.337,-381.196 C-353.71,-383.036 -742.795,-810.942 -742.795,-810.942 C-842.146,-513.8 -478.422,-107.392 -177.353,-31.952 C91.1809,-136.639 81.5926,-324.554 53.337,-381.196 Z " fill="#434345" fill-opacity="1.00" />				</g>				<path d="M-194.317,-417.166 C-176.095,-466.363 -148.764,-517.382 -57.6577,-544.714 C-68.5904,-515.56 -70.4125,-484.584 -66.7683,-455.43 C-33.9701,-490.051 0.650113,-511.916 33.4482,-519.205 C22.5155,-497.339 20.6934,-470.007 27.9819,-439.031 C-32.1481,-433.565 -194.317,-417.166 -194.317,-417.166 Z " fill="#d6e6ed" fill-opacity="1.00" />				<g>					<path d="M-575.139,349.946 C-575.139,264.306 -496.788,49.2964 -496.788,-1.72289 C-496.788,-247.709 -298.177,-446.32 -52.1914,-446.32 C193.795,-446.32 392.406,-247.709 392.406,-1.72289 C392.406,56.5849 456.18,267.951 456.18,349.946 C458.002,570.422 226.593,748.99 -59.4798,748.99 C-343.73,748.99 -575.139,570.422 -575.139,349.946 Z " fill="#f1ecef" fill-opacity="1.00" />					<path d="M-575.139,349.946 C-575.139,264.306 -496.788,49.2964 -496.788,-1.72291 C-496.788,-247.709 -298.177,-446.32 -52.1914,-446.32 C-52.1914,-285.973 -59.4798,554.023 -59.4798,747.168 C-343.73,748.99 -575.139,570.422 -575.139,349.946 Z " fill="#d6e6ed" fill-opacity="1.00" />					<path d="M326.809,572.244 C326.809,704.073 156.309,810.942 -54.0135,810.942 C-264.336,810.942 -434.836,704.073 -434.836,572.244 C-434.836,440.415 -264.336,333.547 -54.0135,333.547 C156.309,333.547 326.809,440.415 326.809,572.244 Z " fill="#d6e6ed" fill-opacity="1.00" />					<path d="M365.074,499.36 C365.074,644.271 177.442,761.745 -54.0135,761.745 C-285.469,761.745 -473.101,644.271 -473.101,499.36 C-473.101,354.448 -285.469,236.975 -54.0135,236.975 C177.442,236.975 365.074,354.448 365.074,499.36 Z " fill="#f79f9e" fill-opacity="1.00" />				</g>				<g>					<path d="M-182.111,188.778 C-277.547,188.778 -355.534,188.778 -355.534,188.778 C-355.534,188.778 -426.27,89.5773 -448.912,57.8246 C-439.995,-51.0713 -136.597,-190.432 -136.597,-190.432 C-136.597,-190.432 -110.549,64.83 -182.111,188.778 Z " fill="#000000" fill-opacity="1.00" />					<path d="M-229.908,224.445 L-389.811,208.716 L-483.385,78.1001 C-483.385,78.1001 -528.208,201.114 -533.878,284.108 C-539.549,367.102 -506.066,410.076 -506.066,410.076 L-505.797,409.895 C-505.797,409.895 -458.783,345.179 -389.811,298.816 C-320.839,252.454 -229.908,224.445 -229.908,224.445 Z " fill="#000000" fill-opacity="1.00" />				</g>				<path d="M-239.336,466.562 C-239.336,497.758 -264.626,523.047 -295.822,523.047 C-327.018,523.047 -352.308,497.758 -352.308,466.562 C-352.308,435.365 -327.018,410.076 -295.822,410.076 C-264.626,410.076 -239.336,435.365 -239.336,466.562 Z " fill="#f0515f" fill-opacity="1.00" />				<path d="M238.059,455.629 C238.059,486.825 212.769,512.115 181.573,512.115 C150.377,512.115 125.087,486.825 125.087,455.629 C125.087,424.433 150.377,399.143 181.573,399.143 C212.769,399.143 238.059,424.433 238.059,455.629 Z " fill="#f0515f" fill-opacity="1.00" />				<path d="M239.134,38.3637 C239.134,77.198 207.653,108.679 168.818,108.679 C129.984,108.679 98.5026,77.198 98.5026,38.3637 C98.5026,-0.470602 129.984,-31.952 168.818,-31.952 C207.653,-31.952 239.134,-0.470602 239.134,38.3637 Z " fill="#434345" fill-opacity="1.00" />				<path d="M-215.649,38.3637 C-215.649,83.6485 -252.359,120.359 -297.644,120.359 C-342.929,120.359 -379.639,83.6485 -379.639,38.3637 C-379.639,-6.92106 -342.929,-43.6316 -297.644,-43.6316 C-252.359,-43.6316 -215.649,-6.92106 -215.649,38.3637 Z " fill="#f1ecef" fill-opacity="1.00" />				<path d="M167.403,14.3316 C171.888,27.3605 164.962,41.5586 151.933,46.044 C138.905,50.5294 124.706,43.6035 120.221,30.5745 C115.736,17.5456 122.662,3.34752 135.691,-1.13783 C148.719,-5.62321 162.918,1.30271 167.403,14.3316 Z " fill="#ffffff" fill-opacity="1.00" />				<path d="M-225.506,38.3637 C-225.506,77.198 -256.988,108.679 -295.822,108.679 C-334.656,108.679 -366.138,77.198 -366.138,38.3637 C-366.138,-0.470602 -334.656,-31.952 -295.822,-31.952 C-256.988,-31.952 -225.506,-0.470602 -225.506,38.3637 Z " fill="#434345" fill-opacity="1.00" />				<path d="M-297.163,14.3797 C-292.679,27.41 -299.608,41.6081 -312.638,46.0921 C-325.668,50.5761 -339.866,43.6479 -344.35,30.6176 C-348.834,17.5873 -341.906,3.38921 -328.876,-1.09478 C-315.846,-5.57874 -301.647,1.3494 -297.163,14.3797 Z " fill="#ffffff" fill-opacity="1.00" />				<path d="M-126.73,551.849 C-126.73,765.695 30.7022,765.695 30.7022,551.849 C30.7022,551.849 -12.6938,595.018 -52.0518,595.018 C-91.4098,595.018 -126.73,551.849 -126.73,551.849 Z " fill="#f0515f" fill-opacity="1.00" />			</g>		</g>	</svg>