<?xml version="1.0" encoding="utf-8" ?>	<!-- Generator: Assembly 1.8 - http://assemblyapp.co -->	<svg version="1.1" xmlns="http://www.w3.org/2000/svg" xmlns:xlink="http://www.w3.org/1999/xlink" width="2048.00" height="2048.00" viewBox="0 0 2048.0 2048.0">		<rect x="0" y="0" width="2048.00" height="2048.00" fill="none" />		<g id="document" transform="matrix(1,0,0,1,1024.0,1024.0)">			<path d="M292.391,-422.723 L278.394,-975.947 L-12.703,-503.25 L-353.593,-942.735 L-307.473,-391.559 L-838.189,-550.587 L-475.837,-128.598 L-999.653,53.1776 L-456.688,181.75 L-770.776,637.852 L-257.921,425.812 L-243.404,977.067 L47.1731,506.339 L385.575,947.272 L339.455,396.097 L874.108,556.163 L509.268,135.623 L1036.09,-49.5693 L493.126,-178.142 L806.695,-632.275 L292.391,-422.723 Z M315.47,40.2569 C287.137,243.326 81.1621,361.61 -107.47,286.556 C-234.674,234.033 -315.398,101.136 -295.817,-36.8681 C-267.484,-239.938 -61.5096,-358.221 127.123,-283.168 C252.358,-231.164 332.563,-96.2984 315.47,40.2569 Z " fill="#ff7503" fill-opacity="1.00" />			<path d="M166.512,-430.88 L6.97738,-918.477 L-125.855,-421.271 L-545.461,-720.934 L-357.942,-243.698 L-871.558,-243.812 L-437.545,34.6069 L-854.412,335.326 L-338.016,305.136 L-495.68,793.717 L-96.5944,469.035 L62.8782,954.746 L195.773,459.426 L613.554,761.038 L426.036,283.801 L943.424,283.791 L507.586,7.32061 L926.216,-297.233 L409.82,-267.043 L567.546,-753.738 L166.512,-430.88 Z M310.115,-25.8431 C338.949,162.037 187.475,321.854 -0.00684303,305.357 C-126.943,292.534 -233.972,195.973 -253.277,68.2046 C-282.112,-119.676 -130.637,-279.493 56.8447,-262.995 C181.895,-250.111 288.985,-151.663 310.115,-25.8431 Z " fill="#ffcc1a" fill-opacity="1.00" />			<g>				<path d="M179.948,-464.856 C326.928,-442.705 473.544,-261.381 473.544,-261.381 C473.544,-261.381 283.263,-128.61 135.331,-148.03 C-11.6494,-170.181 -109.865,-345.35 -109.865,-345.35 C-109.865,-345.35 32.0158,-484.276 179.948,-464.856 Z " fill="#d6e6ed" fill-opacity="1.00" />				<g>					<path d="M409.112,-220.076 C404.211,-230.227 401.394,-240.38 400.662,-250.536 C399.931,-260.692 401.075,-270.324 404.095,-279.432 C407.115,-288.541 412.007,-296.892 418.772,-304.485 C425.536,-312.079 433.994,-318.327 444.145,-323.229 C454.296,-328.131 464.449,-330.87 474.602,-331.446 C484.756,-332.022 494.338,-330.66 503.349,-327.362 C512.36,-324.063 520.615,-318.97 528.114,-312.082 C535.613,-305.194 541.813,-296.675 546.715,-286.524 C551.617,-276.372 554.449,-266.188 555.211,-255.969 C555.972,-245.751 554.843,-236.087 551.823,-226.979 C548.804,-217.871 543.896,-209.551 537.101,-202.02 C530.306,-194.489 521.833,-188.272 511.682,-183.37 C501.531,-178.469 491.394,-175.698 481.271,-175.06 C471.147,-174.421 461.58,-175.751 452.569,-179.05 C443.558,-182.349 435.288,-187.473 427.759,-194.424 C420.23,-201.374 414.014,-209.925 409.112,-220.076 Z M421.519,-226.067 C425.513,-217.796 430.551,-210.724 436.632,-204.852 C442.713,-198.979 449.469,-194.591 456.898,-191.688 C464.327,-188.785 472.246,-187.508 480.653,-187.859 C489.061,-188.21 497.588,-190.474 506.236,-194.649 C514.883,-198.825 521.958,-204.096 527.461,-210.462 C532.964,-216.829 536.888,-223.824 539.234,-231.448 C541.58,-239.071 542.344,-247.09 541.526,-255.504 C540.708,-263.918 538.302,-272.261 534.308,-280.532 C530.314,-288.804 525.277,-295.875 519.195,-301.748 C513.114,-307.62 506.359,-312.008 498.93,-314.912 C491.501,-317.815 483.582,-319.091 475.174,-318.74 C466.767,-318.389 458.239,-316.126 449.592,-311.95 C440.945,-307.774 433.87,-302.503 428.367,-296.137 C422.864,-289.771 418.939,-282.776 416.594,-275.152 C414.248,-267.528 413.484,-259.509 414.301,-251.095 C415.119,-242.681 417.525,-234.338 421.519,-226.067 Z " fill="#2a00c3" fill-opacity="1.00" />					<path d="M452.767,-305.375 L455.879,-314.3 C480.51,-305.711 493.53,-278.749 484.941,-254.117 L476.016,-257.229 C482.894,-276.952 472.49,-298.498 452.767,-305.375 Z " fill="#2a00c3" fill-opacity="1.00" />					<path d="M453.264,-304.409 C446.445,-301.116 438.258,-303.971 434.965,-310.79 C431.672,-317.61 434.527,-325.796 441.346,-329.089 C448.166,-332.382 456.352,-329.528 459.645,-322.708 C462.939,-315.889 460.084,-307.702 453.264,-304.409 Z " fill="#2a00c3" fill-opacity="1.00" />					<path d="M475.932,-256.602 C476.239,-259.206 478.595,-261.065 481.198,-260.759 C483.802,-260.452 485.661,-258.097 485.355,-255.493 C485.048,-252.89 482.693,-251.03 480.089,-251.336 C477.486,-251.643 475.626,-253.999 475.932,-256.602 Z " fill="#2a00c3" fill-opacity="1.00" />					<path d="M501.148,-177.894 C507.453,-173.606 515.898,-175.213 520.186,-181.517 C524.475,-187.821 522.867,-196.267 516.563,-200.555 C511.707,-203.858 505.446,-203.631 500.872,-200.387 L450.353,-234.752 C448.223,-236.201 445.217,-235.628 443.768,-233.499 C442.319,-231.369 442.891,-228.363 445.021,-226.914 L495.541,-192.549 C494.119,-187.162 496.292,-181.197 501.148,-177.894 Z " fill="#2a00c3" fill-opacity="1.00" />				</g>				<path d="M219.346,-414.896 C337.718,-397.057 455.797,-251.025 455.797,-251.025 C455.797,-251.025 302.552,-144.097 183.412,-159.737 C65.0403,-177.577 -14.059,-318.65 -14.059,-318.65 C-14.059,-318.65 100.207,-430.536 219.346,-414.896 Z " fill="#d6e6ed" fill-opacity="1.00" />				<path d="M370.342,-281.438 C320.758,-250.022 243.667,-187.89 144.559,-202.296 C43.4322,-215.726 -7.69592,-290.659 -32.2156,-331.121 C3.30044,-360.724 49.3292,-425.291 151.431,-409.841 C250.539,-395.435 331.823,-325.101 370.342,-281.438 Z " fill="#f37772" fill-opacity="1.00" />				<path d="M-478.178,-147.051 C-552.225,-18.1678 -501.386,209.407 -501.386,209.407 C-501.386,209.407 -279.085,142.944 -202.308,15.0132 C-128.261,-113.87 -204.375,-299.712 -204.375,-299.712 C-204.375,-299.712 -401.4,-274.982 -478.178,-147.051 Z " fill="#d6e6ed" fill-opacity="1.00" />				<path d="M-443.376,99.5348 C-393.08,82.0261 -305.44,62.3017 -259.763,-16.2466 C-212.254,-95.6797 -236.654,-174.284 -251.57,-214.533 C-292.642,-205.998 -364.488,-209.718 -411.112,-128.453 C-456.789,-49.9045 -452.671,47.5317 -443.376,99.5348 Z " fill="#f37772" fill-opacity="1.00" />			</g>			<g>				<path d="M-204.458,-305.742 C11.8608,-411.409 109.034,-739.378 109.034,-739.378 C238.369,-606.673 149.174,-296.676 8.22773,-179.066 C-161.717,-165.759 -204.939,-268.308 -204.458,-305.742 Z " fill="#434345" fill-opacity="1.00" />				<path d="M-96.5,-357.874 C-313.765,-254.167 -631.042,-382 -631.042,-382 C-607.535,-198.192 -309.294,-75.2856 -129.543,-112.538 C-13.4474,-237.357 -66.8835,-334.974 -96.5,-357.874 Z " fill="#434345" fill-opacity="1.00" />			</g>			<path d="M-237.65,-313.338 C-240.599,-344.227 -239.163,-378.429 -197.67,-416.417 C-195.995,-398.078 -188.999,-381.112 -179.56,-366.522 C-170.995,-393.396 -158.18,-413.945 -142.587,-426.262 C-142.786,-411.805 -136.727,-396.779 -124.878,-382.156 C-155.498,-363.78 -237.65,-313.338 -237.65,-313.338 Z " fill="#d6e6ed" fill-opacity="1.00" />			<g>				<path d="M-237.08,190.218 C-259.105,144.607 -272.674,9.94217 -285.795,-17.2305 C-349.059,-148.242 -294.36,-305.101 -163.349,-368.366 C-32.3377,-431.63 124.522,-376.931 187.786,-245.92 C202.782,-214.865 291.109,-118.695 312.197,-75.0242 C369.871,41.9321 292.549,196.552 140.188,270.126 C-11.2031,343.232 -180.376,307.643 -237.08,190.218 Z " fill="#f1ecef" fill-opacity="1.00" />				<path d="M-237.08,190.218 C-259.105,144.607 -272.674,9.94216 -285.795,-17.2305 C-349.059,-148.242 -294.36,-305.101 -163.349,-368.366 C-122.11,-282.966 90.0447,166.288 139.719,269.156 C-11.2031,343.232 -180.376,307.643 -237.08,190.218 Z " fill="#d6e6ed" fill-opacity="1.00" />				<path d="M300.467,76.6436 C334.372,146.855 271.049,247.624 159.032,301.716 C47.0152,355.808 -71.2778,342.741 -105.183,272.529 C-139.087,202.317 -75.7647,101.549 36.2523,47.4569 C148.269,-6.63537 266.562,6.43195 300.467,76.6436 Z " fill="#d6e6ed" fill-opacity="1.00" />				<path d="M302.102,27.9843 C339.371,105.164 269.652,215.986 146.379,275.514 C23.107,335.041 -107.038,320.731 -144.307,243.552 C-181.576,166.373 -111.857,55.5503 11.4152,-3.97713 C134.688,-63.5045 264.832,-49.1949 302.102,27.9843 Z " fill="#f79f9e" fill-opacity="1.00" />			</g>			<g>				<path d="M-75.3085,6.24612 C-126.137,30.791 -167.673,50.8483 -167.673,50.8483 C-167.673,50.8483 -230.86,16.2069 -251.085,5.11867 C-274.343,-55.1722 -148.596,-207.426 -148.596,-207.426 C-148.596,-207.426 -69.073,-78.1729 -75.3085,6.24612 Z " fill="#000000" fill-opacity="1.00" />				<path d="M-91.5919,37.5349 L-180.801,70.2828 L-264.231,24.7832 C-264.231,24.7832 -256.466,101.828 -238.141,147.489 C-219.816,193.149 -190.931,207.426 -190.931,207.426 L-190.834,207.26 C-190.834,207.26 -182.439,160.701 -157.628,118.27 C-132.818,75.8387 -91.5919,37.5349 -91.5919,37.5349 Z " fill="#000000" fill-opacity="1.00" />			</g>			<g>				<path d="M-34.0511,168.402 C-26.0909,184.886 -33.0011,204.702 -49.4855,212.663 C-65.9699,220.623 -85.7861,213.713 -93.7463,197.228 C-101.707,180.744 -94.7963,160.928 -78.3119,152.968 C-61.8276,145.007 -42.0113,151.918 -34.0511,168.402 Z " fill="#f0515f" fill-opacity="1.00" />				<path d="M215.42,40.8101 C223.38,57.2945 216.47,77.1107 199.985,85.0709 C183.501,93.0311 163.685,86.1209 155.724,69.6365 C147.764,53.1522 154.674,33.3359 171.159,25.3757 C187.643,17.4155 207.459,24.3257 215.42,40.8101 Z " fill="#f0515f" fill-opacity="1.00" />				<path d="M94.9921,-197.867 C114.796,-185.368 120.717,-159.181 108.218,-139.378 C95.7192,-119.574 69.5325,-113.652 49.7287,-126.151 C29.9249,-138.65 24.0034,-164.837 36.5025,-184.641 C49.0016,-204.445 75.1883,-210.366 94.9921,-197.867 Z " fill="#434345" fill-opacity="1.00" />				<path d="M-133.722,-61.8563 C-123.299,-39.5435 -132.938,-13.006 -155.251,-2.58317 C-177.564,7.83969 -204.101,-1.79898 -214.524,-24.1117 C-224.947,-46.4245 -215.308,-72.962 -192.995,-83.3848 C-170.682,-93.8077 -144.145,-84.169 -133.722,-61.8563 Z " fill="#f1ecef" fill-opacity="1.00" />				<path d="M59.7928,-181.44 C67.8807,-179.534 72.8919,-171.433 70.9858,-163.345 C69.0797,-155.257 60.978,-150.246 52.8901,-152.152 C44.8023,-154.058 39.7911,-162.16 41.6972,-170.247 C43.6033,-178.335 51.705,-183.347 59.7928,-181.44 Z " fill="#ffffff" fill-opacity="1.00" />				<path d="M-138.579,-59.5874 C-129.641,-40.453 -137.907,-17.6956 -157.041,-8.75735 C-176.176,0.180857 -198.933,-8.08486 -207.871,-27.2193 C-216.809,-46.3538 -208.544,-69.1112 -189.409,-78.0494 C-170.275,-86.9876 -147.517,-78.7219 -138.579,-59.5874 Z " fill="#434345" fill-opacity="1.00" />				<path d="M-179.406,-54.9121 C-174.198,-49.5238 -174.344,-40.9335 -179.732,-35.7251 C-185.12,-30.5166 -193.711,-30.6624 -198.919,-36.0506 C-204.127,-41.4389 -203.982,-50.0292 -198.593,-55.2377 C-193.205,-60.4461 -184.615,-60.3003 -179.406,-54.9121 Z " fill="#ffffff" fill-opacity="1.00" />				<path d="M197.646,110.228 C251.996,203.442 21.4621,337.857 -32.8872,244.642 C-32.8872,244.642 49.6787,200.101 107.312,166.498 C164.945,132.894 197.646,110.228 197.646,110.228 Z " fill="#f0515f" fill-opacity="1.00" />			</g>			<path d="M-768.722,-890.713 C-776.883,-889.229 -785.646,-886.586 -795.012,-882.784 C-804.378,-878.982 -812.585,-875.041 -819.633,-870.96 C-827.608,-867.066 -832.384,-863.032 -833.961,-858.859 C-835.537,-854.686 -834.192,-848.983 -829.927,-841.749 C-821.21,-826.726 -811.102,-809.942 -799.603,-791.395 C-788.104,-772.848 -776.326,-754.209 -764.271,-735.476 C-752.216,-716.744 -740.253,-698.754 -728.383,-681.505 C-716.513,-664.257 -705.941,-649.512 -696.668,-637.271 C-692.217,-630.965 -687.951,-627.163 -683.871,-625.865 C-679.791,-624.567 -674.505,-624.938 -668.013,-626.978 C-661.893,-629.018 -655.958,-631.522 -650.208,-634.489 C-644.459,-637.457 -638.524,-641.073 -632.404,-645.339 C-627.025,-648.492 -623.826,-651.506 -622.806,-654.381 C-621.786,-657.255 -622.759,-661.104 -625.727,-665.926 C-634.073,-679.836 -642.882,-695.044 -652.156,-711.551 C-661.429,-728.058 -670.842,-745.445 -680.393,-763.714 C-689.945,-781.982 -699.496,-800.622 -709.048,-819.632 C-718.6,-838.643 -727.919,-857.514 -737.007,-876.246 C-740.346,-882.923 -744.333,-887.374 -748.97,-889.6 C-753.607,-891.826 -760.191,-892.197 -768.722,-890.713 Z M-650.487,-563.826 C-641.955,-554.553 -632.218,-550.565 -621.275,-551.863 C-610.333,-553.162 -600.596,-558.262 -592.064,-567.164 C-587.984,-571.245 -585.017,-575.603 -583.162,-580.24 C-581.307,-584.877 -580.194,-589.328 -579.823,-593.594 C-579.453,-597.859 -579.638,-601.94 -580.38,-605.834 C-581.122,-609.729 -582.049,-612.789 -583.162,-615.015 C-584.646,-617.983 -586.918,-620.904 -589.978,-623.778 C-593.038,-626.653 -596.794,-628.832 -601.245,-630.316 C-605.696,-631.8 -610.75,-632.217 -616.407,-631.568 C-622.064,-630.919 -628.045,-628.74 -634.351,-625.03 C-641.955,-620.765 -647.797,-615.942 -651.878,-610.564 C-655.958,-605.185 -658.508,-599.668 -659.528,-594.011 C-660.548,-588.354 -660.224,-582.929 -658.554,-577.736 C-656.885,-572.543 -654.196,-567.906 -650.487,-563.826 Z " fill="#2d2970" fill-opacity="1.00" />			<path d="M802.407,-907.328 C797.081,-914.024 790.408,-920.703 782.387,-927.365 C774.366,-934.028 766.783,-939.568 759.639,-943.987 C752.212,-949.34 746.217,-951.716 741.655,-951.115 C737.093,-950.515 732.563,-946.513 728.066,-939.11 C718.657,-923.864 708.323,-906.495 697.065,-887.003 C685.807,-867.51 674.601,-847.72 663.446,-827.631 C652.291,-807.543 641.765,-787.9 631.868,-768.703 C621.971,-749.506 613.718,-732.71 607.109,-718.314 C603.545,-711.194 602.167,-705.463 602.975,-701.121 C603.784,-696.779 606.697,-692.154 611.715,-687.247 C616.552,-682.677 621.721,-678.501 627.22,-674.72 C632.72,-670.939 638.9,-667.306 645.761,-663.82 C651.249,-660.467 655.548,-659.027 658.658,-659.501 C661.769,-659.974 664.793,-662.735 667.731,-667.783 C676.31,-682.149 685.843,-697.57 696.331,-714.045 C706.818,-730.519 718.039,-747.55 729.993,-765.136 C741.947,-782.722 754.238,-800.49 766.866,-818.437 C779.494,-836.385 792.109,-854.055 804.71,-871.445 C809.153,-877.734 811.257,-883.529 811.021,-888.829 C810.785,-894.128 807.913,-900.295 802.407,-907.328 Z M562.843,-640.537 C558.57,-628.262 559.69,-617.466 566.202,-608.151 C572.715,-598.835 582.097,-592.469 594.348,-589.051 C600.046,-587.33 605.455,-586.756 610.574,-587.329 C615.693,-587.903 620.282,-589.06 624.341,-590.802 C628.4,-592.543 632.019,-594.7 635.199,-597.273 C638.378,-599.845 640.708,-602.18 642.189,-604.276 C644.164,-607.071 645.712,-610.56 646.835,-614.743 C647.957,-618.926 648.108,-623.402 647.288,-628.172 C646.467,-632.942 644.384,-637.74 641.037,-642.567 C637.69,-647.393 632.794,-651.769 626.349,-655.694 C618.765,-660.528 611.534,-663.49 604.656,-664.578 C597.778,-665.667 591.518,-665.296 585.879,-663.467 C580.239,-661.638 575.465,-658.699 571.557,-654.651 C567.649,-650.602 564.745,-645.898 562.843,-640.537 Z " fill="#2d2970" fill-opacity="1.00" />			<path d="M-574.622,479.372 C-570.493,507.458 -565.872,534.703 -560.756,561.108 C-555.64,587.512 -550.305,610.829 -544.75,631.059 C-543.36,635.836 -542.038,639.77 -540.784,642.862 C-539.53,645.953 -538.064,648.555 -536.386,650.665 C-534.707,652.776 -532.747,654.466 -530.505,655.736 C-528.263,657.006 -525.6,658.207 -522.515,659.339 C-514.101,662.171 -504.283,664.727 -493.06,667.006 C-489.413,667.859 -486.466,668.218 -484.22,668.085 C-481.973,667.951 -480.147,667.465 -478.741,666.627 C-477.335,665.789 -476.138,664.459 -475.15,662.637 C-474.162,660.815 -472.961,658.362 -471.549,655.278 C-467.028,645.466 -461.026,633.201 -453.543,618.485 C-446.06,603.768 -437.872,588.141 -428.98,571.604 C-420.088,555.066 -410.914,538.249 -401.459,521.152 C-392.004,504.055 -383.044,488.22 -374.578,473.646 C-379.4,490.195 -383.872,507.307 -387.995,524.982 C-392.118,542.656 -395.888,559.559 -399.304,575.692 C-402.721,591.824 -405.712,606.554 -408.278,619.882 C-410.844,633.209 -412.701,644.082 -413.849,652.501 C-415.273,659.515 -414.939,665.131 -412.846,669.348 C-410.753,673.565 -406.482,677.228 -400.034,680.335 C-394.989,683.157 -389.101,685.561 -382.369,687.546 C-375.637,689.531 -369.045,691.235 -362.592,692.658 C-355.298,694.364 -350.384,694.097 -347.851,691.859 C-345.318,689.621 -343.061,685.978 -341.081,680.93 C-338.806,671.111 -335.682,658.768 -331.707,643.9 C-327.733,629.033 -323.263,612.763 -318.298,595.091 C-313.333,577.42 -308.085,558.906 -302.553,539.552 C-297.022,520.197 -291.491,501.123 -285.961,482.33 C-280.431,463.537 -274.974,445.586 -269.589,428.477 C-264.205,411.367 -259.387,396.222 -255.137,383.04 C-252.022,373.784 -251.509,366.557 -253.599,361.357 C-255.689,356.157 -260.799,351.58 -268.929,347.626 C-281.265,341.975 -293.813,337.025 -306.574,332.776 C-319.336,328.527 -331.467,324.842 -342.968,321.72 C-352.785,318.883 -360.853,317.736 -367.171,318.279 C-373.489,318.822 -379.182,321.262 -384.248,325.598 C-389.314,329.935 -394.245,336.237 -399.042,344.504 C-403.839,352.772 -409.485,363.353 -415.98,376.248 C-422.47,387.458 -429.173,399.37 -436.089,411.983 C-443.004,424.595 -449.709,437.209 -456.203,449.823 C-462.697,462.437 -468.98,474.771 -475.052,486.825 C-481.123,498.879 -486.42,509.952 -490.941,520.045 C-495.348,491.116 -498.79,468.366 -501.267,451.795 C-503.745,435.224 -505.602,422.445 -506.839,413.458 C-508.076,404.471 -508.9,398.222 -509.31,394.711 C-509.721,391.201 -509.923,388.182 -509.915,385.656 C-511.022,380.319 -512.061,375.543 -513.031,371.329 C-514.001,367.115 -515.604,363.25 -517.84,359.734 C-520.075,356.218 -523.154,352.981 -527.075,350.022 C-530.997,347.062 -536.323,344.309 -543.053,341.763 C-553.709,337.801 -564.297,334.401 -574.817,331.562 C-585.336,328.724 -598.172,326.159 -613.325,323.869 C-623.147,322.436 -630.377,322.906 -635.016,325.278 C-639.656,327.651 -643.253,333.606 -645.807,343.144 C-648.373,356.331 -651.015,371.553 -653.733,388.81 C-656.451,406.068 -659.172,424.378 -661.896,443.741 C-664.62,463.104 -667.135,482.748 -669.44,502.674 C-671.744,522.599 -673.837,541.824 -675.716,560.347 C-677.596,578.87 -679.05,596.061 -680.08,611.92 C-681.109,627.778 -681.64,641.182 -681.672,652.131 C-682.255,659.428 -681.289,665.046 -678.774,668.984 C-676.259,672.922 -671.498,676.585 -664.489,679.975 C-658.883,682.799 -652.784,685.273 -646.193,687.398 C-639.602,689.523 -633.08,691.297 -626.627,692.72 C-619.893,694.143 -615.261,694.087 -612.73,692.55 C-610.199,691.014 -608.364,687.72 -607.226,682.671 C-606.068,670.602 -604.413,656.851 -602.262,641.417 C-600.111,625.982 -597.605,609.426 -594.746,591.748 C-591.886,574.07 -588.744,555.691 -585.318,536.611 C-581.893,517.531 -578.328,498.451 -574.622,479.372 Z M-36.076,354.209 C-45.5986,346.601 -57.581,340.109 -72.0232,334.732 C-86.4653,329.355 -101.684,325.38 -117.678,322.806 C-130.025,320.805 -143.012,321.749 -156.639,325.639 C-170.266,329.529 -182.004,335.249 -191.852,342.8 C-206.488,355.39 -219.374,369.6 -230.509,385.429 C-241.645,401.257 -251.029,418.004 -258.662,435.668 C-266.294,453.332 -272.102,471.492 -276.088,490.15 C-280.073,508.807 -282.233,527.119 -282.567,545.085 C-282.901,563.051 -281.407,580.181 -278.086,596.474 C-274.766,612.766 -269.756,627.379 -263.056,640.313 C-258.868,648.186 -253.134,655.222 -245.853,661.419 C-238.572,667.617 -231.148,672.692 -223.579,676.645 C-214.329,681.445 -204.093,685.055 -192.87,687.474 C-181.648,689.893 -170.704,691.68 -160.04,692.835 C-144.043,694.567 -129.864,693.977 -117.503,691.066 C-105.142,688.154 -93.3335,682.364 -82.0783,673.694 C-65.4718,659.145 -51.4525,641.359 -40.0205,620.338 C-28.5884,599.316 -19.5388,576.954 -12.8714,553.251 C-6.204,529.549 -1.99265,505.698 -0.237322,481.7 C1.518,457.702 0.881887,435.452 -2.14567,414.949 C-4.35507,402.59 -7.9019,391.561 -12.7862,381.861 C-17.6704,372.161 -25.4337,362.944 -36.076,354.209 Z M-103.998,396.119 C-98.3884,397.82 -94.2648,403.658 -91.6272,413.632 C-88.9896,423.606 -87.6916,435.611 -87.7331,449.648 C-87.7737,463.404 -88.9404,478.21 -91.2331,494.065 C-93.5259,509.92 -96.5165,524.439 -100.205,537.623 C-104.463,553.612 -109.49,568.406 -115.286,582.005 C-121.081,595.604 -127.221,607.026 -133.705,616.271 C-140.189,625.516 -146.666,632.375 -153.137,636.848 C-159.607,641.321 -165.787,642.566 -171.676,640.583 C-178.128,638.599 -183.025,633.25 -186.368,624.538 C-189.711,615.825 -191.645,605.362 -192.171,593.148 C-192.696,580.934 -192.096,567.741 -190.369,553.569 C-188.643,539.397 -185.795,525.719 -181.826,512.536 C-177.856,499.073 -172.691,485.121 -166.332,470.682 C-159.973,456.243 -153.126,443.138 -145.792,431.369 C-138.458,419.6 -131.131,410.287 -123.812,403.43 C-116.492,396.574 -109.888,394.137 -103.998,396.119 Z M256.17,355.073 C246.648,347.464 234.665,340.972 220.223,335.595 C205.781,330.219 190.563,326.243 174.568,323.67 C162.222,321.668 149.235,322.612 135.607,326.502 C121.98,330.392 110.242,336.113 100.394,343.664 C85.7585,356.254 72.8728,370.463 61.7368,386.292 C50.6009,402.121 41.2169,418.867 33.5847,436.531 C25.9526,454.195 20.1438,472.356 16.1584,491.013 C12.1729,509.67 10.0133,527.982 9.67947,545.948 C9.34566,563.915 10.8391,581.044 14.1598,597.337 C17.4806,613.63 22.4907,628.243 29.1902,641.177 C33.378,649.05 39.1124,656.085 46.3933,662.283 C53.6742,668.48 61.0988,673.556 68.667,677.508 C77.9172,682.308 88.1535,685.918 99.3759,688.337 C110.598,690.757 121.542,692.544 132.206,693.698 C148.203,695.43 162.383,694.84 174.744,691.929 C187.105,689.018 198.913,683.227 210.168,674.558 C226.775,660.008 240.794,642.223 252.226,621.201 C263.658,600.179 272.708,577.817 279.375,554.115 C286.042,530.412 290.254,506.562 292.009,482.564 C293.764,458.566 293.128,436.315 290.101,415.812 C287.891,403.453 284.344,392.424 279.46,382.724 C274.576,373.024 266.813,363.807 256.17,355.073 Z M188.248,396.983 C193.858,398.684 197.982,404.521 200.619,414.495 C203.257,424.469 204.555,436.475 204.513,450.511 C204.473,464.268 203.306,479.073 201.013,494.928 C198.72,510.783 195.73,525.302 192.041,538.486 C187.783,554.476 182.756,569.27 176.961,582.868 C171.165,596.467 165.026,607.889 158.541,617.134 C152.057,626.38 145.58,633.239 139.11,637.711 C132.639,642.184 126.459,643.429 120.57,641.446 C114.119,639.462 109.222,634.114 105.878,625.401 C102.535,616.688 100.601,606.225 100.076,594.011 C99.5503,581.798 100.151,568.605 101.877,554.432 C103.603,540.26 106.451,526.583 110.42,513.4 C114.391,499.936 119.555,485.984 125.914,471.545 C132.274,457.106 139.12,444.002 146.454,432.232 C153.788,420.463 161.115,411.15 168.434,404.294 C175.754,397.437 182.359,395 188.248,396.983 Z M549.137,397.207 C557.562,396.109 562.761,394.369 564.733,391.989 C566.706,389.608 567.141,384.767 566.04,377.464 C564.952,365.389 560.637,353.024 553.095,340.369 C550.58,336.431 548.203,333.266 545.964,330.873 C543.725,328.48 541.415,326.648 539.032,325.378 C536.649,324.107 533.985,323.257 531.038,322.828 C528.092,322.398 524.513,322.177 520.302,322.164 C503.456,322.676 486.399,323.608 469.129,324.961 C451.86,326.313 434.94,328.018 418.371,330.075 C401.801,332.131 386.003,334.471 370.975,337.094 C355.948,339.716 342.394,342.694 330.312,346.027 C331.114,359.786 330.926,375.787 329.749,394.032 C328.572,412.276 326.761,431.431 324.316,451.497 C321.87,471.563 319.073,491.838 315.924,512.322 C312.776,532.807 309.771,552.099 306.91,570.198 C304.049,588.297 301.545,604.573 299.396,619.024 C297.248,633.476 296.022,644.632 295.718,652.492 C295.697,659.791 296.382,665.407 297.774,669.342 C299.166,673.276 303.366,676.938 310.375,680.328 C315.702,682.59 321.941,684.994 329.093,687.542 C336.244,690.09 343.047,691.865 349.501,692.866 C355.955,693.868 361.429,693.884 365.924,692.915 C370.418,691.945 372.814,688.935 373.109,683.882 C376.523,668.732 380.294,651.408 384.422,631.909 C388.55,612.41 393.313,591.86 398.711,570.259 C414.723,566.937 430.875,563.756 447.167,560.716 C463.459,557.676 479.609,554.917 495.619,552.437 C503.201,551.617 508.049,550.018 510.161,547.638 C512.274,545.257 512.217,540.836 509.99,534.372 C508.603,528.753 507.005,523.204 505.196,517.724 C503.388,512.244 500.807,506.692 497.455,501.068 C491.307,491.504 481.354,487.123 467.595,487.925 C458.891,488.18 450.398,488.646 442.114,489.324 C433.83,490.001 425.616,490.749 417.473,491.567 C422.29,476.421 426.193,461.975 429.181,448.227 C432.169,434.48 435.646,421.857 439.61,410.358 C459.551,407.61 478.578,405.28 496.691,403.368 C514.804,401.457 532.286,399.403 549.137,397.207 Z M700.106,325.222 C692.822,320.147 684.203,315.49 674.249,311.249 C664.296,307.009 655.111,303.753 646.696,301.482 C637.721,298.368 631.055,297.786 626.698,299.739 C622.341,301.691 619.027,307.015 616.755,315.711 C611.929,333.664 606.816,354.003 601.415,376.727 C596.014,399.451 590.752,422.456 585.63,445.742 C580.508,469.028 575.879,491.684 571.743,513.71 C567.607,535.735 564.393,554.886 562.099,571.162 C560.671,579.3 561.004,585.407 563.097,589.484 C565.191,593.56 569.461,597.293 575.908,600.681 C582.075,603.787 588.454,606.403 595.045,608.528 C601.636,610.653 608.86,612.429 616.716,613.856 C623.168,615.559 627.87,615.713 630.822,614.318 C633.774,612.923 635.961,609.28 637.382,603.389 C641.642,586.557 646.539,568.394 652.071,548.899 C657.603,529.404 663.699,509.139 670.358,488.103 C677.018,467.067 683.959,445.752 691.181,424.156 C698.404,402.56 705.696,381.246 713.057,360.212 C715.606,352.64 715.976,346.254 714.167,341.055 C712.357,335.856 707.67,330.578 700.106,325.222 Z M541.197,661.639 C540.596,675.113 544.916,685.513 554.159,692.839 C563.402,700.166 574.621,703.708 587.816,703.466 C593.993,703.485 599.54,702.448 604.459,700.357 C609.378,698.266 613.597,695.752 617.115,692.815 C620.633,689.877 623.59,686.657 625.987,683.155 C628.383,679.653 630.006,676.64 630.856,674.116 C631.989,670.75 632.492,666.822 632.365,662.329 C632.238,657.837 631.058,653.342 628.825,648.843 C626.593,644.345 623.096,640.194 618.334,636.39 C613.573,632.586 607.405,629.69 599.831,627.702 C590.855,625.149 582.786,624.353 575.625,625.315 C568.463,626.276 562.35,628.504 557.287,631.998 C552.223,635.493 548.35,639.833 545.668,645.018 C542.985,650.204 541.495,655.744 541.197,661.639 Z " fill="#2d2970" fill-opacity="1.00" />		</g>	</svg>