<?xml version="1.0" encoding="utf-8" ?>	<!-- Generator: Assembly 1.8 - http://assemblyapp.co -->	<svg version="1.1" xmlns="http://www.w3.org/2000/svg" xmlns:xlink="http://www.w3.org/1999/xlink" width="2048.00" height="2048.00" viewBox="0 0 2048.0 2048.0">		<rect x="0" y="0" width="2048.00" height="2048.00" fill="#00dffe" />		<g id="document" transform="matrix(1,0,0,1,1024.0,1024.0)">			<path d="M1551.02,1021.21 C1551.02,-1509.77 -1340.04,-1509.77 -1340.04,1021.21 L1551.02,1021.21 Z " fill="#1a7f0b" fill-opacity="1.00" />			<path d="M-488.67,-498.527 C-488.67,-560.007 -459.548,-627.418 -365.172,-629.575 C-263.245,-632.811 -237.899,-557.849 -237.899,-496.37 C-237.899,-434.891 -299.378,-384.736 -361.397,-384.736 C-422.876,-384.736 -488.67,-437.048 -488.67,-498.527 Z " fill="#f1ecef" fill-opacity="1.00" />			<path d="M-488.67,-500.094 C-488.67,-561.574 -459.548,-628.985 -365.172,-631.143 C-365.172,-534.609 -361.397,-466.119 -361.397,-386.304 C-422.876,-386.304 -488.67,-438.615 -488.67,-500.094 Z " fill="#d6e6ed" fill-opacity="1.00" />			<path d="M-435.819,-427.829 L-381.35,-427.829 L-381.35,-344.239 L-435.819,-344.239 L-435.819,-427.829 Z " fill="#d6e6ed" fill-opacity="1.00" />			<path d="M-450.919,-330.757 C-450.919,-350.171 -432.583,-365.271 -409.394,-365.271 C-386.204,-365.271 -366.789,-350.171 -366.789,-330.757 L-403.461,-330.757 L-408.854,-341.003 L-414.247,-330.757 L-450.919,-330.757 Z " fill="#434345" fill-opacity="1.00" />			<path d="M-339.825,-427.829 L-285.356,-427.829 L-285.356,-344.239 L-339.825,-344.239 L-339.825,-427.829 Z " fill="#f1ecef" fill-opacity="1.00" />			<path d="M-354.925,-330.757 C-354.925,-350.171 -336.589,-365.271 -313.399,-365.271 C-290.21,-365.271 -270.795,-350.171 -270.795,-330.757 L-307.467,-330.757 L-312.86,-341.003 L-318.253,-330.757 L-354.925,-330.757 Z " fill="#434345" fill-opacity="1.00" />			<path d="M-499.135,-480.41 C-508.842,-480.41 -514.235,-483.646 -516.392,-488.5 C-525.56,-489.039 -532.571,-491.735 -540.661,-499.286 C-542.278,-500.903 -542.818,-503.6 -541.2,-505.218 C-539.582,-506.836 -536.885,-507.375 -535.268,-505.757 C-529.335,-500.903 -524.482,-498.207 -519.089,-497.668 C-519.628,-505.218 -515.853,-512.768 -510.46,-516.004 C-506.685,-518.161 -502.91,-518.161 -499.135,-516.004 C-494.821,-513.307 -492.663,-507.914 -494.281,-503.061 C-495.899,-498.207 -499.674,-493.353 -506.146,-491.196 C-504.528,-490.657 -501.831,-490.118 -497.517,-490.118 C-491.585,-490.118 -486.731,-494.971 -485.113,-500.903 C-484.574,-503.061 -481.878,-504.678 -479.72,-503.6 C-477.563,-503.061 -475.945,-500.364 -477.024,-498.207 C-480.26,-487.96 -487.81,-481.489 -497.517,-480.95 C-498.056,-480.41 -498.596,-480.41 -499.135,-480.41 Z M-505.067,-507.914 C-505.607,-507.914 -505.607,-507.914 -506.146,-507.375 C-508.303,-505.757 -510.46,-501.443 -510.46,-496.589 C-506.146,-497.668 -503.449,-500.903 -502.371,-503.6 C-501.831,-505.757 -502.91,-506.836 -503.449,-507.375 C-503.989,-507.914 -504.528,-507.914 -505.067,-507.914 Z " fill="#beccd4" fill-opacity="1.00" />			<path d="M-555.609,-494.146 C-558.845,-497.382 -559.924,-502.235 -557.767,-506.01 C-561.542,-509.786 -561.542,-515.718 -557.767,-520.032 C-553.991,-523.807 -548.059,-524.346 -544.284,-521.111 C-540.509,-523.268 -535.656,-523.268 -531.88,-520.032 C-527.566,-516.257 -527.566,-509.786 -531.341,-505.471 C-533.498,-503.314 -535.656,-502.235 -538.352,-502.235 C-538.352,-499.539 -538.891,-496.842 -541.048,-494.685 C-544.824,-490.371 -551.295,-490.371 -555.609,-494.146 Z " fill="#434345" fill-opacity="1.00" />			<path d="M-180.15,-809.705 C-118.737,-767.739 -92.124,-654.124 -92.124,-654.124 C-92.124,-654.124 -206.763,-635.7 -269.2,-676.643 C-330.613,-718.609 -336.754,-818.917 -336.754,-818.917 C-336.754,-818.917 -242.587,-850.648 -180.15,-809.705 Z " fill="#d6e6ed" fill-opacity="1.00" />			<g>				<path d="M-130.147,-649.532 C-130.147,-655.173 -129.207,-660.361 -127.327,-665.097 C-125.446,-669.833 -122.835,-673.924 -119.492,-677.372 C-116.149,-680.819 -112.127,-683.518 -107.426,-685.468 C-102.726,-687.418 -97.5546,-688.393 -91.9135,-688.393 C-86.2725,-688.393 -81.1015,-687.418 -76.4007,-685.468 C-71.6998,-683.518 -67.6779,-680.819 -64.3351,-677.372 C-60.9922,-673.924 -58.3806,-669.833 -56.5003,-665.097 C-54.6199,-660.361 -53.6798,-655.173 -53.6798,-649.532 C-53.6798,-643.891 -54.6199,-638.685 -56.5003,-633.915 C-58.3806,-629.144 -60.9922,-625.035 -64.3351,-621.588 C-67.6779,-618.141 -71.6998,-615.459 -76.4007,-613.544 C-81.1015,-611.629 -86.2725,-610.671 -91.9135,-610.671 C-97.5546,-610.671 -102.726,-611.629 -107.426,-613.544 C-112.127,-615.459 -116.149,-618.141 -119.492,-621.588 C-122.835,-625.035 -125.446,-629.144 -127.327,-633.915 C-129.207,-638.685 -130.147,-643.891 -130.147,-649.532 Z M-123.253,-649.532 C-123.253,-644.936 -122.521,-640.653 -121.059,-636.683 C-119.596,-632.713 -117.507,-629.266 -114.791,-626.341 C-112.075,-623.416 -108.784,-621.118 -104.919,-619.446 C-101.054,-617.775 -96.7189,-616.939 -91.9135,-616.939 C-87.1082,-616.939 -82.773,-617.775 -78.9078,-619.446 C-75.0426,-621.118 -71.752,-623.416 -69.036,-626.341 C-66.3199,-629.266 -64.2306,-632.713 -62.7681,-636.683 C-61.3056,-640.653 -60.5744,-644.936 -60.5744,-649.532 C-60.5744,-654.128 -61.3056,-658.411 -62.7681,-662.381 C-64.2306,-666.351 -66.3199,-669.798 -69.036,-672.723 C-71.752,-675.648 -75.0426,-677.946 -78.9078,-679.618 C-82.773,-681.289 -87.1082,-682.125 -91.9135,-682.125 C-96.7189,-682.125 -101.054,-681.289 -104.919,-679.618 C-108.784,-677.946 -112.075,-675.648 -114.791,-672.723 C-117.507,-669.798 -119.596,-666.351 -121.059,-662.381 C-122.521,-658.411 -123.253,-654.128 -123.253,-649.532 Z " fill="#2a00c3" fill-opacity="1.00" />				<path d="M-91.9135,-678.471 L-88.5691,-681.816 C-79.3385,-672.585 -79.3385,-657.602 -88.5691,-648.371 L-91.9135,-651.716 C-84.5224,-659.107 -84.5224,-671.08 -91.9135,-678.471 Z " fill="#2a00c3" fill-opacity="1.00" />				<path d="M-91.8997,-677.927 C-95.6894,-677.927 -98.7572,-680.995 -98.7572,-684.785 C-98.7572,-688.575 -95.6894,-691.642 -91.8997,-691.642 C-88.11,-691.642 -85.0421,-688.575 -85.0421,-684.785 C-85.0421,-680.995 -88.11,-677.927 -91.8997,-677.927 Z " fill="#2a00c3" fill-opacity="1.00" />				<path d="M-92.0878,-651.451 C-91.3832,-652.558 -89.917,-652.883 -88.8104,-652.179 C-87.7038,-651.474 -87.3785,-650.008 -88.0831,-648.901 C-88.7877,-647.795 -90.254,-647.469 -91.3605,-648.174 C-92.4671,-648.879 -92.7925,-650.345 -92.0878,-651.451 Z " fill="#2a00c3" fill-opacity="1.00" />				<path d="M-97.8522,-610.496 C-95.9445,-607.192 -91.7889,-606.078 -88.4846,-607.986 C-85.1803,-609.894 -84.0668,-614.049 -85.9746,-617.353 C-87.444,-619.899 -90.3148,-621.158 -93.0819,-620.692 L-108.37,-647.171 C-109.014,-648.288 -110.493,-648.684 -111.61,-648.039 C-112.726,-647.395 -113.122,-645.916 -112.478,-644.799 L-97.19,-618.32 C-99.0032,-616.202 -99.3217,-613.041 -97.8522,-610.496 Z " fill="#2a00c3" fill-opacity="1.00" />			</g>			<path d="M-173.268,-778.619 C-123.808,-744.821 -102.375,-653.32 -102.375,-653.32 C-102.375,-653.32 -194.701,-638.482 -244.985,-671.455 C-294.445,-705.253 -299.391,-786.038 -299.391,-786.038 C-299.391,-786.038 -223.552,-811.592 -173.268,-778.619 Z " fill="#d6e6ed" fill-opacity="1.00" />			<path d="M-134.266,-685.62 C-163.446,-682.253 -211.706,-671.03 -253.232,-699.088 C-295.881,-727.146 -302.615,-772.039 -304.859,-795.608 C-282.413,-801.22 -247.621,-820.299 -204.972,-791.119 C-163.446,-763.061 -142.122,-713.678 -134.266,-685.62 Z " fill="#f37772" fill-opacity="1.00" />			<path d="M-374.847,-809.325 C-254.373,-809.869 -139.216,-936.517 -139.216,-936.517 C-109.811,-848.572 -217.462,-728.287 -306.57,-705.959 C-386.048,-736.943 -383.21,-792.561 -374.847,-809.325 Z " fill="#434345" fill-opacity="1.00" />			<path d="M-545.879,-809.705 C-607.292,-767.739 -633.905,-654.124 -633.905,-654.124 C-633.905,-654.124 -519.266,-635.7 -456.829,-676.643 C-395.416,-718.609 -389.274,-818.917 -389.274,-818.917 C-389.274,-818.917 -483.442,-850.648 -545.879,-809.705 Z " fill="#d6e6ed" fill-opacity="1.00" />			<path d="M-583.855,-691.013 C-557.38,-687.958 -513.594,-677.775 -475.918,-703.232 C-437.224,-728.689 -431.114,-769.42 -429.078,-790.803 C-449.443,-795.895 -481.01,-813.205 -519.704,-786.73 C-557.38,-761.273 -576.727,-716.47 -583.855,-691.013 Z " fill="#f37772" fill-opacity="1.00" />			<path d="M-345.381,-798.655 C-471.326,-809.607 -579.019,-951.98 -579.019,-951.98 C-617.35,-862.541 -515.133,-727.469 -423.868,-696.439 C-339.905,-721.993 -338.08,-780.402 -345.381,-798.655 Z " fill="#434345" fill-opacity="1.00" />			<path d="M-514.016,-605.257 C-514.016,-630.603 -490.827,-694.24 -490.827,-709.34 C-490.827,-782.145 -432.044,-840.928 -359.239,-840.928 C-286.435,-840.928 -227.652,-782.145 -227.652,-709.34 C-227.652,-692.083 -208.777,-629.525 -208.777,-605.257 C-208.237,-540.002 -276.728,-487.151 -361.397,-487.151 C-445.526,-487.151 -514.016,-540.002 -514.016,-605.257 Z " fill="#f1ecef" fill-opacity="1.00" />			<path d="M-514.016,-605.257 C-514.016,-630.603 -490.827,-694.24 -490.827,-709.34 C-490.827,-782.145 -432.044,-840.928 -359.239,-840.928 C-359.239,-793.47 -361.397,-544.856 -361.397,-487.691 C-445.526,-487.151 -514.016,-540.002 -514.016,-605.257 Z " fill="#d6e6ed" fill-opacity="1.00" />			<path d="M-401.304,-832.299 C-395.911,-846.86 -387.822,-861.96 -360.857,-870.049 C-364.093,-861.421 -364.632,-852.253 -363.554,-843.624 C-353.846,-853.871 -343.6,-860.342 -333.893,-862.499 C-337.128,-856.028 -337.668,-847.938 -335.51,-838.77 C-353.307,-837.152 -401.304,-832.299 -401.304,-832.299 Z " fill="#d6e6ed" fill-opacity="1.00" />			<path d="M-247.066,-539.463 C-247.066,-500.445 -297.529,-468.816 -359.779,-468.816 C-422.028,-468.816 -472.491,-500.445 -472.491,-539.463 C-472.491,-578.48 -422.028,-610.11 -359.779,-610.11 C-297.529,-610.11 -247.066,-578.48 -247.066,-539.463 Z " fill="#d6e6ed" fill-opacity="1.00" />			<path d="M-235.741,-561.035 C-235.741,-518.145 -291.275,-483.376 -359.779,-483.376 C-428.283,-483.376 -483.816,-518.145 -483.816,-561.035 C-483.816,-603.924 -428.283,-638.693 -359.779,-638.693 C-291.275,-638.693 -235.741,-603.924 -235.741,-561.035 Z " fill="#f79f9e" fill-opacity="1.00" />			<path d="M-414.247,-570.742 C-414.247,-561.509 -421.732,-554.024 -430.965,-554.024 C-440.198,-554.024 -447.683,-561.509 -447.683,-570.742 C-447.683,-579.975 -440.198,-587.46 -430.965,-587.46 C-421.732,-587.46 -414.247,-579.975 -414.247,-570.742 Z " fill="#f0515f" fill-opacity="1.00" />			<path d="M-272.953,-573.978 C-272.953,-564.744 -280.437,-557.26 -289.671,-557.26 C-298.904,-557.26 -306.389,-564.744 -306.389,-573.978 C-306.389,-583.211 -298.904,-590.696 -289.671,-590.696 C-280.437,-590.696 -272.953,-583.211 -272.953,-573.978 Z " fill="#f0515f" fill-opacity="1.00" />			<path d="M-276.728,-697.476 C-276.728,-688.243 -284.212,-680.758 -293.446,-680.758 C-302.679,-680.758 -310.164,-688.243 -310.164,-697.476 C-310.164,-706.709 -302.679,-714.194 -293.446,-714.194 C-284.212,-714.194 -276.728,-706.709 -276.728,-697.476 Z " fill="#434345" fill-opacity="1.00" />			<g>				<path d="M-397.692,-652.957 C-425.938,-652.957 -449.02,-652.957 -449.02,-652.957 C-449.02,-652.957 -469.956,-682.318 -476.657,-691.716 C-474.018,-723.946 -384.221,-765.193 -384.221,-765.193 C-384.221,-765.193 -376.512,-689.642 -397.692,-652.957 Z " fill="#000000" fill-opacity="1.00" />				<path d="M-411.838,-642.401 L-459.165,-647.056 L-486.86,-685.715 C-486.86,-685.715 -500.126,-649.306 -501.804,-624.743 C-503.483,-600.179 -493.573,-587.46 -493.573,-587.46 L-493.493,-587.514 C-493.493,-587.514 -479.578,-606.668 -459.165,-620.389 C-438.751,-634.111 -411.838,-642.401 -411.838,-642.401 Z " fill="#000000" fill-opacity="1.00" />			</g>			<g>				<path d="M-261.689,-432.753 C-271.609,-439.105 -282.027,-445.827 -282.027,-445.827 L-282.027,-477.004 L-237.973,-498.03 C-237.973,-498.03 -236.071,-457.449 -261.689,-432.753 Z " fill="#000000" fill-opacity="1.00" />				<path d="M-269.039,-424.309 L-265.504,-428.085 L-288.24,-442.239 L-288.24,-474.876 L-339.825,-421.057 L-269.039,-424.309 Z " fill="#000000" fill-opacity="1.00" />			</g>			<g>				<path d="M-410.564,-444.712 L-416.899,-421.471 L-448.618,-419.042 L-454.122,-424.24 L-457.755,-468.816 L-410.564,-444.712 Z " fill="#000000" fill-opacity="1.00" />				<path d="M-407.034,-443.166 L-413.682,-418.108 L-445.085,-416.163 L-437.425,-410.516 L-392.312,-406.45 L-407.034,-443.166 Z " fill="#000000" fill-opacity="1.00" />			</g>			<path d="M-407.236,-697.476 C-407.236,-684.073 -418.102,-673.207 -431.505,-673.207 C-444.908,-673.207 -455.773,-684.073 -455.773,-697.476 C-455.773,-710.879 -444.908,-721.744 -431.505,-721.744 C-418.102,-721.744 -407.236,-710.879 -407.236,-697.476 Z " fill="#f1ecef" fill-opacity="1.00" />			<path d="M-293.782,-703.189 C-292.716,-700.092 -294.362,-696.716 -297.46,-695.65 C-300.558,-694.583 -303.934,-696.23 -305,-699.328 C-306.066,-702.425 -304.42,-705.801 -301.322,-706.867 C-298.224,-707.934 -294.849,-706.287 -293.782,-703.189 Z " fill="#ffffff" fill-opacity="1.00" />			<path d="M-414.247,-697.476 C-414.247,-688.243 -421.732,-680.758 -430.965,-680.758 C-440.198,-680.758 -447.683,-688.243 -447.683,-697.476 C-447.683,-706.709 -440.198,-714.194 -430.965,-714.194 C-421.732,-714.194 -414.247,-706.709 -414.247,-697.476 Z " fill="#434345" fill-opacity="1.00" />			<path d="M-431.284,-703.178 C-430.218,-700.08 -431.865,-696.704 -434.963,-695.638 C-438.061,-694.572 -441.437,-696.219 -442.503,-699.317 C-443.569,-702.415 -441.922,-705.791 -438.824,-706.857 C-435.726,-707.923 -432.35,-706.276 -431.284,-703.178 Z " fill="#ffffff" fill-opacity="1.00" />			<path d="M-298.814,-519.602 C-298.814,-489.485 -420.743,-489.485 -420.743,-519.602 C-420.743,-519.602 -387.134,-513.522 -356.651,-513.522 C-326.169,-513.522 -298.814,-519.602 -298.814,-519.602 Z " fill="#f0515f" fill-opacity="1.00" />			<path d="M6.47955,-670.435 C6.47955,-715.279 27.7214,-764.45 96.5609,-766.024 C170.908,-768.384 189.396,-713.706 189.396,-668.862 C189.396,-624.018 144.552,-587.435 99.3145,-587.435 C54.4705,-587.435 6.47955,-625.591 6.47955,-670.435 Z " fill="#f1ecef" fill-opacity="1.00" />			<path d="M6.47955,-671.578 C6.47955,-716.422 27.7214,-765.593 96.5609,-767.167 C96.5609,-696.754 99.3145,-646.796 99.3145,-588.578 C54.4705,-588.578 6.47955,-626.734 6.47955,-671.578 Z " fill="#d6e6ed" fill-opacity="1.00" />			<path d="M45.0297,-618.867 L84.7599,-618.867 L84.7599,-557.895 L45.0297,-557.895 L45.0297,-618.867 Z " fill="#d6e6ed" fill-opacity="1.00" />			<path d="M34.0153,-548.061 C34.0153,-562.222 47.3899,-573.236 64.3047,-573.236 C81.2195,-573.236 95.3808,-562.222 95.3808,-548.061 L68.6318,-548.061 L64.6981,-555.535 L60.7644,-548.061 L34.0153,-548.061 Z " fill="#434345" fill-opacity="1.00" />			<path d="M115.049,-618.867 L154.779,-618.867 L154.779,-557.895 L115.049,-557.895 L115.049,-618.867 Z " fill="#f1ecef" fill-opacity="1.00" />			<path d="M104.035,-548.061 C104.035,-562.222 117.409,-573.236 134.324,-573.236 C151.239,-573.236 165.4,-562.222 165.4,-548.061 L138.651,-548.061 L134.718,-555.535 L130.784,-548.061 L104.035,-548.061 Z " fill="#434345" fill-opacity="1.00" />			<path d="M-1.15404,-657.221 C-8.23467,-657.221 -12.1684,-659.581 -13.7418,-663.121 C-20.4291,-663.514 -25.5429,-665.481 -31.4434,-670.988 C-32.6235,-672.169 -33.0169,-674.135 -31.8368,-675.315 C-30.6567,-676.496 -28.6898,-676.889 -27.5097,-675.709 C-23.1827,-672.169 -19.6423,-670.202 -15.7087,-669.808 C-16.102,-675.315 -13.3485,-680.823 -9.41478,-683.183 C-6.66119,-684.756 -3.90761,-684.756 -1.15404,-683.183 C1.99291,-681.216 3.56638,-677.282 2.38627,-673.742 C1.20618,-670.202 -1.54741,-666.661 -6.26783,-665.088 C-5.08772,-664.695 -3.12088,-664.301 0.0260705,-664.301 C4.35312,-664.301 7.89344,-667.841 9.07355,-672.169 C9.46691,-673.742 11.4338,-674.922 13.0072,-674.135 C14.5807,-673.742 15.7608,-671.775 14.9741,-670.202 C12.6139,-662.728 7.1067,-658.007 0.0260705,-657.614 C-0.367302,-657.221 -0.760674,-657.221 -1.15404,-657.221 Z M-5.48109,-677.282 C-5.87446,-677.282 -5.87446,-677.282 -6.26783,-676.889 C-7.8413,-675.709 -9.41478,-672.562 -9.41478,-669.022 C-6.26783,-669.808 -4.30099,-672.168 -3.51425,-674.135 C-3.12088,-675.709 -3.90761,-676.496 -4.30099,-676.889 C-4.69436,-677.282 -5.08772,-677.282 -5.48109,-677.282 Z " fill="#beccd4" fill-opacity="1.00" />			<path d="M-42.3473,-667.24 C-44.7075,-669.6 -45.4943,-673.14 -43.9208,-675.894 C-46.6744,-678.647 -46.6744,-682.974 -43.9208,-686.121 C-41.1672,-688.875 -36.8401,-689.268 -34.0866,-686.908 C-31.333,-688.481 -27.7927,-688.481 -25.0391,-686.121 C-21.8922,-683.368 -21.8922,-678.647 -24.6457,-675.5 C-26.2192,-673.927 -27.7927,-673.14 -29.7595,-673.14 C-29.7595,-671.173 -30.1529,-669.206 -31.7264,-667.633 C-34.4799,-664.486 -39.2004,-664.486 -42.3473,-667.24 Z " fill="#434345" fill-opacity="1.00" />			<path d="M231.518,-897.413 C276.314,-866.803 295.726,-783.93 295.726,-783.93 C295.726,-783.93 212.107,-770.491 166.564,-800.355 C121.768,-830.966 117.289,-904.133 117.289,-904.133 C117.289,-904.133 185.976,-927.277 231.518,-897.413 Z " fill="#d6e6ed" fill-opacity="1.00" />			<g>				<path d="M267.991,-780.58 C267.991,-784.695 268.677,-788.48 270.049,-791.934 C271.42,-795.388 273.325,-798.373 275.763,-800.887 C278.202,-803.402 281.135,-805.37 284.564,-806.792 C287.993,-808.215 291.765,-808.926 295.879,-808.926 C299.994,-808.926 303.766,-808.215 307.195,-806.792 C310.624,-805.37 313.557,-803.402 315.996,-800.887 C318.434,-798.373 320.339,-795.388 321.71,-791.934 C323.082,-788.48 323.768,-784.695 323.768,-780.58 C323.768,-776.466 323.082,-772.669 321.71,-769.189 C320.339,-765.709 318.434,-762.712 315.996,-760.198 C313.557,-757.683 310.624,-755.727 307.195,-754.33 C303.766,-752.933 299.994,-752.235 295.879,-752.235 C291.765,-752.235 287.993,-752.933 284.564,-754.33 C281.135,-755.727 278.202,-757.683 275.763,-760.198 C273.325,-762.712 271.42,-765.709 270.049,-769.189 C268.677,-772.669 267.991,-776.466 267.991,-780.58 Z M273.02,-780.58 C273.02,-777.228 273.554,-774.104 274.62,-771.208 C275.687,-768.313 277.211,-765.798 279.192,-763.665 C281.173,-761.531 283.574,-759.855 286.393,-758.636 C289.212,-757.416 292.374,-756.807 295.879,-756.807 C299.385,-756.807 302.547,-757.416 305.366,-758.636 C308.185,-759.855 310.586,-761.531 312.567,-763.665 C314.548,-765.798 316.072,-768.313 317.139,-771.208 C318.205,-774.104 318.739,-777.228 318.739,-780.58 C318.739,-783.933 318.205,-787.057 317.139,-789.953 C316.072,-792.848 314.548,-795.363 312.567,-797.496 C310.586,-799.63 308.185,-801.306 305.366,-802.525 C302.547,-803.745 299.385,-804.354 295.879,-804.354 C292.374,-804.354 289.212,-803.745 286.393,-802.525 C283.574,-801.306 281.173,-799.63 279.192,-797.496 C277.211,-795.363 275.687,-792.848 274.62,-789.953 C273.554,-787.057 273.02,-783.933 273.02,-780.58 Z " fill="#2a00c3" fill-opacity="1.00" />				<path d="M295.879,-801.689 L298.319,-804.129 C305.052,-797.396 305.052,-786.467 298.319,-779.734 L295.879,-782.173 C301.271,-787.564 301.271,-796.298 295.879,-801.689 Z " fill="#2a00c3" fill-opacity="1.00" />				<path d="M295.89,-801.292 C293.125,-801.292 290.888,-803.53 290.888,-806.294 C290.888,-809.059 293.125,-811.296 295.89,-811.296 C298.654,-811.296 300.892,-809.059 300.892,-806.294 C300.892,-803.53 298.654,-801.292 295.89,-801.292 Z " fill="#2a00c3" fill-opacity="1.00" />				<path d="M295.752,-781.98 C296.266,-782.788 297.336,-783.025 298.143,-782.511 C298.95,-781.997 299.187,-780.927 298.673,-780.12 C298.16,-779.313 297.09,-779.076 296.283,-779.59 C295.476,-780.104 295.238,-781.173 295.752,-781.98 Z " fill="#2a00c3" fill-opacity="1.00" />				<path d="M291.548,-752.107 C292.939,-749.697 295.97,-748.884 298.381,-750.276 C300.791,-751.668 301.603,-754.699 300.211,-757.109 C299.14,-758.965 297.046,-759.884 295.027,-759.544 L283.876,-778.858 C283.406,-779.673 282.327,-779.962 281.513,-779.492 C280.699,-779.022 280.41,-777.943 280.88,-777.128 L292.031,-757.814 C290.708,-756.269 290.476,-753.963 291.548,-752.107 Z " fill="#2a00c3" fill-opacity="1.00" />			</g>			<path d="M236.538,-874.738 C272.615,-850.086 288.249,-783.343 288.249,-783.343 C288.249,-783.343 220.905,-772.52 184.227,-796.572 C148.15,-821.224 144.542,-880.15 144.542,-880.15 C144.542,-880.15 199.86,-898.79 236.538,-874.738 Z " fill="#d6e6ed" fill-opacity="1.00" />			<path d="M264.987,-806.904 C243.702,-804.448 208.501,-796.261 178.211,-816.727 C147.103,-837.194 142.191,-869.939 140.554,-887.131 C156.926,-891.224 182.304,-905.141 213.413,-883.856 C243.702,-863.39 259.257,-827.37 264.987,-806.904 Z " fill="#f37772" fill-opacity="1.00" />			<path d="M89.5035,-897.136 C177.379,-897.533 261.377,-989.912 261.377,-989.912 C282.825,-925.763 204.302,-838.025 139.306,-821.739 C81.3335,-844.34 83.4035,-884.908 89.5035,-897.136 Z " fill="#434345" fill-opacity="1.00" />			<path d="M-35.2497,-897.413 C-80.0456,-866.803 -99.4572,-783.93 -99.4572,-783.93 C-99.4572,-783.93 -15.8381,-770.491 29.7044,-800.355 C74.5004,-830.966 78.98,-904.133 78.98,-904.133 C78.98,-904.133 10.2929,-927.277 -35.2497,-897.413 Z " fill="#d6e6ed" fill-opacity="1.00" />			<path d="M-62.95,-810.837 C-43.6387,-808.609 -11.7008,-801.182 15.7806,-819.75 C44.0048,-838.319 48.4613,-868.028 49.9468,-883.626 C35.0919,-887.34 12.0669,-899.966 -16.1572,-880.655 C-43.6387,-862.086 -57.7508,-829.406 -62.95,-810.837 Z " fill="#f37772" fill-opacity="1.00" />			<path d="M110.997,-889.353 C19.1302,-897.342 -59.4223,-1001.19 -59.4223,-1001.19 C-87.3817,-935.952 -12.8234,-837.429 53.7466,-814.795 C114.991,-833.435 116.322,-876.039 110.997,-889.353 Z " fill="#434345" fill-opacity="1.00" />			<path d="M-12.0088,-748.285 C-12.0088,-766.774 4.90608,-813.191 4.90608,-824.205 C4.90608,-877.31 47.7832,-920.187 100.888,-920.187 C153.993,-920.187 196.87,-877.31 196.87,-824.205 C196.87,-811.618 210.638,-765.987 210.638,-748.285 C211.031,-700.688 161.073,-662.138 99.3145,-662.138 C37.949,-662.138 -12.0088,-700.688 -12.0088,-748.285 Z " fill="#f1ecef" fill-opacity="1.00" />			<path d="M-12.0088,-748.285 C-12.0088,-766.774 4.90608,-813.191 4.90608,-824.205 C4.90608,-877.31 47.7832,-920.187 100.888,-920.187 C100.888,-885.571 99.3145,-704.228 99.3145,-662.531 C37.949,-662.138 -12.0088,-700.688 -12.0088,-748.285 Z " fill="#d6e6ed" fill-opacity="1.00" />			<path d="M70.2052,-913.893 C74.1389,-924.514 80.0394,-935.529 99.7079,-941.429 C97.3477,-935.135 96.9543,-928.448 97.741,-922.154 C104.822,-929.628 112.296,-934.349 119.376,-935.922 C117.016,-931.202 116.623,-925.301 118.196,-918.614 C105.215,-917.434 70.2052,-913.893 70.2052,-913.893 Z " fill="#d6e6ed" fill-opacity="1.00" />			<path d="M182.709,-700.294 C182.709,-671.834 145.9,-648.763 100.495,-648.763 C55.0891,-648.763 18.2806,-671.834 18.2806,-700.294 C18.2806,-728.754 55.0891,-751.826 100.495,-751.826 C145.9,-751.826 182.709,-728.754 182.709,-700.294 Z " fill="#d6e6ed" fill-opacity="1.00" />			<path d="M190.969,-716.029 C190.969,-684.745 150.462,-659.384 100.495,-659.384 C50.5268,-659.384 10.0199,-684.745 10.0199,-716.029 C10.0199,-747.313 50.5268,-772.674 100.495,-772.674 C150.462,-772.674 190.969,-747.313 190.969,-716.029 Z " fill="#f79f9e" fill-opacity="1.00" />			<path d="M60.7644,-723.11 C60.7644,-716.375 55.3048,-710.915 48.57,-710.915 C41.8352,-710.915 36.3756,-716.375 36.3756,-723.11 C36.3756,-729.844 41.8352,-735.304 48.57,-735.304 C55.3048,-735.304 60.7644,-729.844 60.7644,-723.11 Z " fill="#f0515f" fill-opacity="1.00" />			<path d="M163.827,-725.47 C163.827,-718.735 158.367,-713.275 151.632,-713.275 C144.898,-713.275 139.438,-718.735 139.438,-725.47 C139.438,-732.205 144.898,-737.664 151.632,-737.664 C158.367,-737.664 163.827,-732.205 163.827,-725.47 Z " fill="#f0515f" fill-opacity="1.00" />			<path d="M161.073,-815.551 C161.073,-808.816 155.614,-803.357 148.879,-803.357 C142.144,-803.357 136.684,-808.816 136.684,-815.551 C136.684,-822.286 142.144,-827.746 148.879,-827.746 C155.614,-827.746 161.073,-822.286 161.073,-815.551 Z " fill="#434345" fill-opacity="1.00" />			<g>				<path d="M72.8403,-783.079 C52.2371,-783.079 35.4008,-783.079 35.4008,-783.079 C35.4008,-783.079 20.1298,-804.495 15.2418,-811.35 C17.1668,-834.859 82.6661,-864.945 82.6661,-864.945 C82.6661,-864.945 88.2893,-809.838 72.8403,-783.079 Z " fill="#000000" fill-opacity="1.00" />				<path d="M62.5216,-775.379 L28.0008,-778.775 L7.79974,-806.973 C7.79974,-806.973 -1.87693,-780.416 -3.1011,-762.499 C-4.32527,-744.581 2.90307,-735.304 2.90307,-735.304 L2.96129,-735.343 C2.96129,-735.343 13.1108,-749.314 28.0008,-759.323 C42.8909,-769.332 62.5216,-775.379 62.5216,-775.379 Z " fill="#000000" fill-opacity="1.00" />			</g>			<g>				<path d="M172.043,-622.459 C164.807,-627.092 157.208,-631.995 157.208,-631.995 L157.208,-654.736 L189.341,-670.073 C189.341,-670.073 190.729,-640.472 172.043,-622.459 Z " fill="#000000" fill-opacity="1.00" />				<path d="M166.682,-616.299 L169.26,-619.054 L152.676,-629.378 L152.676,-653.184 L115.049,-613.927 L166.682,-616.299 Z " fill="#000000" fill-opacity="1.00" />			</g>			<g>				<path d="M63.451,-631.181 L58.8303,-614.229 L35.6936,-612.458 L31.6794,-616.249 L29.0294,-648.763 L63.451,-631.181 Z " fill="#000000" fill-opacity="1.00" />				<path d="M66.0258,-630.054 L61.1764,-611.776 L38.2705,-610.357 L43.8579,-606.238 L76.7646,-603.273 L66.0258,-630.054 Z " fill="#000000" fill-opacity="1.00" />			</g>			<path d="M65.8782,-815.551 C65.8782,-805.775 57.9529,-797.85 48.1766,-797.85 C38.4003,-797.85 30.475,-805.775 30.475,-815.551 C30.475,-825.328 38.4003,-833.253 48.1766,-833.253 C57.9529,-833.253 65.8782,-825.328 65.8782,-815.551 Z " fill="#f1ecef" fill-opacity="1.00" />			<path d="M148.633,-819.719 C149.411,-817.459 148.21,-814.997 145.951,-814.219 C143.691,-813.441 141.229,-814.643 140.451,-816.902 C139.673,-819.162 140.874,-821.624 143.134,-822.402 C145.393,-823.18 147.856,-821.979 148.633,-819.719 Z " fill="#ffffff" fill-opacity="1.00" />			<path d="M60.7644,-815.551 C60.7644,-808.816 55.3048,-803.357 48.57,-803.357 C41.8352,-803.357 36.3756,-808.816 36.3756,-815.551 C36.3756,-822.286 41.8352,-827.746 48.57,-827.746 C55.3048,-827.746 60.7644,-822.286 60.7644,-815.551 Z " fill="#434345" fill-opacity="1.00" />			<path d="M48.3373,-819.711 C49.1149,-817.451 47.9134,-814.989 45.6537,-814.211 C43.3939,-813.433 40.9316,-814.635 40.154,-816.895 C39.3764,-819.154 40.5779,-821.617 42.8376,-822.394 C45.0974,-823.172 47.5597,-821.97 48.3373,-819.711 Z " fill="#ffffff" fill-opacity="1.00" />			<path d="M144.963,-685.807 C144.963,-663.84 56.026,-663.84 56.0259,-685.807 C56.0259,-685.807 80.5414,-681.373 102.776,-681.373 C125.01,-681.373 144.963,-685.807 144.963,-685.807 Z " fill="#f0515f" fill-opacity="1.00" />			<path d="M361.438,-130.606 C361.438,-216.751 402.244,-311.209 534.485,-314.232 C677.306,-318.766 712.822,-213.729 712.822,-127.583 C712.822,-41.4374 626.676,28.8393 539.775,28.8393 C453.629,28.8393 361.438,-44.4601 361.438,-130.606 Z " fill="#f1ecef" fill-opacity="1.00" />			<path d="M361.438,-132.802 C361.438,-218.948 402.244,-313.405 534.485,-316.428 C534.485,-181.164 539.775,-85.195 539.775,26.6433 C453.629,26.6432 361.438,-46.6562 361.438,-132.802 Z " fill="#d6e6ed" fill-opacity="1.00" />			<path d="M435.493,-31.5429 L511.815,-31.5429 L511.815,85.585 L435.493,85.585 L435.493,-31.5429 Z " fill="#d6e6ed" fill-opacity="1.00" />			<path d="M414.335,104.477 C414.335,77.2727 440.027,56.1141 472.521,56.1141 C505.014,56.1141 532.218,77.2727 532.218,104.477 L480.833,104.477 L473.276,90.119 L465.72,104.477 L414.335,104.477 Z " fill="#434345" fill-opacity="1.00" />			<path d="M570.001,-31.5429 L646.323,-31.5429 L646.323,85.585 L570.001,85.585 L570.001,-31.5429 Z " fill="#f1ecef" fill-opacity="1.00" />			<path d="M548.843,104.477 C548.843,77.2727 574.535,56.1141 607.029,56.1141 C639.522,56.1141 666.726,77.2727 666.726,104.477 L615.341,104.477 L607.784,90.119 L600.228,104.477 L548.843,104.477 Z " fill="#434345" fill-opacity="1.00" />			<path d="M346.774,-105.22 C333.172,-105.22 325.615,-109.754 322.593,-116.555 C309.746,-117.311 299.923,-121.089 288.588,-131.668 C286.321,-133.935 285.565,-137.714 287.832,-139.981 C290.099,-142.248 293.877,-143.003 296.144,-140.736 C304.457,-133.935 311.258,-130.157 318.814,-129.401 C318.059,-139.981 323.348,-150.56 330.905,-155.094 C336.195,-158.117 341.484,-158.117 346.774,-155.094 C352.819,-151.316 355.842,-143.759 353.575,-136.958 C351.308,-130.157 346.018,-123.356 336.95,-120.333 C339.217,-119.578 342.996,-118.822 349.041,-118.822 C357.353,-118.822 364.154,-125.623 366.421,-133.935 C367.177,-136.958 370.955,-139.225 373.978,-137.714 C377,-136.958 379.267,-133.18 377.756,-130.157 C373.222,-115.799 362.643,-106.731 349.041,-105.976 C348.285,-105.22 347.53,-105.22 346.774,-105.22 Z M338.462,-143.759 C337.706,-143.759 337.706,-143.759 336.95,-143.003 C333.928,-140.736 330.905,-134.691 330.905,-127.89 C336.95,-129.401 340.729,-133.935 342.24,-137.714 C342.996,-140.736 341.484,-142.248 340.729,-143.003 C339.973,-143.759 339.217,-143.759 338.462,-143.759 Z " fill="#beccd4" fill-opacity="1.00" />			<path d="M267.641,-124.467 C263.107,-129.001 261.596,-135.802 264.619,-141.091 C259.329,-146.381 259.329,-154.693 264.619,-160.739 C269.908,-166.028 278.221,-166.784 283.51,-162.25 C288.8,-165.273 295.601,-165.273 300.89,-160.739 C306.936,-155.449 306.936,-146.381 301.646,-140.336 C298.623,-137.313 295.601,-135.802 291.823,-135.802 C291.823,-132.023 291.067,-128.245 288.044,-125.222 C282.755,-119.177 273.687,-119.177 267.641,-124.467 Z " fill="#434345" fill-opacity="1.00" />			<path d="M793.74,-566.632 C879.793,-507.829 917.083,-348.63 917.083,-348.63 C917.083,-348.63 756.45,-322.814 668.962,-380.183 C582.909,-438.986 574.304,-579.54 574.304,-579.54 C574.304,-579.54 706.252,-624.001 793.74,-566.632 Z " fill="#d6e6ed" fill-opacity="1.00" />			<g>				<path d="M863.804,-342.196 C863.804,-350.1 865.121,-357.37 867.756,-364.006 C870.391,-370.641 874.05,-376.374 878.734,-381.205 C883.418,-386.035 889.054,-389.817 895.641,-392.549 C902.228,-395.281 909.473,-396.647 917.378,-396.647 C925.282,-396.647 932.528,-395.281 939.115,-392.549 C945.701,-389.817 951.337,-386.035 956.021,-381.205 C960.705,-376.374 964.364,-370.641 966.999,-364.006 C969.634,-357.37 970.951,-350.1 970.951,-342.196 C970.951,-334.291 969.634,-326.997 966.999,-320.312 C964.364,-313.628 960.705,-307.87 956.021,-303.04 C951.337,-298.21 945.701,-294.453 939.115,-291.769 C932.528,-289.085 925.282,-287.744 917.378,-287.744 C909.473,-287.744 902.228,-289.085 895.641,-291.769 C889.054,-294.453 883.418,-298.21 878.734,-303.04 C874.05,-307.87 870.391,-313.628 867.756,-320.312 C865.121,-326.997 863.804,-334.291 863.804,-342.196 Z M873.465,-342.196 C873.465,-335.755 874.489,-329.754 876.539,-324.191 C878.588,-318.629 881.516,-313.799 885.321,-309.7 C889.127,-305.602 893.738,-302.381 899.154,-300.039 C904.57,-297.697 910.644,-296.526 917.378,-296.526 C924.111,-296.526 930.186,-297.697 935.601,-300.039 C941.017,-302.381 945.628,-305.602 949.434,-309.7 C953.24,-313.799 956.167,-318.629 958.217,-324.191 C960.266,-329.754 961.29,-335.755 961.29,-342.196 C961.29,-348.636 960.266,-354.638 958.217,-360.2 C956.167,-365.762 953.24,-370.593 949.434,-374.691 C945.628,-378.79 941.017,-382.01 935.601,-384.352 C930.186,-386.694 924.111,-387.865 917.378,-387.865 C910.644,-387.865 904.57,-386.694 899.154,-384.352 C893.738,-382.01 889.127,-378.79 885.321,-374.691 C881.516,-370.593 878.588,-365.762 876.539,-360.2 C874.489,-354.638 873.465,-348.636 873.465,-342.196 Z " fill="#2a00c3" fill-opacity="1.00" />				<path d="M917.378,-382.745 L922.064,-387.432 C934.998,-374.498 934.998,-353.503 922.064,-340.569 L917.378,-345.255 C927.734,-355.612 927.734,-372.389 917.378,-382.745 Z " fill="#2a00c3" fill-opacity="1.00" />				<path d="M917.397,-381.983 C912.087,-381.983 907.788,-386.282 907.788,-391.592 C907.788,-396.903 912.087,-401.201 917.397,-401.201 C922.707,-401.201 927.006,-396.903 927.006,-391.592 C927.006,-386.282 922.707,-381.983 917.397,-381.983 Z " fill="#2a00c3" fill-opacity="1.00" />				<path d="M917.133,-344.885 C918.121,-346.435 920.175,-346.891 921.726,-345.904 C923.276,-344.917 923.732,-342.862 922.745,-341.312 C921.758,-339.761 919.703,-339.305 918.153,-340.293 C916.602,-341.28 916.146,-343.334 917.133,-344.885 Z " fill="#2a00c3" fill-opacity="1.00" />				<path d="M909.056,-287.498 C911.729,-282.868 917.552,-281.307 922.182,-283.98 C926.812,-286.654 928.373,-292.476 925.699,-297.106 C923.64,-300.673 919.618,-302.438 915.741,-301.785 L894.319,-338.888 C893.416,-340.452 891.344,-341.007 889.779,-340.104 C888.215,-339.201 887.66,-337.128 888.563,-335.564 L909.984,-298.461 C907.444,-295.493 906.997,-291.064 909.056,-287.498 Z " fill="#2a00c3" fill-opacity="1.00" />			</g>			<path d="M803.383,-523.073 C872.687,-475.716 902.719,-347.503 902.719,-347.503 C902.719,-347.503 773.351,-326.712 702.892,-372.915 C633.588,-420.272 626.658,-533.469 626.658,-533.469 C626.658,-533.469 732.924,-569.276 803.383,-523.073 Z " fill="#d6e6ed" fill-opacity="1.00" />			<path d="M858.033,-392.763 C817.145,-388.045 749.523,-372.319 691.336,-411.634 C631.576,-450.95 622.141,-513.854 618.995,-546.879 C650.448,-554.743 699.199,-581.477 758.958,-540.589 C817.145,-501.274 847.025,-432.078 858.033,-392.763 Z " fill="#f37772" fill-opacity="1.00" />			<path d="M520.928,-566.099 C689.737,-566.862 851.097,-744.322 851.097,-744.322 C892.3,-621.092 741.457,-452.548 616.599,-421.262 C505.233,-464.677 509.21,-542.609 520.928,-566.099 Z " fill="#434345" fill-opacity="1.00" />			<path d="M281.276,-566.632 C195.223,-507.829 157.933,-348.63 157.933,-348.63 C157.933,-348.63 318.566,-322.814 406.053,-380.183 C492.107,-438.986 500.712,-579.54 500.712,-579.54 C500.712,-579.54 368.763,-624.001 281.276,-566.632 Z " fill="#d6e6ed" fill-opacity="1.00" />			<path d="M228.063,-400.319 C265.16,-396.038 326.513,-381.77 379.306,-417.441 C433.524,-453.111 442.085,-510.184 444.939,-540.147 C416.403,-547.281 372.171,-571.536 317.953,-534.439 C265.16,-498.769 238.051,-435.989 228.063,-400.319 Z " fill="#f37772" fill-opacity="1.00" />			<path d="M562.216,-551.149 C385.74,-566.495 234.84,-765.99 234.84,-765.99 C181.13,-640.666 324.357,-451.402 452.238,-407.922 C569.889,-443.729 572.447,-525.573 562.216,-551.149 Z " fill="#434345" fill-opacity="1.00" />			<path d="M325.922,-280.156 C325.922,-315.672 358.415,-404.841 358.415,-425.999 C358.415,-528.014 440.783,-610.381 542.797,-610.381 C644.812,-610.381 727.179,-528.014 727.179,-425.999 C727.179,-401.818 753.628,-314.161 753.628,-280.156 C754.383,-188.721 658.414,-114.666 539.775,-114.666 C421.891,-114.666 325.922,-188.721 325.922,-280.156 Z " fill="#f1ecef" fill-opacity="1.00" />			<path d="M325.922,-280.156 C325.922,-315.672 358.415,-404.841 358.415,-425.999 C358.415,-528.014 440.783,-610.381 542.797,-610.381 C542.797,-543.883 539.775,-195.522 539.775,-115.422 C421.891,-114.666 325.922,-188.721 325.922,-280.156 Z " fill="#d6e6ed" fill-opacity="1.00" />			<path d="M483.856,-598.291 C491.412,-618.694 502.747,-639.852 540.53,-651.187 C535.996,-639.097 535.241,-626.25 536.752,-614.16 C550.354,-628.517 564.712,-637.585 578.314,-640.608 C573.78,-631.54 573.024,-620.205 576.047,-607.359 C551.11,-605.092 483.856,-598.291 483.856,-598.291 Z " fill="#d6e6ed" fill-opacity="1.00" />			<path d="M699.975,-187.965 C699.975,-133.294 629.266,-88.9733 542.042,-88.9733 C454.817,-88.9733 384.108,-133.294 384.108,-187.965 C384.108,-242.637 454.817,-286.957 542.042,-286.957 C629.266,-286.957 699.975,-242.637 699.975,-187.965 Z " fill="#d6e6ed" fill-opacity="1.00" />			<path d="M715.844,-218.192 C715.844,-158.095 638.03,-109.376 542.042,-109.376 C446.053,-109.376 368.239,-158.095 368.239,-218.192 C368.239,-278.289 446.053,-327.007 542.042,-327.007 C638.03,-327.007 715.844,-278.289 715.844,-218.192 Z " fill="#f79f9e" fill-opacity="1.00" />			<path d="M465.72,-231.794 C465.72,-218.856 455.232,-208.368 442.294,-208.368 C429.356,-208.368 418.869,-218.856 418.869,-231.794 C418.869,-244.731 429.356,-255.219 442.294,-255.219 C455.232,-255.219 465.72,-244.731 465.72,-231.794 Z " fill="#f0515f" fill-opacity="1.00" />			<path d="M663.704,-236.328 C663.704,-223.39 653.216,-212.902 640.278,-212.902 C627.34,-212.902 616.852,-223.39 616.852,-236.328 C616.852,-249.265 627.34,-259.753 640.278,-259.753 C653.216,-259.753 663.704,-249.265 663.704,-236.328 Z " fill="#f0515f" fill-opacity="1.00" />			<path d="M658.414,-409.375 C658.414,-396.437 647.926,-385.949 634.988,-385.949 C622.051,-385.949 611.563,-396.437 611.563,-409.375 C611.563,-422.312 622.051,-432.8 634.988,-432.8 C647.926,-432.8 658.414,-422.312 658.414,-409.375 Z " fill="#434345" fill-opacity="1.00" />			<g>				<path d="M488.918,-346.995 C449.339,-346.995 416.996,-346.995 416.996,-346.995 C416.996,-346.995 387.66,-388.136 378.27,-401.304 C381.968,-446.465 507.793,-504.261 507.793,-504.261 C507.793,-504.261 518.595,-398.399 488.918,-346.995 Z " fill="#000000" fill-opacity="1.00" />				<path d="M469.095,-332.204 L402.781,-338.727 L363.974,-392.895 C363.974,-392.895 345.385,-341.879 343.034,-307.46 C340.682,-273.041 354.568,-255.219 354.568,-255.219 L354.679,-255.295 C354.679,-255.295 374.177,-282.133 402.781,-301.361 C431.385,-320.588 469.095,-332.204 469.095,-332.204 Z " fill="#000000" fill-opacity="1.00" />			</g>			<g>				<path d="M679.486,-38.4422 C665.586,-47.3424 650.989,-56.7609 650.989,-56.7609 L650.989,-100.447 L712.717,-129.909 C712.717,-129.909 715.383,-73.0465 679.486,-38.4422 Z " fill="#000000" fill-opacity="1.00" />				<path d="M669.188,-26.6105 L674.141,-31.9016 L642.283,-51.7346 L642.283,-97.4657 L570.001,-22.053 L669.188,-26.6105 Z " fill="#000000" fill-opacity="1.00" />			</g>			<g>				<path d="M470.881,-55.1988 L462.004,-22.634 L417.559,-19.2306 L409.847,-26.5139 L404.757,-88.9733 L470.881,-55.1988 Z " fill="#000000" fill-opacity="1.00" />				<path d="M475.827,-53.0333 L466.511,-17.921 L422.509,-15.1954 L433.242,-7.28308 L496.456,-1.58577 L475.827,-53.0333 Z " fill="#000000" fill-opacity="1.00" />			</g>			<path d="M475.543,-409.375 C475.543,-390.594 460.319,-375.37 441.538,-375.37 C422.758,-375.37 407.534,-390.594 407.534,-409.375 C407.534,-428.155 422.758,-443.38 441.538,-443.38 C460.319,-443.38 475.543,-428.155 475.543,-409.375 Z " fill="#f1ecef" fill-opacity="1.00" />			<path d="M634.517,-417.381 C636.011,-413.04 633.704,-408.31 629.363,-406.816 C625.023,-405.322 620.293,-407.629 618.798,-411.97 C617.304,-416.31 619.611,-421.04 623.952,-422.535 C628.292,-424.029 633.023,-421.722 634.517,-417.381 Z " fill="#ffffff" fill-opacity="1.00" />			<path d="M465.72,-409.375 C465.72,-396.437 455.232,-385.949 442.294,-385.949 C429.356,-385.949 418.869,-396.437 418.869,-409.375 C418.869,-422.312 429.356,-432.8 442.294,-432.8 C455.232,-432.8 465.72,-422.312 465.72,-409.375 Z " fill="#434345" fill-opacity="1.00" />			<path d="M441.847,-417.365 C443.341,-413.024 441.033,-408.294 436.692,-406.8 C432.351,-405.306 427.621,-407.614 426.127,-411.955 C424.633,-416.296 426.941,-421.026 431.282,-422.52 C435.623,-424.014 440.353,-421.706 441.847,-417.365 Z " fill="#ffffff" fill-opacity="1.00" />			<path d="M627.466,-160.136 C627.466,-117.936 456.617,-117.936 456.617,-160.136 C456.617,-160.136 503.712,-151.617 546.424,-151.617 C589.136,-151.617 627.466,-160.136 627.466,-160.136 Z " fill="#f0515f" fill-opacity="1.00" />			<path d="M-576.552,496.301 C-576.552,371.993 -517.669,235.689 -326.844,231.328 C-120.754,224.785 -69.5037,376.354 -69.5037,500.663 C-69.5037,624.972 -193.812,726.381 -319.211,726.381 C-443.52,726.381 -576.552,620.61 -576.552,496.301 Z " fill="#f1ecef" fill-opacity="1.00" />			<path d="M-576.552,493.133 C-576.552,368.824 -517.669,232.521 -326.844,228.159 C-326.844,423.345 -319.211,561.829 -319.211,723.213 C-443.52,723.213 -576.552,617.441 -576.552,493.133 Z " fill="#d6e6ed" fill-opacity="1.00" />			<path d="M-469.69,639.25 L-359.557,639.25 L-359.557,808.266 L-469.69,808.266 L-469.69,639.25 Z " fill="#d6e6ed" fill-opacity="1.00" />			<path d="M-500.222,835.527 C-500.222,796.271 -463.148,765.739 -416.259,765.739 C-369.371,765.739 -330.116,796.271 -330.116,835.527 L-404.265,835.527 L-415.169,814.808 L-426.073,835.527 L-500.222,835.527 Z " fill="#434345" fill-opacity="1.00" />			<path d="M-275.594,639.25 L-165.461,639.25 L-165.461,808.266 L-275.594,808.266 L-275.594,639.25 Z " fill="#f1ecef" fill-opacity="1.00" />			<path d="M-306.126,835.527 C-306.126,796.271 -269.052,765.739 -222.163,765.739 C-175.275,765.739 -136.02,796.271 -136.02,835.527 L-210.169,835.527 L-221.073,814.808 L-231.977,835.527 L-306.126,835.527 Z " fill="#434345" fill-opacity="1.00" />			<path d="M-597.713,532.933 C-617.34,532.933 -628.245,526.391 -632.606,516.577 C-651.144,515.486 -665.319,510.034 -681.675,494.768 C-684.947,491.497 -686.037,486.045 -682.766,482.773 C-679.495,479.502 -674.042,478.412 -670.771,481.683 C-658.777,491.497 -648.963,496.949 -638.058,498.039 C-639.149,482.773 -631.516,467.507 -620.612,460.965 C-612.979,456.603 -605.346,456.603 -597.713,460.965 C-588.989,466.417 -584.627,477.321 -587.899,487.135 C-591.17,496.949 -598.803,506.763 -611.888,511.125 C-608.617,512.215 -603.165,513.305 -594.441,513.305 C-582.447,513.305 -572.633,503.492 -569.361,491.497 C-568.271,487.135 -562.819,483.864 -558.457,486.045 C-554.096,487.135 -550.824,492.587 -553.005,496.949 C-559.548,517.667 -574.814,530.752 -594.441,531.843 C-595.532,532.933 -596.622,532.933 -597.713,532.933 Z M-609.707,477.321 C-610.798,477.321 -610.798,477.321 -611.888,478.412 C-616.25,481.683 -620.612,490.406 -620.612,500.22 C-611.888,498.039 -606.436,491.497 -604.255,486.045 C-603.165,481.683 -605.346,479.502 -606.436,478.412 C-607.526,477.321 -608.617,477.321 -609.707,477.321 Z " fill="#beccd4" fill-opacity="1.00" />			<path d="M-711.901,505.16 C-718.444,498.618 -720.625,488.804 -716.263,481.171 C-723.896,473.538 -723.896,461.543 -716.263,452.82 C-708.63,445.187 -696.635,444.096 -689.002,450.639 C-681.369,446.277 -671.556,446.277 -663.923,452.82 C-655.199,460.453 -655.199,473.538 -662.832,482.261 C-667.194,486.623 -671.556,488.804 -677.008,488.804 C-677.008,494.256 -678.098,499.708 -682.46,504.07 C-690.093,512.793 -703.178,512.793 -711.901,505.16 Z " fill="#434345" fill-opacity="1.00" />			<path d="M47.2612,-132.887 C171.437,-48.0338 225.246,181.691 225.246,181.691 C225.246,181.691 -6.54812,218.943 -132.793,136.16 C-256.969,51.3066 -269.386,-151.513 -269.386,-151.513 C-269.386,-151.513 -78.9838,-215.671 47.2612,-132.887 Z " fill="#d6e6ed" fill-opacity="1.00" />			<g>				<path d="M148.365,190.976 C148.365,179.57 150.266,169.08 154.068,159.504 C157.87,149.929 163.15,141.656 169.909,134.686 C176.668,127.715 184.8,122.259 194.305,118.316 C203.81,114.373 214.266,112.402 225.672,112.402 C237.078,112.402 247.533,114.373 257.038,118.316 C266.543,122.259 274.675,127.715 281.434,134.686 C288.193,141.656 293.474,149.929 297.276,159.504 C301.078,169.08 302.979,179.57 302.979,190.976 C302.979,202.382 301.078,212.908 297.276,222.554 C293.474,232.2 288.193,240.508 281.434,247.478 C274.675,254.448 266.543,259.87 257.038,263.742 C247.533,267.614 237.078,269.551 225.672,269.551 C214.266,269.551 203.81,267.614 194.305,263.742 C184.8,259.87 176.668,254.448 169.909,247.478 C163.15,240.508 157.87,232.2 154.068,222.554 C150.266,212.908 148.365,202.382 148.365,190.976 Z M162.305,190.976 C162.305,200.27 163.784,208.93 166.741,216.957 C169.698,224.983 173.922,231.953 179.414,237.867 C184.906,243.782 191.559,248.429 199.375,251.808 C207.19,255.188 215.955,256.877 225.672,256.877 C235.388,256.877 244.153,255.188 251.969,251.808 C259.784,248.429 266.437,243.782 271.929,237.867 C277.421,231.953 281.645,224.983 284.602,216.957 C287.559,208.93 289.038,200.27 289.038,190.976 C289.038,181.683 287.559,173.022 284.602,164.996 C281.645,156.97 277.421,149.999 271.929,144.085 C266.437,138.171 259.784,133.524 251.969,130.145 C244.153,126.765 235.388,125.075 225.672,125.075 C215.955,125.075 207.19,126.765 199.375,130.145 C191.559,133.524 184.906,138.171 179.414,144.085 C173.922,149.999 169.698,156.97 166.741,164.996 C163.784,173.022 162.305,181.683 162.305,190.976 Z " fill="#2a00c3" fill-opacity="1.00" />				<path d="M225.672,132.463 L232.434,125.7 C251.098,144.364 251.098,174.659 232.434,193.323 L225.672,186.561 C240.616,171.616 240.616,147.407 225.672,132.463 Z " fill="#2a00c3" fill-opacity="1.00" />				<path d="M225.7,133.562 C218.037,133.562 211.834,127.359 211.834,119.696 C211.834,112.034 218.037,105.831 225.7,105.831 C233.362,105.831 239.565,112.034 239.565,119.696 C239.565,127.359 233.362,133.562 225.7,133.562 Z " fill="#2a00c3" fill-opacity="1.00" />				<path d="M225.319,187.096 C226.744,184.858 229.709,184.2 231.946,185.625 C234.183,187.05 234.841,190.014 233.417,192.252 C231.992,194.489 229.027,195.147 226.79,193.722 C224.552,192.298 223.894,189.333 225.319,187.096 Z " fill="#2a00c3" fill-opacity="1.00" />				<path d="M213.664,269.906 C217.521,276.587 225.924,278.838 232.605,274.981 C239.286,271.124 241.537,262.721 237.68,256.04 C234.709,250.894 228.904,248.346 223.309,249.289 L192.398,195.75 C191.095,193.493 188.104,192.691 185.847,193.994 C183.59,195.298 182.789,198.288 184.092,200.545 L215.003,254.085 C211.337,258.369 210.693,264.76 213.664,269.906 Z " fill="#2a00c3" fill-opacity="1.00" />			</g>			<path d="M61.1767,-70.0314 C161.183,-1.69378 204.519,183.318 204.519,183.318 C204.519,183.318 17.8408,213.319 -83.8322,146.649 C-183.838,78.3112 -193.839,-85.0323 -193.839,-85.0323 C-193.839,-85.0323 -40.4962,-136.702 61.1767,-70.0314 Z " fill="#d6e6ed" fill-opacity="1.00" />			<path d="M140.037,118.007 C81.0356,124.815 -16.5441,147.508 -100.508,90.7758 C-186.741,34.0434 -200.357,-56.7284 -204.896,-104.384 C-159.51,-115.73 -89.1616,-154.308 -2.92834,-95.3064 C81.0356,-38.574 124.152,61.275 140.037,118.007 Z " fill="#f37772" fill-opacity="1.00" />			<path d="M-346.408,-132.118 C-102.815,-133.219 130.029,-389.295 130.029,-389.295 C189.484,-211.473 -28.1825,31.7372 -208.354,76.8834 C-369.055,14.2345 -363.317,-98.2213 -346.408,-132.118 Z " fill="#434345" fill-opacity="1.00" />			<path d="M-692.227,-132.887 C-816.402,-48.0338 -870.211,181.691 -870.211,181.691 C-870.211,181.691 -638.417,218.943 -512.172,136.16 C-387.997,51.3066 -375.579,-151.513 -375.579,-151.513 C-375.579,-151.513 -565.981,-215.671 -692.227,-132.887 Z " fill="#d6e6ed" fill-opacity="1.00" />			<path d="M-769.012,107.104 C-715.481,113.281 -626.949,133.87 -550.769,82.3972 C-472.531,30.9247 -460.178,-51.4312 -456.06,-94.668 C-497.238,-104.962 -561.064,-139.964 -639.302,-86.4324 C-715.481,-34.96 -754.6,55.6316 -769.012,107.104 Z " fill="#f37772" fill-opacity="1.00" />			<path d="M-286.828,-110.545 C-541.484,-132.689 -759.234,-420.561 -759.234,-420.561 C-836.738,-239.718 -630.06,33.3915 -445.527,96.1329 C-275.756,44.4636 -272.065,-73.6379 -286.828,-110.545 Z " fill="#434345" fill-opacity="1.00" />			<path d="M-627.802,280.499 C-627.802,229.249 -580.914,100.579 -580.914,70.047 C-580.914,-77.1607 -462.057,-196.017 -314.85,-196.017 C-167.642,-196.017 -48.7856,-77.1607 -48.7856,70.047 C-48.7856,104.941 -10.6206,231.43 -10.6206,280.499 C-9.53022,412.441 -148.014,519.303 -319.211,519.303 C-489.318,519.303 -627.802,412.441 -627.802,280.499 Z " fill="#f1ecef" fill-opacity="1.00" />			<path d="M-627.802,280.499 C-627.802,229.249 -580.914,100.579 -580.914,70.0469 C-580.914,-77.1607 -462.057,-196.017 -314.85,-196.017 C-314.85,-100.06 -319.211,402.627 -319.211,518.212 C-489.318,519.303 -627.802,412.441 -627.802,280.499 Z " fill="#d6e6ed" fill-opacity="1.00" />			<path d="M-399.903,-178.57 C-388.999,-208.012 -372.642,-238.544 -318.121,-254.9 C-324.664,-237.453 -325.754,-218.916 -323.573,-201.469 C-303.945,-222.187 -283.227,-235.273 -263.6,-239.634 C-270.142,-226.549 -271.233,-210.193 -266.871,-191.656 C-302.855,-188.384 -399.903,-178.57 -399.903,-178.57 Z " fill="#d6e6ed" fill-opacity="1.00" />			<path d="M-88.0409,413.531 C-88.0409,492.423 -190.075,556.377 -315.94,556.377 C-441.805,556.377 -543.839,492.423 -543.839,413.531 C-543.839,334.64 -441.805,270.685 -315.94,270.685 C-190.075,270.685 -88.0409,334.64 -88.0409,413.531 Z " fill="#d6e6ed" fill-opacity="1.00" />			<path d="M-65.142,369.914 C-65.142,456.635 -177.428,526.936 -315.94,526.936 C-454.452,526.936 -566.738,456.635 -566.738,369.914 C-566.738,283.194 -454.452,212.893 -315.94,212.893 C-177.428,212.893 -65.142,283.194 -65.142,369.914 Z " fill="#f79f9e" fill-opacity="1.00" />			<path d="M-426.073,350.287 C-426.073,368.956 -441.207,384.09 -459.876,384.09 C-478.545,384.09 -493.68,368.956 -493.68,350.287 C-493.68,331.618 -478.545,316.483 -459.876,316.483 C-441.207,316.483 -426.073,331.618 -426.073,350.287 Z " fill="#f0515f" fill-opacity="1.00" />			<path d="M-140.381,343.744 C-140.381,362.413 -155.516,377.547 -174.185,377.547 C-192.854,377.547 -207.988,362.413 -207.988,343.744 C-207.988,325.075 -192.854,309.941 -174.185,309.941 C-155.516,309.941 -140.381,325.075 -140.381,343.744 Z " fill="#f0515f" fill-opacity="1.00" />			<path d="M-148.014,94.0363 C-148.014,112.705 -163.149,127.84 -181.818,127.84 C-200.487,127.84 -215.621,112.705 -215.621,94.0363 C-215.621,75.3673 -200.487,60.2331 -181.818,60.2331 C-163.149,60.2331 -148.014,75.3673 -148.014,94.0363 Z " fill="#434345" fill-opacity="1.00" />			<g>				<path d="M-392.599,184.05 C-449.711,184.05 -496.382,184.05 -496.382,184.05 C-496.382,184.05 -538.713,124.685 -552.263,105.682 C-546.927,40.5149 -365.361,-42.8842 -365.361,-42.8842 C-365.361,-42.8842 -349.773,109.875 -392.599,184.05 Z " fill="#000000" fill-opacity="1.00" />				<path d="M-421.202,205.395 L-516.895,195.982 L-572.893,117.816 C-572.893,117.816 -599.716,191.433 -603.11,241.1 C-606.503,290.766 -586.466,316.483 -586.466,316.483 L-586.305,316.375 C-586.305,316.375 -558.17,277.646 -516.895,249.901 C-475.619,222.156 -421.202,205.395 -421.202,205.395 Z " fill="#000000" fill-opacity="1.00" />			</g>			<g>				<path d="M-117.607,629.294 C-137.665,616.451 -158.729,602.86 -158.729,602.86 L-158.729,539.82 L-69.6547,497.306 C-69.6547,497.306 -65.8084,579.36 -117.607,629.294 Z " fill="#000000" fill-opacity="1.00" />				<path d="M-132.468,646.367 L-125.32,638.732 L-171.291,610.113 L-171.291,544.123 L-275.594,652.944 L-132.468,646.367 Z " fill="#000000" fill-opacity="1.00" />			</g>			<g>				<path d="M-418.626,605.114 L-431.435,652.105 L-495.57,657.016 L-506.698,646.507 L-514.043,556.377 L-418.626,605.114 Z " fill="#000000" fill-opacity="1.00" />				<path d="M-411.489,608.239 L-424.931,658.906 L-488.427,662.839 L-472.938,674.257 L-381.72,682.478 L-411.489,608.239 Z " fill="#000000" fill-opacity="1.00" />			</g>			<path d="M-411.898,94.0363 C-411.898,121.137 -433.867,143.106 -460.967,143.106 C-488.067,143.106 -510.036,121.137 -510.036,94.0363 C-510.036,66.9362 -488.067,44.9671 -460.967,44.9671 C-433.867,44.9671 -411.898,66.9362 -411.898,94.0363 Z " fill="#f1ecef" fill-opacity="1.00" />			<path d="M-182.498,82.4833 C-180.342,88.7467 -183.671,95.5723 -189.935,97.7285 C-196.198,99.8848 -203.024,96.5553 -205.18,90.2918 C-207.336,84.0284 -204.007,77.2028 -197.743,75.0466 C-191.48,72.8903 -184.654,76.2198 -182.498,82.4833 Z " fill="#ffffff" fill-opacity="1.00" />			<path d="M-426.073,94.0363 C-426.073,112.705 -441.207,127.84 -459.876,127.84 C-478.545,127.84 -493.68,112.705 -493.68,94.0363 C-493.68,75.3673 -478.545,60.2331 -459.876,60.2331 C-441.207,60.2331 -426.073,75.3673 -426.073,94.0363 Z " fill="#434345" fill-opacity="1.00" />			<path d="M-460.521,82.5064 C-458.366,88.7705 -461.696,95.596 -467.96,97.7516 C-474.225,99.9072 -481.05,96.5766 -483.206,90.3125 C-485.361,84.0484 -482.031,77.2229 -475.767,75.0673 C-469.503,72.9117 -462.677,76.2423 -460.521,82.5064 Z " fill="#ffffff" fill-opacity="1.00" />			<path d="M-192.672,453.689 C-192.672,514.584 -439.208,514.584 -439.208,453.689 C-439.208,453.689 -371.251,465.982 -309.617,465.982 C-247.983,465.982 -192.672,453.689 -192.672,453.689 Z " fill="#f0515f" fill-opacity="1.00" />		</g>	</svg>