<?xml version="1.0" encoding="utf-8" ?>	<!-- Generator: Assembly 1.8 - http://assemblyapp.co -->	<svg version="1.1" xmlns="http://www.w3.org/2000/svg" xmlns:xlink="http://www.w3.org/1999/xlink" width="2048.00" height="2048.00" viewBox="0 0 2048.0 2048.0">		<rect x="0" y="0" width="2048.00" height="2048.00" fill="none" />		<g id="document" transform="matrix(1,0,0,1,1024.0,1024.0)">			<g>				<path d="M-169.2,634.336 L442.178,-477.248 C491.918,-578.16 429.23,-663.19 328.317,-712.929 C227.405,-762.669 122.379,-760.304 72.6394,-659.391 L-454.424,515.101 C-480.345,567.689 -404.66,642.294 -352.072,668.215 C-299.484,694.135 -195.121,686.924 -169.2,634.336 Z " fill="#ffffff" fill-opacity="1.00" stroke-width="22.16" stroke="#ef5b37" stroke-linecap="square" stroke-linejoin="miter" />				<path d="M-451.277,596.568 C-437.128,618.653 -417.651,639.009 -393.478,655.57 C-363.704,675.966 -331.134,687.639 -299.795,690.883 C-360.956,624.463 -403.208,490.474 -404.113,418.431 L-456.359,534.528 C-456.108,554.581 -454.427,575.52 -451.277,596.568 Z " fill="#ef5b37" fill-opacity="1.00" />				<path d="M94.6031,-699.646 C144.938,-490.364 235.343,-384.929 368.788,-360.496 C394.283,-399.314 440.995,-484.084 457.021,-517.716 C335.402,-542.053 255.785,-531.119 160.979,-601.411 L94.6031,-699.646 Z " fill="#ef5b37" fill-opacity="1.00" />				<path d="M31.3946,-544.42 L-25.0227,-413.777 C-15.5009,-268.951 100.362,-133.279 245.188,-142.801 L299.941,-241.299 C183.976,-233.675 39.0189,-428.454 31.3946,-544.42 Z " fill="#ef5b37" fill-opacity="1.00" />				<path d="M-77.4503,-302.478 L-131.569,-188.658 C-129.881,-45.6842 -29.4053,106.137 113.568,104.449 L168.659,9.43717 C54.1761,10.7893 -76.0982,-187.996 -77.4503,-302.478 Z " fill="#ef5b37" fill-opacity="1.00" />				<path d="M-195.887,-50.2957 L-245.216,57.5034 C-241.654,191.951 -145.057,333.357 -10.6092,329.795 L39.893,239.673 C-67.7628,242.525 -193.035,57.36 -195.887,-50.2957 Z " fill="#ef5b37" fill-opacity="1.00" />				<path d="M-296.485,185.856 L-348.731,301.953 C-347.185,425.057 -256.076,543.812 -137.47,554.17 L-82.317,460.008 C-180.889,461.246 -295.247,284.428 -296.485,185.856 Z " fill="#ef5b37" fill-opacity="1.00" />				<path d="M453.108,-522.819 C481.429,-580.279 425.483,-665.75 328.148,-713.726 C230.814,-761.702 128.95,-754.014 100.628,-696.555 C72.307,-639.095 142.512,-564.541 236.979,-512.869 C331.447,-461.197 424.786,-465.36 453.108,-522.819 Z " fill="#7f0b0b" fill-opacity="1.00" />			</g>		</g>	</svg>