<?xml version="1.0" encoding="utf-8" ?>	<!-- Generator: Assembly 1.8 - http://assemblyapp.co -->	<svg version="1.1" xmlns="http://www.w3.org/2000/svg" xmlns:xlink="http://www.w3.org/1999/xlink" width="2048.00" height="2048.00" viewBox="0 0 2048.0 2048.0">		<rect x="0" y="0" width="2048.00" height="2048.00" fill="none" />		<g id="document" transform="matrix(1,0,0,1,1024.0,1024.0)">			<g>				<path d="M-522.652,690.888 L88.7266,-420.695 C138.466,-521.608 75.778,-606.638 -25.1345,-656.377 C-126.047,-706.116 -231.073,-703.752 -280.812,-602.839 L-807.876,571.653 C-833.796,624.241 -758.112,698.846 -705.524,724.767 C-652.935,750.687 -548.572,743.477 -522.652,690.888 Z " fill="#ffffff" fill-opacity="1.00" stroke-width="22.16" stroke="#ef5b37" stroke-linecap="square" stroke-linejoin="miter" />				<path d="M-804.728,653.12 C-790.58,675.206 -771.103,695.562 -746.929,712.122 C-717.156,732.519 -684.586,744.191 -653.246,747.435 C-714.407,681.015 -756.66,547.026 -757.565,474.983 L-809.811,591.081 C-809.559,611.134 -807.879,632.072 -804.728,653.12 Z " fill="#ef5b37" fill-opacity="1.00" />				<path d="M-258.849,-643.094 C-208.513,-433.812 -118.109,-328.377 15.3366,-303.944 C40.8315,-342.762 87.5431,-427.531 103.569,-461.164 C-18.0501,-485.501 -97.6669,-474.566 -192.472,-544.859 L-258.849,-643.094 Z " fill="#ef5b37" fill-opacity="1.00" />				<path d="M-322.057,-487.868 L-378.474,-357.225 C-368.953,-212.399 -253.089,-76.7272 -108.263,-86.2489 L-53.5104,-184.747 C-169.476,-177.122 -314.433,-371.902 -322.057,-487.868 Z " fill="#ef5b37" fill-opacity="1.00" />				<path d="M-430.902,-245.926 L-485.021,-132.106 C-483.332,10.868 -382.857,162.69 -239.883,161.001 L-184.793,65.9894 C-299.276,67.3415 -429.55,-131.444 -430.902,-245.926 Z " fill="#ef5b37" fill-opacity="1.00" />				<path d="M-549.339,6.25655 L-598.667,114.056 C-595.105,248.504 -498.509,389.909 -364.061,386.347 L-313.559,296.225 C-421.214,299.077 -546.486,113.912 -549.339,6.25655 Z " fill="#ef5b37" fill-opacity="1.00" />				<path d="M-649.936,242.408 L-702.182,358.506 C-700.636,481.61 -609.528,600.364 -490.922,610.722 L-435.769,516.56 C-534.341,517.798 -648.698,340.98 -649.936,242.408 Z " fill="#ef5b37" fill-opacity="1.00" />				<path d="M99.656,-466.267 C127.977,-523.726 72.0311,-609.198 -25.3034,-657.174 C-122.638,-705.149 -224.502,-697.461 -252.823,-640.002 C-281.145,-582.543 -210.939,-507.989 -116.472,-456.317 C-22.0051,-404.645 71.3347,-408.808 99.656,-466.267 Z " fill="#7f0b0b" fill-opacity="1.00" />			</g>			<path d="M709.646,-709.326 L663.405,-730.009 L635.828,-668.356 C612.227,-676.857 587.886,-681.407 562.806,-682.007 C537.726,-682.606 513.938,-679.202 491.443,-671.795 C468.947,-664.387 448.442,-653.006 429.928,-637.652 C411.413,-622.298 396.666,-602.347 385.686,-577.8 C373.43,-550.398 367.67,-524.886 368.408,-501.263 C369.145,-477.641 374.585,-455.34 384.726,-434.362 C394.867,-413.383 408.378,-393.81 425.256,-375.641 C442.135,-357.473 461.001,-340.299 481.853,-324.121 L387.63,-113.471 C364.164,-125.337 343.916,-142.101 326.887,-163.762 C309.858,-185.424 299.63,-210.037 296.203,-237.603 L203.839,-208.011 C213.711,-167.286 232.029,-133.573 258.794,-106.872 C285.558,-80.171 317.778,-58.3941 355.456,-41.5411 L327.878,20.1128 L374.119,40.7959 L401.696,-20.8579 C427.01,-11.5906 452.856,-6.19533 479.236,-4.67213 C505.615,-3.14893 530.609,-6.18496 554.216,-13.7802 C577.823,-21.3755 599.346,-33.4999 618.784,-50.1535 C638.222,-66.8071 653.814,-88.2639 665.56,-114.524 C678.583,-143.638 684.297,-170.198 682.704,-194.204 C681.11,-218.21 674.623,-240.465 663.242,-260.97 C651.861,-281.475 636.747,-300.91 617.9,-319.274 C599.054,-337.637 578.889,-355.734 557.405,-373.565 L559.501,-373.655 L649.894,-575.743 C671.332,-565.469 689.221,-551.473 703.561,-533.754 C717.901,-516.036 727.933,-495.963 733.658,-473.535 L822.124,-505.899 C810.644,-538.437 792.282,-566.689 767.035,-590.656 C741.788,-614.623 713.466,-633.628 682.068,-647.672 L709.646,-709.326 Z M518.623,-406.327 C508.167,-415.114 498.522,-424.566 489.688,-434.683 C480.854,-444.801 473.816,-455.485 468.572,-466.736 C463.329,-477.988 460.372,-489.758 459.703,-502.046 C459.034,-514.335 461.763,-527.329 467.892,-541.03 C480.148,-568.432 498.478,-586.437 522.882,-595.047 C547.285,-603.656 574.209,-604.116 603.654,-596.426 L518.623,-406.327 Z M522.731,-291.45 C533.503,-281.836 544.019,-271.652 554.28,-260.896 C564.541,-250.141 572.721,-238.946 578.821,-227.311 C584.921,-215.677 588.606,-203.238 589.876,-189.996 C591.146,-176.754 588.462,-162.711 581.823,-147.869 C575.184,-133.026 566.536,-120.966 555.878,-111.689 C545.22,-102.412 533.266,-95.5989 520.016,-91.2491 C506.767,-86.8993 492.856,-84.9005 478.284,-85.2526 C463.713,-85.6048 448.908,-88.1164 433.87,-92.7875 L522.731,-291.45 Z " fill="#1a1f2b" fill-opacity="1.00" />		</g>	</svg>