<?xml version="1.0" encoding="utf-8" ?>	<!-- Generator: Assembly 1.8 - http://assemblyapp.co -->	<svg version="1.1" xmlns="http://www.w3.org/2000/svg" xmlns:xlink="http://www.w3.org/1999/xlink" width="2048.00" height="2048.00" viewBox="0 0 2048.0 2048.0">		<rect x="0" y="0" width="2048.00" height="2048.00" fill="none" />		<g id="document" transform="matrix(1,0,0,1,1024.0,1024.0)">			<path d="M205.946,592.363 L-807.824,244.854 L-62.8662,-594.481 L731.039,-452.856 L205.946,592.363 Z " fill="#ffffff" fill-opacity="1.00" stroke-width="8.48" stroke="#000000" stroke-linecap="square" stroke-linejoin="miter" />			<g>				<path d="M-405.875,255.676 L362.818,-143.242 C429.331,-181.643 426.012,-253.683 387.611,-320.197 C349.209,-386.71 288.706,-425.212 222.193,-386.811 L-522.514,79.7973 C-557.176,99.8092 -542.526,170.863 -522.514,205.525 C-502.502,240.187 -440.537,275.688 -405.875,255.676 Z " fill="#ffffff" fill-opacity="1.00" stroke-width="15.13" stroke="#ef5b37" stroke-linecap="square" stroke-linejoin="miter" />				<path d="M-551.635,127.227 C-551.984,145.129 -548.653,164.071 -541.216,182.64 C-532.057,205.512 -518,224.493 -501.445,238.223 C-510.958,177.324 -484.105,85.2509 -457.286,44.0204 L-530.983,90.0888 C-538.448,101.565 -545.438,114.086 -551.635,127.227 Z " fill="#ef5b37" fill-opacity="1.00" />				<path d="M249.93,-401.325 C199.1,-263.453 210.407,-169.317 276.873,-104.824 C306.069,-117.183 364.739,-147.571 386.594,-160.578 C326.804,-220.53 277.47,-244.53 250.333,-320.391 L249.93,-401.325 Z " fill="#ef5b37" fill-opacity="1.00" />				<path d="M155.167,-337.208 L73.5849,-284.467 C24.0446,-198.661 38.3299,-77.7063 124.136,-28.166 L192.579,-63.2947 C123.871,-102.963 115.499,-268.501 155.167,-337.208 Z " fill="#ef5b37" fill-opacity="1.00" />				<path d="M1.60582,-241.191 L-72.2899,-197.126 C-125.573,-115.343 -126.148,8.93993 -44.3647,62.2231 L22.9465,29.2008 C-42.5394,-13.4643 -41.0593,-175.706 1.60582,-241.191 Z " fill="#ef5b37" fill-opacity="1.00" />				<path d="M-161.285,-143.001 L-230.177,-100.536 C-279.163,-22.8805 -277.987,94.019 -200.332,143.004 L-137.479,111.016 C-199.66,71.7927 -200.508,-80.8207 -161.285,-143.001 Z " fill="#ef5b37" fill-opacity="1.00" />				<path d="M-307.969,-47.1419 L-381.666,-1.07346 C-427.491,69.379 -420.837,171.341 -357.454,222.217 L-290.429,189.7 C-346.842,153.007 -344.662,9.2711 -307.969,-47.1419 Z " fill="#ef5b37" fill-opacity="1.00" />				<path d="M386.31,-164.959 C424.182,-186.825 424.857,-256.558 387.817,-320.713 C350.777,-384.867 290.049,-419.15 252.177,-397.284 C214.304,-375.418 225.864,-306.472 259.874,-241.307 C293.884,-176.142 348.437,-143.094 386.31,-164.959 Z " fill="#7f0b0b" fill-opacity="1.00" />			</g>		</g>	</svg>