<?xml version="1.0" encoding="utf-8" ?>	<!-- Generator: Assembly 1.8 - http://assemblyapp.co -->	<svg version="1.1" xmlns="http://www.w3.org/2000/svg" xmlns:xlink="http://www.w3.org/1999/xlink" width="2048.00" height="2048.00" viewBox="0 0 2048.0 2048.0">		<rect x="0" y="0" width="2048.00" height="2048.00" fill="none" />		<g id="document" transform="matrix(1,0,0,1,1024.0,1024.0)">			<g>				<path d="M-202.004,393.409 L-82.4422,393.409 L-82.4422,576.895 L-202.004,576.895 L-202.004,393.409 Z " fill="#d6e6ed" fill-opacity="1.00" />				<path d="M-235.15,606.489 C-235.15,563.873 -194.901,530.728 -143.999,530.728 C-93.0962,530.728 -50.4801,563.873 -50.4801,606.489 L-130.977,606.489 L-142.815,583.998 L-154.653,606.489 L-235.15,606.489 Z " fill="#434345" fill-opacity="1.00" />				<path d="M8.70879,393.409 L128.27,393.409 L128.27,576.895 L8.70879,576.895 L8.70879,393.409 Z " fill="#f1ecef" fill-opacity="1.00" />				<path d="M-24.437,606.489 C-24.437,563.873 15.8115,530.728 66.7139,530.728 C117.616,530.728 160.232,563.873 160.232,606.489 L79.7355,606.489 L67.8977,583.998 L56.0599,606.489 L-24.437,606.489 Z " fill="#434345" fill-opacity="1.00" />			</g>		</g>	</svg>