<?xml version="1.0" encoding="utf-8" ?>	<!-- Generator: Assembly 1.8 - http://assemblyapp.co -->	<svg version="1.1" xmlns="http://www.w3.org/2000/svg" xmlns:xlink="http://www.w3.org/1999/xlink" width="2048.00" height="2048.00" viewBox="0 0 2048.0 2048.0">		<rect x="0" y="0" width="2048.00" height="2048.00" fill="none" />		<g id="document" transform="matrix(1,0,0,1,1024.0,1024.0)">			<g>				<path d="M-154.812,393.409 L-82.4422,393.409 L-82.4422,576.895 L-154.812,576.895 L-154.812,393.409 Z " fill="#d6e6ed" fill-opacity="1.00" />				<path d="M-184.593,606.489 C-184.593,563.873 -155.839,530.728 -119.473,530.728 C-83.1072,530.728 -52.6615,563.873 -52.6615,606.489 L-110.17,606.489 L-118.627,583.998 L-127.084,606.489 L-184.593,606.489 Z " fill="#434345" fill-opacity="1.00" />				<path d="M8.70879,393.409 L81.079,393.409 L81.079,576.895 L8.70879,576.895 L8.70879,393.409 Z " fill="#f1ecef" fill-opacity="1.00" />				<path d="M-21.0719,606.489 C-21.0719,563.873 7.68243,530.728 44.0482,530.728 C80.4139,530.728 110.86,563.873 110.86,606.489 L53.3511,606.489 L44.8939,583.998 L36.4368,606.489 L-21.0719,606.489 Z " fill="#434345" fill-opacity="1.00" />			</g>		</g>	</svg>