<?xml version="1.0" encoding="utf-8" ?>	<!-- Generator: Assembly 1.8 - http://assemblyapp.co -->	<svg version="1.1" xmlns="http://www.w3.org/2000/svg" xmlns:xlink="http://www.w3.org/1999/xlink" width="2048.00" height="2048.00" viewBox="0 0 2048.0 2048.0">		<rect x="0" y="0" width="2048.00" height="2048.00" fill="none" />		<g id="document" transform="matrix(1,0,0,1,1024.0,1024.0)">			<g>				<path d="M-208.564,393.409 L-76.6326,393.409 L-76.6326,576.895 L-208.564,576.895 L-208.564,393.409 Z " fill="#d6e6ed" fill-opacity="1.00" />				<path d="M-245.798,606.489 C-245.798,563.873 -200.813,530.728 -143.921,530.728 C-87.0295,530.728 -39.3991,563.873 -39.3991,606.489 L-129.368,606.489 L-142.598,583.998 L-155.829,606.489 L-245.798,606.489 Z " fill="#434345" fill-opacity="1.00" />				<path d="M14.5183,393.409 L157.474,393.409 L157.474,576.895 L14.5183,576.895 L14.5183,393.409 Z " fill="#f1ecef" fill-opacity="1.00" />				<path d="M-17.203,606.489 C-17.203,563.873 27.7813,530.728 84.6732,530.728 C141.565,530.728 189.196,563.873 189.196,606.489 L99.2269,606.489 L85.9963,583.998 L72.7656,606.489 L-17.203,606.489 Z " fill="#434345" fill-opacity="1.00" />			</g>		</g>	</svg>